
<svg width="104" height="85" viewBox="0 0 104 85" fill="none" xmlns="http://www.w3.org/2000/svg">
<path fill-rule="evenodd" clip-rule="evenodd" d="M74.8572 0C73.7526 0 72.8572 0.895431 72.8572 2V71.8571C72.8572 72.4094 73.3049 72.8571 73.8572 72.8571H90.0715C90.6238 72.8571 91.0715 72.4094 91.0715 71.8571V2C91.0715 0.895431 90.1761 0 89.0715 0H74.8572ZM44.5 24.2857C43.3954 24.2857 42.5 25.1811 42.5 26.2857V71.8571C42.5 72.4094 42.9477 72.8571 43.5 72.8571H59.7143C60.2666 72.8571 60.7143 72.4094 60.7143 71.8571V26.2857C60.7143 25.1811 59.8189 24.2857 58.7143 24.2857H44.5ZM12.1428 38.4286C12.1428 37.324 13.0382 36.4286 14.1428 36.4286H28.3571C29.4617 36.4286 30.3571 37.324 30.3571 38.4286V71.8571C30.3571 72.4094 29.9094 72.8571 29.3571 72.8571H13.1428C12.5905 72.8571 12.1428 72.4094 12.1428 71.8571V38.4286ZM1 78.9286C0.447715 78.9286 0 79.3763 0 79.9286V84C0 84.5523 0.447713 85 0.999997 85H102.214C102.767 85 103.214 84.5523 103.214 84V79.9286C103.214 79.3763 102.767 78.9286 102.214 78.9286H1Z" fill="white"/>
</svg>
