<svg width="78" height="80" viewBox="0 0 78 80" fill="none" xmlns="http://www.w3.org/2000/svg">
<mask id="path-1-inside-1_31_95" fill="white">
<path fill-rule="evenodd" clip-rule="evenodd" d="M31.1272 13.1507C31.1272 20.4136 25.8995 26.3014 19.4507 26.3014C13.002 26.3014 7.77421 20.4136 7.77421 13.1507C7.77421 5.88776 13.002 0 19.4507 0C25.8995 0 31.1272 5.88776 31.1272 13.1507ZM-0.0078125 43.2877C-0.0078125 34.8143 6.86125 27.9452 15.3347 27.9452H23.5714C32.0448 27.9452 38.9139 34.8143 38.9139 43.2877H-0.0078125ZM70.0501 49.863C70.0501 57.1259 64.8224 63.0137 58.3736 63.0137C51.9249 63.0137 46.6971 57.1259 46.6971 49.863C46.6971 42.6001 51.9249 36.7123 58.3736 36.7123C64.8224 36.7123 70.0501 42.6001 70.0501 49.863ZM38.9119 80C38.9119 71.5266 45.781 64.6575 54.2544 64.6575H62.4912C70.9646 64.6575 77.8336 71.5266 77.8336 80H38.9119ZM44.3005 14.2166C43.9683 13.3763 44.3527 12.354 45.1994 12.0722C46.9792 11.4799 48.863 11.3519 50.706 11.7086C53.0769 12.1674 55.2737 13.4077 57.0187 15.2727C58.7636 17.1377 59.9784 19.5436 60.5093 22.1861C60.9229 24.2448 60.907 26.3751 60.4722 28.4119C60.2731 29.3444 59.3145 29.8215 58.5114 29.4744C57.7935 29.164 57.4653 28.3018 57.6308 27.4661C57.926 25.9754 57.9263 24.4232 57.6245 22.9213C57.2227 20.9213 56.3033 19.1005 54.9827 17.689C53.6621 16.2776 51.9994 15.3389 50.2051 14.9916C48.939 14.7466 47.6475 14.8038 46.4124 15.1517C45.5569 15.3927 44.6327 15.0569 44.3005 14.2166ZM25.9073 68.9792C26.7949 68.8152 27.3005 67.8482 27.0617 66.9686C26.8229 66.0889 25.9284 65.634 25.0366 65.7547C23.7828 65.9244 22.5054 65.8026 21.285 65.3889C19.5416 64.798 17.993 63.6381 16.8349 62.0558C15.6768 60.4736 14.9614 58.5402 14.7789 56.5C14.641 54.9568 14.8127 53.405 15.2744 51.957C15.5268 51.1656 15.3008 50.289 14.6325 49.8888C13.8644 49.4289 12.8371 49.7799 12.5377 50.6865C11.8924 52.6408 11.6492 54.7433 11.8361 56.8337C12.0771 59.5294 13.0225 62.0841 14.5527 64.1747C16.0828 66.2653 18.1291 67.7979 20.4326 68.5787C22.2134 69.1823 24.0862 69.3157 25.9073 68.9792Z"/>
</mask>
<path fill-rule="evenodd" clip-rule="evenodd" d="M31.1272 13.1507C31.1272 20.4136 25.8995 26.3014 19.4507 26.3014C13.002 26.3014 7.77421 20.4136 7.77421 13.1507C7.77421 5.88776 13.002 0 19.4507 0C25.8995 0 31.1272 5.88776 31.1272 13.1507ZM-0.0078125 43.2877C-0.0078125 34.8143 6.86125 27.9452 15.3347 27.9452H23.5714C32.0448 27.9452 38.9139 34.8143 38.9139 43.2877H-0.0078125ZM70.0501 49.863C70.0501 57.1259 64.8224 63.0137 58.3736 63.0137C51.9249 63.0137 46.6971 57.1259 46.6971 49.863C46.6971 42.6001 51.9249 36.7123 58.3736 36.7123C64.8224 36.7123 70.0501 42.6001 70.0501 49.863ZM38.9119 80C38.9119 71.5266 45.781 64.6575 54.2544 64.6575H62.4912C70.9646 64.6575 77.8336 71.5266 77.8336 80H38.9119ZM44.3005 14.2166C43.9683 13.3763 44.3527 12.354 45.1994 12.0722C46.9792 11.4799 48.863 11.3519 50.706 11.7086C53.0769 12.1674 55.2737 13.4077 57.0187 15.2727C58.7636 17.1377 59.9784 19.5436 60.5093 22.1861C60.9229 24.2448 60.907 26.3751 60.4722 28.4119C60.2731 29.3444 59.3145 29.8215 58.5114 29.4744C57.7935 29.164 57.4653 28.3018 57.6308 27.4661C57.926 25.9754 57.9263 24.4232 57.6245 22.9213C57.2227 20.9213 56.3033 19.1005 54.9827 17.689C53.6621 16.2776 51.9994 15.3389 50.2051 14.9916C48.939 14.7466 47.6475 14.8038 46.4124 15.1517C45.5569 15.3927 44.6327 15.0569 44.3005 14.2166ZM25.9073 68.9792C26.7949 68.8152 27.3005 67.8482 27.0617 66.9686C26.8229 66.0889 25.9284 65.634 25.0366 65.7547C23.7828 65.9244 22.5054 65.8026 21.285 65.3889C19.5416 64.798 17.993 63.6381 16.8349 62.0558C15.6768 60.4736 14.9614 58.5402 14.7789 56.5C14.641 54.9568 14.8127 53.405 15.2744 51.957C15.5268 51.1656 15.3008 50.289 14.6325 49.8888C13.8644 49.4289 12.8371 49.7799 12.5377 50.6865C11.8924 52.6408 11.6492 54.7433 11.8361 56.8337C12.0771 59.5294 13.0225 62.0841 14.5527 64.1747C16.0828 66.2653 18.1291 67.7979 20.4326 68.5787C22.2134 69.1823 24.0862 69.3157 25.9073 68.9792Z" fill="white"/>
<path d="M-0.0078125 43.2877H-1.00781V44.2877H-0.0078125V43.2877ZM38.9139 43.2877V44.2877H39.9139V43.2877H38.9139ZM38.9119 80H37.9119V81H38.9119V80ZM77.8336 80V81H78.8336V80H77.8336ZM45.1994 12.0722L45.5152 13.0211L45.1994 12.0722ZM44.3005 14.2166L45.2305 13.849L44.3005 14.2166ZM50.706 11.7086L50.896 10.7268L50.706 11.7086ZM57.0187 15.2727L56.2884 15.9559L57.0187 15.2727ZM60.5093 22.1861L59.5289 22.3831V22.3831L60.5093 22.1861ZM60.4722 28.4119L61.4501 28.6207V28.6207L60.4722 28.4119ZM58.5114 29.4744L58.1146 30.3922V30.3923L58.5114 29.4744ZM57.6308 27.4661L58.6117 27.6604V27.6604L57.6308 27.4661ZM57.6245 22.9213L58.6049 22.7243V22.7243L57.6245 22.9213ZM54.9827 17.689L55.7129 17.0058V17.0058L54.9827 17.689ZM50.2051 14.9916L50.0151 15.9734L50.2051 14.9916ZM46.4124 15.1517L46.6836 16.1143L46.6836 16.1143L46.4124 15.1517ZM27.0617 66.9686L26.0966 67.2306L27.0617 66.9686ZM25.9073 68.9792L25.7256 67.9958H25.7256L25.9073 68.9792ZM25.0366 65.7547L24.9024 64.7637L25.0366 65.7547ZM21.285 65.3889L21.606 64.4418H21.606L21.285 65.3889ZM14.7789 56.5L15.775 56.4109L14.7789 56.5ZM15.2744 51.957L14.3217 51.6531L15.2744 51.957ZM14.6325 49.8888L14.1187 50.7468L14.1187 50.7468L14.6325 49.8888ZM12.5377 50.6865L11.5881 50.373L12.5377 50.6865ZM11.8361 56.8337L12.8321 56.7447L11.8361 56.8337ZM14.5527 64.1747L13.7457 64.7653H13.7457L14.5527 64.1747ZM20.4326 68.5787L20.1116 69.5258H20.1116L20.4326 68.5787ZM19.4507 27.3014C26.5602 27.3014 32.1272 20.8508 32.1272 13.1507H30.1272C30.1272 19.9764 25.2387 25.3014 19.4507 25.3014V27.3014ZM6.77421 13.1507C6.77421 20.8508 12.3412 27.3014 19.4507 27.3014V25.3014C13.6627 25.3014 8.77421 19.9764 8.77421 13.1507H6.77421ZM19.4507 -1C12.3412 -1 6.77421 5.45056 6.77421 13.1507H8.77421C8.77421 6.32497 13.6627 1 19.4507 1V-1ZM32.1272 13.1507C32.1272 5.45056 26.5602 -1 19.4507 -1V1C25.2387 1 30.1272 6.32497 30.1272 13.1507H32.1272ZM15.3347 26.9452C6.30896 26.9452 -1.00781 34.262 -1.00781 43.2877H0.992188C0.992188 35.3666 7.41353 28.9452 15.3347 28.9452V26.9452ZM23.5714 26.9452H15.3347V28.9452H23.5714V26.9452ZM39.9139 43.2877C39.9139 34.262 32.5971 26.9452 23.5714 26.9452V28.9452C31.4925 28.9452 37.9139 35.3666 37.9139 43.2877H39.9139ZM-0.0078125 44.2877H38.9139V42.2877H-0.0078125V44.2877ZM58.3736 64.0137C65.4831 64.0137 71.0501 57.5632 71.0501 49.863H69.0501C69.0501 56.6887 64.1616 62.0137 58.3736 62.0137V64.0137ZM45.6971 49.863C45.6971 57.5632 51.2641 64.0137 58.3736 64.0137V62.0137C52.5856 62.0137 47.6971 56.6887 47.6971 49.863H45.6971ZM58.3736 35.7123C51.2641 35.7123 45.6971 42.1629 45.6971 49.863H47.6971C47.6971 43.0373 52.5856 37.7123 58.3736 37.7123V35.7123ZM71.0501 49.863C71.0501 42.1629 65.4831 35.7123 58.3736 35.7123V37.7123C64.1616 37.7123 69.0501 43.0373 69.0501 49.863H71.0501ZM54.2544 63.6575C45.2287 63.6575 37.9119 70.9743 37.9119 80H39.9119C39.9119 72.0789 46.3333 65.6575 54.2544 65.6575V63.6575ZM62.4912 63.6575H54.2544V65.6575H62.4912V63.6575ZM78.8336 80C78.8336 70.9743 71.5169 63.6575 62.4912 63.6575V65.6575C70.4123 65.6575 76.8336 72.0789 76.8336 80H78.8336ZM38.9119 81H77.8336V79H38.9119V81ZM44.8837 11.1234C43.3999 11.6172 42.865 13.3052 43.3706 14.5842L45.2305 13.849C45.1627 13.6775 45.1668 13.4782 45.2347 13.3106C45.3007 13.1476 45.4067 13.0572 45.5152 13.0211L44.8837 11.1234ZM50.896 10.7268C48.8825 10.3371 46.8246 10.4775 44.8837 11.1234L45.5152 13.0211C47.1338 12.4824 48.8435 12.3667 50.516 12.6904L50.896 10.7268ZM57.7489 14.5895C55.8686 12.58 53.4862 11.2281 50.896 10.7268L50.516 12.6904C52.6675 13.1067 54.6787 14.2355 56.2884 15.9559L57.7489 14.5895ZM61.4897 21.9891C60.9243 19.175 59.6279 16.5978 57.7489 14.5895L56.2884 15.9559C57.8993 17.6776 59.0325 19.9122 59.5289 22.3831L61.4897 21.9891ZM61.4501 28.6207C61.9134 26.4506 61.9303 24.1823 61.4897 21.9891L59.5289 22.3831C59.9155 24.3074 59.9006 26.2996 59.4942 28.2032L61.4501 28.6207ZM58.1146 30.3923C59.5145 30.9975 61.1233 30.1517 61.4501 28.6207L59.4942 28.2031C59.4229 28.5371 59.1144 28.6456 58.9082 28.5565L58.1146 30.3923ZM56.6498 27.2719C56.4226 28.4193 56.8379 29.8403 58.1146 30.3922L58.9082 28.5565C58.7492 28.4877 58.508 28.1843 58.6117 27.6604L56.6498 27.2719ZM56.6441 23.1182C56.9198 24.4905 56.9195 25.9098 56.6498 27.2719L58.6117 27.6604C58.9324 26.041 58.9327 24.3558 58.6049 22.7243L56.6441 23.1182ZM54.2525 18.3723C55.439 19.6404 56.2768 21.29 56.6441 23.1182L58.6049 22.7243C58.1686 20.5527 57.1677 18.5606 55.7129 17.0058L54.2525 18.3723ZM50.0151 15.9734C51.5901 16.2782 53.0671 17.1053 54.2525 18.3723L55.7129 17.0058C54.257 15.4498 52.4088 14.3995 50.3951 14.0098L50.0151 15.9734ZM46.6836 16.1143C47.7698 15.8082 48.9035 15.7583 50.0151 15.9734L50.3951 14.0098C48.9745 13.7349 47.5251 13.7993 46.1413 14.1892L46.6836 16.1143ZM43.3706 14.5842C43.9317 16.0037 45.4478 16.4624 46.6836 16.1143L46.1413 14.1892C45.6659 14.3231 45.3338 14.1102 45.2305 13.849L43.3706 14.5842ZM26.0966 67.2306C26.1457 67.4112 26.1175 67.6046 26.0335 67.7553C25.9525 67.9005 25.8409 67.9745 25.7256 67.9958L26.089 69.9625C27.6515 69.6738 28.3908 68.0477 28.0268 66.7066L26.0966 67.2306ZM25.1707 66.7457C25.686 66.6759 26.019 66.9445 26.0966 67.2306L28.0268 66.7066C27.6268 65.2333 26.1708 64.592 24.9024 64.7637L25.1707 66.7457ZM20.964 66.336C22.3299 66.799 23.7631 66.9362 25.1707 66.7457L24.9024 64.7637C23.8024 64.9127 22.6808 64.8062 21.606 64.4418L20.964 66.336ZM16.028 62.6465C17.2991 64.3832 19.0128 65.6746 20.964 66.336L21.606 64.4418C20.0704 63.9213 18.6868 62.8929 17.6418 61.4652L16.028 62.6465ZM13.7829 56.589C13.9808 58.802 14.7575 60.9107 16.028 62.6465L17.6418 61.4652C16.5962 60.0366 15.9419 58.2783 15.775 56.4109L13.7829 56.589ZM14.3217 51.6531C13.8192 53.2289 13.6332 54.9143 13.7829 56.589L15.775 56.4109C15.6488 54.9993 15.8061 53.5811 16.2272 52.2608L14.3217 51.6531ZM14.1187 50.7468C14.2851 50.8464 14.4734 51.1775 14.3217 51.6531L16.2272 52.2608C16.5802 51.1538 16.3164 49.7316 15.1462 49.0309L14.1187 50.7468ZM13.4873 51.0001C13.5834 50.709 13.8936 50.6119 14.1187 50.7468L15.1462 49.0309C13.8353 48.2458 12.0907 48.8507 11.5881 50.373L13.4873 51.0001ZM12.8321 56.7447C12.6573 54.789 12.8851 52.8237 13.4873 51.0001L11.5881 50.373C10.8997 52.458 10.6411 54.6975 10.8401 56.9228L12.8321 56.7447ZM15.3596 63.5841C13.9418 61.6471 13.0577 59.2676 12.8321 56.7447L10.8401 56.9228C11.0965 59.7913 12.1031 62.5212 13.7457 64.7653L15.3596 63.5841ZM20.7536 67.6316C18.6578 66.9212 16.7767 65.5201 15.3596 63.5841L13.7457 64.7653C15.389 67.0104 17.6003 68.6745 20.1116 69.5258L20.7536 67.6316ZM25.7256 67.9958C24.073 68.3012 22.3733 68.1807 20.7536 67.6316L20.1116 69.5258C22.0535 70.184 24.0993 70.3302 26.089 69.9625L25.7256 67.9958Z" fill="#95959B" mask="url(#path-1-inside-1_31_95)"/>
</svg>
