<svg width="593" height="437" viewBox="0 0 593 437" fill="none" xmlns="http://www.w3.org/2000/svg">
<path d="M229.28 22.0145C231.96 18.6502 233.957 18.7548 236.27 22.3809C238.583 26.0069 229.508 94.1255 229.508 94.1255L226.519 93.9688C226.519 93.9688 226.6 25.3789 229.28 22.0145Z" fill="#26E3C2"/>
<path d="M215.843 29.0624C217.024 26.8034 217.938 26.8194 219.04 29.1182C220.142 31.4171 216.853 75.9752 216.853 75.9752L215.485 75.9513C215.485 75.9513 214.661 31.3214 215.843 29.0624Z" fill="url(#paint0_linear_91_92)"/>
<path d="M138.694 44.3656C138.81 41.7143 139.651 41.3573 141.638 43.1161C143.625 44.8749 159.632 89.0118 159.632 89.0118L158.373 89.5461C158.373 89.5461 138.579 47.017 138.694 44.3656Z" fill="url(#paint1_linear_91_92)"/>
<path d="M74.3279 91.2393C73.1737 88.6631 73.785 87.9841 76.4677 88.8628C79.1503 89.7415 115.017 125.415 115.017 125.415L114.102 126.432C114.102 126.432 75.482 93.8155 74.3279 91.2393Z" fill="url(#paint2_linear_91_92)"/>
<path d="M35.3009 160.177C33.5742 158.415 33.8565 157.546 36.2891 157.136C38.7217 156.726 78.6481 172.339 78.6481 172.339L78.2255 173.64C78.2255 173.64 37.0276 161.939 35.3009 160.177Z" fill="url(#paint3_linear_91_92)"/>
<path d="M30.4347 237.191C28.1912 236.165 28.1433 235.253 30.2673 233.998C32.3912 232.743 75.2611 233.011 75.2611 233.011L75.3327 234.377C75.3327 234.377 32.6781 238.217 30.4347 237.191Z" fill="url(#paint4_linear_91_92)"/>
<path d="M55.6571 312.085C52.9192 312.347 52.4624 311.555 54.0582 309.315C55.654 307.075 99.3177 284.766 99.3177 284.766L100.002 285.95C100.002 285.95 58.3951 311.823 55.6571 312.085Z" fill="url(#paint5_linear_91_92)"/>
<path d="M107.536 370.556C105.118 371.867 104.388 371.317 104.982 368.632C105.576 365.946 137.051 328.349 137.051 328.349L138.143 329.172C138.143 329.172 109.954 369.245 107.536 370.556Z" fill="url(#paint6_linear_91_92)"/>
<path d="M180.734 399.023C179.082 400.926 178.196 400.705 177.631 398.249C177.066 395.794 190.137 353.749 190.137 353.749L191.464 354.08C191.464 354.08 182.385 397.12 180.734 399.023Z" fill="url(#paint7_linear_91_92)"/>
<path d="M258.861 400.779C258.169 403.202 257.272 403.376 255.722 401.389C254.173 399.403 248.25 355.773 248.25 355.773L249.593 355.512C249.593 355.512 259.554 398.356 258.861 400.779Z" fill="url(#paint8_linear_91_92)"/>
<path d="M329.71 369.319C329.975 371.825 329.209 372.323 327.028 371.061C324.847 369.799 303.012 331.566 303.012 331.566L304.159 330.821C304.159 330.821 329.445 366.814 329.71 369.319Z" fill="url(#paint9_linear_91_92)"/>
<path d="M292.573 45.0535C294.662 43.3751 295.484 43.7756 295.447 46.4553C295.411 49.1351 272.353 90.6824 272.353 90.6824L271.123 90.0829C271.123 90.0829 290.483 46.7319 292.573 45.0535Z" fill="url(#paint10_linear_91_92)"/>
<path d="M357.591 89.7556C360.008 89.0662 360.567 89.7096 359.548 92.0076C358.529 94.3056 323.361 121.772 323.361 121.772L322.523 120.809C322.523 120.809 355.173 90.4449 357.591 89.7556Z" fill="url(#paint11_linear_91_92)"/>
<path d="M183.297 4.28876C185.23 -0.491011 187.214 -0.734732 190.245 3.43569C193.276 7.6061 198.573 95.8597 198.573 95.8597L195.602 96.2245C195.602 96.2245 181.365 9.06853 183.297 4.28876Z" fill="#26E3C2"/>
<path d="M152.418 36.3723C153.685 32.3716 155.575 31.7205 159.036 34.0934C162.497 36.4662 178.774 100.624 178.774 100.624L175.944 101.598C175.944 101.598 151.151 40.3729 152.418 36.3723Z" fill="#26E3C2"/>
<path d="M172.728 47.1746C174.528 44.0602 176.469 43.5764 179.52 45.4812C182.571 47.3861 189.483 97.8325 189.483 97.8325L186.579 98.5567C186.579 98.5567 170.928 50.2891 172.728 47.1746Z" fill="#FF334D"/>
<path d="M244.826 42.4026C247.7 40.2392 249.675 40.552 251.739 43.4976C253.804 46.4433 240.455 95.5802 240.455 95.5802L237.499 95.112C237.499 95.112 241.951 44.5661 244.826 42.4026Z" fill="#FF334D"/>
<path d="M313.14 69.3205C316.587 68.6034 318.264 69.6925 319.01 73.1329C319.757 76.5732 288.725 114.265 288.725 114.265L286.214 112.635C286.214 112.635 309.693 70.0377 313.14 69.3205Z" fill="#FF334D"/>
<path d="M105.559 80.4739C105.812 76.8855 107.344 75.6 110.922 75.9745C114.499 76.349 142.826 118.66 142.826 118.66L140.533 120.584C140.533 120.584 105.307 84.0623 105.559 80.4739Z" fill="#FF334D"/>
<path d="M59.4304 136.824C58.261 133.422 59.1688 131.64 62.6082 130.587C66.0476 129.534 108.655 157.413 108.655 157.413L107.296 160.08C107.296 160.08 60.5999 140.226 59.4304 136.824Z" fill="#FF334D"/>
<path d="M38.6829 209.014C36.1853 206.425 36.2551 204.426 38.9272 202.018C41.5993 199.61 91.9967 206.871 91.9967 206.871L91.8923 209.862C91.8923 209.862 41.1805 211.603 38.6829 209.014Z" fill="#FF334D"/>
<path d="M50.1676 281.557C46.8569 280.15 46.1403 278.283 47.6591 275.022C49.1779 271.761 98.4058 258.753 98.4058 258.753L99.4786 261.547C99.4786 261.547 53.4782 282.964 50.1676 281.557Z" fill="#FF334D"/>
<path d="M93.2042 340.991C89.7689 340.833 88.3797 339.394 88.3418 335.956C88.3038 332.517 125.366 304.369 125.366 304.369L127.445 306.522C127.445 306.522 96.6396 341.149 93.2042 340.991Z" fill="#FF334D"/>
<path d="M156.119 380.599C152.998 381.865 151.119 381.181 149.542 378.205C147.965 375.229 168.24 335.594 168.24 335.594L171.053 336.618C171.053 336.618 159.241 379.333 156.119 380.599Z" fill="#FF334D"/>
<path d="M227.686 391.766C225.307 394.151 223.31 394.256 220.695 392.132C218.081 390.009 221.258 345.603 221.258 345.603L224.248 345.446C224.248 345.446 230.064 389.381 227.686 391.766Z" fill="#FF334D"/>
<path d="M296.847 373.477C295.59 376.602 293.792 377.478 290.556 376.545C287.32 375.612 272.894 333.495 272.894 333.495L275.584 332.182C275.584 332.182 298.105 370.352 296.847 373.477Z" fill="#FF334D"/>
<path d="M355.13 327.763C354.496 330.466 353.237 332.02 350.725 333.203C348.213 334.385 329.116 314.346 329.116 314.346L338.614 314.346C338.614 314.346 355.764 325.06 355.13 327.763Z" fill="#FF334D"/>
<path d="M98.3853 37.8106C98.1202 32.6682 99.8161 31.6085 104.321 34.1013C108.827 36.594 150.851 114.22 150.851 114.22L148.312 115.806C148.312 115.806 98.6504 42.953 98.3853 37.8106Z" fill="#26E3C2"/>
<path d="M81.7691 77.7912C81.1777 73.5796 82.6162 72.1904 86.8043 72.9287C90.9924 73.667 133.812 125.921 133.812 125.921L131.659 128.001C131.659 128.001 82.3605 82.0028 81.7691 77.7912Z" fill="#26E3C2"/>
<path d="M35.7601 101.331C33.4555 96.7609 34.5738 95.103 39.6744 95.5281C44.7749 95.9532 114.168 149.391 114.168 149.391L112.495 151.872C112.495 151.872 38.0647 105.901 35.7601 101.331Z" fill="#26E3C2"/>
<path d="M37.3091 145.393C35.1015 141.805 35.8507 139.951 39.9312 138.903C44.0118 137.856 103.488 167.814 103.488 167.814L102.367 170.59C102.367 170.59 39.5166 148.982 37.3091 145.393Z" fill="#26E3C2"/>
<path d="M3.45622 185.476C-0.509796 182.238 -0.162556 180.268 4.67171 178.582C9.50597 176.896 94.6693 197.495 94.6693 197.495L94.1495 200.443C94.1495 200.443 7.42225 188.714 3.45622 185.476Z" fill="#26E3C2"/>
<path d="M24.1117 222.4C20.7818 219.768 20.7818 217.663 24.1117 215.032C27.4417 212.401 92.6143 218.187 92.6143 218.187V221.338C92.6143 221.338 27.4417 225.032 24.1117 222.4Z" fill="#26E3C2"/>
<path d="M9.77515 273.24C4.9622 271.65 4.48869 269.599 8.11773 266.061C11.7468 262.523 95.6585 249.089 95.6585 249.089L96.3673 252.159C96.3673 252.159 14.5881 274.83 9.77515 273.24Z" fill="#26E3C2"/>
<path d="M43.3857 302.216C39.2951 301.22 38.4055 299.312 40.2719 295.538C42.1383 291.765 102.875 269.827 102.875 269.827L104.207 272.683C104.207 272.683 47.4763 303.212 43.3857 302.216Z" fill="#26E3C2"/>
<path d="M50.4036 353.293C45.3676 353.793 44.1008 352.112 45.9695 347.409C47.8381 342.706 118.885 296.414 118.885 296.414L120.781 298.93C120.781 298.93 55.4396 352.794 50.4036 353.293Z" fill="#26E3C2"/>
<path d="M92.3077 366.604C88.1675 367.355 86.5789 365.974 86.7471 361.77C86.9153 357.566 133.439 312.866 133.439 312.866L135.817 314.933C135.817 314.933 96.4479 365.853 92.3077 366.604Z" fill="#26E3C2"/>
<path d="M120.778 410.765C116.422 413.352 114.563 412.363 114.272 407.306C113.982 402.248 158.87 330.149 158.87 330.149L161.652 331.629C161.652 331.629 125.134 408.177 120.778 410.765Z" fill="#26E3C2"/>
<path d="M163.487 403.547C160.075 405.899 158.051 405.319 156.404 401.517C154.757 397.715 177.586 339.092 177.586 339.092L180.615 339.961C180.615 339.961 166.899 401.196 163.487 403.547Z" fill="#26E3C2"/>
<path d="M208.318 433.011C205.397 437.062 203.297 436.915 200.968 432.497C198.64 428.08 210.207 345.614 210.207 345.614L213.35 345.834C213.35 345.834 211.24 428.961 208.318 433.011Z" fill="#26E3C2"/>
<path d="M243.379 408.966C241.153 412.424 239.063 412.681 236.066 409.864C233.07 407.048 231.274 344.941 231.274 344.941L234.401 344.557C234.401 344.557 245.606 405.508 243.379 408.966Z" fill="#26E3C2"/>
<path d="M295.692 417.747C294.654 422.589 292.676 423.308 288.769 420.267C284.862 417.226 262.224 338.111 262.224 338.111L265.185 337.033C265.185 337.033 296.731 412.906 295.692 417.747Z" fill="#26E3C2"/>
<path d="M321.141 379.406C320.624 383.442 318.859 384.588 314.962 383.418C311.065 382.249 282.836 328.156 282.836 328.156L285.478 326.44C285.478 326.44 321.658 375.369 321.141 379.406Z" fill="#26E3C2"/>
<path d="M372.654 367.36C373.435 371.863 371.947 373.351 367.444 372.57C362.942 371.789 313.614 314.346 313.614 314.346L317.614 314.346C317.614 314.346 371.873 362.858 372.654 367.36Z" fill="#26E3C2"/>
<path d="M378.589 326.627C379.563 330.407 377.53 332.727 373.822 332.727C370.115 332.727 351.114 314.346 351.114 314.346L361.615 314.346C361.615 314.346 377.614 322.846 378.589 326.627Z" fill="#26E3C2"/>
<path d="M272.218 9.79819C275.91 6.27676 277.822 6.86142 278.912 11.8447C280.003 16.828 249.301 98.447 249.301 98.447L246.438 97.5718C246.438 97.5718 268.527 13.3196 272.218 9.79819Z" fill="#26E3C2"/>
<path d="M308.194 45.8181C311.995 43.9943 313.761 44.9332 314.374 49.1042C314.988 53.2753 278.941 109.36 278.941 109.36L276.298 107.955C276.298 107.955 304.393 47.6418 308.194 45.8181Z" fill="#26E3C2"/>
<path d="M348.586 47.2182C353.308 45.3594 354.862 46.6179 354.026 51.6233C353.189 56.6287 294.52 120.343 294.52 120.343L292.194 118.459C292.194 118.459 343.863 49.077 348.586 47.2182Z" fill="#26E3C2"/>
<path d="M365.493 61.3238C370.383 59.9689 371.797 61.3829 370.442 66.2734C369.087 71.164 304.08 128.397 304.08 128.397L301.963 126.28C301.963 126.28 360.602 62.6788 365.493 61.3238Z" fill="#45A0F5"/>
<path d="M287.802 22.3881C291.644 19.5523 293.498 20.3014 294.292 25.0102C295.085 29.719 260.159 101.491 260.159 101.491L257.383 100.37C257.383 100.37 283.959 25.2238 287.802 22.3881Z" fill="#45A0F5"/>
<path d="M202.619 10.6627C204.976 6.50925 206.974 6.43944 209.615 10.4184C212.255 14.3973 209.54 94.1702 209.54 94.1702L206.548 94.2746C206.548 94.2746 200.262 14.8161 202.619 10.6627Z" fill="#45A0F5"/>
<path d="M117.84 35.6326C118.138 30.8664 119.904 29.9275 124.021 32.3463C128.138 34.7652 160.668 107.655 160.668 107.655L158.025 109.06C158.025 109.06 117.543 40.3987 117.84 35.6326Z" fill="#45A0F5"/>
<path d="M53.5296 90.1689C52.02 85.6383 53.3054 84.1064 58.029 84.8068C62.7526 85.5071 120.219 140.903 120.219 140.903L118.295 143.196C118.295 143.196 55.0393 94.6995 53.5296 90.1689Z" fill="#45A0F5"/>
<path d="M14.7944 168.527C11.5115 165.059 12.0291 163.127 16.6061 161.765C21.1831 160.404 96.6765 186.323 96.6765 186.323L95.9017 189.215C95.9017 189.215 18.0773 171.995 14.7944 168.527Z" fill="#45A0F5"/>
<path d="M14.0384 252.838C9.8151 250.838 9.57138 248.853 13.1853 245.891C16.7993 242.928 94.1619 238.968 94.1619 238.968L94.5267 241.939C94.5267 241.939 18.2617 254.839 14.0384 252.838Z" fill="#45A0F5"/>
<path d="M46.5578 333.013C41.9517 332.942 40.892 331.247 42.8485 327.076C44.8049 322.906 111.935 287.441 111.935 287.441L113.521 289.979C113.521 289.979 51.1639 333.083 46.5578 333.013Z" fill="#45A0F5"/>
<path d="M107.581 393.61C103.344 395.419 101.686 394.301 101.778 389.696C101.869 385.09 148.77 325.387 148.77 325.387L151.252 327.061C151.252 327.061 111.817 391.8 107.581 393.61Z" fill="#45A0F5"/>
<path d="M191.083 421.27C188.03 424.56 186.055 424.247 184.169 420.175C182.283 416.103 199.124 344.917 199.124 344.917L202.08 345.385C202.08 345.385 194.135 417.98 191.083 421.27Z" fill="#45A0F5"/>
<path d="M275.587 415.957C274.063 420.178 272.123 420.662 268.795 417.65C265.468 414.639 253.155 342.532 253.155 342.532L256.06 341.808C256.06 341.808 277.112 411.736 275.587 415.957Z" fill="#45A0F5"/>
<path d="M351.811 374.496C352.213 378.966 350.659 380.225 346.371 378.901C342.083 377.578 300.45 317.431 300.45 317.431L302.776 315.547C302.776 315.547 351.408 370.026 351.811 374.496Z" fill="#45A0F5"/>
<path d="M370.06 96.3923C373.669 96.6868 374.927 98.2409 374.465 101.832C374.002 105.423 333.614 131.346 333.614 131.346L327.614 131.346C327.614 131.346 366.45 96.0977 370.06 96.3923Z" fill="#26E3C2"/>
<path d="M383.154 143.482C385.817 144.832 386.817 146.563 386.654 149.544C386.491 152.524 358.132 162.811 358.132 162.811L353.729 160.993C353.729 160.993 380.491 142.132 383.154 143.482Z" fill="#26E3C2"/>
<path d="M361.917 135.251C364.25 136.67 365.397 138.308 365.932 140.985C366.467 143.663 347.958 149.404 347.958 149.404L342.958 149.404C342.958 149.404 359.584 133.833 361.917 135.251Z" fill="#FF334D"/>
<path d="M254.477 216.344L257.406 211.609C258.484 212.453 259.523 213.156 260.523 213.719C261.523 214.266 262.531 214.672 263.547 214.938C264.562 215.203 265.594 215.336 266.641 215.336C267.984 215.336 269.148 215.133 270.133 214.727C271.133 214.305 271.906 213.727 272.453 212.992C273 212.258 273.273 211.398 273.273 210.414C273.273 209.305 272.938 208.383 272.266 207.648C271.609 206.898 270.742 206.258 269.664 205.727C268.586 205.18 267.43 204.648 266.195 204.133C265.07 203.664 263.93 203.156 262.773 202.609C261.633 202.062 260.594 201.414 259.656 200.664C258.719 199.898 257.961 198.977 257.383 197.898C256.82 196.82 256.539 195.516 256.539 193.984C256.539 192 257.039 190.273 258.039 188.805C259.039 187.32 260.422 186.18 262.188 185.383C263.953 184.57 265.969 184.164 268.234 184.164C269.828 184.164 271.461 184.375 273.133 184.797C274.82 185.203 276.484 185.828 278.125 186.672L275.664 191.664C274.555 191.008 273.375 190.5 272.125 190.141C270.875 189.766 269.68 189.578 268.539 189.578C267.414 189.578 266.422 189.758 265.562 190.117C264.719 190.461 264.055 190.961 263.57 191.617C263.102 192.258 262.867 193.008 262.867 193.867C262.867 194.883 263.18 195.742 263.805 196.445C264.445 197.148 265.281 197.773 266.312 198.32C267.344 198.852 268.445 199.375 269.617 199.891C270.789 200.406 271.961 200.961 273.133 201.555C274.32 202.133 275.398 202.82 276.367 203.617C277.352 204.414 278.133 205.367 278.711 206.477C279.305 207.586 279.602 208.922 279.602 210.484C279.602 212.516 279.07 214.305 278.008 215.852C276.961 217.383 275.484 218.578 273.578 219.438C271.672 220.281 269.445 220.703 266.898 220.703C264.617 220.703 262.43 220.336 260.336 219.602C258.242 218.867 256.289 217.781 254.477 216.344ZM298.539 220H292.352V190.281H281.664V184.844H309.203V190.281H298.539V220ZM314.219 220H307.727L321.883 184.844H328.469L342.602 220H336.109L332.898 211.797H317.43L314.219 220ZM319.469 206.383H330.859L325.164 191.828L319.469 206.383ZM374.852 220H367.984L360.273 206.781H352.633V220H346.445V184.844H360.391C363.125 184.844 365.461 185.281 367.398 186.156C369.336 187.031 370.828 188.289 371.875 189.93C372.922 191.555 373.445 193.516 373.445 195.812C373.445 198.25 372.844 200.32 371.641 202.023C370.438 203.711 368.734 204.945 366.531 205.727L374.852 220ZM352.633 201.719H359.945C362.211 201.719 363.969 201.219 365.219 200.219C366.484 199.219 367.117 197.812 367.117 196C367.117 194.188 366.492 192.781 365.242 191.781C363.992 190.781 362.227 190.281 359.945 190.281H352.633V201.719ZM379.211 220V184.844H392.055C395.68 184.844 398.508 185.641 400.539 187.234C402.586 188.812 403.609 191.008 403.609 193.82C403.609 195.648 403.172 197.258 402.297 198.648C401.422 200.023 400.25 201.047 398.781 201.719C400.828 202.281 402.43 203.297 403.586 204.766C404.742 206.234 405.32 208.039 405.32 210.18C405.32 212.148 404.836 213.875 403.867 215.359C402.898 216.828 401.531 217.969 399.766 218.781C398.016 219.594 395.953 220 393.578 220H379.211ZM385.398 199.82H391.727C393.508 199.82 394.914 199.391 395.945 198.531C396.977 197.656 397.492 196.477 397.492 194.992C397.492 193.539 396.961 192.391 395.898 191.547C394.852 190.703 393.414 190.281 391.586 190.281H385.398V199.82ZM385.398 214.562H392.078C393.484 214.562 394.703 214.352 395.734 213.93C396.766 213.492 397.562 212.891 398.125 212.125C398.703 211.344 398.992 210.43 398.992 209.383C398.992 208.367 398.727 207.492 398.195 206.758C397.664 206.008 396.914 205.438 395.945 205.047C394.977 204.641 393.82 204.438 392.477 204.438H385.398V214.562ZM440.406 184.844V204.227C440.406 207.633 439.797 210.57 438.578 213.039C437.375 215.508 435.641 217.406 433.375 218.734C431.109 220.047 428.398 220.703 425.242 220.703C422.102 220.703 419.398 220.047 417.133 218.734C414.867 217.406 413.125 215.508 411.906 213.039C410.703 210.57 410.102 207.633 410.102 204.227V184.844H416.289V203.523C416.289 206.07 416.633 208.219 417.32 209.969C418.008 211.719 419.016 213.039 420.344 213.93C421.688 214.82 423.32 215.266 425.242 215.266C427.18 215.266 428.812 214.82 430.141 213.93C431.484 213.039 432.5 211.719 433.188 209.969C433.875 208.219 434.219 206.07 434.219 203.523V184.844H440.406ZM475.07 220H468.203L460.492 206.781H452.852V220H446.664V184.844H460.609C463.344 184.844 465.68 185.281 467.617 186.156C469.555 187.031 471.047 188.289 472.094 189.93C473.141 191.555 473.664 193.516 473.664 195.812C473.664 198.25 473.062 200.32 471.859 202.023C470.656 203.711 468.953 204.945 466.75 205.727L475.07 220ZM452.852 201.719H460.164C462.43 201.719 464.188 201.219 465.438 200.219C466.703 199.219 467.336 197.812 467.336 196C467.336 194.188 466.711 192.781 465.461 191.781C464.211 190.781 462.445 190.281 460.164 190.281H452.852V201.719ZM477.789 216.344L480.719 211.609C481.797 212.453 482.836 213.156 483.836 213.719C484.836 214.266 485.844 214.672 486.859 214.938C487.875 215.203 488.906 215.336 489.953 215.336C491.297 215.336 492.461 215.133 493.445 214.727C494.445 214.305 495.219 213.727 495.766 212.992C496.312 212.258 496.586 211.398 496.586 210.414C496.586 209.305 496.25 208.383 495.578 207.648C494.922 206.898 494.055 206.258 492.977 205.727C491.898 205.18 490.742 204.648 489.508 204.133C488.383 203.664 487.242 203.156 486.086 202.609C484.945 202.062 483.906 201.414 482.969 200.664C482.031 199.898 481.273 198.977 480.695 197.898C480.133 196.82 479.852 195.516 479.852 193.984C479.852 192 480.352 190.273 481.352 188.805C482.352 187.32 483.734 186.18 485.5 185.383C487.266 184.57 489.281 184.164 491.547 184.164C493.141 184.164 494.773 184.375 496.445 184.797C498.133 185.203 499.797 185.828 501.438 186.672L498.977 191.664C497.867 191.008 496.688 190.5 495.438 190.141C494.188 189.766 492.992 189.578 491.852 189.578C490.727 189.578 489.734 189.758 488.875 190.117C488.031 190.461 487.367 190.961 486.883 191.617C486.414 192.258 486.18 193.008 486.18 193.867C486.18 194.883 486.492 195.742 487.117 196.445C487.758 197.148 488.594 197.773 489.625 198.32C490.656 198.852 491.758 199.375 492.93 199.891C494.102 200.406 495.273 200.961 496.445 201.555C497.633 202.133 498.711 202.82 499.68 203.617C500.664 204.414 501.445 205.367 502.023 206.477C502.617 207.586 502.914 208.922 502.914 210.484C502.914 212.516 502.383 214.305 501.32 215.852C500.273 217.383 498.797 218.578 496.891 219.438C494.984 220.281 492.758 220.703 490.211 220.703C487.93 220.703 485.742 220.336 483.648 219.602C481.555 218.867 479.602 217.781 477.789 216.344ZM521.852 220H515.664V190.281H504.977V184.844H532.516V190.281H521.852V220Z" fill="#040414"/>
<path d="M255.338 301V274.633H259.979V301H255.338ZM271.949 301.141C270.32 301.141 268.867 300.748 267.59 299.963C266.312 299.178 265.305 298.105 264.566 296.746C263.828 295.375 263.459 293.828 263.459 292.105C263.459 290.371 263.828 288.824 264.566 287.465C265.305 286.105 266.312 285.033 267.59 284.248C268.867 283.463 270.32 283.07 271.949 283.07C273.227 283.07 274.404 283.316 275.482 283.809C276.561 284.301 277.475 284.986 278.225 285.865L278.436 283.422H282.232V300.525C282.232 302.471 281.816 304.164 280.984 305.605C280.164 307.047 279.004 308.16 277.504 308.945C276.004 309.742 274.229 310.141 272.178 310.141C269.33 310.141 266.781 309.232 264.531 307.416L266.307 303.883C267.877 305.465 269.74 306.256 271.896 306.256C273.115 306.256 274.17 306.01 275.061 305.518C275.963 305.037 276.66 304.352 277.152 303.461C277.656 302.582 277.908 301.551 277.908 300.367V298.68C277.158 299.453 276.273 300.057 275.254 300.49C274.234 300.924 273.133 301.141 271.949 301.141ZM272.898 297.291C273.824 297.291 274.662 297.086 275.412 296.676C276.174 296.254 276.777 295.68 277.223 294.953C277.68 294.227 277.908 293.4 277.908 292.475V291.701C277.908 290.775 277.68 289.955 277.223 289.24C276.777 288.525 276.174 287.963 275.412 287.553C274.65 287.131 273.812 286.92 272.898 286.92C271.938 286.92 271.076 287.148 270.314 287.605C269.553 288.051 268.949 288.666 268.504 289.451C268.07 290.236 267.854 291.121 267.854 292.105C267.854 293.09 268.07 293.975 268.504 294.76C268.949 295.545 269.553 296.166 270.314 296.623C271.076 297.068 271.938 297.291 272.898 297.291ZM303.906 301H299.582V291.525C299.582 290.107 299.225 288.994 298.51 288.186C297.807 287.377 296.828 286.973 295.574 286.973C294.695 286.973 293.916 287.178 293.236 287.588C292.557 287.986 292.023 288.561 291.637 289.311C291.25 290.061 291.057 290.934 291.057 291.93V301H286.732V283.422H290.301L290.441 286.252C291.074 285.221 291.936 284.436 293.025 283.896C294.115 283.346 295.357 283.07 296.752 283.07C298.967 283.07 300.713 283.744 301.99 285.092C303.268 286.439 303.906 288.285 303.906 290.629V301ZM310.445 278.764C309.836 278.764 309.32 278.553 308.898 278.131C308.488 277.697 308.283 277.176 308.283 276.566C308.283 275.969 308.488 275.459 308.898 275.037C309.32 274.604 309.836 274.387 310.445 274.387C311.066 274.387 311.588 274.604 312.01 275.037C312.432 275.459 312.643 275.969 312.643 276.566C312.643 277.176 312.432 277.697 312.01 278.131C311.588 278.553 311.066 278.764 310.445 278.764ZM312.607 301H308.283V283.422H312.607V301ZM328.938 300.543C327.648 301.082 326.4 301.352 325.193 301.352C323.963 301.352 322.879 301.088 321.941 300.561C321.016 300.033 320.289 299.301 319.762 298.363C319.246 297.414 318.988 296.312 318.988 295.059V287.289H315.912V283.422H319.217V279.027H323.312V283.422H328.322V287.289H323.312V294.268C323.312 295.264 323.582 296.049 324.121 296.623C324.672 297.197 325.357 297.484 326.178 297.484C326.904 297.484 327.625 297.262 328.34 296.816L328.938 300.543ZM333.859 278.764C333.25 278.764 332.734 278.553 332.312 278.131C331.902 277.697 331.697 277.176 331.697 276.566C331.697 275.969 331.902 275.459 332.312 275.037C332.734 274.604 333.25 274.387 333.859 274.387C334.48 274.387 335.002 274.604 335.424 275.037C335.846 275.459 336.057 275.969 336.057 276.566C336.057 277.176 335.846 277.697 335.424 278.131C335.002 278.553 334.48 278.764 333.859 278.764ZM336.021 301H331.697V283.422H336.021V301ZM357.941 301H353.617V291.525C353.617 290.107 353.26 288.994 352.545 288.186C351.842 287.377 350.863 286.973 349.609 286.973C348.73 286.973 347.951 287.178 347.271 287.588C346.592 287.986 346.059 288.561 345.672 289.311C345.285 290.061 345.092 290.934 345.092 291.93V301H340.768V283.422H344.336L344.477 286.252C345.109 285.221 345.971 284.436 347.061 283.896C348.15 283.346 349.393 283.07 350.787 283.07C353.002 283.07 354.748 283.744 356.025 285.092C357.303 286.439 357.941 288.285 357.941 290.629V301ZM369.578 301.141C367.949 301.141 366.496 300.748 365.219 299.963C363.941 299.178 362.934 298.105 362.195 296.746C361.457 295.375 361.088 293.828 361.088 292.105C361.088 290.371 361.457 288.824 362.195 287.465C362.934 286.105 363.941 285.033 365.219 284.248C366.496 283.463 367.949 283.07 369.578 283.07C370.855 283.07 372.033 283.316 373.111 283.809C374.189 284.301 375.104 284.986 375.854 285.865L376.064 283.422H379.861V300.525C379.861 302.471 379.445 304.164 378.613 305.605C377.793 307.047 376.633 308.16 375.133 308.945C373.633 309.742 371.857 310.141 369.807 310.141C366.959 310.141 364.41 309.232 362.16 307.416L363.936 303.883C365.506 305.465 367.369 306.256 369.525 306.256C370.744 306.256 371.799 306.01 372.689 305.518C373.592 305.037 374.289 304.352 374.781 303.461C375.285 302.582 375.537 301.551 375.537 300.367V298.68C374.787 299.453 373.902 300.057 372.883 300.49C371.863 300.924 370.762 301.141 369.578 301.141ZM370.527 297.291C371.453 297.291 372.291 297.086 373.041 296.676C373.803 296.254 374.406 295.68 374.852 294.953C375.309 294.227 375.537 293.4 375.537 292.475V291.701C375.537 290.775 375.309 289.955 374.852 289.24C374.406 288.525 373.803 287.963 373.041 287.553C372.279 287.131 371.441 286.92 370.527 286.92C369.566 286.92 368.705 287.148 367.943 287.605C367.182 288.051 366.578 288.666 366.133 289.451C365.699 290.236 365.482 291.121 365.482 292.105C365.482 293.09 365.699 293.975 366.133 294.76C366.578 295.545 367.182 296.166 367.943 296.623C368.705 297.068 369.566 297.291 370.527 297.291ZM401.096 301V274.633H405.736V301H401.096ZM427.586 301H423.262V291.525C423.262 290.107 422.904 288.994 422.189 288.186C421.486 287.377 420.508 286.973 419.254 286.973C418.375 286.973 417.596 287.178 416.916 287.588C416.236 287.986 415.703 288.561 415.316 289.311C414.93 290.061 414.736 290.934 414.736 291.93V301H410.412V283.422H413.98L414.121 286.252C414.754 285.221 415.615 284.436 416.705 283.896C417.795 283.346 419.037 283.07 420.432 283.07C422.646 283.07 424.393 283.744 425.67 285.092C426.947 286.439 427.586 288.285 427.586 290.629V301ZM449.102 301H444.777V291.525C444.777 290.107 444.42 288.994 443.705 288.186C443.002 287.377 442.023 286.973 440.77 286.973C439.891 286.973 439.111 287.178 438.432 287.588C437.752 287.986 437.219 288.561 436.832 289.311C436.445 290.061 436.252 290.934 436.252 291.93V301H431.928V283.422H435.496L435.637 286.252C436.27 285.221 437.131 284.436 438.221 283.896C439.311 283.346 440.553 283.07 441.947 283.07C444.162 283.07 445.908 283.744 447.186 285.092C448.463 286.439 449.102 288.285 449.102 290.629V301ZM461.6 301.352C459.818 301.352 458.219 300.953 456.801 300.156C455.395 299.359 454.281 298.275 453.461 296.904C452.652 295.521 452.248 293.957 452.248 292.211C452.248 290.465 452.652 288.906 453.461 287.535C454.281 286.152 455.395 285.062 456.801 284.266C458.219 283.469 459.818 283.07 461.6 283.07C463.393 283.07 464.992 283.469 466.398 284.266C467.805 285.062 468.906 286.152 469.703 287.535C470.512 288.906 470.916 290.465 470.916 292.211C470.916 293.957 470.512 295.521 469.703 296.904C468.906 298.275 467.805 299.359 466.398 300.156C464.992 300.953 463.393 301.352 461.6 301.352ZM461.582 297.467C462.52 297.467 463.357 297.238 464.096 296.781C464.834 296.324 465.414 295.697 465.836 294.9C466.27 294.104 466.486 293.201 466.486 292.193C466.486 291.197 466.27 290.307 465.836 289.521C465.414 288.725 464.834 288.098 464.096 287.641C463.357 287.184 462.52 286.955 461.582 286.955C460.656 286.955 459.818 287.184 459.068 287.641C458.33 288.098 457.744 288.725 457.311 289.521C456.889 290.307 456.678 291.197 456.678 292.193C456.678 293.201 456.889 294.104 457.311 294.9C457.744 295.697 458.33 296.324 459.068 296.781C459.818 297.238 460.656 297.467 461.582 297.467ZM491.148 283.422L483.889 301H479.705L472.463 283.422H477.104L481.814 296.605L486.543 283.422H491.148ZM509.096 301H505.334L505.088 298.838C504.443 299.635 503.641 300.256 502.68 300.701C501.719 301.135 500.652 301.352 499.48 301.352C498.238 301.352 497.131 301.111 496.158 300.631C495.186 300.139 494.418 299.471 493.855 298.627C493.305 297.783 493.029 296.822 493.029 295.744C493.029 294.607 493.328 293.611 493.926 292.756C494.535 291.889 495.361 291.209 496.404 290.717C497.459 290.225 498.66 289.979 500.008 289.979C500.828 289.979 501.648 290.072 502.469 290.26C503.301 290.447 504.068 290.711 504.771 291.051V290.488C504.771 289.715 504.561 289.047 504.139 288.484C503.717 287.922 503.148 287.488 502.434 287.184C501.719 286.867 500.916 286.709 500.025 286.709C499.217 286.709 498.408 286.85 497.6 287.131C496.791 287.4 496.035 287.805 495.332 288.344L494.102 284.951C495.227 284.33 496.375 283.861 497.547 283.545C498.73 283.229 499.885 283.07 501.01 283.07C502.662 283.07 504.092 283.398 505.299 284.055C506.506 284.699 507.438 285.625 508.094 286.832C508.762 288.027 509.096 289.439 509.096 291.068V301ZM500.377 297.871C501.139 297.871 501.842 297.713 502.486 297.396C503.143 297.08 503.676 296.641 504.086 296.078C504.508 295.504 504.73 294.848 504.754 294.109V293.916C504.203 293.518 503.582 293.213 502.891 293.002C502.199 292.779 501.502 292.668 500.799 292.668C499.721 292.668 498.836 292.914 498.145 293.406C497.453 293.887 497.107 294.52 497.107 295.305C497.107 295.785 497.248 296.225 497.529 296.623C497.811 297.01 498.197 297.314 498.689 297.537C499.193 297.76 499.756 297.871 500.377 297.871ZM524.477 300.543C523.188 301.082 521.939 301.352 520.732 301.352C519.502 301.352 518.418 301.088 517.48 300.561C516.555 300.033 515.828 299.301 515.301 298.363C514.785 297.414 514.527 296.312 514.527 295.059V287.289H511.451V283.422H514.756V279.027H518.852V283.422H523.861V287.289H518.852V294.268C518.852 295.264 519.121 296.049 519.66 296.623C520.211 297.197 520.896 297.484 521.717 297.484C522.443 297.484 523.164 297.262 523.879 296.816L524.477 300.543ZM529.398 278.764C528.789 278.764 528.273 278.553 527.852 278.131C527.441 277.697 527.236 277.176 527.236 276.566C527.236 275.969 527.441 275.459 527.852 275.037C528.273 274.604 528.789 274.387 529.398 274.387C530.02 274.387 530.541 274.604 530.963 275.037C531.385 275.459 531.596 275.969 531.596 276.566C531.596 277.176 531.385 277.697 530.963 278.131C530.541 278.553 530.02 278.764 529.398 278.764ZM531.561 301H527.236V283.422H531.561V301ZM544.463 301.352C542.682 301.352 541.082 300.953 539.664 300.156C538.258 299.359 537.145 298.275 536.324 296.904C535.516 295.521 535.111 293.957 535.111 292.211C535.111 290.465 535.516 288.906 536.324 287.535C537.145 286.152 538.258 285.062 539.664 284.266C541.082 283.469 542.682 283.07 544.463 283.07C546.256 283.07 547.855 283.469 549.262 284.266C550.668 285.062 551.77 286.152 552.566 287.535C553.375 288.906 553.779 290.465 553.779 292.211C553.779 293.957 553.375 295.521 552.566 296.904C551.77 298.275 550.668 299.359 549.262 300.156C547.855 300.953 546.256 301.352 544.463 301.352ZM544.445 297.467C545.383 297.467 546.221 297.238 546.959 296.781C547.697 296.324 548.277 295.697 548.699 294.9C549.133 294.104 549.35 293.201 549.35 292.193C549.35 291.197 549.133 290.307 548.699 289.521C548.277 288.725 547.697 288.098 546.959 287.641C546.221 287.184 545.383 286.955 544.445 286.955C543.52 286.955 542.682 287.184 541.932 287.641C541.193 288.098 540.607 288.725 540.174 289.521C539.752 290.307 539.541 291.197 539.541 292.193C539.541 293.201 539.752 294.104 540.174 294.9C540.607 295.697 541.193 296.324 541.932 296.781C542.682 297.238 543.52 297.467 544.445 297.467ZM574.434 301H570.109V291.525C570.109 290.107 569.752 288.994 569.037 288.186C568.334 287.377 567.355 286.973 566.102 286.973C565.223 286.973 564.443 287.178 563.764 287.588C563.084 287.986 562.551 288.561 562.164 289.311C561.777 290.061 561.584 290.934 561.584 291.93V301H557.26V283.422H560.828L560.969 286.252C561.602 285.221 562.463 284.436 563.553 283.896C564.643 283.346 565.885 283.07 567.279 283.07C569.494 283.07 571.24 283.744 572.518 285.092C573.795 286.439 574.434 288.285 574.434 290.629V301ZM577.545 299.488L578.529 295.727C578.916 296.113 579.396 296.465 579.971 296.781C580.545 297.098 581.154 297.35 581.799 297.537C582.455 297.713 583.094 297.801 583.715 297.801C584.547 297.801 585.215 297.631 585.719 297.291C586.223 296.939 586.475 296.482 586.475 295.92C586.475 295.475 586.322 295.105 586.018 294.812C585.713 294.508 585.314 294.244 584.822 294.021C584.33 293.787 583.791 293.559 583.205 293.336C582.432 293.055 581.646 292.721 580.85 292.334C580.053 291.936 579.385 291.414 578.846 290.77C578.318 290.113 578.055 289.246 578.055 288.168C578.055 287.125 578.318 286.223 578.846 285.461C579.385 284.699 580.135 284.113 581.096 283.703C582.057 283.281 583.176 283.07 584.453 283.07C586.469 283.07 588.479 283.574 590.482 284.582L589.234 288.133C588.859 287.852 588.402 287.594 587.863 287.359C587.324 287.125 586.773 286.938 586.211 286.797C585.648 286.656 585.139 286.586 584.682 286.586C584.014 286.586 583.48 286.732 583.082 287.025C582.684 287.318 582.484 287.705 582.484 288.186C582.484 288.514 582.596 288.812 582.818 289.082C583.041 289.34 583.387 289.592 583.855 289.838C584.324 290.084 584.928 290.359 585.666 290.664C586.463 290.969 587.26 291.326 588.057 291.736C588.865 292.135 589.539 292.668 590.078 293.336C590.629 293.992 590.904 294.865 590.904 295.955C590.904 297.033 590.611 297.977 590.025 298.785C589.451 299.594 588.643 300.227 587.6 300.684C586.568 301.129 585.361 301.352 583.979 301.352C581.682 301.352 579.537 300.73 577.545 299.488Z" fill="#FA5255"/>
<defs>
<linearGradient id="paint0_linear_91_92" x1="216.219" y1="76.1551" x2="192.997" y2="56.4943" gradientUnits="userSpaceOnUse">
<stop stop-color="#45A0F5"/>
<stop offset="0.321429" stop-color="#9436DC"/>
<stop offset="1" stop-color="#26E3C2"/>
</linearGradient>
<linearGradient id="paint1_linear_91_92" x1="159.13" y1="89.443" x2="129.148" y2="81.4848" gradientUnits="userSpaceOnUse">
<stop stop-color="#45A0F5"/>
<stop offset="0.321429" stop-color="#9436DC"/>
<stop offset="1" stop-color="#26E3C2"/>
</linearGradient>
<linearGradient id="paint2_linear_91_92" x1="114.756" y1="126.029" x2="83.6088" y2="132.758" gradientUnits="userSpaceOnUse">
<stop stop-color="#45A0F5"/>
<stop offset="0.321429" stop-color="#9436DC"/>
<stop offset="1" stop-color="#26E3C2"/>
</linearGradient>
<linearGradient id="paint3_linear_91_92" x1="78.6274" y1="172.996" x2="53.1434" y2="188.66" gradientUnits="userSpaceOnUse">
<stop stop-color="#45A0F5"/>
<stop offset="0.321429" stop-color="#9436DC"/>
<stop offset="1" stop-color="#26E3C2"/>
</linearGradient>
<linearGradient id="paint4_linear_91_92" x1="75.4771" y1="233.631" x2="57.2993" y2="257.388" gradientUnits="userSpaceOnUse">
<stop stop-color="#45A0F5"/>
<stop offset="0.321429" stop-color="#9436DC"/>
<stop offset="1" stop-color="#26E3C2"/>
</linearGradient>
<linearGradient id="paint5_linear_91_92" x1="99.8147" y1="285.207" x2="96.1572" y2="316.514" gradientUnits="userSpaceOnUse">
<stop stop-color="#45A0F5"/>
<stop offset="0.321429" stop-color="#9436DC"/>
<stop offset="1" stop-color="#26E3C2"/>
</linearGradient>
<linearGradient id="paint6_linear_91_92" x1="137.681" y1="328.562" x2="146.547" y2="358.808" gradientUnits="userSpaceOnUse">
<stop stop-color="#45A0F5"/>
<stop offset="0.321429" stop-color="#9436DC"/>
<stop offset="1" stop-color="#26E3C2"/>
</linearGradient>
<linearGradient id="paint7_linear_91_92" x1="190.795" y1="353.719" x2="208.715" y2="378.086" gradientUnits="userSpaceOnUse">
<stop stop-color="#45A0F5"/>
<stop offset="0.321429" stop-color="#9436DC"/>
<stop offset="1" stop-color="#26E3C2"/>
</linearGradient>
<linearGradient id="paint8_linear_91_92" x1="248.834" y1="355.468" x2="275.373" y2="369.978" gradientUnits="userSpaceOnUse">
<stop stop-color="#45A0F5"/>
<stop offset="0.321429" stop-color="#9436DC"/>
<stop offset="1" stop-color="#26E3C2"/>
</linearGradient>
<linearGradient id="paint9_linear_91_92" x1="303.439" y1="331.064" x2="333.48" y2="334.576" gradientUnits="userSpaceOnUse">
<stop stop-color="#45A0F5"/>
<stop offset="0.321429" stop-color="#9436DC"/>
<stop offset="1" stop-color="#26E3C2"/>
</linearGradient>
<linearGradient id="paint10_linear_91_92" x1="271.697" y1="90.5884" x2="257.808" y2="62.6946" gradientUnits="userSpaceOnUse">
<stop stop-color="#45A0F5"/>
<stop offset="0.321429" stop-color="#9436DC"/>
<stop offset="1" stop-color="#26E3C2"/>
</linearGradient>
<linearGradient id="paint11_linear_91_92" x1="322.83" y1="121.453" x2="320.977" y2="92.3669" gradientUnits="userSpaceOnUse">
<stop stop-color="#45A0F5"/>
<stop offset="0.321429" stop-color="#9436DC"/>
<stop offset="1" stop-color="#26E3C2"/>
</linearGradient>
</defs>
</svg>
