<svg width="64" height="74" viewBox="0 0 64 74" fill="none" xmlns="http://www.w3.org/2000/svg">
<mask id="path-1-inside-1_31_20" fill="white">
<path fill-rule="evenodd" clip-rule="evenodd" d="M47.8877 14.978C47.8877 13.011 47.4827 11.0633 46.6958 9.24614C45.9089 7.42892 44.7556 5.77776 43.3016 4.38693C41.8476 2.9961 40.1214 1.89283 38.2217 1.14011C36.3219 0.387401 34.2858 -1.52588e-05 32.2295 -1.52588e-05C30.1733 -1.52588e-05 28.1371 0.387402 26.2374 1.14012C24.3377 1.89283 22.6115 2.9961 21.1575 4.38693C19.7035 5.77777 18.5501 7.42893 17.7633 9.24614C16.9764 11.0633 16.5713 13.011 16.5713 14.9779H16.5712V24.9633H20.0508V14.978H20.0543C20.0543 13.4485 20.3692 11.9341 20.9811 10.5211C21.593 9.10811 22.4898 7.82423 23.6203 6.74277C24.7509 5.66131 26.0931 4.80345 27.5703 4.21816C29.0474 3.63288 30.6307 3.33164 32.2295 3.33164C33.8284 3.33164 35.4116 3.63288 36.8888 4.21816C38.366 4.80345 39.7082 5.66131 40.8387 6.74277C41.9693 7.82423 42.8661 9.10811 43.478 10.5211C44.0899 11.9341 44.4048 13.4485 44.4048 14.978L44.4081 14.978V24.9633H47.8877L47.8877 14.978ZM0.913073 37.9559C0.913073 33.5377 4.4948 29.9559 8.91307 29.9559H55.5459C59.9641 29.9559 63.5459 33.5377 63.5459 37.9559V65.2256C63.5459 69.6439 59.9641 73.2256 55.5459 73.2256H8.91307C4.49479 73.2256 0.913073 69.6439 0.913073 65.2256V37.9559ZM35.7095 55.6917C37.7884 54.5404 39.1869 52.3897 39.1869 49.9266C39.1869 46.2501 36.0712 43.2697 32.2277 43.2697C28.3843 43.2697 25.2685 46.2501 25.2685 49.9266C25.2685 52.3914 26.669 54.5434 28.7503 55.6941V62.9045C28.7503 64.0091 29.6458 64.9045 30.7503 64.9045H33.7095C34.8141 64.9045 35.7095 64.0091 35.7095 62.9045V55.6917Z"/>
</mask>
<path fill-rule="evenodd" clip-rule="evenodd" d="M47.8877 14.978C47.8877 13.011 47.4827 11.0633 46.6958 9.24614C45.9089 7.42892 44.7556 5.77776 43.3016 4.38693C41.8476 2.9961 40.1214 1.89283 38.2217 1.14011C36.3219 0.387401 34.2858 -1.52588e-05 32.2295 -1.52588e-05C30.1733 -1.52588e-05 28.1371 0.387402 26.2374 1.14012C24.3377 1.89283 22.6115 2.9961 21.1575 4.38693C19.7035 5.77777 18.5501 7.42893 17.7633 9.24614C16.9764 11.0633 16.5713 13.011 16.5713 14.9779H16.5712V24.9633H20.0508V14.978H20.0543C20.0543 13.4485 20.3692 11.9341 20.9811 10.5211C21.593 9.10811 22.4898 7.82423 23.6203 6.74277C24.7509 5.66131 26.0931 4.80345 27.5703 4.21816C29.0474 3.63288 30.6307 3.33164 32.2295 3.33164C33.8284 3.33164 35.4116 3.63288 36.8888 4.21816C38.366 4.80345 39.7082 5.66131 40.8387 6.74277C41.9693 7.82423 42.8661 9.10811 43.478 10.5211C44.0899 11.9341 44.4048 13.4485 44.4048 14.978L44.4081 14.978V24.9633H47.8877L47.8877 14.978ZM0.913073 37.9559C0.913073 33.5377 4.4948 29.9559 8.91307 29.9559H55.5459C59.9641 29.9559 63.5459 33.5377 63.5459 37.9559V65.2256C63.5459 69.6439 59.9641 73.2256 55.5459 73.2256H8.91307C4.49479 73.2256 0.913073 69.6439 0.913073 65.2256V37.9559ZM35.7095 55.6917C37.7884 54.5404 39.1869 52.3897 39.1869 49.9266C39.1869 46.2501 36.0712 43.2697 32.2277 43.2697C28.3843 43.2697 25.2685 46.2501 25.2685 49.9266C25.2685 52.3914 26.669 54.5434 28.7503 55.6941V62.9045C28.7503 64.0091 29.6458 64.9045 30.7503 64.9045H33.7095C34.8141 64.9045 35.7095 64.0091 35.7095 62.9045V55.6917Z" fill="white"/>
<path d="M46.6958 9.24614L47.6135 8.84877V8.84877L46.6958 9.24614ZM47.8877 14.978H46.8877V14.978L47.8877 14.978ZM38.2217 1.14011L38.59 0.210431V0.210431L38.2217 1.14011ZM26.2374 1.14012L26.6058 2.0698V2.0698L26.2374 1.14012ZM21.1575 4.38693L20.4663 3.6643L21.1575 4.38693ZM17.7633 9.24614L18.6809 9.64351H18.6809L17.7633 9.24614ZM16.5713 14.9779V15.9779H17.5713V14.978L16.5713 14.9779ZM16.5712 14.9779V13.9779H15.5712V14.9779H16.5712ZM16.5712 24.9633H15.5712V25.9633H16.5712V24.9633ZM20.0508 24.9633V25.9633H21.0508V24.9633H20.0508ZM20.0508 14.978V13.978H19.0508V14.978H20.0508ZM20.0543 14.978V15.978H21.0543V14.978H20.0543ZM20.9811 10.5211L20.0634 10.1237H20.0634L20.9811 10.5211ZM23.6203 6.74277L22.9291 6.02014V6.02014L23.6203 6.74277ZM27.5703 4.21816L27.2019 3.28848V3.28848L27.5703 4.21816ZM36.8888 4.21816L36.5204 5.14785V5.14785L36.8888 4.21816ZM40.8387 6.74277L40.1475 7.4654L40.1475 7.4654L40.8387 6.74277ZM43.478 10.5211L42.5603 10.9185V10.9185L43.478 10.5211ZM44.4048 14.978H43.4048V15.9802L44.407 15.978L44.4048 14.978ZM44.4081 14.978H45.4081V13.9757L44.4059 13.978L44.4081 14.978ZM44.4081 24.9633H43.4081V25.9633H44.4081V24.9633ZM47.8877 24.9633V25.9633H48.8877V24.9633H47.8877ZM35.7095 55.6917L35.2251 54.8168L34.7095 55.1023V55.6917H35.7095ZM28.7503 55.6941H29.7503V55.1043L29.2342 54.8189L28.7503 55.6941ZM45.7782 9.6435C46.5111 11.3362 46.8877 13.1487 46.8877 14.978H48.8877C48.8877 12.8734 48.4543 10.7905 47.6135 8.84877L45.7782 9.6435ZM42.6103 5.10956C43.9695 6.40969 45.0452 7.95074 45.7782 9.64351L47.6135 8.84877C46.7727 6.90711 45.5416 5.14584 43.9928 3.6643L42.6103 5.10956ZM37.8533 2.0698C39.635 2.77573 41.2511 3.80934 42.6103 5.10956L43.9928 3.6643C42.4441 2.18285 40.6078 1.00992 38.59 0.210431L37.8533 2.0698ZM32.2295 0.999985C34.1605 0.999985 36.0716 1.36384 37.8533 2.0698L38.59 0.210431C36.5723 -0.589039 34.4111 -1.00002 32.2295 -1.00002V0.999985ZM26.6058 2.0698C28.3875 1.36384 30.2986 0.999985 32.2295 0.999985V-1.00002C30.048 -1.00002 27.8868 -0.589039 25.869 0.210432L26.6058 2.0698ZM21.8488 5.10956C23.208 3.80935 24.8241 2.77573 26.6058 2.0698L25.869 0.210432C23.8512 1.00992 22.015 2.18285 20.4663 3.6643L21.8488 5.10956ZM18.6809 9.64351C19.4139 7.95074 20.4896 6.40969 21.8488 5.10956L20.4663 3.6643C18.9175 5.14584 17.6864 6.90711 16.8456 8.84877L18.6809 9.64351ZM17.5713 14.978C17.5713 13.1487 17.9479 11.3362 18.6809 9.64351L16.8456 8.84877C16.0048 10.7905 15.5713 12.8734 15.5713 14.9779L17.5713 14.978ZM16.5712 15.9779H16.5713V13.9779H16.5712V15.9779ZM17.5712 24.9633V14.9779H15.5712V24.9633H17.5712ZM20.0508 23.9633H16.5712V25.9633H20.0508V23.9633ZM19.0508 14.978V24.9633H21.0508V14.978H19.0508ZM20.0543 13.978H20.0508V15.978H20.0543V13.978ZM20.0634 10.1237C19.3976 11.6613 19.0543 13.3109 19.0543 14.978H21.0543C21.0543 13.5862 21.3408 12.2069 21.8987 10.9185L20.0634 10.1237ZM22.9291 6.02014C21.7037 7.19231 20.7292 8.5863 20.0634 10.1237L21.8987 10.9185C22.4567 9.62992 23.2758 8.45615 24.3116 7.4654L22.9291 6.02014ZM27.2019 3.28848C25.6067 3.92054 24.1544 4.84806 22.9291 6.02014L24.3116 7.4654C25.3474 6.47455 26.5795 5.68635 27.9386 5.14785L27.2019 3.28848ZM32.2295 2.33164C30.5054 2.33164 28.7971 2.65644 27.2019 3.28848L27.9386 5.14785C29.2978 4.60932 30.756 4.33164 32.2295 4.33164V2.33164ZM37.2572 3.28848C35.662 2.65644 33.9537 2.33164 32.2295 2.33164V4.33164C33.7031 4.33164 35.1613 4.60932 36.5204 5.14785L37.2572 3.28848ZM41.53 6.02014C40.3047 4.84806 38.8524 3.92054 37.2572 3.28848L36.5204 5.14785C37.8795 5.68635 39.1117 6.47455 40.1475 7.4654L41.53 6.02014ZM44.3956 10.1237C43.7299 8.5863 42.7554 7.19231 41.53 6.02014L40.1475 7.4654C41.1832 8.45615 42.0024 9.62992 42.5603 10.9185L44.3956 10.1237ZM45.4048 14.978C45.4048 13.3109 45.0614 11.6613 44.3956 10.1237L42.5603 10.9185C43.1183 12.2069 43.4048 13.5862 43.4048 14.978H45.4048ZM44.4059 13.978L44.4025 13.978L44.407 15.978L44.4104 15.9779L44.4059 13.978ZM45.4081 24.9633V14.978H43.4081V24.9633H45.4081ZM47.8877 23.9633H44.4081V25.9633H47.8877V23.9633ZM46.8877 14.978L46.8877 24.9633H48.8877L48.8877 14.978L46.8877 14.978ZM8.91307 28.9559C3.94251 28.9559 -0.0869268 32.9854 -0.0869268 37.9559H1.91307C1.91307 34.09 5.04708 30.9559 8.91307 30.9559V28.9559ZM55.5459 28.9559H8.91307V30.9559H55.5459V28.9559ZM64.5459 37.9559C64.5459 32.9854 60.5164 28.9559 55.5459 28.9559V30.9559C59.4119 30.9559 62.5459 34.0899 62.5459 37.9559H64.5459ZM64.5459 65.2256V37.9559H62.5459V65.2256H64.5459ZM55.5459 74.2256C60.5164 74.2256 64.5459 70.1962 64.5459 65.2256H62.5459C62.5459 69.0916 59.4119 72.2256 55.5459 72.2256V74.2256ZM8.91307 74.2256H55.5459V72.2256H8.91307V74.2256ZM-0.0869268 65.2256C-0.0869268 70.1962 3.94251 74.2256 8.91307 74.2256V72.2256C5.04708 72.2256 1.91307 69.0916 1.91307 65.2256H-0.0869268ZM-0.0869268 37.9559V65.2256H1.91307V37.9559H-0.0869268ZM38.1869 49.9266C38.1869 51.9963 37.0128 53.8268 35.2251 54.8168L36.194 56.5665C38.5641 55.2539 40.1869 52.7831 40.1869 49.9266H38.1869ZM32.2277 44.2697C35.5612 44.2697 38.1869 46.8438 38.1869 49.9266H40.1869C40.1869 45.6564 36.5812 42.2697 32.2277 42.2697V44.2697ZM26.2685 49.9266C26.2685 46.8438 28.8942 44.2697 32.2277 44.2697V42.2697C27.8743 42.2697 24.2685 45.6564 24.2685 49.9266H26.2685ZM29.2342 54.8189C27.4444 53.8294 26.2685 51.9977 26.2685 49.9266H24.2685C24.2685 52.7851 25.8937 55.2574 28.2665 56.5692L29.2342 54.8189ZM29.7503 62.9045V55.6941H27.7503V62.9045H29.7503ZM30.7503 63.9045C30.1981 63.9045 29.7503 63.4568 29.7503 62.9045H27.7503C27.7503 64.5614 29.0935 65.9045 30.7503 65.9045V63.9045ZM33.7095 63.9045H30.7503V65.9045H33.7095V63.9045ZM34.7095 62.9045C34.7095 63.4568 34.2618 63.9045 33.7095 63.9045V65.9045C35.3664 65.9045 36.7095 64.5614 36.7095 62.9045H34.7095ZM34.7095 55.6917V62.9045H36.7095V55.6917H34.7095Z" fill="#95959B" mask="url(#path-1-inside-1_31_20)"/>
</svg>
