<svg width="300" height="32" viewBox="0 0 300 32" fill="none" xmlns="http://www.w3.org/2000/svg">
<path d="M6.048 25.24C4.656 25.24 3.56 24.888 2.76 24.184C1.96 23.464 1.56 22.496 1.56 21.28C1.56 20.048 1.96 19.08 2.76 18.376C3.56 17.672 4.64 17.32 6 17.32H10.08V16C10.08 15.184 9.832 14.56 9.336 14.128C8.856 13.68 8.168 13.456 7.272 13.456C6.488 13.456 5.832 13.624 5.304 13.96C4.776 14.28 4.472 14.72 4.392 15.28H2.232C2.376 14.144 2.912 13.24 3.84 12.568C4.768 11.896 5.928 11.56 7.32 11.56C8.84 11.56 10.04 11.952 10.92 12.736C11.8 13.52 12.24 14.584 12.24 15.928V25H10.128V22.48H9.768L10.128 22.12C10.128 23.08 9.752 23.84 9 24.4C8.264 24.96 7.28 25.24 6.048 25.24ZM6.576 23.536C7.6 23.536 8.44 23.28 9.096 22.768C9.752 22.256 10.08 21.6 10.08 20.8V18.928H6.048C5.328 18.928 4.76 19.128 4.344 19.528C3.928 19.928 3.72 20.472 3.72 21.16C3.72 21.896 3.968 22.48 4.464 22.912C4.976 23.328 5.68 23.536 6.576 23.536ZM21.1826 25.192C20.2866 25.192 19.5026 25.056 18.8306 24.784C18.1746 24.496 17.6466 24.096 17.2466 23.584C16.8626 23.072 16.6306 22.464 16.5506 21.76H18.7106C18.8066 22.224 19.0626 22.592 19.4786 22.864C19.9106 23.136 20.4786 23.272 21.1826 23.272H22.1906C23.0386 23.272 23.6706 23.104 24.0866 22.768C24.5026 22.416 24.7106 21.952 24.7106 21.376C24.7106 20.816 24.5186 20.376 24.1346 20.056C23.7666 19.72 23.2146 19.496 22.4786 19.384L20.7026 19.096C19.4066 18.872 18.4386 18.472 17.7986 17.896C17.1746 17.304 16.8626 16.448 16.8626 15.328C16.8626 14.144 17.2386 13.232 17.9906 12.592C18.7426 11.936 19.8706 11.608 21.3746 11.608H22.2866C23.5506 11.608 24.5666 11.904 25.3346 12.496C26.1026 13.088 26.5666 13.888 26.7266 14.896H24.5666C24.4706 14.48 24.2306 14.152 23.8466 13.912C23.4626 13.656 22.9426 13.528 22.2866 13.528H21.3746C20.5586 13.528 19.9586 13.68 19.5746 13.984C19.2066 14.288 19.0226 14.744 19.0226 15.352C19.0226 15.896 19.1826 16.296 19.5026 16.552C19.8226 16.808 20.3266 16.992 21.0146 17.104L22.7906 17.392C24.2146 17.616 25.2466 18.032 25.8866 18.64C26.5426 19.248 26.8706 20.128 26.8706 21.28C26.8706 22.496 26.4786 23.456 25.6946 24.16C24.9266 24.848 23.7586 25.192 22.1906 25.192H21.1826ZM33.0533 29.32L34.9973 24.184L30.1013 11.8H32.5013L35.5733 19.96C35.6853 20.232 35.7893 20.56 35.8853 20.944C35.9813 21.312 36.0613 21.624 36.1253 21.88C36.1893 21.624 36.2693 21.312 36.3653 20.944C36.4613 20.56 36.5573 20.232 36.6533 19.96L39.5333 11.8H41.8613L35.3573 29.32H33.0533ZM45.3799 25V11.8H47.5399V14.32H47.9959L47.5399 14.824C47.5399 13.784 47.8519 12.984 48.4759 12.424C49.0999 11.848 49.9639 11.56 51.0679 11.56C52.3959 11.56 53.4519 11.968 54.2359 12.784C55.0199 13.6 55.4119 14.712 55.4119 16.12V25H53.2519V16.36C53.2519 15.416 52.9959 14.696 52.4839 14.2C51.9879 13.688 51.3079 13.432 50.4439 13.432C49.5479 13.432 48.8359 13.704 48.3079 14.248C47.7959 14.792 47.5399 15.576 47.5399 16.6V25H45.3799ZM64.8585 25.24C63.8025 25.24 62.8745 25.04 62.0745 24.64C61.2905 24.24 60.6825 23.664 60.2505 22.912C59.8185 22.144 59.6025 21.24 59.6025 20.2V16.6C59.6025 15.544 59.8185 14.64 60.2505 13.888C60.6825 13.136 61.2905 12.56 62.0745 12.16C62.8745 11.76 63.8025 11.56 64.8585 11.56C66.3785 11.56 67.6025 11.968 68.5305 12.784C69.4585 13.6 69.9465 14.712 69.9945 16.12H67.8345C67.7865 15.272 67.4985 14.624 66.9705 14.176C66.4585 13.712 65.7545 13.48 64.8585 13.48C63.9145 13.48 63.1625 13.752 62.6025 14.296C62.0425 14.824 61.7625 15.584 61.7625 16.576V20.2C61.7625 21.192 62.0425 21.96 62.6025 22.504C63.1625 23.048 63.9145 23.32 64.8585 23.32C65.7545 23.32 66.4585 23.088 66.9705 22.624C67.4985 22.16 67.7865 21.512 67.8345 20.68H69.9945C69.9465 22.088 69.4585 23.2 68.5305 24.016C67.6025 24.832 66.3785 25.24 64.8585 25.24Z" fill="#45A0F5"/>
<path d="M83.5931 27.88C81.3211 27.32 79.5531 26.216 78.2891 24.568C77.0251 22.92 76.3931 20.904 76.3931 18.52V14.2C76.3931 12.632 76.6811 11.216 77.2571 9.952C77.8491 8.672 78.6811 7.592 79.7531 6.712C80.8411 5.832 82.1211 5.208 83.5931 4.84V6.88C82.5691 7.12 81.6811 7.584 80.9291 8.272C80.1771 8.944 79.5931 9.784 79.1771 10.792C78.7611 11.8 78.5531 12.936 78.5531 14.2V18.52C78.5531 19.752 78.7531 20.872 79.1531 21.88C79.5691 22.888 80.1531 23.728 80.9051 24.4C81.6731 25.056 82.5691 25.504 83.5931 25.744V27.88ZM89.1038 27.88V25.744C90.1438 25.504 91.0398 25.056 91.7918 24.4C92.5438 23.728 93.1198 22.888 93.5198 21.88C93.9358 20.872 94.1438 19.752 94.1438 18.52V14.2C94.1438 12.936 93.9358 11.8 93.5198 10.792C93.1038 9.784 92.5198 8.944 91.7678 8.272C91.0158 7.584 90.1278 7.12 89.1038 6.88V4.84C90.5918 5.208 91.8718 5.832 92.9438 6.712C94.0158 7.592 94.8398 8.672 95.4158 9.952C96.0078 11.216 96.3038 12.632 96.3038 14.2V18.52C96.3038 20.904 95.6718 22.92 94.4078 24.568C93.1438 26.216 91.3758 27.32 89.1038 27.88Z" fill="#26E3C2"/>
<path d="M103.324 16.8613C102.986 16.8613 102.699 16.7441 102.465 16.5098C102.237 16.2754 102.123 15.9889 102.123 15.6504C102.123 15.3118 102.237 15.0254 102.465 14.791C102.699 14.5501 102.986 14.4297 103.324 14.4297C103.669 14.4297 103.956 14.5501 104.184 14.791C104.418 15.0254 104.535 15.3118 104.535 15.6504C104.535 15.9889 104.418 16.2754 104.184 16.5098C103.956 16.7441 103.669 16.8613 103.324 16.8613ZM103.324 24.1953C102.986 24.1953 102.699 24.0781 102.465 23.8438C102.237 23.6094 102.123 23.3229 102.123 22.9844C102.123 22.6458 102.237 22.3594 102.465 22.125C102.699 21.8841 102.986 21.7637 103.324 21.7637C103.669 21.7637 103.956 21.8841 104.184 22.125C104.418 22.3594 104.535 22.6458 104.535 22.9844C104.535 23.3229 104.418 23.6094 104.184 23.8438C103.956 24.0781 103.669 24.1953 103.324 24.1953ZM112.836 11.6465C112.497 11.6465 112.211 11.5293 111.977 11.2949C111.749 11.054 111.635 10.7643 111.635 10.4258C111.635 10.0938 111.749 9.81055 111.977 9.57617C112.211 9.33529 112.497 9.21484 112.836 9.21484C113.181 9.21484 113.471 9.33529 113.705 9.57617C113.939 9.81055 114.057 10.0938 114.057 10.4258C114.057 10.7643 113.939 11.054 113.705 11.2949C113.471 11.5293 113.181 11.6465 112.836 11.6465ZM114.037 24H111.635V14.2344H114.037V24ZM120.727 24.0781C119.822 24.0781 119.014 23.86 118.305 23.4238C117.595 22.9876 117.035 22.3919 116.625 21.6367C116.215 20.875 116.01 20.0156 116.01 19.0586C116.01 18.0951 116.215 17.2357 116.625 16.4805C117.035 15.7253 117.595 15.1296 118.305 14.6934C119.014 14.2572 119.822 14.0391 120.727 14.0391C121.436 14.0391 122.09 14.1758 122.689 14.4492C123.288 14.7227 123.796 15.1035 124.213 15.5918L124.33 14.2344H126.439V23.7363C126.439 24.8171 126.208 25.7578 125.746 26.5586C125.29 27.3594 124.646 27.9779 123.812 28.4141C122.979 28.8568 121.993 29.0781 120.854 29.0781C119.271 29.0781 117.855 28.5736 116.605 27.5645L117.592 25.6016C118.464 26.4805 119.499 26.9199 120.697 26.9199C121.374 26.9199 121.96 26.7832 122.455 26.5098C122.956 26.2428 123.344 25.862 123.617 25.3672C123.897 24.8789 124.037 24.306 124.037 23.6484V22.7109C123.62 23.1406 123.129 23.4759 122.562 23.7168C121.996 23.9577 121.384 24.0781 120.727 24.0781ZM121.254 21.9395C121.768 21.9395 122.234 21.8255 122.65 21.5977C123.074 21.3633 123.409 21.0443 123.656 20.6406C123.91 20.237 124.037 19.778 124.037 19.2637V18.834C124.037 18.3197 123.91 17.8639 123.656 17.4668C123.409 17.0697 123.074 16.7572 122.65 16.5293C122.227 16.2949 121.762 16.1777 121.254 16.1777C120.72 16.1777 120.242 16.3047 119.818 16.5586C119.395 16.806 119.06 17.1478 118.812 17.584C118.572 18.0202 118.451 18.5117 118.451 19.0586C118.451 19.6055 118.572 20.097 118.812 20.5332C119.06 20.9694 119.395 21.3145 119.818 21.5684C120.242 21.8158 120.72 21.9395 121.254 21.9395ZM138.48 24H136.078V18.7363C136.078 17.9486 135.88 17.3301 135.482 16.8809C135.092 16.4316 134.548 16.207 133.852 16.207C133.363 16.207 132.93 16.321 132.553 16.5488C132.175 16.7702 131.879 17.0892 131.664 17.5059C131.449 17.9225 131.342 18.4076 131.342 18.9609V24H128.939V14.2344H130.922L131 15.8066C131.352 15.2337 131.83 14.7975 132.436 14.498C133.041 14.1921 133.731 14.0391 134.506 14.0391C135.736 14.0391 136.706 14.4134 137.416 15.1621C138.126 15.9108 138.48 16.9362 138.48 18.2383V24ZM142.113 11.6465C141.775 11.6465 141.488 11.5293 141.254 11.2949C141.026 11.054 140.912 10.7643 140.912 10.4258C140.912 10.0938 141.026 9.81055 141.254 9.57617C141.488 9.33529 141.775 9.21484 142.113 9.21484C142.458 9.21484 142.748 9.33529 142.982 9.57617C143.217 9.81055 143.334 10.0938 143.334 10.4258C143.334 10.7643 143.217 11.054 142.982 11.2949C142.748 11.5293 142.458 11.6465 142.113 11.6465ZM143.314 24H140.912V14.2344H143.314V24ZM152.387 23.7461C151.671 24.0456 150.977 24.1953 150.307 24.1953C149.623 24.1953 149.021 24.0488 148.5 23.7559C147.986 23.4629 147.582 23.056 147.289 22.5352C147.003 22.0078 146.859 21.3958 146.859 20.6992V16.3828H145.15V14.2344H146.986V11.793H149.262V14.2344H152.045V16.3828H149.262V20.2598C149.262 20.8132 149.411 21.2493 149.711 21.5684C150.017 21.8874 150.398 22.0469 150.854 22.0469C151.257 22.0469 151.658 21.9232 152.055 21.6758L152.387 23.7461ZM155.121 11.6465C154.783 11.6465 154.496 11.5293 154.262 11.2949C154.034 11.054 153.92 10.7643 153.92 10.4258C153.92 10.0938 154.034 9.81055 154.262 9.57617C154.496 9.33529 154.783 9.21484 155.121 9.21484C155.466 9.21484 155.756 9.33529 155.99 9.57617C156.225 9.81055 156.342 10.0938 156.342 10.4258C156.342 10.7643 156.225 11.054 155.99 11.2949C155.756 11.5293 155.466 11.6465 155.121 11.6465ZM156.322 24H153.92V14.2344H156.322V24ZM168.5 24H166.098V18.7363C166.098 17.9486 165.899 17.3301 165.502 16.8809C165.111 16.4316 164.568 16.207 163.871 16.207C163.383 16.207 162.95 16.321 162.572 16.5488C162.195 16.7702 161.898 17.0892 161.684 17.5059C161.469 17.9225 161.361 18.4076 161.361 18.9609V24H158.959V14.2344H160.941L161.02 15.8066C161.371 15.2337 161.85 14.7975 162.455 14.498C163.061 14.1921 163.751 14.0391 164.525 14.0391C165.756 14.0391 166.726 14.4134 167.436 15.1621C168.145 15.9108 168.5 16.9362 168.5 18.2383V24ZM174.965 24.0781C174.06 24.0781 173.253 23.86 172.543 23.4238C171.833 22.9876 171.273 22.3919 170.863 21.6367C170.453 20.875 170.248 20.0156 170.248 19.0586C170.248 18.0951 170.453 17.2357 170.863 16.4805C171.273 15.7253 171.833 15.1296 172.543 14.6934C173.253 14.2572 174.06 14.0391 174.965 14.0391C175.674 14.0391 176.329 14.1758 176.928 14.4492C177.527 14.7227 178.035 15.1035 178.451 15.5918L178.568 14.2344H180.678V23.7363C180.678 24.8171 180.447 25.7578 179.984 26.5586C179.529 27.3594 178.884 27.9779 178.051 28.4141C177.217 28.8568 176.231 29.0781 175.092 29.0781C173.51 29.0781 172.094 28.5736 170.844 27.5645L171.83 25.6016C172.702 26.4805 173.738 26.9199 174.936 26.9199C175.613 26.9199 176.199 26.7832 176.693 26.5098C177.195 26.2428 177.582 25.862 177.855 25.3672C178.135 24.8789 178.275 24.306 178.275 23.6484V22.7109C177.859 23.1406 177.367 23.4759 176.801 23.7168C176.234 23.9577 175.622 24.0781 174.965 24.0781ZM175.492 21.9395C176.007 21.9395 176.472 21.8255 176.889 21.5977C177.312 21.3633 177.647 21.0443 177.895 20.6406C178.148 20.237 178.275 19.778 178.275 19.2637V18.834C178.275 18.3197 178.148 17.8639 177.895 17.4668C177.647 17.0697 177.312 16.7572 176.889 16.5293C176.465 16.2949 176 16.1777 175.492 16.1777C174.958 16.1777 174.48 16.3047 174.057 16.5586C173.633 16.806 173.298 17.1478 173.051 17.584C172.81 18.0202 172.689 18.5117 172.689 19.0586C172.689 19.6055 172.81 20.097 173.051 20.5332C173.298 20.9694 173.633 21.3145 174.057 21.5684C174.48 21.8158 174.958 21.9395 175.492 21.9395ZM193.695 11.6465C193.357 11.6465 193.07 11.5293 192.836 11.2949C192.608 11.054 192.494 10.7643 192.494 10.4258C192.494 10.0938 192.608 9.81055 192.836 9.57617C193.07 9.33529 193.357 9.21484 193.695 9.21484C194.04 9.21484 194.33 9.33529 194.564 9.57617C194.799 9.81055 194.916 10.0938 194.916 10.4258C194.916 10.7643 194.799 11.054 194.564 11.2949C194.33 11.5293 194.04 11.6465 193.695 11.6465ZM194.896 24H192.494V14.2344H194.896V24ZM207.074 24H204.672V18.7363C204.672 17.9486 204.473 17.3301 204.076 16.8809C203.686 16.4316 203.142 16.207 202.445 16.207C201.957 16.207 201.524 16.321 201.146 16.5488C200.769 16.7702 200.473 17.0892 200.258 17.5059C200.043 17.9225 199.936 18.4076 199.936 18.9609V24H197.533V14.2344H199.516L199.594 15.8066C199.945 15.2337 200.424 14.7975 201.029 14.498C201.635 14.1921 202.325 14.0391 203.1 14.0391C204.33 14.0391 205.3 14.4134 206.01 15.1621C206.719 15.9108 207.074 16.9362 207.074 18.2383V24ZM219.027 24H216.625V18.7363C216.625 17.9486 216.426 17.3301 216.029 16.8809C215.639 16.4316 215.095 16.207 214.398 16.207C213.91 16.207 213.477 16.321 213.1 16.5488C212.722 16.7702 212.426 17.0892 212.211 17.5059C211.996 17.9225 211.889 18.4076 211.889 18.9609V24H209.486V14.2344H211.469L211.547 15.8066C211.898 15.2337 212.377 14.7975 212.982 14.498C213.588 14.1921 214.278 14.0391 215.053 14.0391C216.283 14.0391 217.253 14.4134 217.963 15.1621C218.673 15.9108 219.027 16.9362 219.027 18.2383V24ZM225.971 24.1953C224.981 24.1953 224.092 23.974 223.305 23.5312C222.523 23.0885 221.905 22.4863 221.449 21.7246C221 20.9564 220.775 20.0872 220.775 19.1172C220.775 18.1471 221 17.2812 221.449 16.5195C221.905 15.7513 222.523 15.1458 223.305 14.7031C224.092 14.2604 224.981 14.0391 225.971 14.0391C226.967 14.0391 227.855 14.2604 228.637 14.7031C229.418 15.1458 230.03 15.7513 230.473 16.5195C230.922 17.2812 231.146 18.1471 231.146 19.1172C231.146 20.0872 230.922 20.9564 230.473 21.7246C230.03 22.4863 229.418 23.0885 228.637 23.5312C227.855 23.974 226.967 24.1953 225.971 24.1953ZM225.961 22.0371C226.482 22.0371 226.947 21.9102 227.357 21.6562C227.768 21.4023 228.09 21.054 228.324 20.6113C228.565 20.1686 228.686 19.6673 228.686 19.1074C228.686 18.554 228.565 18.0592 228.324 17.623C228.09 17.1803 227.768 16.832 227.357 16.5781C226.947 16.3242 226.482 16.1973 225.961 16.1973C225.447 16.1973 224.981 16.3242 224.564 16.5781C224.154 16.832 223.829 17.1803 223.588 17.623C223.354 18.0592 223.236 18.554 223.236 19.1074C223.236 19.6673 223.354 20.1686 223.588 20.6113C223.829 21.054 224.154 21.4023 224.564 21.6562C224.981 21.9102 225.447 22.0371 225.961 22.0371ZM242.387 14.2344L238.354 24H236.029L232.006 14.2344H234.584L237.201 21.5586L239.828 14.2344H242.387ZM252.357 24H250.268L250.131 22.7988C249.773 23.2415 249.327 23.5866 248.793 23.834C248.259 24.0749 247.667 24.1953 247.016 24.1953C246.326 24.1953 245.71 24.0618 245.17 23.7949C244.63 23.5215 244.203 23.1504 243.891 22.6816C243.585 22.2129 243.432 21.679 243.432 21.0801C243.432 20.4486 243.598 19.8952 243.93 19.4199C244.268 18.9382 244.727 18.5605 245.307 18.2871C245.893 18.0137 246.56 17.877 247.309 17.877C247.764 17.877 248.22 17.929 248.676 18.0332C249.138 18.1374 249.564 18.2839 249.955 18.4727V18.1602C249.955 17.7305 249.838 17.3594 249.604 17.0469C249.369 16.7344 249.053 16.4935 248.656 16.3242C248.259 16.1484 247.813 16.0605 247.318 16.0605C246.869 16.0605 246.42 16.1387 245.971 16.2949C245.521 16.4447 245.102 16.6693 244.711 16.9688L244.027 15.084C244.652 14.7389 245.29 14.4785 245.941 14.3027C246.599 14.127 247.24 14.0391 247.865 14.0391C248.783 14.0391 249.577 14.2214 250.248 14.5859C250.919 14.944 251.436 15.4583 251.801 16.1289C252.172 16.793 252.357 17.5775 252.357 18.4824V24ZM247.514 22.2617C247.937 22.2617 248.327 22.1738 248.686 21.998C249.05 21.8223 249.346 21.5781 249.574 21.2656C249.809 20.9466 249.932 20.582 249.945 20.1719V20.0645C249.639 19.8431 249.294 19.6738 248.91 19.5566C248.526 19.4329 248.139 19.3711 247.748 19.3711C247.149 19.3711 246.658 19.5078 246.273 19.7812C245.889 20.0482 245.697 20.3997 245.697 20.8359C245.697 21.1029 245.775 21.347 245.932 21.5684C246.088 21.7832 246.303 21.9525 246.576 22.0762C246.856 22.1999 247.169 22.2617 247.514 22.2617ZM260.902 23.7461C260.186 24.0456 259.493 24.1953 258.822 24.1953C258.139 24.1953 257.536 24.0488 257.016 23.7559C256.501 23.4629 256.098 23.056 255.805 22.5352C255.518 22.0078 255.375 21.3958 255.375 20.6992V16.3828H253.666V14.2344H255.502V11.793H257.777V14.2344H260.561V16.3828H257.777V20.2598C257.777 20.8132 257.927 21.2493 258.227 21.5684C258.533 21.8874 258.913 22.0469 259.369 22.0469C259.773 22.0469 260.173 21.9232 260.57 21.6758L260.902 23.7461ZM263.637 11.6465C263.298 11.6465 263.012 11.5293 262.777 11.2949C262.549 11.054 262.436 10.7643 262.436 10.4258C262.436 10.0938 262.549 9.81055 262.777 9.57617C263.012 9.33529 263.298 9.21484 263.637 9.21484C263.982 9.21484 264.271 9.33529 264.506 9.57617C264.74 9.81055 264.857 10.0938 264.857 10.4258C264.857 10.7643 264.74 11.054 264.506 11.2949C264.271 11.5293 263.982 11.6465 263.637 11.6465ZM264.838 24H262.436V14.2344H264.838V24ZM272.006 24.1953C271.016 24.1953 270.128 23.974 269.34 23.5312C268.559 23.0885 267.94 22.4863 267.484 21.7246C267.035 20.9564 266.811 20.0872 266.811 19.1172C266.811 18.1471 267.035 17.2812 267.484 16.5195C267.94 15.7513 268.559 15.1458 269.34 14.7031C270.128 14.2604 271.016 14.0391 272.006 14.0391C273.002 14.0391 273.891 14.2604 274.672 14.7031C275.453 15.1458 276.065 15.7513 276.508 16.5195C276.957 17.2812 277.182 18.1471 277.182 19.1172C277.182 20.0872 276.957 20.9564 276.508 21.7246C276.065 22.4863 275.453 23.0885 274.672 23.5312C273.891 23.974 273.002 24.1953 272.006 24.1953ZM271.996 22.0371C272.517 22.0371 272.982 21.9102 273.393 21.6562C273.803 21.4023 274.125 21.054 274.359 20.6113C274.6 20.1686 274.721 19.6673 274.721 19.1074C274.721 18.554 274.6 18.0592 274.359 17.623C274.125 17.1803 273.803 16.832 273.393 16.5781C272.982 16.3242 272.517 16.1973 271.996 16.1973C271.482 16.1973 271.016 16.3242 270.6 16.5781C270.189 16.832 269.864 17.1803 269.623 17.623C269.389 18.0592 269.271 18.554 269.271 19.1074C269.271 19.6673 269.389 20.1686 269.623 20.6113C269.864 21.054 270.189 21.4023 270.6 21.6562C271.016 21.9102 271.482 22.0371 271.996 22.0371ZM288.656 24H286.254V18.7363C286.254 17.9486 286.055 17.3301 285.658 16.8809C285.268 16.4316 284.724 16.207 284.027 16.207C283.539 16.207 283.106 16.321 282.729 16.5488C282.351 16.7702 282.055 17.0892 281.84 17.5059C281.625 17.9225 281.518 18.4076 281.518 18.9609V24H279.115V14.2344H281.098L281.176 15.8066C281.527 15.2337 282.006 14.7975 282.611 14.498C283.217 14.1921 283.907 14.0391 284.682 14.0391C285.912 14.0391 286.882 14.4134 287.592 15.1621C288.301 15.9108 288.656 16.9362 288.656 18.2383V24ZM290.385 23.1602L290.932 21.0703C291.146 21.2852 291.413 21.4805 291.732 21.6562C292.051 21.832 292.39 21.972 292.748 22.0762C293.113 22.1738 293.467 22.2227 293.812 22.2227C294.275 22.2227 294.646 22.1283 294.926 21.9395C295.206 21.7441 295.346 21.4902 295.346 21.1777C295.346 20.9303 295.261 20.7253 295.092 20.5625C294.923 20.3932 294.701 20.2467 294.428 20.123C294.154 19.9928 293.855 19.8659 293.529 19.7422C293.1 19.5859 292.663 19.4004 292.221 19.1855C291.778 18.9642 291.407 18.6745 291.107 18.3164C290.814 17.9518 290.668 17.4701 290.668 16.8711C290.668 16.2917 290.814 15.7904 291.107 15.3672C291.407 14.944 291.824 14.6185 292.357 14.3906C292.891 14.1562 293.513 14.0391 294.223 14.0391C295.342 14.0391 296.459 14.319 297.572 14.8789L296.879 16.8516C296.671 16.6953 296.417 16.5521 296.117 16.4219C295.818 16.2917 295.512 16.1875 295.199 16.1094C294.887 16.0312 294.604 15.9922 294.35 15.9922C293.979 15.9922 293.682 16.0736 293.461 16.2363C293.24 16.3991 293.129 16.6139 293.129 16.8809C293.129 17.0632 293.191 17.2292 293.314 17.3789C293.438 17.5221 293.63 17.6621 293.891 17.7988C294.151 17.9355 294.486 18.0885 294.896 18.2578C295.339 18.4271 295.782 18.6257 296.225 18.8535C296.674 19.0749 297.048 19.3711 297.348 19.7422C297.654 20.1068 297.807 20.5918 297.807 21.1973C297.807 21.7962 297.644 22.3203 297.318 22.7695C296.999 23.2188 296.55 23.5703 295.971 23.8242C295.398 24.0716 294.727 24.1953 293.959 24.1953C292.683 24.1953 291.492 23.8503 290.385 23.1602Z" fill="#FA5255"/>
</svg>
