<svg width="331" height="36" viewBox="0 0 331 36" fill="none" xmlns="http://www.w3.org/2000/svg">
<path d="M28.048 28.24C26.656 28.24 25.56 27.888 24.76 27.184C23.96 26.464 23.56 25.496 23.56 24.28C23.56 23.048 23.96 22.08 24.76 21.376C25.56 20.672 26.64 20.32 28 20.32H32.08V19C32.08 18.184 31.832 17.56 31.336 17.128C30.856 16.68 30.168 16.456 29.272 16.456C28.488 16.456 27.832 16.624 27.304 16.96C26.776 17.28 26.472 17.72 26.392 18.28H24.232C24.376 17.144 24.912 16.24 25.84 15.568C26.768 14.896 27.928 14.56 29.32 14.56C30.84 14.56 32.04 14.952 32.92 15.736C33.8 16.52 34.24 17.584 34.24 18.928V28H32.128V25.48H31.768L32.128 25.12C32.128 26.08 31.752 26.84 31 27.4C30.264 27.96 29.28 28.24 28.048 28.24ZM28.576 26.536C29.6 26.536 30.44 26.28 31.096 25.768C31.752 25.256 32.08 24.6 32.08 23.8V21.928H28.048C27.328 21.928 26.76 22.128 26.344 22.528C25.928 22.928 25.72 23.472 25.72 24.16C25.72 24.896 25.968 25.48 26.464 25.912C26.976 26.328 27.68 26.536 28.576 26.536ZM43.1826 28.192C42.2866 28.192 41.5026 28.056 40.8306 27.784C40.1746 27.496 39.6466 27.096 39.2466 26.584C38.8626 26.072 38.6306 25.464 38.5506 24.76H40.7106C40.8066 25.224 41.0626 25.592 41.4786 25.864C41.9106 26.136 42.4786 26.272 43.1826 26.272H44.1906C45.0386 26.272 45.6706 26.104 46.0866 25.768C46.5026 25.416 46.7106 24.952 46.7106 24.376C46.7106 23.816 46.5186 23.376 46.1346 23.056C45.7666 22.72 45.2146 22.496 44.4786 22.384L42.7026 22.096C41.4066 21.872 40.4386 21.472 39.7986 20.896C39.1746 20.304 38.8626 19.448 38.8626 18.328C38.8626 17.144 39.2386 16.232 39.9906 15.592C40.7426 14.936 41.8706 14.608 43.3746 14.608H44.2866C45.5506 14.608 46.5666 14.904 47.3346 15.496C48.1026 16.088 48.5666 16.888 48.7266 17.896H46.5666C46.4706 17.48 46.2306 17.152 45.8466 16.912C45.4626 16.656 44.9426 16.528 44.2866 16.528H43.3746C42.5586 16.528 41.9586 16.68 41.5746 16.984C41.2066 17.288 41.0226 17.744 41.0226 18.352C41.0226 18.896 41.1826 19.296 41.5026 19.552C41.8226 19.808 42.3266 19.992 43.0146 20.104L44.7906 20.392C46.2146 20.616 47.2466 21.032 47.8866 21.64C48.5426 22.248 48.8706 23.128 48.8706 24.28C48.8706 25.496 48.4786 26.456 47.6946 27.16C46.9266 27.848 45.7586 28.192 44.1906 28.192H43.1826ZM55.0533 32.32L56.9973 27.184L52.1013 14.8H54.5013L57.5733 22.96C57.6853 23.232 57.7893 23.56 57.8853 23.944C57.9813 24.312 58.0613 24.624 58.1253 24.88C58.1893 24.624 58.2693 24.312 58.3653 23.944C58.4613 23.56 58.5573 23.232 58.6533 22.96L61.5333 14.8H63.8613L57.3573 32.32H55.0533ZM67.3799 28V14.8H69.5399V17.32H69.9959L69.5399 17.824C69.5399 16.784 69.8519 15.984 70.4759 15.424C71.0999 14.848 71.9639 14.56 73.0679 14.56C74.3959 14.56 75.4519 14.968 76.2359 15.784C77.0199 16.6 77.4119 17.712 77.4119 19.12V28H75.2519V19.36C75.2519 18.416 74.9959 17.696 74.4839 17.2C73.9879 16.688 73.3079 16.432 72.4439 16.432C71.5479 16.432 70.8359 16.704 70.3079 17.248C69.7959 17.792 69.5399 18.576 69.5399 19.6V28H67.3799ZM86.8585 28.24C85.8025 28.24 84.8745 28.04 84.0745 27.64C83.2905 27.24 82.6825 26.664 82.2505 25.912C81.8185 25.144 81.6025 24.24 81.6025 23.2V19.6C81.6025 18.544 81.8185 17.64 82.2505 16.888C82.6825 16.136 83.2905 15.56 84.0745 15.16C84.8745 14.76 85.8025 14.56 86.8585 14.56C88.3785 14.56 89.6025 14.968 90.5305 15.784C91.4585 16.6 91.9465 17.712 91.9945 19.12H89.8345C89.7865 18.272 89.4985 17.624 88.9705 17.176C88.4585 16.712 87.7545 16.48 86.8585 16.48C85.9145 16.48 85.1625 16.752 84.6025 17.296C84.0425 17.824 83.7625 18.584 83.7625 19.576V23.2C83.7625 24.192 84.0425 24.96 84.6025 25.504C85.1625 26.048 85.9145 26.32 86.8585 26.32C87.7545 26.32 88.4585 26.088 88.9705 25.624C89.4985 25.16 89.7865 24.512 89.8345 23.68H91.9945C91.9465 25.088 91.4585 26.2 90.5305 27.016C89.6025 27.832 88.3785 28.24 86.8585 28.24Z" fill="#45A0F5"/>
<path d="M105.593 30.88C103.321 30.32 101.553 29.216 100.289 27.568C99.0251 25.92 98.3931 23.904 98.3931 21.52V17.2C98.3931 15.632 98.6811 14.216 99.2571 12.952C99.8491 11.672 100.681 10.592 101.753 9.712C102.841 8.832 104.121 8.208 105.593 7.84V9.88C104.569 10.12 103.681 10.584 102.929 11.272C102.177 11.944 101.593 12.784 101.177 13.792C100.761 14.8 100.553 15.936 100.553 17.2V21.52C100.553 22.752 100.753 23.872 101.153 24.88C101.569 25.888 102.153 26.728 102.905 27.4C103.673 28.056 104.569 28.504 105.593 28.744V30.88ZM111.104 30.88V28.744C112.144 28.504 113.04 28.056 113.792 27.4C114.544 26.728 115.12 25.888 115.52 24.88C115.936 23.872 116.144 22.752 116.144 21.52V17.2C116.144 15.936 115.936 14.8 115.52 13.792C115.104 12.784 114.52 11.944 113.768 11.272C113.016 10.584 112.128 10.12 111.104 9.88V7.84C112.592 8.208 113.872 8.832 114.944 9.712C116.016 10.592 116.84 11.672 117.416 12.952C118.008 14.216 118.304 15.632 118.304 17.2V21.52C118.304 23.904 117.672 25.92 116.408 27.568C115.144 29.216 113.376 30.32 111.104 30.88Z" fill="#26E3C2"/>
<path d="M129.324 18.8613C128.986 18.8613 128.699 18.7441 128.465 18.5098C128.237 18.2754 128.123 17.9889 128.123 17.6504C128.123 17.3118 128.237 17.0254 128.465 16.791C128.699 16.5501 128.986 16.4297 129.324 16.4297C129.669 16.4297 129.956 16.5501 130.184 16.791C130.418 17.0254 130.535 17.3118 130.535 17.6504C130.535 17.9889 130.418 18.2754 130.184 18.5098C129.956 18.7441 129.669 18.8613 129.324 18.8613ZM129.324 26.1953C128.986 26.1953 128.699 26.0781 128.465 25.8438C128.237 25.6094 128.123 25.3229 128.123 24.9844C128.123 24.6458 128.237 24.3594 128.465 24.125C128.699 23.8841 128.986 23.7637 129.324 23.7637C129.669 23.7637 129.956 23.8841 130.184 24.125C130.418 24.3594 130.535 24.6458 130.535 24.9844C130.535 25.3229 130.418 25.6094 130.184 25.8438C129.956 26.0781 129.669 26.1953 129.324 26.1953ZM138.836 13.6465C138.497 13.6465 138.211 13.5293 137.977 13.2949C137.749 13.054 137.635 12.7643 137.635 12.4258C137.635 12.0938 137.749 11.8105 137.977 11.5762C138.211 11.3353 138.497 11.2148 138.836 11.2148C139.181 11.2148 139.471 11.3353 139.705 11.5762C139.939 11.8105 140.057 12.0938 140.057 12.4258C140.057 12.7643 139.939 13.054 139.705 13.2949C139.471 13.5293 139.181 13.6465 138.836 13.6465ZM140.037 26H137.635V16.2344H140.037V26ZM146.727 26.0781C145.822 26.0781 145.014 25.86 144.305 25.4238C143.595 24.9876 143.035 24.3919 142.625 23.6367C142.215 22.875 142.01 22.0156 142.01 21.0586C142.01 20.0951 142.215 19.2357 142.625 18.4805C143.035 17.7253 143.595 17.1296 144.305 16.6934C145.014 16.2572 145.822 16.0391 146.727 16.0391C147.436 16.0391 148.09 16.1758 148.689 16.4492C149.288 16.7227 149.796 17.1035 150.213 17.5918L150.33 16.2344H152.439V25.7363C152.439 26.8171 152.208 27.7578 151.746 28.5586C151.29 29.3594 150.646 29.9779 149.812 30.4141C148.979 30.8568 147.993 31.0781 146.854 31.0781C145.271 31.0781 143.855 30.5736 142.605 29.5645L143.592 27.6016C144.464 28.4805 145.499 28.9199 146.697 28.9199C147.374 28.9199 147.96 28.7832 148.455 28.5098C148.956 28.2428 149.344 27.862 149.617 27.3672C149.897 26.8789 150.037 26.306 150.037 25.6484V24.7109C149.62 25.1406 149.129 25.4759 148.562 25.7168C147.996 25.9577 147.384 26.0781 146.727 26.0781ZM147.254 23.9395C147.768 23.9395 148.234 23.8255 148.65 23.5977C149.074 23.3633 149.409 23.0443 149.656 22.6406C149.91 22.237 150.037 21.778 150.037 21.2637V20.834C150.037 20.3197 149.91 19.8639 149.656 19.4668C149.409 19.0697 149.074 18.7572 148.65 18.5293C148.227 18.2949 147.762 18.1777 147.254 18.1777C146.72 18.1777 146.242 18.3047 145.818 18.5586C145.395 18.806 145.06 19.1478 144.812 19.584C144.572 20.0202 144.451 20.5117 144.451 21.0586C144.451 21.6055 144.572 22.097 144.812 22.5332C145.06 22.9694 145.395 23.3145 145.818 23.5684C146.242 23.8158 146.72 23.9395 147.254 23.9395ZM164.48 26H162.078V20.7363C162.078 19.9486 161.88 19.3301 161.482 18.8809C161.092 18.4316 160.548 18.207 159.852 18.207C159.363 18.207 158.93 18.321 158.553 18.5488C158.175 18.7702 157.879 19.0892 157.664 19.5059C157.449 19.9225 157.342 20.4076 157.342 20.9609V26H154.939V16.2344H156.922L157 17.8066C157.352 17.2337 157.83 16.7975 158.436 16.498C159.041 16.1921 159.731 16.0391 160.506 16.0391C161.736 16.0391 162.706 16.4134 163.416 17.1621C164.126 17.9108 164.48 18.9362 164.48 20.2383V26ZM168.113 13.6465C167.775 13.6465 167.488 13.5293 167.254 13.2949C167.026 13.054 166.912 12.7643 166.912 12.4258C166.912 12.0938 167.026 11.8105 167.254 11.5762C167.488 11.3353 167.775 11.2148 168.113 11.2148C168.458 11.2148 168.748 11.3353 168.982 11.5762C169.217 11.8105 169.334 12.0938 169.334 12.4258C169.334 12.7643 169.217 13.054 168.982 13.2949C168.748 13.5293 168.458 13.6465 168.113 13.6465ZM169.314 26H166.912V16.2344H169.314V26ZM178.387 25.7461C177.671 26.0456 176.977 26.1953 176.307 26.1953C175.623 26.1953 175.021 26.0488 174.5 25.7559C173.986 25.4629 173.582 25.056 173.289 24.5352C173.003 24.0078 172.859 23.3958 172.859 22.6992V18.3828H171.15V16.2344H172.986V13.793H175.262V16.2344H178.045V18.3828H175.262V22.2598C175.262 22.8132 175.411 23.2493 175.711 23.5684C176.017 23.8874 176.398 24.0469 176.854 24.0469C177.257 24.0469 177.658 23.9232 178.055 23.6758L178.387 25.7461ZM181.121 13.6465C180.783 13.6465 180.496 13.5293 180.262 13.2949C180.034 13.054 179.92 12.7643 179.92 12.4258C179.92 12.0938 180.034 11.8105 180.262 11.5762C180.496 11.3353 180.783 11.2148 181.121 11.2148C181.466 11.2148 181.756 11.3353 181.99 11.5762C182.225 11.8105 182.342 12.0938 182.342 12.4258C182.342 12.7643 182.225 13.054 181.99 13.2949C181.756 13.5293 181.466 13.6465 181.121 13.6465ZM182.322 26H179.92V16.2344H182.322V26ZM194.5 26H192.098V20.7363C192.098 19.9486 191.899 19.3301 191.502 18.8809C191.111 18.4316 190.568 18.207 189.871 18.207C189.383 18.207 188.95 18.321 188.572 18.5488C188.195 18.7702 187.898 19.0892 187.684 19.5059C187.469 19.9225 187.361 20.4076 187.361 20.9609V26H184.959V16.2344H186.941L187.02 17.8066C187.371 17.2337 187.85 16.7975 188.455 16.498C189.061 16.1921 189.751 16.0391 190.525 16.0391C191.756 16.0391 192.726 16.4134 193.436 17.1621C194.145 17.9108 194.5 18.9362 194.5 20.2383V26ZM200.965 26.0781C200.06 26.0781 199.253 25.86 198.543 25.4238C197.833 24.9876 197.273 24.3919 196.863 23.6367C196.453 22.875 196.248 22.0156 196.248 21.0586C196.248 20.0951 196.453 19.2357 196.863 18.4805C197.273 17.7253 197.833 17.1296 198.543 16.6934C199.253 16.2572 200.06 16.0391 200.965 16.0391C201.674 16.0391 202.329 16.1758 202.928 16.4492C203.527 16.7227 204.035 17.1035 204.451 17.5918L204.568 16.2344H206.678V25.7363C206.678 26.8171 206.447 27.7578 205.984 28.5586C205.529 29.3594 204.884 29.9779 204.051 30.4141C203.217 30.8568 202.231 31.0781 201.092 31.0781C199.51 31.0781 198.094 30.5736 196.844 29.5645L197.83 27.6016C198.702 28.4805 199.738 28.9199 200.936 28.9199C201.613 28.9199 202.199 28.7832 202.693 28.5098C203.195 28.2428 203.582 27.862 203.855 27.3672C204.135 26.8789 204.275 26.306 204.275 25.6484V24.7109C203.859 25.1406 203.367 25.4759 202.801 25.7168C202.234 25.9577 201.622 26.0781 200.965 26.0781ZM201.492 23.9395C202.007 23.9395 202.472 23.8255 202.889 23.5977C203.312 23.3633 203.647 23.0443 203.895 22.6406C204.148 22.237 204.275 21.778 204.275 21.2637V20.834C204.275 20.3197 204.148 19.8639 203.895 19.4668C203.647 19.0697 203.312 18.7572 202.889 18.5293C202.465 18.2949 202 18.1777 201.492 18.1777C200.958 18.1777 200.48 18.3047 200.057 18.5586C199.633 18.806 199.298 19.1478 199.051 19.584C198.81 20.0202 198.689 20.5117 198.689 21.0586C198.689 21.6055 198.81 22.097 199.051 22.5332C199.298 22.9694 199.633 23.3145 200.057 23.5684C200.48 23.8158 200.958 23.9395 201.492 23.9395ZM219.695 13.6465C219.357 13.6465 219.07 13.5293 218.836 13.2949C218.608 13.054 218.494 12.7643 218.494 12.4258C218.494 12.0938 218.608 11.8105 218.836 11.5762C219.07 11.3353 219.357 11.2148 219.695 11.2148C220.04 11.2148 220.33 11.3353 220.564 11.5762C220.799 11.8105 220.916 12.0938 220.916 12.4258C220.916 12.7643 220.799 13.054 220.564 13.2949C220.33 13.5293 220.04 13.6465 219.695 13.6465ZM220.896 26H218.494V16.2344H220.896V26ZM233.074 26H230.672V20.7363C230.672 19.9486 230.473 19.3301 230.076 18.8809C229.686 18.4316 229.142 18.207 228.445 18.207C227.957 18.207 227.524 18.321 227.146 18.5488C226.769 18.7702 226.473 19.0892 226.258 19.5059C226.043 19.9225 225.936 20.4076 225.936 20.9609V26H223.533V16.2344H225.516L225.594 17.8066C225.945 17.2337 226.424 16.7975 227.029 16.498C227.635 16.1921 228.325 16.0391 229.1 16.0391C230.33 16.0391 231.3 16.4134 232.01 17.1621C232.719 17.9108 233.074 18.9362 233.074 20.2383V26ZM245.027 26H242.625V20.7363C242.625 19.9486 242.426 19.3301 242.029 18.8809C241.639 18.4316 241.095 18.207 240.398 18.207C239.91 18.207 239.477 18.321 239.1 18.5488C238.722 18.7702 238.426 19.0892 238.211 19.5059C237.996 19.9225 237.889 20.4076 237.889 20.9609V26H235.486V16.2344H237.469L237.547 17.8066C237.898 17.2337 238.377 16.7975 238.982 16.498C239.588 16.1921 240.278 16.0391 241.053 16.0391C242.283 16.0391 243.253 16.4134 243.963 17.1621C244.673 17.9108 245.027 18.9362 245.027 20.2383V26ZM251.971 26.1953C250.981 26.1953 250.092 25.974 249.305 25.5312C248.523 25.0885 247.905 24.4863 247.449 23.7246C247 22.9564 246.775 22.0872 246.775 21.1172C246.775 20.1471 247 19.2812 247.449 18.5195C247.905 17.7513 248.523 17.1458 249.305 16.7031C250.092 16.2604 250.981 16.0391 251.971 16.0391C252.967 16.0391 253.855 16.2604 254.637 16.7031C255.418 17.1458 256.03 17.7513 256.473 18.5195C256.922 19.2812 257.146 20.1471 257.146 21.1172C257.146 22.0872 256.922 22.9564 256.473 23.7246C256.03 24.4863 255.418 25.0885 254.637 25.5312C253.855 25.974 252.967 26.1953 251.971 26.1953ZM251.961 24.0371C252.482 24.0371 252.947 23.9102 253.357 23.6562C253.768 23.4023 254.09 23.054 254.324 22.6113C254.565 22.1686 254.686 21.6673 254.686 21.1074C254.686 20.554 254.565 20.0592 254.324 19.623C254.09 19.1803 253.768 18.832 253.357 18.5781C252.947 18.3242 252.482 18.1973 251.961 18.1973C251.447 18.1973 250.981 18.3242 250.564 18.5781C250.154 18.832 249.829 19.1803 249.588 19.623C249.354 20.0592 249.236 20.554 249.236 21.1074C249.236 21.6673 249.354 22.1686 249.588 22.6113C249.829 23.054 250.154 23.4023 250.564 23.6562C250.981 23.9102 251.447 24.0371 251.961 24.0371ZM268.387 16.2344L264.354 26H262.029L258.006 16.2344H260.584L263.201 23.5586L265.828 16.2344H268.387ZM278.357 26H276.268L276.131 24.7988C275.773 25.2415 275.327 25.5866 274.793 25.834C274.259 26.0749 273.667 26.1953 273.016 26.1953C272.326 26.1953 271.71 26.0618 271.17 25.7949C270.63 25.5215 270.203 25.1504 269.891 24.6816C269.585 24.2129 269.432 23.679 269.432 23.0801C269.432 22.4486 269.598 21.8952 269.93 21.4199C270.268 20.9382 270.727 20.5605 271.307 20.2871C271.893 20.0137 272.56 19.877 273.309 19.877C273.764 19.877 274.22 19.929 274.676 20.0332C275.138 20.1374 275.564 20.2839 275.955 20.4727V20.1602C275.955 19.7305 275.838 19.3594 275.604 19.0469C275.369 18.7344 275.053 18.4935 274.656 18.3242C274.259 18.1484 273.813 18.0605 273.318 18.0605C272.869 18.0605 272.42 18.1387 271.971 18.2949C271.521 18.4447 271.102 18.6693 270.711 18.9688L270.027 17.084C270.652 16.7389 271.29 16.4785 271.941 16.3027C272.599 16.127 273.24 16.0391 273.865 16.0391C274.783 16.0391 275.577 16.2214 276.248 16.5859C276.919 16.944 277.436 17.4583 277.801 18.1289C278.172 18.793 278.357 19.5775 278.357 20.4824V26ZM273.514 24.2617C273.937 24.2617 274.327 24.1738 274.686 23.998C275.05 23.8223 275.346 23.5781 275.574 23.2656C275.809 22.9466 275.932 22.582 275.945 22.1719V22.0645C275.639 21.8431 275.294 21.6738 274.91 21.5566C274.526 21.4329 274.139 21.3711 273.748 21.3711C273.149 21.3711 272.658 21.5078 272.273 21.7812C271.889 22.0482 271.697 22.3997 271.697 22.8359C271.697 23.1029 271.775 23.347 271.932 23.5684C272.088 23.7832 272.303 23.9525 272.576 24.0762C272.856 24.1999 273.169 24.2617 273.514 24.2617ZM286.902 25.7461C286.186 26.0456 285.493 26.1953 284.822 26.1953C284.139 26.1953 283.536 26.0488 283.016 25.7559C282.501 25.4629 282.098 25.056 281.805 24.5352C281.518 24.0078 281.375 23.3958 281.375 22.6992V18.3828H279.666V16.2344H281.502V13.793H283.777V16.2344H286.561V18.3828H283.777V22.2598C283.777 22.8132 283.927 23.2493 284.227 23.5684C284.533 23.8874 284.913 24.0469 285.369 24.0469C285.773 24.0469 286.173 23.9232 286.57 23.6758L286.902 25.7461ZM289.637 13.6465C289.298 13.6465 289.012 13.5293 288.777 13.2949C288.549 13.054 288.436 12.7643 288.436 12.4258C288.436 12.0938 288.549 11.8105 288.777 11.5762C289.012 11.3353 289.298 11.2148 289.637 11.2148C289.982 11.2148 290.271 11.3353 290.506 11.5762C290.74 11.8105 290.857 12.0938 290.857 12.4258C290.857 12.7643 290.74 13.054 290.506 13.2949C290.271 13.5293 289.982 13.6465 289.637 13.6465ZM290.838 26H288.436V16.2344H290.838V26ZM298.006 26.1953C297.016 26.1953 296.128 25.974 295.34 25.5312C294.559 25.0885 293.94 24.4863 293.484 23.7246C293.035 22.9564 292.811 22.0872 292.811 21.1172C292.811 20.1471 293.035 19.2812 293.484 18.5195C293.94 17.7513 294.559 17.1458 295.34 16.7031C296.128 16.2604 297.016 16.0391 298.006 16.0391C299.002 16.0391 299.891 16.2604 300.672 16.7031C301.453 17.1458 302.065 17.7513 302.508 18.5195C302.957 19.2812 303.182 20.1471 303.182 21.1172C303.182 22.0872 302.957 22.9564 302.508 23.7246C302.065 24.4863 301.453 25.0885 300.672 25.5312C299.891 25.974 299.002 26.1953 298.006 26.1953ZM297.996 24.0371C298.517 24.0371 298.982 23.9102 299.393 23.6562C299.803 23.4023 300.125 23.054 300.359 22.6113C300.6 22.1686 300.721 21.6673 300.721 21.1074C300.721 20.554 300.6 20.0592 300.359 19.623C300.125 19.1803 299.803 18.832 299.393 18.5781C298.982 18.3242 298.517 18.1973 297.996 18.1973C297.482 18.1973 297.016 18.3242 296.6 18.5781C296.189 18.832 295.864 19.1803 295.623 19.623C295.389 20.0592 295.271 20.554 295.271 21.1074C295.271 21.6673 295.389 22.1686 295.623 22.6113C295.864 23.054 296.189 23.4023 296.6 23.6562C297.016 23.9102 297.482 24.0371 297.996 24.0371ZM314.656 26H312.254V20.7363C312.254 19.9486 312.055 19.3301 311.658 18.8809C311.268 18.4316 310.724 18.207 310.027 18.207C309.539 18.207 309.106 18.321 308.729 18.5488C308.351 18.7702 308.055 19.0892 307.84 19.5059C307.625 19.9225 307.518 20.4076 307.518 20.9609V26H305.115V16.2344H307.098L307.176 17.8066C307.527 17.2337 308.006 16.7975 308.611 16.498C309.217 16.1921 309.907 16.0391 310.682 16.0391C311.912 16.0391 312.882 16.4134 313.592 17.1621C314.301 17.9108 314.656 18.9362 314.656 20.2383V26ZM316.385 25.1602L316.932 23.0703C317.146 23.2852 317.413 23.4805 317.732 23.6562C318.051 23.832 318.39 23.972 318.748 24.0762C319.113 24.1738 319.467 24.2227 319.812 24.2227C320.275 24.2227 320.646 24.1283 320.926 23.9395C321.206 23.7441 321.346 23.4902 321.346 23.1777C321.346 22.9303 321.261 22.7253 321.092 22.5625C320.923 22.3932 320.701 22.2467 320.428 22.123C320.154 21.9928 319.855 21.8659 319.529 21.7422C319.1 21.5859 318.663 21.4004 318.221 21.1855C317.778 20.9642 317.407 20.6745 317.107 20.3164C316.814 19.9518 316.668 19.4701 316.668 18.8711C316.668 18.2917 316.814 17.7904 317.107 17.3672C317.407 16.944 317.824 16.6185 318.357 16.3906C318.891 16.1562 319.513 16.0391 320.223 16.0391C321.342 16.0391 322.459 16.319 323.572 16.8789L322.879 18.8516C322.671 18.6953 322.417 18.5521 322.117 18.4219C321.818 18.2917 321.512 18.1875 321.199 18.1094C320.887 18.0312 320.604 17.9922 320.35 17.9922C319.979 17.9922 319.682 18.0736 319.461 18.2363C319.24 18.3991 319.129 18.6139 319.129 18.8809C319.129 19.0632 319.191 19.2292 319.314 19.3789C319.438 19.5221 319.63 19.6621 319.891 19.7988C320.151 19.9355 320.486 20.0885 320.896 20.2578C321.339 20.4271 321.782 20.6257 322.225 20.8535C322.674 21.0749 323.048 21.3711 323.348 21.7422C323.654 22.1068 323.807 22.5918 323.807 23.1973C323.807 23.7962 323.644 24.3203 323.318 24.7695C322.999 25.2188 322.55 25.5703 321.971 25.8242C321.398 26.0716 320.727 26.1953 319.959 26.1953C318.683 26.1953 317.492 25.8503 316.385 25.1602Z" fill="#FA5255"/>
</svg>
