<svg width="146" height="36" viewBox="0 0 146 36" fill="none" xmlns="http://www.w3.org/2000/svg">
<path d="M28.048 28.24C26.656 28.24 25.56 27.888 24.76 27.184C23.96 26.464 23.56 25.496 23.56 24.28C23.56 23.048 23.96 22.08 24.76 21.376C25.56 20.672 26.64 20.32 28 20.32H32.08V19C32.08 18.184 31.832 17.56 31.336 17.128C30.856 16.68 30.168 16.456 29.272 16.456C28.488 16.456 27.832 16.624 27.304 16.96C26.776 17.28 26.472 17.72 26.392 18.28H24.232C24.376 17.144 24.912 16.24 25.84 15.568C26.768 14.896 27.928 14.56 29.32 14.56C30.84 14.56 32.04 14.952 32.92 15.736C33.8 16.52 34.24 17.584 34.24 18.928V28H32.128V25.48H31.768L32.128 25.12C32.128 26.08 31.752 26.84 31 27.4C30.264 27.96 29.28 28.24 28.048 28.24ZM28.576 26.536C29.6 26.536 30.44 26.28 31.096 25.768C31.752 25.256 32.08 24.6 32.08 23.8V21.928H28.048C27.328 21.928 26.76 22.128 26.344 22.528C25.928 22.928 25.72 23.472 25.72 24.16C25.72 24.896 25.968 25.48 26.464 25.912C26.976 26.328 27.68 26.536 28.576 26.536ZM43.1826 28.192C42.2866 28.192 41.5026 28.056 40.8306 27.784C40.1746 27.496 39.6466 27.096 39.2466 26.584C38.8626 26.072 38.6306 25.464 38.5506 24.76H40.7106C40.8066 25.224 41.0626 25.592 41.4786 25.864C41.9106 26.136 42.4786 26.272 43.1826 26.272H44.1906C45.0386 26.272 45.6706 26.104 46.0866 25.768C46.5026 25.416 46.7106 24.952 46.7106 24.376C46.7106 23.816 46.5186 23.376 46.1346 23.056C45.7666 22.72 45.2146 22.496 44.4786 22.384L42.7026 22.096C41.4066 21.872 40.4386 21.472 39.7986 20.896C39.1746 20.304 38.8626 19.448 38.8626 18.328C38.8626 17.144 39.2386 16.232 39.9906 15.592C40.7426 14.936 41.8706 14.608 43.3746 14.608H44.2866C45.5506 14.608 46.5666 14.904 47.3346 15.496C48.1026 16.088 48.5666 16.888 48.7266 17.896H46.5666C46.4706 17.48 46.2306 17.152 45.8466 16.912C45.4626 16.656 44.9426 16.528 44.2866 16.528H43.3746C42.5586 16.528 41.9586 16.68 41.5746 16.984C41.2066 17.288 41.0226 17.744 41.0226 18.352C41.0226 18.896 41.1826 19.296 41.5026 19.552C41.8226 19.808 42.3266 19.992 43.0146 20.104L44.7906 20.392C46.2146 20.616 47.2466 21.032 47.8866 21.64C48.5426 22.248 48.8706 23.128 48.8706 24.28C48.8706 25.496 48.4786 26.456 47.6946 27.16C46.9266 27.848 45.7586 28.192 44.1906 28.192H43.1826ZM55.0533 32.32L56.9973 27.184L52.1013 14.8H54.5013L57.5733 22.96C57.6853 23.232 57.7893 23.56 57.8853 23.944C57.9813 24.312 58.0613 24.624 58.1253 24.88C58.1893 24.624 58.2693 24.312 58.3653 23.944C58.4613 23.56 58.5573 23.232 58.6533 22.96L61.5333 14.8H63.8613L57.3573 32.32H55.0533ZM67.3799 28V14.8H69.5399V17.32H69.9959L69.5399 17.824C69.5399 16.784 69.8519 15.984 70.4759 15.424C71.0999 14.848 71.9639 14.56 73.0679 14.56C74.3959 14.56 75.4519 14.968 76.2359 15.784C77.0199 16.6 77.4119 17.712 77.4119 19.12V28H75.2519V19.36C75.2519 18.416 74.9959 17.696 74.4839 17.2C73.9879 16.688 73.3079 16.432 72.4439 16.432C71.5479 16.432 70.8359 16.704 70.3079 17.248C69.7959 17.792 69.5399 18.576 69.5399 19.6V28H67.3799ZM86.8585 28.24C85.8025 28.24 84.8745 28.04 84.0745 27.64C83.2905 27.24 82.6825 26.664 82.2505 25.912C81.8185 25.144 81.6025 24.24 81.6025 23.2V19.6C81.6025 18.544 81.8185 17.64 82.2505 16.888C82.6825 16.136 83.2905 15.56 84.0745 15.16C84.8745 14.76 85.8025 14.56 86.8585 14.56C88.3785 14.56 89.6025 14.968 90.5305 15.784C91.4585 16.6 91.9465 17.712 91.9945 19.12H89.8345C89.7865 18.272 89.4985 17.624 88.9705 17.176C88.4585 16.712 87.7545 16.48 86.8585 16.48C85.9145 16.48 85.1625 16.752 84.6025 17.296C84.0425 17.824 83.7625 18.584 83.7625 19.576V23.2C83.7625 24.192 84.0425 24.96 84.6025 25.504C85.1625 26.048 85.9145 26.32 86.8585 26.32C87.7545 26.32 88.4585 26.088 88.9705 25.624C89.4985 25.16 89.7865 24.512 89.8345 23.68H91.9945C91.9465 25.088 91.4585 26.2 90.5305 27.016C89.6025 27.832 88.3785 28.24 86.8585 28.24Z" fill="#45A0F5"/>
<path d="M105.593 30.88C103.321 30.32 101.553 29.216 100.289 27.568C99.0251 25.92 98.3931 23.904 98.3931 21.52V17.2C98.3931 15.632 98.6811 14.216 99.2571 12.952C99.8491 11.672 100.681 10.592 101.753 9.712C102.841 8.832 104.121 8.208 105.593 7.84V9.88C104.569 10.12 103.681 10.584 102.929 11.272C102.177 11.944 101.593 12.784 101.177 13.792C100.761 14.8 100.553 15.936 100.553 17.2V21.52C100.553 22.752 100.753 23.872 101.153 24.88C101.569 25.888 102.153 26.728 102.905 27.4C103.673 28.056 104.569 28.504 105.593 28.744V30.88ZM111.104 30.88V28.744C112.144 28.504 113.04 28.056 113.792 27.4C114.544 26.728 115.12 25.888 115.52 24.88C115.936 23.872 116.144 22.752 116.144 21.52V17.2C116.144 15.936 115.936 14.8 115.52 13.792C115.104 12.784 114.52 11.944 113.768 11.272C113.016 10.584 112.128 10.12 111.104 9.88V7.84C112.592 8.208 113.872 8.832 114.944 9.712C116.016 10.592 116.84 11.672 117.416 12.952C118.008 14.216 118.304 15.632 118.304 17.2V21.52C118.304 23.904 117.672 25.92 116.408 27.568C115.144 29.216 113.376 30.32 111.104 30.88Z" fill="#26E3C2"/>
</svg>
