<svg width="389" height="437" viewBox="0 0 389 437" fill="none" xmlns="http://www.w3.org/2000/svg">
<path d="M229.28 22.0145C231.96 18.6502 233.957 18.7548 236.27 22.3809C238.583 26.0069 229.508 94.1255 229.508 94.1255L226.519 93.9688C226.519 93.9688 226.6 25.3789 229.28 22.0145Z" fill="#26E3C2"/>
<path d="M215.843 29.0624C217.024 26.8034 217.938 26.8194 219.04 29.1182C220.142 31.4171 216.853 75.9752 216.853 75.9752L215.485 75.9513C215.485 75.9513 214.661 31.3214 215.843 29.0624Z" fill="url(#paint0_linear_91_159)"/>
<path d="M138.694 44.3656C138.81 41.7143 139.651 41.3573 141.638 43.1161C143.625 44.8749 159.632 89.0118 159.632 89.0118L158.373 89.5461C158.373 89.5461 138.579 47.017 138.694 44.3656Z" fill="url(#paint1_linear_91_159)"/>
<path d="M74.3279 91.2393C73.1737 88.6631 73.785 87.9841 76.4677 88.8628C79.1503 89.7415 115.017 125.415 115.017 125.415L114.102 126.432C114.102 126.432 75.482 93.8155 74.3279 91.2393Z" fill="url(#paint2_linear_91_159)"/>
<path d="M35.3009 160.177C33.5742 158.415 33.8565 157.546 36.2891 157.136C38.7217 156.726 78.6481 172.339 78.6481 172.339L78.2255 173.64C78.2255 173.64 37.0276 161.939 35.3009 160.177Z" fill="url(#paint3_linear_91_159)"/>
<path d="M30.4347 237.191C28.1912 236.165 28.1433 235.253 30.2673 233.998C32.3912 232.743 75.2611 233.011 75.2611 233.011L75.3327 234.377C75.3327 234.377 32.6781 238.217 30.4347 237.191Z" fill="url(#paint4_linear_91_159)"/>
<path d="M55.6571 312.085C52.9192 312.347 52.4624 311.555 54.0582 309.315C55.654 307.075 99.3177 284.766 99.3177 284.766L100.002 285.95C100.002 285.95 58.3951 311.823 55.6571 312.085Z" fill="url(#paint5_linear_91_159)"/>
<path d="M107.536 370.556C105.118 371.867 104.388 371.317 104.982 368.632C105.576 365.946 137.051 328.349 137.051 328.349L138.143 329.172C138.143 329.172 109.954 369.245 107.536 370.556Z" fill="url(#paint6_linear_91_159)"/>
<path d="M180.734 399.023C179.082 400.926 178.196 400.705 177.631 398.249C177.066 395.794 190.137 353.749 190.137 353.749L191.464 354.08C191.464 354.08 182.385 397.12 180.734 399.023Z" fill="url(#paint7_linear_91_159)"/>
<path d="M258.861 400.779C258.169 403.202 257.272 403.376 255.722 401.389C254.173 399.403 248.25 355.773 248.25 355.773L249.593 355.512C249.593 355.512 259.554 398.356 258.861 400.779Z" fill="url(#paint8_linear_91_159)"/>
<path d="M329.71 369.319C329.975 371.825 329.209 372.323 327.028 371.061C324.847 369.799 303.012 331.566 303.012 331.566L304.159 330.821C304.159 330.821 329.445 366.814 329.71 369.319Z" fill="url(#paint9_linear_91_159)"/>
<path d="M292.573 45.0535C294.662 43.3751 295.484 43.7756 295.447 46.4553C295.411 49.1351 272.353 90.6824 272.353 90.6824L271.123 90.0829C271.123 90.0829 290.483 46.7319 292.573 45.0535Z" fill="url(#paint10_linear_91_159)"/>
<path d="M357.591 89.7556C360.008 89.0662 360.567 89.7096 359.548 92.0076C358.529 94.3056 323.361 121.772 323.361 121.772L322.523 120.809C322.523 120.809 355.173 90.4449 357.591 89.7556Z" fill="url(#paint11_linear_91_159)"/>
<path d="M183.297 4.28876C185.23 -0.491011 187.214 -0.734732 190.245 3.43569C193.276 7.6061 198.573 95.8597 198.573 95.8597L195.602 96.2245C195.602 96.2245 181.365 9.06853 183.297 4.28876Z" fill="#26E3C2"/>
<path d="M152.418 36.3723C153.685 32.3716 155.575 31.7205 159.036 34.0934C162.497 36.4662 178.774 100.624 178.774 100.624L175.944 101.598C175.944 101.598 151.151 40.3729 152.418 36.3723Z" fill="#26E3C2"/>
<path d="M172.728 47.1746C174.528 44.0602 176.469 43.5764 179.52 45.4812C182.571 47.3861 189.483 97.8325 189.483 97.8325L186.579 98.5567C186.579 98.5567 170.928 50.2891 172.728 47.1746Z" fill="#FF334D"/>
<path d="M244.826 42.4026C247.7 40.2392 249.675 40.552 251.739 43.4976C253.804 46.4433 240.455 95.5802 240.455 95.5802L237.499 95.112C237.499 95.112 241.951 44.5661 244.826 42.4026Z" fill="#FF334D"/>
<path d="M313.14 69.3205C316.587 68.6034 318.264 69.6925 319.01 73.1329C319.757 76.5732 288.725 114.265 288.725 114.265L286.214 112.635C286.214 112.635 309.693 70.0377 313.14 69.3205Z" fill="#FF334D"/>
<path d="M105.559 80.4739C105.812 76.8855 107.344 75.6 110.922 75.9745C114.499 76.349 142.826 118.66 142.826 118.66L140.533 120.584C140.533 120.584 105.307 84.0623 105.559 80.4739Z" fill="#FF334D"/>
<path d="M59.4304 136.824C58.261 133.422 59.1688 131.64 62.6082 130.587C66.0476 129.534 108.655 157.413 108.655 157.413L107.296 160.08C107.296 160.08 60.5999 140.226 59.4304 136.824Z" fill="#FF334D"/>
<path d="M38.6829 209.014C36.1853 206.425 36.2551 204.426 38.9272 202.018C41.5993 199.61 91.9967 206.871 91.9967 206.871L91.8923 209.862C91.8923 209.862 41.1805 211.603 38.6829 209.014Z" fill="#FF334D"/>
<path d="M50.1676 281.557C46.8569 280.15 46.1403 278.283 47.6591 275.022C49.1779 271.761 98.4058 258.753 98.4058 258.753L99.4786 261.547C99.4786 261.547 53.4782 282.964 50.1676 281.557Z" fill="#FF334D"/>
<path d="M93.2042 340.991C89.7689 340.833 88.3797 339.394 88.3418 335.956C88.3038 332.517 125.366 304.369 125.366 304.369L127.445 306.522C127.445 306.522 96.6396 341.149 93.2042 340.991Z" fill="#FF334D"/>
<path d="M156.119 380.599C152.998 381.865 151.119 381.181 149.542 378.205C147.965 375.229 168.24 335.594 168.24 335.594L171.053 336.618C171.053 336.618 159.241 379.333 156.119 380.599Z" fill="#FF334D"/>
<path d="M227.686 391.766C225.307 394.151 223.31 394.256 220.695 392.132C218.081 390.009 221.258 345.603 221.258 345.603L224.248 345.446C224.248 345.446 230.064 389.381 227.686 391.766Z" fill="#FF334D"/>
<path d="M296.847 373.477C295.59 376.602 293.792 377.478 290.556 376.545C287.32 375.612 272.894 333.495 272.894 333.495L275.584 332.182C275.584 332.182 298.105 370.352 296.847 373.477Z" fill="#FF334D"/>
<path d="M355.13 327.763C354.496 330.466 353.237 332.02 350.725 333.203C348.213 334.385 329.116 314.346 329.116 314.346L338.614 314.346C338.614 314.346 355.764 325.06 355.13 327.763Z" fill="#FF334D"/>
<path d="M98.3853 37.8106C98.1202 32.6682 99.8161 31.6085 104.321 34.1013C108.827 36.594 150.851 114.22 150.851 114.22L148.312 115.806C148.312 115.806 98.6504 42.953 98.3853 37.8106Z" fill="#26E3C2"/>
<path d="M81.7691 77.7912C81.1777 73.5796 82.6162 72.1904 86.8043 72.9287C90.9924 73.667 133.812 125.921 133.812 125.921L131.659 128.001C131.659 128.001 82.3605 82.0028 81.7691 77.7912Z" fill="#26E3C2"/>
<path d="M35.7601 101.331C33.4555 96.7609 34.5738 95.103 39.6744 95.5281C44.7749 95.9532 114.168 149.391 114.168 149.391L112.495 151.872C112.495 151.872 38.0647 105.901 35.7601 101.331Z" fill="#26E3C2"/>
<path d="M37.3091 145.393C35.1015 141.805 35.8507 139.951 39.9312 138.903C44.0118 137.856 103.488 167.814 103.488 167.814L102.367 170.59C102.367 170.59 39.5166 148.982 37.3091 145.393Z" fill="#26E3C2"/>
<path d="M3.45622 185.476C-0.509796 182.238 -0.162556 180.268 4.67171 178.582C9.50597 176.896 94.6693 197.495 94.6693 197.495L94.1495 200.443C94.1495 200.443 7.42225 188.714 3.45622 185.476Z" fill="#26E3C2"/>
<path d="M24.1117 222.4C20.7818 219.768 20.7818 217.663 24.1117 215.032C27.4417 212.401 92.6143 218.187 92.6143 218.187V221.338C92.6143 221.338 27.4417 225.032 24.1117 222.4Z" fill="#26E3C2"/>
<path d="M9.77515 273.24C4.9622 271.65 4.48869 269.599 8.11773 266.061C11.7468 262.523 95.6585 249.089 95.6585 249.089L96.3673 252.159C96.3673 252.159 14.5881 274.83 9.77515 273.24Z" fill="#26E3C2"/>
<path d="M43.3857 302.216C39.2951 301.22 38.4055 299.312 40.2719 295.538C42.1383 291.765 102.875 269.827 102.875 269.827L104.207 272.683C104.207 272.683 47.4763 303.212 43.3857 302.216Z" fill="#26E3C2"/>
<path d="M50.4036 353.293C45.3676 353.793 44.1008 352.112 45.9695 347.409C47.8381 342.706 118.885 296.414 118.885 296.414L120.781 298.93C120.781 298.93 55.4396 352.794 50.4036 353.293Z" fill="#26E3C2"/>
<path d="M92.3077 366.604C88.1675 367.355 86.5789 365.974 86.7471 361.77C86.9153 357.566 133.439 312.866 133.439 312.866L135.817 314.933C135.817 314.933 96.4479 365.853 92.3077 366.604Z" fill="#26E3C2"/>
<path d="M120.778 410.765C116.422 413.352 114.563 412.363 114.272 407.306C113.982 402.248 158.87 330.149 158.87 330.149L161.652 331.629C161.652 331.629 125.134 408.177 120.778 410.765Z" fill="#26E3C2"/>
<path d="M163.487 403.547C160.075 405.899 158.051 405.319 156.404 401.517C154.757 397.715 177.586 339.092 177.586 339.092L180.615 339.961C180.615 339.961 166.899 401.196 163.487 403.547Z" fill="#26E3C2"/>
<path d="M208.318 433.011C205.397 437.062 203.297 436.915 200.968 432.497C198.64 428.08 210.207 345.614 210.207 345.614L213.35 345.834C213.35 345.834 211.24 428.961 208.318 433.011Z" fill="#26E3C2"/>
<path d="M243.379 408.966C241.153 412.424 239.063 412.681 236.066 409.864C233.07 407.048 231.274 344.941 231.274 344.941L234.401 344.557C234.401 344.557 245.606 405.508 243.379 408.966Z" fill="#26E3C2"/>
<path d="M295.692 417.747C294.654 422.589 292.676 423.308 288.769 420.267C284.862 417.226 262.224 338.111 262.224 338.111L265.185 337.033C265.185 337.033 296.731 412.906 295.692 417.747Z" fill="#26E3C2"/>
<path d="M321.141 379.406C320.624 383.442 318.859 384.588 314.962 383.418C311.065 382.249 282.836 328.156 282.836 328.156L285.478 326.44C285.478 326.44 321.658 375.369 321.141 379.406Z" fill="#26E3C2"/>
<path d="M372.654 367.36C373.435 371.863 371.947 373.351 367.444 372.57C362.942 371.789 313.614 314.346 313.614 314.346L317.614 314.346C317.614 314.346 371.873 362.858 372.654 367.36Z" fill="#26E3C2"/>
<path d="M378.589 326.627C379.563 330.407 377.53 332.727 373.822 332.727C370.115 332.727 351.114 314.346 351.114 314.346L361.615 314.346C361.615 314.346 377.614 322.846 378.589 326.627Z" fill="#26E3C2"/>
<path d="M272.218 9.79819C275.91 6.27676 277.822 6.86142 278.912 11.8447C280.003 16.828 249.301 98.447 249.301 98.447L246.438 97.5718C246.438 97.5718 268.527 13.3196 272.218 9.79819Z" fill="#26E3C2"/>
<path d="M308.194 45.8181C311.995 43.9943 313.761 44.9332 314.374 49.1042C314.988 53.2753 278.941 109.36 278.941 109.36L276.298 107.955C276.298 107.955 304.393 47.6418 308.194 45.8181Z" fill="#26E3C2"/>
<path d="M348.586 47.2182C353.308 45.3594 354.862 46.6179 354.026 51.6233C353.189 56.6287 294.52 120.343 294.52 120.343L292.194 118.459C292.194 118.459 343.863 49.077 348.586 47.2182Z" fill="#26E3C2"/>
<path d="M365.493 61.3238C370.383 59.9689 371.797 61.3829 370.442 66.2734C369.087 71.164 304.08 128.397 304.08 128.397L301.963 126.28C301.963 126.28 360.602 62.6788 365.493 61.3238Z" fill="#45A0F5"/>
<path d="M287.802 22.3881C291.644 19.5523 293.498 20.3014 294.292 25.0102C295.085 29.719 260.159 101.491 260.159 101.491L257.383 100.37C257.383 100.37 283.959 25.2238 287.802 22.3881Z" fill="#45A0F5"/>
<path d="M202.619 10.6627C204.976 6.50925 206.974 6.43944 209.615 10.4184C212.255 14.3973 209.54 94.1702 209.54 94.1702L206.548 94.2746C206.548 94.2746 200.262 14.8161 202.619 10.6627Z" fill="#45A0F5"/>
<path d="M117.84 35.6326C118.138 30.8664 119.904 29.9275 124.021 32.3463C128.138 34.7652 160.668 107.655 160.668 107.655L158.025 109.06C158.025 109.06 117.543 40.3987 117.84 35.6326Z" fill="#45A0F5"/>
<path d="M53.5296 90.1689C52.02 85.6383 53.3054 84.1064 58.029 84.8068C62.7526 85.5071 120.219 140.903 120.219 140.903L118.295 143.196C118.295 143.196 55.0393 94.6995 53.5296 90.1689Z" fill="#45A0F5"/>
<path d="M14.7944 168.527C11.5115 165.059 12.0291 163.127 16.6061 161.765C21.1831 160.404 96.6765 186.323 96.6765 186.323L95.9017 189.215C95.9017 189.215 18.0773 171.995 14.7944 168.527Z" fill="#45A0F5"/>
<path d="M14.0384 252.838C9.8151 250.838 9.57138 248.853 13.1853 245.891C16.7993 242.928 94.1619 238.968 94.1619 238.968L94.5267 241.939C94.5267 241.939 18.2617 254.839 14.0384 252.838Z" fill="#45A0F5"/>
<path d="M46.5578 333.013C41.9517 332.942 40.892 331.247 42.8485 327.076C44.8049 322.906 111.935 287.441 111.935 287.441L113.521 289.979C113.521 289.979 51.1639 333.083 46.5578 333.013Z" fill="#45A0F5"/>
<path d="M107.581 393.61C103.344 395.419 101.686 394.301 101.778 389.696C101.869 385.09 148.77 325.387 148.77 325.387L151.252 327.061C151.252 327.061 111.817 391.8 107.581 393.61Z" fill="#45A0F5"/>
<path d="M191.083 421.27C188.03 424.56 186.055 424.247 184.169 420.175C182.283 416.103 199.124 344.917 199.124 344.917L202.08 345.385C202.08 345.385 194.135 417.98 191.083 421.27Z" fill="#45A0F5"/>
<path d="M275.587 415.957C274.063 420.178 272.123 420.662 268.795 417.65C265.468 414.639 253.155 342.532 253.155 342.532L256.06 341.808C256.06 341.808 277.112 411.736 275.587 415.957Z" fill="#45A0F5"/>
<path d="M351.811 374.496C352.213 378.966 350.659 380.225 346.371 378.901C342.083 377.578 300.45 317.431 300.45 317.431L302.776 315.547C302.776 315.547 351.408 370.026 351.811 374.496Z" fill="#45A0F5"/>
<path d="M370.06 96.3923C373.669 96.6868 374.927 98.2409 374.465 101.832C374.002 105.423 333.614 131.346 333.614 131.346L327.614 131.346C327.614 131.346 366.45 96.0977 370.06 96.3923Z" fill="#26E3C2"/>
<path d="M383.154 143.482C385.817 144.832 386.817 146.563 386.654 149.544C386.491 152.524 358.132 162.811 358.132 162.811L353.729 160.993C353.729 160.993 380.491 142.132 383.154 143.482Z" fill="#26E3C2"/>
<path d="M361.917 135.251C364.25 136.67 365.397 138.308 365.932 140.985C366.467 143.663 347.958 149.404 347.958 149.404L342.958 149.404C342.958 149.404 359.584 133.833 361.917 135.251Z" fill="#FF334D"/>
<defs>
<linearGradient id="paint0_linear_91_159" x1="216.219" y1="76.1551" x2="192.997" y2="56.4943" gradientUnits="userSpaceOnUse">
<stop stop-color="#45A0F5"/>
<stop offset="0.321429" stop-color="#9436DC"/>
<stop offset="1" stop-color="#26E3C2"/>
</linearGradient>
<linearGradient id="paint1_linear_91_159" x1="159.13" y1="89.443" x2="129.148" y2="81.4848" gradientUnits="userSpaceOnUse">
<stop stop-color="#45A0F5"/>
<stop offset="0.321429" stop-color="#9436DC"/>
<stop offset="1" stop-color="#26E3C2"/>
</linearGradient>
<linearGradient id="paint2_linear_91_159" x1="114.756" y1="126.029" x2="83.6088" y2="132.758" gradientUnits="userSpaceOnUse">
<stop stop-color="#45A0F5"/>
<stop offset="0.321429" stop-color="#9436DC"/>
<stop offset="1" stop-color="#26E3C2"/>
</linearGradient>
<linearGradient id="paint3_linear_91_159" x1="78.6274" y1="172.996" x2="53.1434" y2="188.66" gradientUnits="userSpaceOnUse">
<stop stop-color="#45A0F5"/>
<stop offset="0.321429" stop-color="#9436DC"/>
<stop offset="1" stop-color="#26E3C2"/>
</linearGradient>
<linearGradient id="paint4_linear_91_159" x1="75.4771" y1="233.631" x2="57.2993" y2="257.388" gradientUnits="userSpaceOnUse">
<stop stop-color="#45A0F5"/>
<stop offset="0.321429" stop-color="#9436DC"/>
<stop offset="1" stop-color="#26E3C2"/>
</linearGradient>
<linearGradient id="paint5_linear_91_159" x1="99.8147" y1="285.207" x2="96.1572" y2="316.514" gradientUnits="userSpaceOnUse">
<stop stop-color="#45A0F5"/>
<stop offset="0.321429" stop-color="#9436DC"/>
<stop offset="1" stop-color="#26E3C2"/>
</linearGradient>
<linearGradient id="paint6_linear_91_159" x1="137.681" y1="328.562" x2="146.547" y2="358.808" gradientUnits="userSpaceOnUse">
<stop stop-color="#45A0F5"/>
<stop offset="0.321429" stop-color="#9436DC"/>
<stop offset="1" stop-color="#26E3C2"/>
</linearGradient>
<linearGradient id="paint7_linear_91_159" x1="190.795" y1="353.719" x2="208.715" y2="378.086" gradientUnits="userSpaceOnUse">
<stop stop-color="#45A0F5"/>
<stop offset="0.321429" stop-color="#9436DC"/>
<stop offset="1" stop-color="#26E3C2"/>
</linearGradient>
<linearGradient id="paint8_linear_91_159" x1="248.834" y1="355.468" x2="275.373" y2="369.978" gradientUnits="userSpaceOnUse">
<stop stop-color="#45A0F5"/>
<stop offset="0.321429" stop-color="#9436DC"/>
<stop offset="1" stop-color="#26E3C2"/>
</linearGradient>
<linearGradient id="paint9_linear_91_159" x1="303.439" y1="331.064" x2="333.48" y2="334.576" gradientUnits="userSpaceOnUse">
<stop stop-color="#45A0F5"/>
<stop offset="0.321429" stop-color="#9436DC"/>
<stop offset="1" stop-color="#26E3C2"/>
</linearGradient>
<linearGradient id="paint10_linear_91_159" x1="271.697" y1="90.5884" x2="257.808" y2="62.6946" gradientUnits="userSpaceOnUse">
<stop stop-color="#45A0F5"/>
<stop offset="0.321429" stop-color="#9436DC"/>
<stop offset="1" stop-color="#26E3C2"/>
</linearGradient>
<linearGradient id="paint11_linear_91_159" x1="322.83" y1="121.453" x2="320.977" y2="92.3669" gradientUnits="userSpaceOnUse">
<stop stop-color="#45A0F5"/>
<stop offset="0.321429" stop-color="#9436DC"/>
<stop offset="1" stop-color="#26E3C2"/>
</linearGradient>
</defs>
</svg>
