<svg width="192" height="184" viewBox="0 0 192 184" fill="none" xmlns="http://www.w3.org/2000/svg">
<path fill-rule="evenodd" clip-rule="evenodd" d="M151.697 5C153.077 5 154.197 3.88071 154.197 2.5C154.197 1.11929 153.077 0 151.697 0C150.316 0 149.197 1.11929 149.197 2.5C149.197 3.88071 150.316 5 151.697 5ZM39.2789 10.7173H36.2789V11.7173H35.2789V12.7173H34.2789V13.7173H28.2789V12.7173H27.2789V11.7173H26.2789V10.7173H23.2789V13.7173H24.2789V14.7173H25.2789V15.7173H26.2789V21.7173H25.2789V22.7173H24.2789V23.7173H23.2789V26.7173H26.2789V25.7173H27.2789V24.7173H28.2789V23.7173H34.2789V24.7173H35.2789V25.7173H36.2789V26.7173H39.2789V23.7173H38.2789V22.7173H37.2789V21.7173H36.2789V15.7173H37.2789V14.7173H38.2789V13.7173H39.2789V10.7173ZM29.2789 16.7173H33.2789V20.7173H29.2789V16.7173ZM181.772 65.1486L179.376 66.9541L179.978 67.7527L179.18 68.3545L179.781 69.1531L178.983 69.755L179.585 70.5536L174.793 74.1645L174.191 73.3658L173.392 73.9677L172.791 73.169L171.992 73.7708L171.39 72.9722L168.994 74.7776L170.8 77.1736L171.598 76.5717L172.2 77.3704L172.999 76.7686L173.601 77.5672L174.399 76.9654L178.01 81.7572L177.211 82.359L177.813 83.1576L177.015 83.7595L177.616 84.5581L176.818 85.1599L178.623 87.5558L181.019 85.7504L180.417 84.9517L181.216 84.3499L180.614 83.5513L181.413 82.9495L180.811 82.1508L185.603 78.5399L186.205 79.3386L187.003 78.7368L187.605 79.5354L188.404 78.9336L189.006 79.7322L191.401 77.9268L189.596 75.5309L188.797 76.1327L188.196 75.3341L187.397 75.9359L186.795 75.1372L185.996 75.739L182.386 70.9472L183.184 70.3454L182.582 69.5468L183.381 68.945L182.779 68.1463L183.578 67.5445L181.772 65.1486ZM177.397 75.9586L180.591 73.5513L182.999 76.7459L179.804 79.1531L177.397 75.9586ZM34.9337 164.637L36.2488 161.941L38.9452 163.256L38.5068 164.155L39.4056 164.593L38.9673 165.492L39.866 165.93L39.4277 166.829L44.8204 169.459L45.2588 168.561L46.1576 168.999L46.596 168.1L47.4948 168.539L47.9331 167.64L50.6295 168.955L49.3144 171.651L48.4156 171.213L47.9772 172.112L47.0784 171.673L46.6401 172.572L45.7413 172.134L43.1111 177.526L44.0098 177.965L43.5715 178.864L44.4703 179.302L44.0319 180.201L44.9307 180.639L43.6156 183.336L40.9192 182.02L41.3576 181.122L40.4588 180.683L40.8971 179.784L39.9984 179.346L40.4367 178.447L35.044 175.817L34.6056 176.716L33.7068 176.278L33.2684 177.176L32.3696 176.738L31.9313 177.637L29.2349 176.322L30.55 173.625L31.4488 174.064L31.8872 173.165L32.7859 173.603L33.2243 172.704L34.1231 173.143L36.7533 167.75L35.8545 167.312L36.2929 166.413L35.3941 165.974L35.8325 165.076L34.9337 164.637ZM39.0114 169.964L37.2579 173.559L40.853 175.313L42.6065 171.717L39.0114 169.964ZM157.3 166.222C158.68 166.222 159.8 165.103 159.8 163.722C159.8 162.342 158.68 161.222 157.3 161.222C155.919 161.222 154.8 162.342 154.8 163.722C154.8 165.103 155.919 166.222 157.3 166.222ZM5 119.258C5 120.639 3.88071 121.758 2.5 121.758C1.11929 121.758 0 120.639 0 119.258C0 117.877 1.11929 116.758 2.5 116.758C3.88071 116.758 5 117.877 5 119.258ZM139.816 44.375C138.52 43.0577 137.162 41.7805 135.743 40.5472C132.464 37.6965 128.997 35.2002 125.39 33.0551C125.262 33.2654 125.129 33.4881 124.994 33.7205C124.099 35.263 123.242 37.0282 122.959 38.4033C122.737 39.4816 122.723 41.0201 122.791 42.4068C122.823 43.0759 122.872 43.6675 122.913 44.091C122.933 44.3022 122.952 44.4703 122.965 44.5837C122.971 44.6403 122.976 44.6833 122.979 44.711L122.983 44.7409L122.984 44.747L122.984 44.7473C122.984 44.7472 122.984 44.747 121 45C119.016 45.253 119.016 45.2528 119.016 45.2526L119.016 45.252L119.016 45.2506L119.015 45.2467L119.014 45.2341L119.008 45.1906C119.004 45.1537 118.998 45.1012 118.99 45.0344C118.975 44.901 118.954 44.7104 118.932 44.4745C118.886 44.0039 118.832 43.3476 118.796 42.6013C118.725 41.1574 118.712 39.1959 119.041 37.5967C119.462 35.5506 120.605 33.3158 121.534 31.7136C121.656 31.5037 121.776 31.3011 121.893 31.1074C107.733 23.7389 91.7258 21.5198 76.5099 24.2656C77.001 25.0768 77.6748 26.2081 78.4171 27.5061C79.9019 30.1029 81.7066 33.4469 82.8509 36.2423C83.9422 38.908 84.9684 42.3833 85.712 45.1369C86.0869 46.5251 86.3956 47.7514 86.6107 48.6312C86.7183 49.0713 86.8027 49.4254 86.8604 49.6703L86.8904 49.7982L86.9264 49.9533L86.9437 50.0281L86.9482 50.0479L86.9495 50.0533L86.9498 50.0548L86.9499 50.0553C86.95 50.0555 86.95 50.0556 85 50.5C83.05 50.9444 83.05 50.9445 83.05 50.9445L83.05 50.9444L83.0498 50.9437L83.049 50.9399L83.0452 50.9234L83.0295 50.8553L82.9875 50.6753L82.9668 50.5869C82.9115 50.352 82.8298 50.0092 82.7252 49.5813C82.5158 48.7249 82.2151 47.5304 81.8503 46.1797C81.1147 43.4555 80.141 40.1807 79.1491 37.7577C78.109 35.2169 76.4137 32.0608 74.9446 29.4917C74.2163 28.2179 73.5548 27.1079 73.0758 26.3169C72.8364 25.9216 72.6429 25.6065 72.5098 25.3911C72.4433 25.2834 72.3919 25.2007 72.3574 25.1454L72.3562 25.1435C60.2229 28.0884 48.7609 34.2497 39.3528 43.5307L52.3041 45.5233L51.6959 49.4767L38.6959 47.4767L39.294 43.5887C38.0164 44.8521 36.7767 46.173 35.5785 47.5514C23.608 61.3219 17.8865 78.3947 18.172 95.3068L18.1915 95.3142C18.4973 95.4303 18.9403 95.5975 19.4864 95.8006C20.5792 96.2072 22.0814 96.7565 23.7213 97.3287C27.0641 98.4949 30.7774 99.6832 32.8308 100.028C34.8611 100.368 38.0537 100.379 40.8705 100.284C42.2511 100.238 43.4955 100.168 44.3947 100.11C44.8439 100.081 45.206 100.055 45.4546 100.037C45.5789 100.027 45.6747 100.02 45.7389 100.015L45.8109 100.009L45.8283 100.007L45.8322 100.007L45.833 100.007L45.833 100.007C45.833 100.007 45.8329 100.007 46 102C46.1671 103.993 46.1669 103.993 46.1668 103.993L46.1662 103.993L46.1645 103.993L46.1586 103.994L46.1372 103.995L46.0568 104.002C45.9869 104.008 45.885 104.016 45.7544 104.025C45.4933 104.045 45.117 104.072 44.6522 104.102C43.7233 104.162 42.4364 104.234 41.0045 104.282C38.1963 104.376 34.6389 104.387 32.1692 103.972C29.7226 103.562 25.6859 102.251 22.4037 101.105C20.8706 100.571 19.4581 100.056 18.3781 99.656C19.7762 117.581 27.9414 134.988 42.5827 147.716C54.2188 157.831 68.2128 163.484 82.4753 164.821C81.599 163.318 80.5563 161.257 79.6206 158.683C77.9997 154.225 77.6828 151.063 77.8455 148.908C77.927 147.83 78.1279 147.014 78.3384 146.426C78.4433 146.133 78.5496 145.899 78.6423 145.721C78.6886 145.632 78.7314 145.558 78.7687 145.496C78.7775 145.482 78.7861 145.468 78.7943 145.455C78.8034 145.44 78.812 145.427 78.8203 145.414L78.8299 145.4L78.8425 145.381L78.8526 145.366L78.8574 145.359L78.8598 145.356C78.8609 145.354 78.8621 145.353 80.5002 146.5C82.1383 147.647 82.1394 147.646 82.1405 147.644L82.1427 147.641L82.147 147.635L82.1549 147.623L82.1683 147.603L82.1769 147.59L82.1861 147.575L82.1902 147.569C82.1805 147.587 82.1473 147.654 82.1042 147.774C82.0187 148.013 81.8895 148.476 81.8342 149.209C81.7234 150.677 81.9065 153.264 83.3798 157.317C84.3284 159.926 85.3921 161.932 86.2084 163.273C86.6163 163.943 86.9616 164.446 87.1985 164.773C87.3077 164.924 87.3937 165.037 87.4521 165.113C106.377 165.559 125.347 158.472 139.516 144.191C138.854 143.653 138.049 142.983 137.182 142.226C134.953 140.282 132.183 137.659 130.381 135.174C129.241 133.602 128.061 131.496 127.191 129.844C126.75 129.005 126.376 128.261 126.113 127.725C125.981 127.457 125.876 127.24 125.804 127.09L125.759 126.997L125.721 126.916L125.698 126.869L125.692 126.856L125.691 126.852L125.69 126.851L125.69 126.851C125.69 126.851 125.69 126.851 125.741 126.827L125.87 126.766L127.5 126C129.31 125.149 129.31 125.149 129.31 125.149L129.31 125.15L129.311 125.151L129.315 125.161L129.334 125.2C129.351 125.236 129.377 125.29 129.41 125.359C129.477 125.499 129.576 125.704 129.702 125.959C129.953 126.47 130.31 127.181 130.731 127.98C131.584 129.602 132.655 131.497 133.619 132.826C135.141 134.925 137.622 137.302 139.811 139.212C140.737 140.02 141.59 140.725 142.26 141.266C142.342 141.174 142.424 141.081 142.506 140.988C142.587 140.896 142.667 140.804 142.747 140.712C150.413 131.894 155.516 121.721 158.12 111.104C157.947 110.981 157.745 110.838 157.516 110.679C156.697 110.109 155.544 109.333 154.211 108.513C151.492 106.842 148.212 105.108 145.519 104.441C142.891 103.79 139.27 103.771 136.163 103.951C134.638 104.039 133.29 104.172 132.323 104.282C131.841 104.338 131.455 104.387 131.192 104.422C131.123 104.432 131.062 104.44 131.011 104.447L130.893 104.464L130.82 104.474L130.803 104.477L130.799 104.477L130.799 104.478C130.799 104.477 130.799 104.477 130.5 102.5C130.201 100.522 130.201 100.522 130.202 100.522L130.202 100.522L130.205 100.522L130.212 100.521L130.236 100.517L130.326 100.504C130.403 100.493 130.515 100.477 130.658 100.458C130.945 100.42 131.357 100.367 131.869 100.308C132.89 100.191 134.315 100.051 135.931 99.9575C139.105 99.7736 143.234 99.7542 146.481 100.559C149.809 101.383 153.529 103.399 156.305 105.105C157.335 105.739 158.262 106.346 159.024 106.862C160.208 100.326 160.467 93.6705 159.814 87.1002C159.45 87.2281 159.048 87.3628 158.62 87.4959C156.884 88.0357 154.459 88.6368 152.365 88.4955C150.738 88.3856 148.887 87.7977 147.564 87.3091C146.876 87.0552 146.278 86.8079 145.851 86.6238C145.637 86.5316 145.465 86.4545 145.344 86.3997L145.246 86.3552L145.202 86.3348L145.162 86.3163L145.151 86.3108L145.147 86.3091L145.146 86.3084L145.145 86.3082C145.145 86.3081 145.145 86.308 146 84.5C146.855 82.692 146.855 82.692 146.855 82.6919L146.86 82.6942L146.885 82.7062C146.91 82.7174 146.947 82.7348 146.997 82.7575C147.097 82.8029 147.247 82.8696 147.435 82.9509C147.813 83.1138 148.343 83.333 148.949 83.5567C150.213 84.0234 151.612 84.4355 152.635 84.5045C153.943 84.5929 155.768 84.194 157.432 83.6764C158.158 83.4504 158.804 83.218 159.292 83.0321C157.249 70.0832 151.63 57.639 142.547 47.3095L142.527 47.3311C142.247 47.6247 141.852 48.0292 141.391 48.4754C140.498 49.3388 139.244 50.4667 138.049 51.203C136.477 52.1708 134.368 52.8554 132.791 53.2863C131.976 53.5091 131.25 53.6781 130.726 53.7916C130.463 53.8485 130.25 53.8918 130.101 53.9213C130.026 53.936 129.967 53.9473 129.926 53.9551L129.877 53.9642L129.863 53.9668L129.859 53.9676L129.857 53.9679L129.856 53.968C129.856 53.968 129.856 53.9681 129.5 52C129.144 50.0319 129.144 50.032 129.144 50.032L129.144 50.0319L129.151 50.0307L129.185 50.0243L129.239 50.0139L129.328 49.9967C129.455 49.9716 129.643 49.9334 129.878 49.8824C130.35 49.7802 131.006 49.6277 131.737 49.4278C133.253 49.0135 134.894 48.4481 135.951 47.797C136.758 47.3004 137.754 46.4282 138.61 45.5999C139.024 45.2002 139.379 44.8359 139.63 44.5722C139.701 44.4977 139.764 44.4314 139.816 44.375ZM145.766 143.336C172.941 112.075 169.628 64.7032 138.367 37.5284C107.106 10.3535 59.7345 13.6661 32.5597 44.9272C5.38482 76.1883 8.69737 123.56 39.9585 150.735C71.2196 177.91 118.591 174.597 145.766 143.336ZM121 61.5C119.078 62.0534 119.078 62.0536 119.078 62.0538L119.078 62.0544L119.079 62.056L119.08 62.0608L119.085 62.077L119.102 62.1352L119.123 62.2079L119.143 62.2722L119.166 62.3491C119.221 62.5328 119.302 62.7961 119.406 63.1215C119.614 63.7714 119.914 64.6734 120.287 65.6851C121.018 67.6665 122.083 70.2265 123.335 72.1077C124.838 74.3682 127.272 76.6437 129.212 78.2858C130.202 79.1244 131.104 79.8318 131.76 80.3301C132.088 80.5796 132.355 80.7776 132.543 80.9144C132.603 80.9586 132.655 80.9966 132.698 81.0277L132.761 81.0727L132.82 81.1154L132.837 81.1272L132.842 81.1306L132.843 81.1318L132.844 81.1322C132.844 81.1323 132.844 81.1325 134 79.5L134.999 78.0879C135.155 77.8676 135.156 77.8677 135.156 77.8677L135.154 77.8663L135.143 77.8587L135.096 77.8248C135.053 77.794 134.988 77.7471 134.903 77.6854C134.734 77.5617 134.487 77.3787 134.181 77.1458C133.567 76.6792 132.721 76.0163 131.796 75.2332C129.905 73.6315 127.839 71.657 126.665 69.8923C125.687 68.4219 124.752 66.2319 124.04 64.3012C123.692 63.3569 123.411 62.5123 123.217 61.9046C123.12 61.6012 123.045 61.358 122.995 61.1924L122.96 61.0746L122.939 61.0045L122.925 60.9585L122.922 60.9482L122.922 60.9463L122.898 60.9531L122.699 61.0105L121 61.5ZM27.5 63.5C26.7558 65.3564 26.7556 65.3563 26.7555 65.3563L26.7572 65.3569L26.767 65.3609L26.8111 65.3788C26.8511 65.3952 26.9121 65.4203 26.9917 65.4535C27.151 65.5199 27.3849 65.6189 27.6763 65.7461C28.2599 66.0011 29.0693 66.3676 29.9692 66.8121C31.812 67.7225 33.8723 68.8823 35.1987 70.0188C36.4364 71.0792 37.8236 72.7947 38.9517 74.343C39.5026 75.099 39.9686 75.7828 40.2964 76.2769C40.4601 76.5236 40.5886 76.722 40.6753 76.8572C40.7186 76.9247 40.7514 76.9765 40.7729 77.0105L40.7965 77.048L40.8017 77.0563L40.8026 77.0577C40.8025 77.0576 40.8024 77.0574 42.5 76C44.1976 74.9426 44.1975 74.9424 44.1974 74.9422L44.1971 74.9417L44.1962 74.9404L44.1937 74.9364L44.1853 74.9229L44.1549 74.8747C44.1289 74.8334 44.0912 74.774 44.0428 74.6985C43.946 74.5475 43.806 74.3315 43.6297 74.0657C43.2775 73.5349 42.7776 72.8013 42.1846 71.9874C41.0248 70.3957 39.412 68.3612 37.8013 66.9812C36.0744 65.5017 33.6347 64.1615 31.7409 63.2259C30.7723 62.7474 29.9042 62.3544 29.2775 62.0806C28.9636 61.9435 28.7091 61.8358 28.5313 61.7616C28.4423 61.7245 28.3725 61.6958 28.324 61.676L28.2673 61.6529L28.2515 61.6465L28.2468 61.6446L28.2452 61.644L28.2446 61.6438C28.2444 61.6437 28.2442 61.6436 27.5 63.5ZM86.4948 67.317L93.4949 75.317L96.5051 72.683L89.5052 64.683L86.4948 67.317ZM122 78C120.242 77.0463 120.242 77.0465 120.242 77.0467L120.242 77.0471L120.241 77.0484L120.239 77.0523L120.232 77.0656L120.206 77.1132L120.172 77.1778L120.113 77.2886C120.033 77.4397 119.92 77.657 119.782 77.928C119.506 78.469 119.131 79.2276 118.729 80.1006C117.942 81.8102 116.992 84.0938 116.549 86.0606C115.97 88.6298 115.986 91.8611 116.117 94.3203C116.183 95.5764 116.283 96.6829 116.366 97.4763C116.408 97.8735 116.445 98.1937 116.473 98.4166C116.48 98.4745 116.486 98.5259 116.492 98.5704L116.506 98.6758L116.515 98.7462L116.518 98.7657L116.519 98.7715L116.519 98.7734L116.519 98.7741C116.519 98.7743 116.519 98.7746 118.5 98.5C120.481 98.2254 120.481 98.2256 120.481 98.2258L120.481 98.2235L120.479 98.2109L120.472 98.1551C120.467 98.1227 120.462 98.0794 120.455 98.0259L120.443 97.9272C120.418 97.726 120.383 97.4301 120.344 97.0595C120.267 96.3172 120.173 95.2809 120.111 94.1086C119.984 91.7107 120 88.942 120.451 86.9394C120.797 85.4041 121.596 83.4377 122.363 81.7728C122.737 80.9586 123.089 80.2488 123.346 79.7433C123.475 79.491 123.579 79.2905 123.651 79.1545L123.706 79.0514L123.733 79.0008L123.753 78.9633L123.757 78.9549L123.758 78.9534C123.758 78.9536 123.758 78.9537 122 78ZM98.5 79.5C96.7305 80.4322 96.7304 80.432 96.7304 80.4319L96.7305 80.432L96.7317 80.4345L96.7382 80.4468L96.7663 80.5009C96.7916 80.5497 96.8297 80.6236 96.879 80.7204C96.9777 80.9141 97.1209 81.199 97.2959 81.5574C97.6463 82.275 98.1216 83.2824 98.62 84.4382C99.6359 86.7941 100.675 89.602 101.025 91.8127C101.47 94.6291 101.473 97.3534 101.359 99.3884C101.303 100.401 101.218 101.233 101.148 101.805C101.113 102.091 101.082 102.312 101.061 102.458C101.05 102.531 101.041 102.585 101.036 102.619L101.03 102.655L101.029 102.66C101.029 102.66 101.029 102.66 103 103C104.971 103.34 104.971 103.34 104.971 103.34L104.971 103.339L104.971 103.337L104.972 103.331L104.975 103.313L104.985 103.255L104.998 103.17C105.004 103.134 105.01 103.093 105.017 103.046C105.044 102.868 105.08 102.612 105.119 102.289C105.198 101.642 105.291 100.724 105.353 99.6116C105.477 97.3966 105.479 94.3709 104.975 91.1873C104.543 88.4546 103.332 85.2626 102.293 82.8543C101.764 81.628 101.261 80.5623 100.89 79.8023C100.705 79.4219 100.551 79.1168 100.443 78.9053C100.39 78.7995 100.347 78.717 100.318 78.66L100.283 78.5939L100.274 78.5758L100.271 78.5705L100.27 78.5689L100.27 78.5683C100.27 78.568 100.269 78.5678 98.5 79.5ZM44.3556 83.1384L48.8556 89.6384L52.1444 87.3616L47.6444 80.8616L44.3556 83.1384ZM62.5 101.5C62.034 103.445 62.0339 103.445 62.0338 103.445L62.0346 103.445L62.0416 103.447L62.0738 103.455L62.1159 103.465L62.208 103.488C62.3269 103.518 62.5022 103.563 62.7214 103.622C63.1607 103.739 63.7722 103.91 64.4579 104.124C65.8683 104.563 67.4476 105.137 68.5158 105.741C69.6381 106.375 71.0011 107.497 72.15 108.542C72.7086 109.05 73.1888 109.515 73.5288 109.851C73.6985 110.019 73.8324 110.154 73.9227 110.247C73.9678 110.293 74.002 110.328 74.0243 110.351L74.0486 110.376L74.0538 110.382L74.0545 110.382C74.0544 110.382 74.0543 110.382 75.5 109C76.9457 107.618 76.9456 107.618 76.9454 107.618L76.9451 107.617L76.9441 107.616L76.9413 107.613L76.932 107.604L76.8993 107.57L76.8391 107.508L76.7795 107.447C76.6765 107.342 76.5283 107.192 76.3429 107.008C75.9728 106.642 75.4509 106.138 74.8414 105.583C73.6541 104.503 72.0171 103.125 70.4842 102.259C69.0254 101.434 67.1047 100.759 65.6468 100.305C64.8985 100.072 64.2338 99.8857 63.7554 99.7577C63.5158 99.6936 63.3218 99.6438 63.1862 99.6096L63.1096 99.5903L63.0279 99.5701L62.9843 99.5595L62.9719 99.5565L62.9681 99.5555L62.9668 99.5552L62.9663 99.5551C62.9661 99.5551 62.966 99.555 62.5 101.5ZM52.5 109V115H56.5V109H52.5ZM79.5052 116.329L83.5052 120.829L86.4948 118.171L82.4948 113.671L79.5052 116.329ZM120.184 115.838L123.184 122.338L126.816 120.662L123.816 114.162L120.184 115.838ZM52.5 121.5C50.5011 121.433 50.5011 121.433 50.5011 121.433L50.5011 121.433L50.501 121.436L50.5005 121.45L50.4982 121.51L50.4943 121.605C50.4924 121.647 50.4902 121.696 50.4875 121.753C50.4774 121.967 50.461 122.282 50.4359 122.675C50.3856 123.462 50.301 124.558 50.1638 125.794C49.8841 128.312 49.4041 131.229 48.6276 133.297C47.7433 135.652 45.8904 138.463 44.1567 140.779C43.3063 141.914 42.5148 142.892 41.9364 143.585C41.6476 143.931 41.4129 144.204 41.2517 144.39L41.1764 144.477C41.1316 144.528 41.0952 144.57 41.068 144.6L41.0222 144.652L41.0117 144.664L41.0096 144.666L41.0095 144.666C41.0096 144.666 41.0097 144.666 42.5 146C43.9903 147.334 43.9905 147.334 43.9907 147.333L43.9912 147.333L43.9926 147.331L43.9971 147.326L44.0125 147.309L44.0682 147.246C44.1162 147.191 44.1854 147.113 44.2734 147.011C44.4492 146.808 44.7003 146.515 45.0069 146.148C45.6191 145.415 46.4565 144.381 47.3587 143.176C49.1301 140.81 51.2771 137.62 52.3724 134.703C53.3334 132.143 53.8534 128.81 54.1393 126.235C54.285 124.924 54.3745 123.763 54.4278 122.93C54.4544 122.512 54.4721 122.176 54.4831 121.941C54.4886 121.824 54.4925 121.733 54.495 121.669L54.4979 121.596L54.4986 121.576L54.4988 121.57L54.4988 121.568L54.4989 121.567C54.4989 121.567 54.4989 121.567 52.5 121.5ZM65.6158 133.497C67.2265 133.403 69.4228 133.921 71.3846 134.563C72.3301 134.873 73.1595 135.19 73.7518 135.43C74.0471 135.55 74.2816 135.65 74.4399 135.718L74.5301 135.757C74.5661 135.773 74.5954 135.786 74.6178 135.796L74.6599 135.815L74.6686 135.819L74.6693 135.819C74.6692 135.819 74.669 135.819 74.8095 135.511L75.5 134C76.3312 132.181 76.3309 132.181 76.3306 132.181L76.3299 132.18L76.328 132.179L76.3227 132.177L76.3056 132.169L76.2459 132.143C76.1952 132.12 76.1227 132.088 76.0304 132.048C75.8458 131.968 75.5816 131.856 75.2535 131.723C74.5987 131.458 73.6816 131.106 72.6294 130.762C70.5959 130.096 67.7922 129.364 65.3842 129.503C63.4293 129.617 61.1902 130.337 59.5677 130.95C58.7288 131.267 57.9995 131.577 57.4791 131.808C57.2183 131.924 57.0085 132.02 56.8619 132.089L56.8043 132.116C56.7578 132.138 56.7197 132.156 56.6906 132.17L56.6431 132.193L56.6293 132.199L56.6251 132.202L56.6236 132.202L56.623 132.203C56.6227 132.203 56.6225 132.203 57.5 134C58.3775 135.797 58.3773 135.797 58.3771 135.797L58.3775 135.797L58.3843 135.794L58.4173 135.778C58.4478 135.763 58.4951 135.741 58.5575 135.712C58.6825 135.653 58.8679 135.568 59.1018 135.464C59.5709 135.256 60.2289 134.976 60.9815 134.692C62.5421 134.102 64.303 133.573 65.6158 133.497ZM91.3906 143.664L97.3906 147.664L99.6094 144.336L93.6094 140.336L91.3906 143.664ZM101.543 152.577L101.392 152.689L101.392 152.689L101.393 152.69L101.396 152.695L101.411 152.715L101.472 152.798C101.525 152.871 101.604 152.979 101.701 153.114C101.896 153.384 102.167 153.764 102.469 154.199C103.083 155.085 103.788 156.145 104.256 156.979C104.78 157.911 105.37 159.205 105.846 160.311C106.08 160.855 106.279 161.337 106.419 161.682L106.482 161.839L106.524 161.943L106.581 162.087L106.624 162.194L106.634 162.22L106.637 162.226L106.637 162.228L106.637 162.228C106.637 162.228 106.637 162.228 106.75 162.183L108.5 161.5C109.861 160.969 110.228 160.825 110.326 160.787L110.36 160.774L110.363 160.772L110.363 160.772L110.363 160.772L110.362 160.771L110.361 160.769L110.358 160.76L110.345 160.728L110.299 160.609L110.258 160.509L110.192 160.343L110.125 160.178C109.977 159.813 109.768 159.306 109.521 158.732C109.035 157.602 108.376 156.146 107.744 155.021C107.178 154.013 106.383 152.824 105.755 151.92C105.437 151.46 105.151 151.06 104.946 150.775C104.843 150.632 104.759 150.517 104.701 150.438L104.634 150.345L104.615 150.321L104.61 150.314L104.609 150.312L104.608 150.311L104.608 150.311C104.608 150.311 104.608 150.311 103 151.5L101.543 152.577ZM59.0812 49.2764L73.5812 56.7764L75.4188 53.2236L60.9188 45.7236L59.0812 49.2764ZM103.363 61.9667C105.295 61.6098 107.571 60.7982 109.284 60.1197C110.158 59.7736 110.92 59.4486 111.463 59.2099C111.735 59.0904 111.954 58.992 112.105 58.9229C112.181 58.8884 112.241 58.8611 112.282 58.8422L112.329 58.82L112.343 58.8139L112.346 58.8121L112.348 58.8115L112.348 58.8113C112.348 58.8112 112.348 58.8111 111.5 57C110.652 55.1889 110.652 55.1888 110.652 55.1888L110.65 55.1895L110.642 55.1935L110.604 55.2112L110.547 55.237L110.448 55.2824C110.311 55.3449 110.109 55.436 109.854 55.5477C109.345 55.7716 108.63 56.0767 107.812 56.4006C106.141 57.0622 104.166 57.7507 102.637 58.0333C100.856 58.3623 98.4204 58.3733 96.3256 58.2813C95.3 58.2363 94.3948 58.1686 93.7468 58.1123C93.4233 58.0841 93.1651 58.0589 92.9895 58.041C92.9017 58.032 92.8347 58.0248 92.7905 58.02L92.7417 58.0146L92.7307 58.0133L92.7286 58.0131C92.7287 58.0131 92.7289 58.0131 92.5 60C92.2711 61.9869 92.2714 61.9869 92.2716 61.9869L92.2722 61.987L92.2738 61.9872L92.2787 61.9877L92.2957 61.9896L92.3568 61.9964C92.4093 62.0021 92.4851 62.0102 92.5821 62.0202C92.7759 62.04 93.0545 62.0672 93.4003 62.0972C94.0911 62.1573 95.0548 62.2293 96.1502 62.2774C98.2974 62.3717 101.112 62.3826 103.363 61.9667ZM106.924 109.459C103.907 110.775 99.7631 113.246 95.4636 117.863C91.1278 122.519 89.0192 126.428 87.9912 129.094C87.4762 130.429 87.2288 131.461 87.11 132.13C87.0505 132.465 87.0231 132.71 87.0105 132.858C87.0042 132.931 87.0016 132.981 87.0006 133.005C87.0001 133.017 87 133.022 87 133.022L87.0001 133.016L87.0002 133.009L87.0002 133.005L87.0002 133.002C87.0002 133.001 87.0002 133 85.0002 133C83.0002 133 83.0002 132.999 83.0002 132.997L83.0002 132.994L83.0002 132.988L83.0003 132.974L83.0009 132.939L83.0014 132.917C83.002 132.894 83.0028 132.868 83.0041 132.837C83.0075 132.756 83.0137 132.649 83.025 132.517C83.0476 132.253 83.0905 131.888 83.1716 131.431C83.334 130.517 83.6491 129.236 84.2591 127.654C85.481 124.486 87.8724 120.145 92.5364 115.137C97.2367 110.09 101.843 107.311 105.326 105.793C107.064 105.035 108.517 104.593 109.556 104.339C110.075 104.212 110.491 104.132 110.788 104.082C110.876 104.067 110.954 104.055 111.021 104.046C111.066 104.039 111.106 104.033 111.142 104.029C111.185 104.023 111.22 104.019 111.247 104.016L111.282 104.012L111.295 104.011L111.3 104.01L111.302 104.01C111.303 104.01 111.304 104.01 111.5 106C111.696 107.99 111.697 107.99 111.698 107.99L111.7 107.99L111.702 107.99L111.704 107.99C111.698 107.99 111.685 107.992 111.664 107.995L111.635 107.998L111.581 108.006C111.544 108.012 111.499 108.019 111.447 108.027C111.243 108.061 110.925 108.122 110.507 108.224C109.67 108.429 108.436 108.8 106.924 109.459ZM79.0062 69.342C79.0062 69.3429 79.0061 69.3439 81 69.5C82.9939 69.6561 82.9938 69.6571 82.9937 69.6581L82.9936 69.6602L82.9932 69.6648L82.9923 69.6757L82.9897 69.7041C82.9877 69.7259 82.9849 69.7536 82.9813 69.787C82.974 69.8538 82.9631 69.9434 82.9473 70.055C82.9156 70.2783 82.8642 70.5894 82.7818 70.9815C82.617 71.7659 82.3286 72.8731 81.8279 74.2472C80.8256 76.9981 78.9777 80.8037 75.586 85.2184C72.2263 89.5916 69.4675 92.1109 67.4758 93.5562C66.4793 94.2793 65.6749 94.7335 65.0845 95.0155C64.7894 95.1565 64.5485 95.2542 64.3646 95.3208C64.2726 95.3541 64.195 95.3797 64.1322 95.3989L64.0983 95.4091C64.0804 95.4144 64.0641 95.4191 64.0491 95.4233L64.016 95.4323L64.0016 95.4361L63.9949 95.4378L63.9917 95.4386C63.9901 95.439 63.9885 95.4394 63.5 93.5C63.0115 91.5606 63.0099 91.561 63.0084 91.5613L63.0055 91.5621L62.9999 91.5635L62.9898 91.5662L62.9741 91.5705L62.9601 91.5745L62.96 91.5745C62.96 91.5745 62.9742 91.5701 63.0021 91.56C63.0608 91.5388 63.181 91.4919 63.3601 91.4063C63.7181 91.2353 64.3143 90.9082 65.1266 90.3188C66.7523 89.1391 69.2436 86.9084 72.414 82.7816C75.5525 78.6963 77.2046 75.2519 78.0697 72.8778C78.5027 71.6894 78.7399 70.7654 78.8673 70.1591C78.931 69.8559 78.9673 69.6319 78.9868 69.4938C78.9966 69.4248 79.0022 69.3772 79.005 69.3519L79.0064 69.3404L79.0062 69.342ZM125 53.5C125 55.9853 122.985 58 120.5 58C118.015 58 116 55.9853 116 53.5C116 51.0147 118.015 49 120.5 49C122.985 49 125 51.0147 125 53.5ZM83.5 63C85.9853 63 88 60.9853 88 58.5C88 56.0147 85.9853 54 83.5 54C81.0147 54 79 56.0147 79 58.5C79 60.9853 81.0147 63 83.5 63ZM55.5 103C57.9853 103 60 100.985 60 98.5C60 96.0147 57.9853 94 55.5 94C53.0147 94 51 96.0147 51 98.5C51 100.985 53.0147 103 55.5 103ZM125 107.5C125 109.985 122.985 112 120.5 112C118.015 112 116 109.985 116 107.5C116 105.015 118.015 103 120.5 103C122.985 103 125 105.015 125 107.5ZM81.5 144C83.9853 144 86 141.985 86 139.5C86 137.015 83.9853 135 81.5 135C79.0147 135 77 137.015 77 139.5C77 141.985 79.0147 144 81.5 144Z" fill="#F1F1F2"/>
</svg>
