<svg width="155" height="198" viewBox="0 0 155 198" fill="none" xmlns="http://www.w3.org/2000/svg">
<mask id="path-1-inside-1_74_602" fill="white">
<path fill-rule="evenodd" clip-rule="evenodd" d="M134.23 13.3789L132.383 11.0149L131.595 11.6306L130.979 10.8425L130.191 11.4582L129.575 10.6702L128.787 11.2859L125.093 6.55779L125.881 5.94213L125.266 5.15412L126.054 4.53846L125.438 3.75045L126.226 3.13478L124.379 0.770752L122.015 2.61774L122.631 3.40575L121.843 4.02141L122.458 4.80942L121.67 5.42508L122.286 6.21309L117.558 9.90706L116.942 9.11905L116.154 9.73471L115.539 8.9467L114.751 9.56236L114.135 8.77435L111.771 10.6213L113.618 12.9854L114.406 12.3697L115.022 13.1577L115.81 12.5421L116.425 13.3301L117.213 12.7144L120.907 17.4425L120.119 18.0581L120.735 18.8461L119.947 19.4618L120.563 20.2498L119.775 20.8655L121.622 23.2295L123.986 21.3825L123.37 20.5945L124.158 19.9788L123.542 19.1908L124.33 18.5752L123.715 17.7872L128.443 14.0932L129.058 14.8812L129.846 14.2655L130.462 15.0536L131.25 14.4379L131.866 15.2259L134.23 13.3789ZM123.345 9.19278L125.808 12.3448L122.656 14.8075L120.193 11.6554L123.345 9.19278ZM34.3672 9.6987L36.5966 11.7061L34.5892 13.9355L33.8461 13.2664L33.1769 14.0095L32.4338 13.3404L31.7646 14.0836L31.0215 13.4144L27.0067 17.8733L27.7499 18.5424L27.0807 19.2856L27.8239 19.9547L27.1547 20.6978L27.8979 21.367L25.8905 23.5964L23.6611 21.589L24.3302 20.8459L23.5871 20.1767L24.2562 19.4336L23.513 18.7645L24.1822 18.0213L19.7233 14.0065L19.0542 14.7497L18.311 14.0805L17.6419 14.8237L16.8987 14.1546L16.2296 14.8977L14.0002 12.8903L16.0076 10.6609L16.7507 11.33L17.4199 10.5869L18.163 11.256L18.8321 10.5129L19.5753 11.182L23.5901 6.72312L22.8469 6.05398L23.516 5.31084L22.7729 4.64171L23.442 3.89856L22.6989 3.22943L24.7063 1L26.9357 3.00739L26.2666 3.75054L27.0097 4.41967L26.3406 5.16281L27.0837 5.83194L26.4146 6.57509L30.8735 10.5899L31.5426 9.84673L32.2857 10.5159L32.9549 9.77271L33.698 10.4418L34.3672 9.6987ZM28.1229 12.1502L25.1504 9.47365L22.4738 12.4462L25.4464 15.1228L28.1229 12.1502ZM65.0108 181.688L67.8946 182.515L67.0676 185.399L66.1064 185.123L65.8308 186.084L64.8695 185.809L64.5939 186.77L63.6326 186.494L61.9788 192.262L62.94 192.538L62.6644 193.499L63.6257 193.774L63.35 194.736L64.3113 195.011L63.4844 197.895L60.6006 197.068L60.8762 196.107L59.915 195.831L60.1906 194.87L59.2293 194.594L59.505 193.633L53.7374 191.979L53.4618 192.941L52.5005 192.665L52.2249 193.626L51.2636 193.351L50.988 194.312L48.1042 193.485L48.9311 190.601L49.8924 190.877L50.168 189.916L51.1293 190.191L51.4049 189.23L52.3661 189.506L54.02 183.738L53.0587 183.462L53.3344 182.501L52.3731 182.225L52.6487 181.264L51.6875 180.989L52.5144 178.105L55.3982 178.932L55.1225 179.893L56.0838 180.169L55.8082 181.13L56.7694 181.405L56.4938 182.367L62.2613 184.021L62.537 183.059L63.4982 183.335L63.7739 182.374L64.7351 182.649L65.0108 181.688ZM60.4732 186.629L56.6281 185.526L55.5256 189.371L59.3706 190.474L60.4732 186.629ZM32.0002 171.5C32.0002 173.433 30.4332 175 28.5002 175C26.5672 175 25.0002 173.433 25.0002 171.5C25.0002 169.567 26.5672 168 28.5002 168C30.4332 168 32.0002 169.567 32.0002 171.5ZM126.5 178C128.433 178 130 176.433 130 174.5C130 172.567 128.433 171 126.5 171C124.567 171 123 172.567 123 174.5C123 176.433 124.567 178 126.5 178ZM141 27.5C141 29.433 139.433 31 137.5 31C135.567 31 134 29.433 134 27.5C134 25.567 135.567 24 137.5 24C139.433 24 141 25.567 141 27.5ZM79.9999 164C95.7298 164 110.265 158.885 122.033 150.227C117.729 146.559 115 141.098 115 135C115 131.106 116.113 127.472 118.038 124.398C111.636 123.358 106.054 123.339 100.734 124.39C94.5834 125.605 88.6526 128.276 82.114 132.661C76.0883 136.702 71.722 140.701 68.4083 145.37C65.2563 149.812 62.9913 154.952 61.2067 161.486C67.1926 163.125 73.4941 164 79.9999 164ZM99.9593 120.465C106.473 119.179 113.218 119.375 120.877 120.839C124.495 117.231 129.487 115 135 115C139.188 115 143.075 116.287 146.288 118.488C149.332 110.577 151 101.983 151 93C151 83.5492 149.153 74.5296 145.801 66.2825C131.229 82.8861 119.318 91.057 98.331 99.0901C90.4 102.126 83.5294 102.42 77.0564 102.697L77.0344 102.698L77.0327 102.698C76.733 102.711 76.4343 102.724 76.1362 102.737C69.3895 103.033 62.9951 103.448 55.6064 106.82C40.2969 113.806 32.1323 120.326 21.8942 133.811C30.512 146.059 42.9036 155.458 57.3787 160.32C59.2473 153.514 61.674 147.948 65.1462 143.055C68.8165 137.884 73.5827 133.566 79.8861 129.339C86.7371 124.744 93.1572 121.809 99.9593 120.465ZM96.9011 95.3544C117.854 87.3343 129.292 79.3175 144.011 62.2454C135.63 44.8313 120.351 31.363 101.718 25.383C99.2478 35.2093 96.1583 43.1324 91.701 50.2219C87.1066 57.5295 81.1191 63.8556 73.0368 70.4465C62.5368 79.0089 46.1354 83.3458 32.6647 85.577C25.8765 86.7014 19.7292 87.3064 15.2792 87.6307C13.053 87.7929 11.2484 87.885 9.99718 87.9367C9.68916 87.9494 9.41461 87.9596 9.1755 87.9679C9.0591 89.6301 8.99993 91.3082 8.99993 93C8.99993 106.673 12.8649 119.443 19.562 130.278C29.8144 117.013 38.4547 110.25 53.9458 103.18C62.0865 99.4656 69.1509 99.0391 75.9613 98.7409C76.2324 98.7291 76.5031 98.7174 76.7734 98.7057C83.2956 98.4244 89.5897 98.1529 96.9011 95.3544ZM79.9999 22C86.1734 22 92.1629 22.7879 97.8733 24.2687C95.4666 33.8846 92.5061 41.4263 88.3147 48.0928C84.0165 54.9292 78.3637 60.9411 70.5088 67.3466C60.8794 75.1991 45.3945 79.414 32.0111 81.6308C25.3723 82.7304 19.3507 83.3234 14.9885 83.6412C12.8087 83.8 11.0463 83.8899 9.83219 83.9401L9.57121 83.9506C14.0159 49.0115 43.8535 22 79.9999 22ZM79.9999 168C97.1171 168 112.895 162.266 125.517 152.613C128.339 154.136 131.569 155 135 155C146.046 155 155 146.046 155 135C155 129.664 152.911 124.817 149.505 121.231C153.048 112.517 155 102.986 155 93C155 51.5786 121.421 18 79.9999 18C61.8963 18 45.2908 24.4142 32.3321 35.0941C31.9641 34.8082 31.5863 34.5355 31.1995 34.2762C29.9573 33.4437 28.6222 32.7507 27.2179 32.2128C24.5541 31.1926 21.7029 30.7539 18.8556 30.9263C16.0083 31.0987 13.2309 31.8782 10.7096 33.2124C8.18842 34.5466 5.98176 36.4047 4.23777 38.6619C2.49379 40.9192 1.25283 43.5234 0.59819 46.2998C-0.0564518 49.0761 -0.109629 51.9604 0.442225 54.759C0.994077 57.5576 2.13819 60.2058 3.79778 62.5258C4.67669 63.7545 5.6894 64.876 6.81461 65.8712C7.26185 66.2667 7.72688 66.6423 8.20833 66.9967C8.57844 67.2691 8.95826 67.529 9.34719 67.7759C6.53268 75.6586 4.99993 84.1503 4.99993 93C4.99993 134.421 38.5786 168 79.9999 168ZM151 135C151 131.347 149.775 127.979 147.714 125.286C143.208 134.72 136.788 143.066 128.957 149.819C130.821 150.581 132.862 151 135 151C143.836 151 151 143.837 151 135ZM125.267 147.7C133.531 140.854 140.218 132.171 144.702 122.276C142.011 120.221 138.648 119 135 119C126.163 119 119 126.163 119 135C119 140.175 121.457 144.776 125.267 147.7ZM12.1878 57.6528L12.1848 57.6578L9.03275 62.4787C8.30381 61.7848 7.63992 61.0217 7.0511 60.1986C5.72343 58.3426 4.80814 56.224 4.36665 53.9851C3.92517 51.7463 3.96771 49.4389 4.49143 47.2178C5.01514 44.9967 6.00791 42.9133 7.40309 41.1075C8.79828 39.3017 10.5636 37.8152 12.5806 36.7478C14.5976 35.6805 16.8195 35.0569 19.0974 34.919C21.3752 34.7811 23.6562 35.132 25.7872 35.9482C26.6599 36.2825 27.4992 36.6916 28.2962 37.1698C27.7404 37.7351 27.1356 38.357 26.5006 39.0197C23.7394 41.902 20.2811 45.6905 17.8487 49.0057C16.6037 50.7027 15.1684 52.9013 14.0738 54.6242C13.5197 55.4963 13.0402 56.2668 12.6988 56.8197C12.528 57.0964 12.3914 57.3193 12.2969 57.4738L12.1878 57.6528Z"/>
</mask>
<path fill-rule="evenodd" clip-rule="evenodd" d="M134.23 13.3789L132.383 11.0149L131.595 11.6306L130.979 10.8425L130.191 11.4582L129.575 10.6702L128.787 11.2859L125.093 6.55779L125.881 5.94213L125.266 5.15412L126.054 4.53846L125.438 3.75045L126.226 3.13478L124.379 0.770752L122.015 2.61774L122.631 3.40575L121.843 4.02141L122.458 4.80942L121.67 5.42508L122.286 6.21309L117.558 9.90706L116.942 9.11905L116.154 9.73471L115.539 8.9467L114.751 9.56236L114.135 8.77435L111.771 10.6213L113.618 12.9854L114.406 12.3697L115.022 13.1577L115.81 12.5421L116.425 13.3301L117.213 12.7144L120.907 17.4425L120.119 18.0581L120.735 18.8461L119.947 19.4618L120.563 20.2498L119.775 20.8655L121.622 23.2295L123.986 21.3825L123.37 20.5945L124.158 19.9788L123.542 19.1908L124.33 18.5752L123.715 17.7872L128.443 14.0932L129.058 14.8812L129.846 14.2655L130.462 15.0536L131.25 14.4379L131.866 15.2259L134.23 13.3789ZM123.345 9.19278L125.808 12.3448L122.656 14.8075L120.193 11.6554L123.345 9.19278ZM34.3672 9.6987L36.5966 11.7061L34.5892 13.9355L33.8461 13.2664L33.1769 14.0095L32.4338 13.3404L31.7646 14.0836L31.0215 13.4144L27.0067 17.8733L27.7499 18.5424L27.0807 19.2856L27.8239 19.9547L27.1547 20.6978L27.8979 21.367L25.8905 23.5964L23.6611 21.589L24.3302 20.8459L23.5871 20.1767L24.2562 19.4336L23.513 18.7645L24.1822 18.0213L19.7233 14.0065L19.0542 14.7497L18.311 14.0805L17.6419 14.8237L16.8987 14.1546L16.2296 14.8977L14.0002 12.8903L16.0076 10.6609L16.7507 11.33L17.4199 10.5869L18.163 11.256L18.8321 10.5129L19.5753 11.182L23.5901 6.72312L22.8469 6.05398L23.516 5.31084L22.7729 4.64171L23.442 3.89856L22.6989 3.22943L24.7063 1L26.9357 3.00739L26.2666 3.75054L27.0097 4.41967L26.3406 5.16281L27.0837 5.83194L26.4146 6.57509L30.8735 10.5899L31.5426 9.84673L32.2857 10.5159L32.9549 9.77271L33.698 10.4418L34.3672 9.6987ZM28.1229 12.1502L25.1504 9.47365L22.4738 12.4462L25.4464 15.1228L28.1229 12.1502ZM65.0108 181.688L67.8946 182.515L67.0676 185.399L66.1064 185.123L65.8308 186.084L64.8695 185.809L64.5939 186.77L63.6326 186.494L61.9788 192.262L62.94 192.538L62.6644 193.499L63.6257 193.774L63.35 194.736L64.3113 195.011L63.4844 197.895L60.6006 197.068L60.8762 196.107L59.915 195.831L60.1906 194.87L59.2293 194.594L59.505 193.633L53.7374 191.979L53.4618 192.941L52.5005 192.665L52.2249 193.626L51.2636 193.351L50.988 194.312L48.1042 193.485L48.9311 190.601L49.8924 190.877L50.168 189.916L51.1293 190.191L51.4049 189.23L52.3661 189.506L54.02 183.738L53.0587 183.462L53.3344 182.501L52.3731 182.225L52.6487 181.264L51.6875 180.989L52.5144 178.105L55.3982 178.932L55.1225 179.893L56.0838 180.169L55.8082 181.13L56.7694 181.405L56.4938 182.367L62.2613 184.021L62.537 183.059L63.4982 183.335L63.7739 182.374L64.7351 182.649L65.0108 181.688ZM60.4732 186.629L56.6281 185.526L55.5256 189.371L59.3706 190.474L60.4732 186.629ZM32.0002 171.5C32.0002 173.433 30.4332 175 28.5002 175C26.5672 175 25.0002 173.433 25.0002 171.5C25.0002 169.567 26.5672 168 28.5002 168C30.4332 168 32.0002 169.567 32.0002 171.5ZM126.5 178C128.433 178 130 176.433 130 174.5C130 172.567 128.433 171 126.5 171C124.567 171 123 172.567 123 174.5C123 176.433 124.567 178 126.5 178ZM141 27.5C141 29.433 139.433 31 137.5 31C135.567 31 134 29.433 134 27.5C134 25.567 135.567 24 137.5 24C139.433 24 141 25.567 141 27.5ZM79.9999 164C95.7298 164 110.265 158.885 122.033 150.227C117.729 146.559 115 141.098 115 135C115 131.106 116.113 127.472 118.038 124.398C111.636 123.358 106.054 123.339 100.734 124.39C94.5834 125.605 88.6526 128.276 82.114 132.661C76.0883 136.702 71.722 140.701 68.4083 145.37C65.2563 149.812 62.9913 154.952 61.2067 161.486C67.1926 163.125 73.4941 164 79.9999 164ZM99.9593 120.465C106.473 119.179 113.218 119.375 120.877 120.839C124.495 117.231 129.487 115 135 115C139.188 115 143.075 116.287 146.288 118.488C149.332 110.577 151 101.983 151 93C151 83.5492 149.153 74.5296 145.801 66.2825C131.229 82.8861 119.318 91.057 98.331 99.0901C90.4 102.126 83.5294 102.42 77.0564 102.697L77.0344 102.698L77.0327 102.698C76.733 102.711 76.4343 102.724 76.1362 102.737C69.3895 103.033 62.9951 103.448 55.6064 106.82C40.2969 113.806 32.1323 120.326 21.8942 133.811C30.512 146.059 42.9036 155.458 57.3787 160.32C59.2473 153.514 61.674 147.948 65.1462 143.055C68.8165 137.884 73.5827 133.566 79.8861 129.339C86.7371 124.744 93.1572 121.809 99.9593 120.465ZM96.9011 95.3544C117.854 87.3343 129.292 79.3175 144.011 62.2454C135.63 44.8313 120.351 31.363 101.718 25.383C99.2478 35.2093 96.1583 43.1324 91.701 50.2219C87.1066 57.5295 81.1191 63.8556 73.0368 70.4465C62.5368 79.0089 46.1354 83.3458 32.6647 85.577C25.8765 86.7014 19.7292 87.3064 15.2792 87.6307C13.053 87.7929 11.2484 87.885 9.99718 87.9367C9.68916 87.9494 9.41461 87.9596 9.1755 87.9679C9.0591 89.6301 8.99993 91.3082 8.99993 93C8.99993 106.673 12.8649 119.443 19.562 130.278C29.8144 117.013 38.4547 110.25 53.9458 103.18C62.0865 99.4656 69.1509 99.0391 75.9613 98.7409C76.2324 98.7291 76.5031 98.7174 76.7734 98.7057C83.2956 98.4244 89.5897 98.1529 96.9011 95.3544ZM79.9999 22C86.1734 22 92.1629 22.7879 97.8733 24.2687C95.4666 33.8846 92.5061 41.4263 88.3147 48.0928C84.0165 54.9292 78.3637 60.9411 70.5088 67.3466C60.8794 75.1991 45.3945 79.414 32.0111 81.6308C25.3723 82.7304 19.3507 83.3234 14.9885 83.6412C12.8087 83.8 11.0463 83.8899 9.83219 83.9401L9.57121 83.9506C14.0159 49.0115 43.8535 22 79.9999 22ZM79.9999 168C97.1171 168 112.895 162.266 125.517 152.613C128.339 154.136 131.569 155 135 155C146.046 155 155 146.046 155 135C155 129.664 152.911 124.817 149.505 121.231C153.048 112.517 155 102.986 155 93C155 51.5786 121.421 18 79.9999 18C61.8963 18 45.2908 24.4142 32.3321 35.0941C31.9641 34.8082 31.5863 34.5355 31.1995 34.2762C29.9573 33.4437 28.6222 32.7507 27.2179 32.2128C24.5541 31.1926 21.7029 30.7539 18.8556 30.9263C16.0083 31.0987 13.2309 31.8782 10.7096 33.2124C8.18842 34.5466 5.98176 36.4047 4.23777 38.6619C2.49379 40.9192 1.25283 43.5234 0.59819 46.2998C-0.0564518 49.0761 -0.109629 51.9604 0.442225 54.759C0.994077 57.5576 2.13819 60.2058 3.79778 62.5258C4.67669 63.7545 5.6894 64.876 6.81461 65.8712C7.26185 66.2667 7.72688 66.6423 8.20833 66.9967C8.57844 67.2691 8.95826 67.529 9.34719 67.7759C6.53268 75.6586 4.99993 84.1503 4.99993 93C4.99993 134.421 38.5786 168 79.9999 168ZM151 135C151 131.347 149.775 127.979 147.714 125.286C143.208 134.72 136.788 143.066 128.957 149.819C130.821 150.581 132.862 151 135 151C143.836 151 151 143.837 151 135ZM125.267 147.7C133.531 140.854 140.218 132.171 144.702 122.276C142.011 120.221 138.648 119 135 119C126.163 119 119 126.163 119 135C119 140.175 121.457 144.776 125.267 147.7ZM12.1878 57.6528L12.1848 57.6578L9.03275 62.4787C8.30381 61.7848 7.63992 61.0217 7.0511 60.1986C5.72343 58.3426 4.80814 56.224 4.36665 53.9851C3.92517 51.7463 3.96771 49.4389 4.49143 47.2178C5.01514 44.9967 6.00791 42.9133 7.40309 41.1075C8.79828 39.3017 10.5636 37.8152 12.5806 36.7478C14.5976 35.6805 16.8195 35.0569 19.0974 34.919C21.3752 34.7811 23.6562 35.132 25.7872 35.9482C26.6599 36.2825 27.4992 36.6916 28.2962 37.1698C27.7404 37.7351 27.1356 38.357 26.5006 39.0197C23.7394 41.902 20.2811 45.6905 17.8487 49.0057C16.6037 50.7027 15.1684 52.9013 14.0738 54.6242C13.5197 55.4963 13.0402 56.2668 12.6988 56.8197C12.528 57.0964 12.3914 57.3193 12.2969 57.4738L12.1878 57.6528Z" fill="#040415"/>
<path d="M132.383 11.0149L135.535 8.55224L133.072 5.4002L129.92 7.86285L132.383 11.0149ZM134.23 13.3789L136.692 16.531L139.844 14.0683L137.382 10.9163L134.23 13.3789ZM131.595 11.6306L128.443 14.0932L130.905 17.2452L134.057 14.7826L131.595 11.6306ZM130.979 10.8425L134.131 8.3799L131.668 5.22785L128.516 7.6905L130.979 10.8425ZM130.191 11.4582L127.039 13.9208L129.502 17.0729L132.654 14.6102L130.191 11.4582ZM129.575 10.6702L132.727 8.20755L130.265 5.0555L127.113 7.51815L129.575 10.6702ZM128.787 11.2859L125.635 13.7485L128.098 16.9005L131.25 14.4379L128.787 11.2859ZM125.093 6.55779L122.631 3.40574L119.479 5.86838L121.941 9.02044L125.093 6.55779ZM125.881 5.94213L128.344 9.09418L131.496 6.63154L129.033 3.47948L125.881 5.94213ZM125.266 5.15412L122.803 2.00208L119.651 4.46472L122.114 7.61676L125.266 5.15412ZM126.054 4.53846L128.516 7.6905L131.668 5.22785L129.206 2.07581L126.054 4.53846ZM125.438 3.75045L122.975 0.598404L119.823 3.06105L122.286 6.21309L125.438 3.75045ZM126.226 3.13478L128.689 6.28683L131.841 3.82418L129.378 0.672138L126.226 3.13478ZM124.379 0.770752L127.531 -1.69189L125.069 -4.84394L121.916 -2.38129L124.379 0.770752ZM122.015 2.61774L119.552 -0.534305L116.4 1.92834L118.863 5.08038L122.015 2.61774ZM122.631 3.40575L125.093 6.5578L128.245 4.09516L125.783 0.9431L122.631 3.40575ZM121.843 4.02141L119.38 0.869355L116.228 3.332L118.691 6.48405L121.843 4.02141ZM122.458 4.80942L124.921 7.96146L128.073 5.49881L125.61 2.34677L122.458 4.80942ZM121.67 5.42508L119.208 2.27304L116.056 4.73569L118.518 7.88773L121.67 5.42508ZM122.286 6.21309L124.749 9.36513L127.901 6.90249L125.438 3.75044L122.286 6.21309ZM117.558 9.90706L114.406 12.3697L116.869 15.5217L120.021 13.0591L117.558 9.90706ZM116.942 9.11905L120.094 6.6564L117.632 3.50436L114.48 5.96701L116.942 9.11905ZM116.154 9.73471L113.002 12.1974L115.465 15.3494L118.617 12.8868L116.154 9.73471ZM115.539 8.9467L118.691 6.48405L116.228 3.33201L113.076 5.79466L115.539 8.9467ZM114.751 9.56236L111.599 12.025L114.061 15.1771L117.213 12.7144L114.751 9.56236ZM114.135 8.77435L117.287 6.3117L114.824 3.15966L111.672 5.62231L114.135 8.77435ZM111.771 10.6213L109.308 7.46929L106.156 9.93194L108.619 13.084L111.771 10.6213ZM113.618 12.9854L110.466 15.448L112.929 18.6001L116.081 16.1374L113.618 12.9854ZM114.406 12.3697L117.558 9.90706L115.095 6.75501L111.943 9.21766L114.406 12.3697ZM115.022 13.1577L111.87 15.6204L114.332 18.7724L117.484 16.3098L115.022 13.1577ZM115.81 12.5421L118.962 10.0794L116.499 6.92737L113.347 9.39001L115.81 12.5421ZM116.425 13.3301L113.273 15.7927L115.736 18.9448L118.888 16.4821L116.425 13.3301ZM117.213 12.7144L120.365 10.2518L117.903 7.09971L114.751 9.56236L117.213 12.7144ZM120.907 17.4425L123.37 20.5945L126.522 18.1319L124.059 14.9798L120.907 17.4425ZM120.119 18.0581L117.657 14.9061L114.505 17.3687L116.967 20.5208L120.119 18.0581ZM120.735 18.8461L123.198 21.9982L126.35 19.5355L123.887 16.3835L120.735 18.8461ZM119.947 19.4618L117.484 16.3098L114.332 18.7724L116.795 21.9244L119.947 19.4618ZM120.563 20.2498L123.025 23.4019L126.177 20.9392L123.715 17.7872L120.563 20.2498ZM119.775 20.8655L117.312 17.7134L114.16 20.1761L116.623 23.3281L119.775 20.8655ZM121.622 23.2295L118.469 25.6922L120.932 28.8442L124.084 26.3815L121.622 23.2295ZM123.986 21.3825L126.448 24.5346L129.6 22.0719L127.138 18.9199L123.986 21.3825ZM123.37 20.5945L120.907 17.4425L117.755 19.9051L120.218 23.0572L123.37 20.5945ZM124.158 19.9788L126.621 23.1309L129.773 20.6682L127.31 17.5162L124.158 19.9788ZM123.542 19.1908L121.08 16.0388L117.928 18.5014L120.39 21.6535L123.542 19.1908ZM124.33 18.5752L126.793 21.7272L129.945 19.2646L127.482 16.1125L124.33 18.5752ZM123.715 17.7872L121.252 14.6351L118.1 17.0978L120.563 20.2498L123.715 17.7872ZM128.443 14.0932L131.595 11.6306L129.132 8.47851L125.98 10.9412L128.443 14.0932ZM129.058 14.8812L125.906 17.3439L128.369 20.4959L131.521 18.0332L129.058 14.8812ZM129.846 14.2655L132.998 11.8029L130.536 8.65086L127.384 11.1135L129.846 14.2655ZM130.462 15.0536L127.31 17.5162L129.773 20.6682L132.925 18.2056L130.462 15.0536ZM131.25 14.4379L134.402 11.9752L131.939 8.8232L128.787 11.2859L131.25 14.4379ZM131.866 15.2259L128.714 17.6886L131.176 20.8406L134.328 18.3779L131.866 15.2259ZM125.808 12.3448L128.27 15.4969L131.422 13.0342L128.96 9.88218L125.808 12.3448ZM123.345 9.19278L126.497 6.73014L124.034 3.5781L120.882 6.04074L123.345 9.19278ZM122.656 14.8075L119.504 17.2701L121.966 20.4222L125.118 17.9595L122.656 14.8075ZM120.193 11.6554L117.73 8.50339L114.578 10.966L117.041 14.1181L120.193 11.6554ZM36.5966 11.7061L39.5692 14.3826L42.2457 11.41L39.2731 8.73351L36.5966 11.7061ZM34.3672 9.6987L37.0437 6.72612L34.0711 4.04959L31.3946 7.02218L34.3672 9.6987ZM34.5892 13.9355L31.9127 16.9081L34.8853 19.5846L37.5618 16.612L34.5892 13.9355ZM33.8461 13.2664L36.5226 10.2938L33.55 7.61729L30.8735 10.5899L33.8461 13.2664ZM33.1769 14.0095L30.5004 16.9821L33.473 19.6586L36.1495 16.6861L33.1769 14.0095ZM32.4338 13.3404L35.1103 10.3678L32.1377 7.69131L29.4612 10.6639L32.4338 13.3404ZM31.7646 14.0836L29.0881 17.0561L32.0607 19.7327L34.7372 16.7601L31.7646 14.0836ZM31.0215 13.4144L33.698 10.4418L30.7254 7.76532L28.0489 10.7379L31.0215 13.4144ZM27.0067 17.8733L24.0341 15.1968L21.3576 18.1693L24.3302 20.8459L27.0067 17.8733ZM27.7499 18.5424L30.7224 21.2189L33.399 18.2464L30.4264 15.5698L27.7499 18.5424ZM27.0807 19.2856L24.1082 16.609L21.4316 19.5816L24.4042 22.2581L27.0807 19.2856ZM27.8239 19.9547L30.7965 22.6312L33.473 19.6586L30.5004 16.9821L27.8239 19.9547ZM27.1547 20.6978L24.1822 18.0213L21.5056 20.9939L24.4782 23.6704L27.1547 20.6978ZM27.8979 21.367L30.8705 24.0435L33.547 21.0709L30.5744 18.3944L27.8979 21.367ZM25.8905 23.5964L23.214 26.569L26.1866 29.2455L28.8631 26.2729L25.8905 23.5964ZM23.6611 21.589L20.6885 18.9125L18.012 21.8851L20.9845 24.5616L23.6611 21.589ZM24.3302 20.8459L27.3028 23.5224L29.9793 20.5498L27.0067 17.8733L24.3302 20.8459ZM23.5871 20.1767L20.6145 17.5002L17.9379 20.4728L20.9105 23.1493L23.5871 20.1767ZM24.2562 19.4336L27.2288 22.1101L29.9053 19.1375L26.9327 16.461L24.2562 19.4336ZM23.513 18.7645L20.5405 16.0879L17.8639 19.0605L20.8365 21.737L23.513 18.7645ZM24.1822 18.0213L27.1547 20.6978L29.8313 17.7253L26.8587 15.0487L24.1822 18.0213ZM19.7233 14.0065L22.3998 11.034L19.4272 8.35743L16.7507 11.33L19.7233 14.0065ZM19.0542 14.7497L16.3776 17.7223L19.3502 20.3988L22.0267 17.4262L19.0542 14.7497ZM18.311 14.0805L20.9875 11.108L18.015 8.43145L15.3384 11.404L18.311 14.0805ZM17.6419 14.8237L14.9654 17.7963L17.938 20.4728L20.6145 17.5002L17.6419 14.8237ZM16.8987 14.1546L19.5753 11.182L16.6027 8.50546L13.9262 11.478L16.8987 14.1546ZM16.2296 14.8977L13.5531 17.8703L16.5257 20.5468L19.2022 17.5742L16.2296 14.8977ZM14.0002 12.8903L11.0276 10.2138L8.35108 13.1864L11.3237 15.8629L14.0002 12.8903ZM16.0076 10.6609L18.6841 7.6883L15.7115 5.01178L13.035 7.98436L16.0076 10.6609ZM16.7507 11.33L14.0742 14.3026L17.0468 16.9791L19.7233 14.0065L16.7507 11.33ZM17.4199 10.5869L20.0964 7.61429L17.1238 4.93777L14.4473 7.91035L17.4199 10.5869ZM18.163 11.256L15.4865 14.2286L18.4591 16.9051L21.1356 13.9325L18.163 11.256ZM18.8321 10.5129L21.5086 7.54027L18.5361 4.86375L15.8595 7.83633L18.8321 10.5129ZM19.5753 11.182L16.8988 14.1546L19.8713 16.8311L22.5479 13.8585L19.5753 11.182ZM23.5901 6.72312L26.5626 9.39964L29.2392 6.42706L26.2666 3.75054L23.5901 6.72312ZM22.8469 6.05398L19.8743 3.37746L17.1978 6.35004L20.1704 9.02656L22.8469 6.05398ZM23.516 5.31084L26.4886 7.98736L29.1651 5.01479L26.1926 2.33826L23.516 5.31084ZM22.7729 4.64171L19.8003 1.96519L17.1238 4.93776L20.0964 7.61429L22.7729 4.64171ZM23.442 3.89856L26.4146 6.57509L29.0911 3.60251L26.1185 0.925985L23.442 3.89856ZM22.6989 3.22943L19.7263 0.552912L17.0498 3.52549L20.0224 6.20201L22.6989 3.22943ZM24.7063 1L27.3828 -1.97258L24.4102 -4.6491L21.7337 -1.67652L24.7063 1ZM26.9357 3.00739L29.9083 5.68391L32.5848 2.71133L29.6122 0.0348116L26.9357 3.00739ZM26.2666 3.75054L23.294 1.07401L20.6175 4.04659L23.5901 6.72311L26.2666 3.75054ZM27.0097 4.41967L29.9823 7.09619L32.6588 4.12361L29.6862 1.44709L27.0097 4.41967ZM26.3406 5.16281L23.368 2.48629L20.6915 5.45887L23.6641 8.13539L26.3406 5.16281ZM27.0837 5.83194L30.0563 8.50846L32.7328 5.53589L29.7603 2.85936L27.0837 5.83194ZM26.4146 6.57509L23.442 3.89856L20.7655 6.87114L23.7381 9.54767L26.4146 6.57509ZM30.8735 10.5899L28.1969 13.5624L31.1695 16.239L33.8461 13.2664L30.8735 10.5899ZM31.5426 9.84673L34.2191 6.87415L31.2465 4.19763L28.57 7.1702L31.5426 9.84673ZM32.2857 10.5159L29.6092 13.4884L32.5818 16.165L35.2583 13.1924L32.2857 10.5159ZM32.9549 9.77271L35.6314 6.80013L32.6588 4.12361L29.9823 7.09619L32.9549 9.77271ZM33.698 10.4418L31.0215 13.4144L33.9941 16.0909L36.6706 13.1184L33.698 10.4418ZM25.1504 9.47365L27.8269 6.50107L24.8543 3.82455L22.1778 6.79713L25.1504 9.47365ZM28.1229 12.1502L31.0955 14.8267L33.772 11.8541L30.7995 9.17759L28.1229 12.1502ZM22.4738 12.4462L19.5013 9.76971L16.8247 12.7423L19.7973 15.4188L22.4738 12.4462ZM25.4464 15.1228L22.7699 18.0953L25.7425 20.7719L28.419 17.7993L25.4464 15.1228ZM67.8946 182.515L71.7396 183.617L72.8422 179.772L68.9971 178.67L67.8946 182.515ZM65.0108 181.688L66.1133 177.843L62.2683 176.74L61.1657 180.585L65.0108 181.688ZM67.0676 185.399L65.9651 189.244L69.8101 190.346L70.9127 186.501L67.0676 185.399ZM66.1064 185.123L67.2089 181.278L63.3639 180.175L62.2613 184.021L66.1064 185.123ZM65.8308 186.084L64.7282 189.929L68.5733 191.032L69.6758 187.187L65.8308 186.084ZM64.8695 185.809L65.9721 181.964L62.127 180.861L61.0244 184.706L64.8695 185.809ZM64.5939 186.77L63.4913 190.615L67.3364 191.718L68.4389 187.873L64.5939 186.77ZM63.6326 186.494L64.7352 182.649L60.8901 181.547L59.7875 185.392L63.6326 186.494ZM61.9788 192.262L58.1337 191.159L57.0312 195.004L60.8762 196.107L61.9788 192.262ZM62.94 192.538L66.7851 193.64L67.8876 189.795L64.0426 188.692L62.94 192.538ZM62.6644 193.499L58.8193 192.396L57.7168 196.241L61.5618 197.344L62.6644 193.499ZM63.6257 193.774L67.4707 194.877L68.5732 191.032L64.7283 189.929L63.6257 193.774ZM63.35 194.736L59.505 193.633L58.4024 197.478L62.2475 198.581L63.35 194.736ZM64.3113 195.011L68.1563 196.114L69.2589 192.269L65.4138 191.166L64.3113 195.011ZM63.4844 197.895L62.3818 201.74L66.2269 202.843L67.3294 198.998L63.4844 197.895ZM60.6006 197.068L56.7555 195.966L55.653 199.811L59.498 200.913L60.6006 197.068ZM60.8762 196.107L64.7213 197.21L65.8238 193.364L61.9788 192.262L60.8762 196.107ZM59.915 195.831L56.0699 194.729L54.9674 198.574L58.8124 199.676L59.915 195.831ZM60.1906 194.87L64.0356 195.973L65.1382 192.128L61.2931 191.025L60.1906 194.87ZM59.2293 194.594L55.3843 193.492L54.2817 197.337L58.1268 198.439L59.2293 194.594ZM59.505 193.633L63.35 194.736L64.4526 190.891L60.6075 189.788L59.505 193.633ZM53.7374 191.979L54.8399 188.134L50.9949 187.032L49.8924 190.877L53.7374 191.979ZM53.4618 192.941L52.3592 196.786L56.2043 197.888L57.3068 194.043L53.4618 192.941ZM52.5005 192.665L53.603 188.82L49.758 187.717L48.6555 191.562L52.5005 192.665ZM52.2249 193.626L51.1223 197.471L54.9674 198.574L56.0699 194.729L52.2249 193.626ZM51.2636 193.351L52.3661 189.506L48.5211 188.403L47.4186 192.248L51.2636 193.351ZM50.988 194.312L49.8854 198.157L53.7305 199.259L54.833 195.414L50.988 194.312ZM48.1042 193.485L44.2591 192.382L43.1566 196.227L47.0016 197.33L48.1042 193.485ZM48.9311 190.601L50.0336 186.756L46.1886 185.654L45.086 189.499L48.9311 190.601ZM49.8924 190.877L48.7898 194.722L52.6348 195.824L53.7374 191.979L49.8924 190.877ZM50.168 189.916L51.2705 186.07L47.4255 184.968L46.3229 188.813L50.168 189.916ZM51.1293 190.191L50.0267 194.036L53.8718 195.139L54.9743 191.294L51.1293 190.191ZM51.4049 189.23L52.5074 185.385L48.6624 184.282L47.5598 188.127L51.4049 189.23ZM52.3661 189.506L51.2636 193.351L55.1086 194.453L56.2112 190.608L52.3661 189.506ZM54.02 183.738L57.865 184.841L58.9676 180.995L55.1225 179.893L54.02 183.738ZM53.0587 183.462L49.2137 182.36L48.1111 186.205L51.9562 187.307L53.0587 183.462ZM53.3344 182.501L57.1794 183.604L58.2819 179.759L54.4369 178.656L53.3344 182.501ZM52.3731 182.225L48.528 181.123L47.4255 184.968L51.2705 186.07L52.3731 182.225ZM52.6487 181.264L56.4938 182.367L57.5963 178.522L53.7513 177.419L52.6487 181.264ZM51.6875 180.989L47.8424 179.886L46.7399 183.731L50.5849 184.834L51.6875 180.989ZM52.5144 178.105L53.6169 174.26L49.7719 173.157L48.6693 177.002L52.5144 178.105ZM55.3982 178.932L59.2432 180.034L60.3458 176.189L56.5007 175.087L55.3982 178.932ZM55.1225 179.893L51.2775 178.79L50.1749 182.635L54.02 183.738L55.1225 179.893ZM56.0838 180.169L59.9288 181.271L61.0314 177.426L57.1863 176.323L56.0838 180.169ZM55.8082 181.13L51.9631 180.027L50.8606 183.872L54.7056 184.975L55.8082 181.13ZM56.7694 181.405L60.6145 182.508L61.717 178.663L57.872 177.56L56.7694 181.405ZM56.4938 182.367L52.6487 181.264L51.5462 185.109L55.3912 186.212L56.4938 182.367ZM62.2613 184.021L61.1588 187.866L65.0039 188.968L66.1064 185.123L62.2613 184.021ZM62.537 183.059L63.6396 179.214L59.7945 178.112L58.6919 181.957L62.537 183.059ZM63.4982 183.335L62.3956 187.18L66.2407 188.283L67.3433 184.437L63.4982 183.335ZM63.7739 182.374L64.8764 178.529L61.0314 177.426L59.9288 181.271L63.7739 182.374ZM64.7351 182.649L63.6326 186.494L67.4777 187.597L68.5802 183.752L64.7351 182.649ZM56.6281 185.526L57.7307 181.681L53.8856 180.579L52.7831 184.424L56.6281 185.526ZM60.4732 186.629L64.3182 187.731L65.4208 183.886L61.5757 182.784L60.4732 186.629ZM55.5256 189.371L51.6805 188.269L50.578 192.114L54.423 193.216L55.5256 189.371ZM59.3706 190.474L58.2681 194.319L62.1131 195.421L63.2157 191.576L59.3706 190.474ZM122.033 150.227L124.403 153.449L128.469 150.458L124.627 147.183L122.033 150.227ZM118.038 124.398L121.428 126.521L124.626 121.416L118.679 120.45L118.038 124.398ZM100.734 124.39L101.51 128.314L101.51 128.314L100.734 124.39ZM82.114 132.661L84.342 135.983L84.342 135.983L82.114 132.661ZM68.4083 145.37L65.1462 143.055L65.1462 143.055L68.4083 145.37ZM61.2067 161.486L57.3481 160.432L56.2949 164.289L60.1505 165.344L61.2067 161.486ZM120.877 120.839L120.126 124.768L122.204 125.164L123.702 123.671L120.877 120.839ZM99.9593 120.465L99.1841 116.541L99.1841 116.541L99.9593 120.465ZM146.288 118.488L144.028 121.788L148.204 124.648L150.021 119.924L146.288 118.488ZM145.801 66.2825L149.507 64.7764L147.068 58.7753L142.795 63.6439L145.801 66.2825ZM98.331 99.0901L96.9011 95.3544L96.9011 95.3544L98.331 99.0901ZM77.0564 102.697L77.2271 106.694L77.2276 106.694L77.0564 102.697ZM77.0344 102.698L77.1922 106.695L77.2051 106.695L77.0344 102.698ZM77.0327 102.698L76.8749 98.7015L76.8614 98.7021L77.0327 102.698ZM76.1362 102.737L76.3112 106.733L76.3113 106.733L76.1362 102.737ZM55.6064 106.82L57.267 110.459L57.267 110.459L55.6064 106.82ZM21.8942 133.811L18.7083 131.393L16.9401 133.722L18.6229 136.113L21.8942 133.811ZM57.3787 160.32L56.1051 164.112L60.1158 165.459L61.236 161.379L57.3787 160.32ZM65.1462 143.055L61.8842 140.74L61.8842 140.74L65.1462 143.055ZM79.8861 129.339L82.114 132.661L82.114 132.661L79.8861 129.339ZM144.011 62.2454L147.041 64.8573L148.752 62.8723L147.616 60.5106L144.011 62.2454ZM96.9011 95.3544L95.4713 91.6187L95.4713 91.6187L96.9011 95.3544ZM101.718 25.383L102.94 21.5744L98.8782 20.2708L97.8384 24.4079L101.718 25.383ZM91.701 50.2219L95.0873 52.3509L95.0874 52.3509L91.701 50.2219ZM73.0368 70.4465L75.5647 73.5465L75.5647 73.5465L73.0368 70.4465ZM32.6647 85.577L32.0111 81.6308L32.0111 81.6308L32.6647 85.577ZM15.2792 87.6307L15.5699 91.6201L15.5699 91.6201L15.2792 87.6307ZM9.99718 87.9367L10.1621 91.9333L10.1622 91.9333L9.99718 87.9367ZM9.1755 87.9679L9.03749 83.9703L5.43692 84.0946L5.18527 87.6885L9.1755 87.9679ZM19.562 130.278L16.1596 132.381L19.1956 137.293L22.7269 132.724L19.562 130.278ZM53.9458 103.18L52.2852 99.5415L52.2852 99.5415L53.9458 103.18ZM75.9613 98.7409L75.7863 94.7448L75.7863 94.7448L75.9613 98.7409ZM76.7734 98.7057L76.9457 102.702L76.9457 102.702L76.7734 98.7057ZM97.8733 24.2687L101.754 25.2398L102.717 21.3923L98.8773 20.3967L97.8733 24.2687ZM88.3147 48.0928L91.701 50.2219L91.701 50.2219L88.3147 48.0928ZM70.5088 67.3466L73.0368 70.4465L73.0368 70.4465L70.5088 67.3466ZM32.0111 81.6308L32.6647 85.577L32.6647 85.577L32.0111 81.6308ZM14.9885 83.6412L15.2792 87.6307L15.2792 87.6307L14.9885 83.6412ZM9.83219 83.9401L9.99308 87.9368L9.9972 87.9367L9.83219 83.9401ZM9.57121 83.9506L5.60318 83.4458L5.00634 88.1376L9.73209 87.9473L9.57121 83.9506ZM125.517 152.613L127.417 149.093L125.141 147.866L123.087 149.436L125.517 152.613ZM149.505 121.231L145.8 119.724L144.828 122.114L146.605 123.985L149.505 121.231ZM32.3321 35.0941L29.8786 38.2532L32.4062 40.2163L34.8761 38.1809L32.3321 35.0941ZM31.1995 34.2762L28.9725 37.5989L28.9725 37.5989L31.1995 34.2762ZM27.2179 32.2128L25.7872 35.9482L25.7872 35.9482L27.2179 32.2128ZM18.8556 30.9263L18.6139 26.9336L18.6139 26.9336L18.8556 30.9263ZM10.7096 33.2124L8.8387 29.6769L8.8387 29.6769L10.7096 33.2124ZM4.23777 38.6619L1.07246 36.2164L1.07245 36.2164L4.23777 38.6619ZM0.59819 46.2998L4.49143 47.2178L4.49143 47.2178L0.59819 46.2998ZM0.442225 54.759L4.36665 53.9852L4.36665 53.9852L0.442225 54.759ZM3.79778 62.5258L0.544466 64.853L0.544467 64.853L3.79778 62.5258ZM6.81461 65.8712L9.46458 62.8749L9.46456 62.8749L6.81461 65.8712ZM8.20833 66.9967L10.5795 63.7753L10.5795 63.7753L8.20833 66.9967ZM9.34719 67.7759L13.1143 69.1209L14.1889 66.1112L11.4906 64.3987L9.34719 67.7759ZM147.714 125.286L150.891 122.855L146.921 117.666L144.105 123.562L147.714 125.286ZM128.957 149.819L126.344 146.79L121.399 151.055L127.445 153.523L128.957 149.819ZM144.702 122.276L148.345 123.927L149.659 121.029L147.13 119.097L144.702 122.276ZM125.267 147.7L122.832 150.874L125.363 152.816L127.819 150.781L125.267 147.7ZM12.1848 57.6578L15.5327 59.8468L15.569 59.7912L15.6035 59.7344L12.1848 57.6578ZM12.1878 57.6528L8.77253 55.5705L8.76904 55.5763L12.1878 57.6528ZM9.03275 62.4787L6.27484 65.3759L9.75287 68.6867L12.3806 64.6676L9.03275 62.4787ZM7.0511 60.1986L10.3044 57.8714L10.3044 57.8714L7.0511 60.1986ZM4.36665 53.9851L0.442224 54.759L0.442224 54.759L4.36665 53.9851ZM7.40309 41.1075L4.23778 38.6619L4.23778 38.6619L7.40309 41.1075ZM12.5806 36.7478L14.4515 40.2833L14.4515 40.2833L12.5806 36.7478ZM19.0974 34.919L18.8556 30.9263L18.8556 30.9263L19.0974 34.919ZM25.7872 35.9482L27.2179 32.2128L27.2179 32.2128L25.7872 35.9482ZM28.2962 37.1698L31.1488 39.9738L34.7085 36.3524L30.3541 33.7398L28.2962 37.1698ZM26.5006 39.0197L23.6122 36.2526L23.6122 36.2526L26.5006 39.0197ZM17.8487 49.0057L21.0738 51.372L21.0738 51.372L17.8487 49.0057ZM14.0738 54.6242L10.6976 52.4792L10.6976 52.4792L14.0738 54.6242ZM12.6988 56.8197L9.29516 54.7185L9.29516 54.7185L12.6988 56.8197ZM12.2969 57.4738L8.8836 55.3884L8.88165 55.3916L12.2969 57.4738ZM129.231 13.4775L131.078 15.8416L137.382 10.9163L135.535 8.55224L129.231 13.4775ZM134.057 14.7826L134.845 14.1669L129.92 7.86285L129.132 8.47851L134.057 14.7826ZM127.827 13.3052L128.443 14.0932L134.747 9.16791L134.131 8.3799L127.827 13.3052ZM132.654 14.6102L133.442 13.9946L128.516 7.6905L127.728 8.30616L132.654 14.6102ZM126.423 13.1328L127.039 13.9208L133.343 8.99556L132.727 8.20755L126.423 13.1328ZM131.25 14.4379L132.038 13.8222L127.113 7.51815L126.325 8.13381L131.25 14.4379ZM121.941 9.02044L125.635 13.7485L131.939 8.82321L128.245 4.09514L121.941 9.02044ZM123.419 2.79007L122.631 3.40574L127.556 9.70984L128.344 9.09418L123.419 2.79007ZM122.114 7.61676L122.729 8.40477L129.033 3.47948L128.418 2.69147L122.114 7.61676ZM123.591 1.38641L122.803 2.00208L127.728 8.30616L128.516 7.6905L123.591 1.38641ZM122.286 6.21309L122.902 7.0011L129.206 2.07581L128.59 1.2878L122.286 6.21309ZM123.763 -0.0172575L122.975 0.598404L127.901 6.90249L128.689 6.28683L123.763 -0.0172575ZM121.227 3.2334L123.074 5.59743L129.378 0.672138L127.531 -1.69189L121.227 3.2334ZM124.478 5.76978L126.842 3.92279L121.916 -2.38129L119.552 -0.534305L124.478 5.76978ZM125.783 0.9431L125.167 0.15509L118.863 5.08038L119.479 5.86839L125.783 0.9431ZM124.305 7.17346L125.093 6.5578L120.168 0.253694L119.38 0.869355L124.305 7.17346ZM125.61 2.34677L124.995 1.55876L118.691 6.48405L119.306 7.27207L125.61 2.34677ZM124.133 8.57712L124.921 7.96146L119.996 1.65738L119.208 2.27304L124.133 8.57712ZM125.438 3.75044L124.822 2.96243L118.518 7.88773L119.134 8.67574L125.438 3.75044ZM120.021 13.0591L124.749 9.36513L119.823 3.06105L115.095 6.75502L120.021 13.0591ZM113.79 11.5817L114.406 12.3697L120.71 7.44441L120.094 6.6564L113.79 11.5817ZM118.617 12.8868L119.405 12.2711L114.48 5.96701L113.692 6.58267L118.617 12.8868ZM112.387 11.4093L113.002 12.1974L119.306 7.27206L118.691 6.48405L112.387 11.4093ZM117.213 12.7144L118.001 12.0987L113.076 5.79466L112.288 6.41032L117.213 12.7144ZM110.983 11.237L111.599 12.025L117.903 7.09971L117.287 6.3117L110.983 11.237ZM114.234 13.7734L116.598 11.9264L111.672 5.62231L109.308 7.46929L114.234 13.7734ZM116.77 10.5227L114.923 8.15869L108.619 13.084L110.466 15.448L116.77 10.5227ZM111.943 9.21766L111.155 9.83332L116.081 16.1374L116.869 15.5217L111.943 9.21766ZM118.174 10.6951L117.558 9.90706L111.254 14.8324L111.87 15.6204L118.174 10.6951ZM113.347 9.39001L112.559 10.0057L117.484 16.3098L118.272 15.6941L113.347 9.39001ZM119.577 10.8674L118.962 10.0794L112.658 15.0047L113.273 15.7927L119.577 10.8674ZM114.751 9.56236L113.963 10.178L118.888 16.4821L119.676 15.8664L114.751 9.56236ZM124.059 14.9798L120.365 10.2518L114.061 15.177L117.755 19.9051L124.059 14.9798ZM122.582 21.2102L123.37 20.5945L118.445 14.2904L117.657 14.9061L122.582 21.2102ZM123.887 16.3835L123.271 15.5955L116.967 20.5208L117.583 21.3088L123.887 16.3835ZM122.41 22.6138L123.198 21.9982L118.272 15.6941L117.484 16.3098L122.41 22.6138ZM123.715 17.7872L123.099 16.9992L116.795 21.9244L117.411 22.7125L123.715 17.7872ZM122.237 24.0175L123.025 23.4019L118.1 17.0978L117.312 17.7134L122.237 24.0175ZM124.774 20.7669L122.927 18.4028L116.623 23.3281L118.469 25.6922L124.774 20.7669ZM121.523 18.2305L119.159 20.0775L124.084 26.3815L126.448 24.5346L121.523 18.2305ZM120.218 23.0572L120.834 23.8452L127.138 18.9199L126.522 18.1319L120.218 23.0572ZM121.695 16.8268L120.907 17.4425L125.833 23.7466L126.621 23.1309L121.695 16.8268ZM120.39 21.6535L121.006 22.4415L127.31 17.5162L126.694 16.7282L120.39 21.6535ZM121.868 15.4231L121.08 16.0388L126.005 22.3429L126.793 21.7272L121.868 15.4231ZM120.563 20.2498L121.178 21.0378L127.482 16.1125L126.867 15.3245L120.563 20.2498ZM125.98 10.9412L121.252 14.6351L126.177 20.9392L130.905 17.2452L125.98 10.9412ZM132.21 12.4186L131.595 11.6306L125.291 16.5558L125.906 17.3439L132.21 12.4186ZM127.384 11.1135L126.596 11.7292L131.521 18.0332L132.309 17.4176L127.384 11.1135ZM133.614 12.5909L132.998 11.8029L126.694 16.7282L127.31 17.5162L133.614 12.5909ZM128.787 11.2859L127.999 11.9015L132.925 18.2056L133.713 17.5899L128.787 11.2859ZM135.018 12.7633L134.402 11.9752L128.098 16.9005L128.714 17.6886L135.018 12.7633ZM131.767 10.2269L129.403 12.0739L134.328 18.3779L136.692 16.531L131.767 10.2269ZM128.96 9.88218L126.497 6.73014L120.193 11.6554L122.656 14.8075L128.96 9.88218ZM125.118 17.9595L128.27 15.4969L123.345 9.19278L120.193 11.6554L125.118 17.9595ZM117.041 14.1181L119.504 17.2701L125.808 12.3448L123.345 9.19278L117.041 14.1181ZM120.882 6.04074L117.73 8.50339L122.656 14.8075L125.808 12.3448L120.882 6.04074ZM39.2731 8.73351L37.0437 6.72612L31.6906 12.6713L33.9201 14.6787L39.2731 8.73351ZM37.5618 16.612L39.5692 14.3826L33.624 9.02956L31.6166 11.259L37.5618 16.612ZM31.1695 16.239L31.9127 16.9081L37.2657 10.9629L36.5226 10.2938L31.1695 16.239ZM36.1495 16.6861L36.8186 15.9429L30.8735 10.5899L30.2043 11.333L36.1495 16.6861ZM29.7573 16.313L30.5004 16.9821L35.8534 11.037L35.1103 10.3678L29.7573 16.313ZM34.7372 16.7601L35.4064 16.0169L29.4612 10.6639L28.7921 11.407L34.7372 16.7601ZM28.345 16.387L29.0881 17.0561L34.4412 11.111L33.698 10.4418L28.345 16.387ZM29.9793 20.5498L33.9941 16.0909L28.0489 10.7379L24.0341 15.1968L29.9793 20.5498ZM30.4264 15.5698L29.6832 14.9007L24.3302 20.8459L25.0733 21.515L30.4264 15.5698ZM30.0533 21.9621L30.7224 21.2189L24.7773 15.8659L24.1082 16.609L30.0533 21.9621ZM30.5004 16.9821L29.7573 16.313L24.4042 22.2581L25.1474 22.9273L30.5004 16.9821ZM30.1273 23.3744L30.7965 22.6312L24.8513 17.2782L24.1822 18.0213L30.1273 23.3744ZM30.5744 18.3944L29.8313 17.7253L24.4782 23.6704L25.2214 24.3396L30.5744 18.3944ZM28.8631 26.2729L30.8705 24.0435L24.9253 18.6904L22.9179 20.9199L28.8631 26.2729ZM20.9845 24.5616L23.214 26.569L28.567 20.6238L26.3376 18.6164L20.9845 24.5616ZM21.3576 18.1693L20.6885 18.9125L26.6336 24.2655L27.3028 23.5224L21.3576 18.1693ZM20.9105 23.1493L21.6537 23.8184L27.0067 17.8733L26.2636 17.2042L20.9105 23.1493ZM21.2836 16.7571L20.6145 17.5002L26.5596 22.8533L27.2288 22.1101L21.2836 16.7571ZM20.8365 21.737L21.5797 22.4062L26.9327 16.461L26.1896 15.7919L20.8365 21.737ZM21.2096 15.3448L20.5405 16.0879L26.4856 21.441L27.1547 20.6978L21.2096 15.3448ZM17.0468 16.9791L21.5056 20.9939L26.8587 15.0487L22.3998 11.034L17.0468 16.9791ZM22.0267 17.4262L22.6959 16.6831L16.7507 11.33L16.0816 12.0732L22.0267 17.4262ZM15.6345 17.0531L16.3776 17.7223L21.7307 11.7771L20.9875 11.108L15.6345 17.0531ZM20.6145 17.5002L21.2836 16.7571L15.3384 11.404L14.6693 12.1472L20.6145 17.5002ZM14.2222 17.1271L14.9654 17.7963L20.3184 11.8511L19.5753 11.182L14.2222 17.1271ZM19.2022 17.5742L19.8713 16.8311L13.9262 11.478L13.257 12.2212L19.2022 17.5742ZM11.3237 15.8629L13.5531 17.8703L18.9061 11.9251L16.6767 9.91774L11.3237 15.8629ZM13.035 7.98436L11.0276 10.2138L16.9728 15.5668L18.9802 13.3374L13.035 7.98436ZM19.4272 8.35743L18.6841 7.6883L13.3311 13.6335L14.0742 14.3026L19.4272 8.35743ZM14.4473 7.91035L13.7781 8.65349L19.7233 14.0065L20.3924 13.2634L14.4473 7.91035ZM20.8395 8.28342L20.0964 7.61429L14.7433 13.5594L15.4865 14.2286L20.8395 8.28342ZM15.8595 7.83633L15.1904 8.57947L21.1356 13.9325L21.8047 13.1894L15.8595 7.83633ZM22.2518 8.2094L21.5086 7.54027L16.1556 13.4854L16.8988 14.1546L22.2518 8.2094ZM20.6175 4.04659L16.6027 8.50546L22.5479 13.8585L26.5626 9.39964L20.6175 4.04659ZM20.1704 9.02656L20.9135 9.69569L26.2666 3.75054L25.5234 3.08141L20.1704 9.02656ZM20.5435 2.63432L19.8743 3.37746L25.8195 8.73051L26.4886 7.98736L20.5435 2.63432ZM20.0964 7.61429L20.8395 8.28342L26.1926 2.33826L25.4494 1.66913L20.0964 7.61429ZM20.4694 1.22204L19.8003 1.96519L25.7455 7.31823L26.4146 6.57509L20.4694 1.22204ZM20.0224 6.20201L20.7655 6.87114L26.1185 0.925985L25.3754 0.256855L20.0224 6.20201ZM21.7337 -1.67652L19.7263 0.552912L25.6715 5.90596L27.6789 3.67652L21.7337 -1.67652ZM29.6122 0.0348116L27.3828 -1.97258L22.0298 3.97258L24.2592 5.97997L29.6122 0.0348116ZM29.2392 6.42706L29.9083 5.68391L23.9631 0.330869L23.294 1.07401L29.2392 6.42706ZM29.6862 1.44709L28.9431 0.77796L23.5901 6.72311L24.3332 7.39224L29.6862 1.44709ZM29.3132 7.83933L29.9823 7.09619L24.0371 1.74314L23.368 2.48629L29.3132 7.83933ZM29.7603 2.85936L29.0171 2.19023L23.6641 8.13539L24.4072 8.80452L29.7603 2.85936ZM29.3872 9.25161L30.0563 8.50846L24.1112 3.15542L23.442 3.89856L29.3872 9.25161ZM33.55 7.61729L29.0911 3.60251L23.7381 9.54767L28.1969 13.5624L33.55 7.61729ZM28.57 7.1702L27.9009 7.91335L33.8461 13.2664L34.5152 12.5232L28.57 7.1702ZM34.9623 7.54328L34.2191 6.87415L28.8661 12.8193L29.6092 13.4884L34.9623 7.54328ZM29.9823 7.09619L29.3132 7.83933L35.2583 13.1924L35.9275 12.4492L29.9823 7.09619ZM36.3745 7.46926L35.6314 6.80013L30.2784 12.7453L31.0215 13.4144L36.3745 7.46926ZM31.3946 7.02218L30.7254 7.76532L36.6706 13.1184L37.3397 12.3752L31.3946 7.02218ZM22.4738 12.4462L25.4464 15.1228L30.7995 9.17759L27.8269 6.50107L22.4738 12.4462ZM25.4464 15.1228L28.1229 12.1502L22.1778 6.79713L19.5013 9.76971L25.4464 15.1228ZM28.1229 12.1502L25.1504 9.47365L19.7973 15.4188L22.7699 18.0953L28.1229 12.1502ZM25.1504 9.47365L22.4738 12.4462L28.419 17.7993L31.0955 14.8267L25.1504 9.47365ZM68.9971 178.67L66.1133 177.843L63.9082 185.533L66.792 186.36L68.9971 178.67ZM70.9127 186.501L71.7396 183.617L64.0495 181.412L63.2226 184.296L70.9127 186.501ZM65.0038 188.968L65.9651 189.244L68.1702 181.554L67.2089 181.278L65.0038 188.968ZM69.6758 187.187L69.9514 186.226L62.2613 184.021L61.9857 184.982L69.6758 187.187ZM63.7669 189.654L64.7282 189.929L66.9333 182.239L65.9721 181.964L63.7669 189.654ZM68.4389 187.873L68.7145 186.911L61.0244 184.706L60.7488 185.667L68.4389 187.873ZM62.53 190.339L63.4913 190.615L65.6964 182.925L64.7352 182.649L62.53 190.339ZM65.8238 193.364L67.4776 187.597L59.7875 185.392L58.1337 191.159L65.8238 193.364ZM64.0426 188.692L63.0813 188.417L60.8762 196.107L61.8375 196.383L64.0426 188.692ZM66.5094 194.601L66.7851 193.64L59.095 191.435L58.8193 192.396L66.5094 194.601ZM64.7283 189.929L63.767 189.654L61.5618 197.344L62.5231 197.619L64.7283 189.929ZM67.1951 195.838L67.4707 194.877L59.7806 192.672L59.505 193.633L67.1951 195.838ZM65.4138 191.166L64.4526 190.891L62.2475 198.581L63.2087 198.856L65.4138 191.166ZM67.3294 198.998L68.1563 196.114L60.4662 193.909L59.6393 196.793L67.3294 198.998ZM59.498 200.913L62.3818 201.74L64.5869 194.05L61.7031 193.223L59.498 200.913ZM57.0312 195.004L56.7555 195.966L64.4456 198.171L64.7213 197.21L57.0312 195.004ZM58.8124 199.676L59.7737 199.952L61.9788 192.262L61.0175 191.986L58.8124 199.676ZM56.3455 193.768L56.0699 194.729L63.76 196.934L64.0356 195.973L56.3455 193.768ZM58.1268 198.439L59.0881 198.715L61.2931 191.025L60.3319 190.749L58.1268 198.439ZM55.6599 192.531L55.3843 193.492L63.0744 195.697L63.35 194.736L55.6599 192.531ZM52.6349 195.824L58.4024 197.478L60.6075 189.788L54.8399 188.134L52.6349 195.824ZM57.3068 194.043L57.5824 193.082L49.8924 190.877L49.6167 191.838L57.3068 194.043ZM51.398 196.51L52.3592 196.786L54.5643 189.096L53.603 188.82L51.398 196.51ZM56.0699 194.729L56.3455 193.767L48.6555 191.562L48.3798 192.524L56.0699 194.729ZM50.1611 197.196L51.1223 197.471L53.3274 189.781L52.3661 189.506L50.1611 197.196ZM54.833 195.414L55.1086 194.453L47.4186 192.248L47.1429 193.209L54.833 195.414ZM47.0016 197.33L49.8854 198.157L52.0905 190.467L49.2067 189.64L47.0016 197.33ZM45.086 189.499L44.2591 192.382L51.9492 194.587L52.7761 191.704L45.086 189.499ZM50.9949 187.032L50.0336 186.756L47.8286 194.446L48.7898 194.722L50.9949 187.032ZM46.3229 188.813L46.0473 189.774L53.7374 191.979L54.013 191.018L46.3229 188.813ZM52.2318 186.346L51.2705 186.07L49.0655 193.761L50.0267 194.036L52.2318 186.346ZM47.5598 188.127L47.2842 189.089L54.9743 191.294L55.2499 190.332L47.5598 188.127ZM53.4687 185.66L52.5074 185.385L50.3023 193.075L51.2636 193.351L53.4687 185.66ZM50.1749 182.635L48.5211 188.403L56.2112 190.608L57.865 184.841L50.1749 182.635ZM51.9562 187.307L52.9174 187.583L55.1225 179.893L54.1613 179.617L51.9562 187.307ZM49.4893 181.399L49.2137 182.36L56.9038 184.565L57.1794 183.604L49.4893 181.399ZM51.2705 186.07L52.2318 186.346L54.4369 178.656L53.4756 178.38L51.2705 186.07ZM48.8037 180.162L48.528 181.123L56.2181 183.328L56.4938 182.367L48.8037 180.162ZM50.5849 184.834L51.5462 185.109L53.7513 177.419L52.79 177.143L50.5849 184.834ZM48.6693 177.002L47.8424 179.886L55.5325 182.091L56.3594 179.207L48.6693 177.002ZM56.5007 175.087L53.6169 174.26L51.4118 181.95L54.2956 182.777L56.5007 175.087ZM58.9676 180.995L59.2432 180.034L51.5531 177.829L51.2775 178.79L58.9676 180.995ZM57.1863 176.323L56.2251 176.048L54.02 183.738L54.9812 184.014L57.1863 176.323ZM59.6532 182.232L59.9288 181.271L52.2387 179.066L51.9631 180.027L59.6532 182.232ZM57.872 177.56L56.9107 177.285L54.7056 184.975L55.6669 185.25L57.872 177.56ZM60.3388 183.469L60.6145 182.508L52.9244 180.303L52.6487 181.264L60.3388 183.469ZM63.3639 180.175L57.5963 178.522L55.3912 186.212L61.1588 187.866L63.3639 180.175ZM58.6919 181.957L58.4163 182.918L66.1064 185.123L66.382 184.162L58.6919 181.957ZM64.6008 179.49L63.6396 179.214L61.4344 186.904L62.3956 187.18L64.6008 179.49ZM59.9288 181.271L59.6532 182.232L67.3433 184.437L67.6189 183.476L59.9288 181.271ZM65.8377 178.804L64.8764 178.529L62.6713 186.219L63.6326 186.494L65.8377 178.804ZM61.1657 180.585L60.8901 181.547L68.5802 183.752L68.8558 182.791L61.1657 180.585ZM55.5256 189.371L59.3706 190.474L61.5757 182.784L57.7307 181.681L55.5256 189.371ZM59.3706 190.474L60.4732 186.629L52.7831 184.424L51.6805 188.269L59.3706 190.474ZM60.4732 186.629L56.6281 185.526L54.423 193.216L58.2681 194.319L60.4732 186.629ZM56.6281 185.526L55.5256 189.371L63.2157 191.576L64.3182 187.731L56.6281 185.526ZM28.5002 179C32.6424 179 36.0002 175.642 36.0002 171.5H28.0002C28.0002 171.224 28.2241 171 28.5002 171V179ZM21.0002 171.5C21.0002 175.642 24.3581 179 28.5002 179V171C28.7764 171 29.0002 171.224 29.0002 171.5H21.0002ZM28.5002 164C24.3581 164 21.0002 167.358 21.0002 171.5H29.0002C29.0002 171.776 28.7764 172 28.5002 172V164ZM36.0002 171.5C36.0002 167.358 32.6424 164 28.5002 164V172C28.2241 172 28.0002 171.776 28.0002 171.5H36.0002ZM126 174.5C126 174.224 126.224 174 126.5 174V182C130.642 182 134 178.642 134 174.5H126ZM126.5 175C126.224 175 126 174.776 126 174.5H134C134 170.358 130.642 167 126.5 167V175ZM127 174.5C127 174.776 126.776 175 126.5 175V167C122.358 167 119 170.358 119 174.5H127ZM126.5 174C126.776 174 127 174.224 127 174.5H119C119 178.642 122.358 182 126.5 182V174ZM137.5 35C141.642 35 145 31.6421 145 27.5H137C137 27.2239 137.224 27 137.5 27V35ZM130 27.5C130 31.6421 133.358 35 137.5 35V27C137.776 27 138 27.2239 138 27.5H130ZM137.5 20C133.358 20 130 23.3579 130 27.5H138C138 27.7761 137.776 28 137.5 28V20ZM145 27.5C145 23.3579 141.642 20 137.5 20V28C137.224 28 137 27.7761 137 27.5H145ZM119.662 147.005C108.558 155.175 94.8484 160 79.9999 160V168C96.6111 168 111.972 162.595 124.403 153.449L119.662 147.005ZM111 135C111 142.319 114.281 148.875 119.438 153.271L124.627 147.183C121.177 144.242 119 139.877 119 135H111ZM114.648 122.275C112.336 125.966 111 130.333 111 135H119C119 131.878 119.89 128.977 121.428 126.521L114.648 122.275ZM101.51 128.314C106.27 127.373 111.362 127.366 117.397 128.346L118.679 120.45C111.91 119.35 105.838 119.304 99.9593 120.465L101.51 128.314ZM84.342 135.983C90.568 131.808 96.0095 129.4 101.51 128.314L99.9593 120.465C93.1573 121.809 86.7372 124.744 79.8861 129.339L84.342 135.983ZM71.6703 147.685C74.6275 143.518 78.5939 139.838 84.342 135.983L79.8861 129.339C73.5827 133.566 68.8165 137.884 65.1462 143.055L71.6703 147.685ZM65.0654 162.54C66.7613 156.33 68.8567 151.65 71.6703 147.685L65.1462 143.055C61.6559 147.974 59.2213 153.573 57.3481 160.432L65.0654 162.54ZM79.9999 160C73.8542 160 67.9079 159.174 62.263 157.628L60.1505 165.344C66.4773 167.076 73.1339 168 79.9999 168V160ZM121.628 116.91C113.599 115.376 106.32 115.132 99.1841 116.541L100.734 124.39C106.626 123.226 112.837 123.375 120.126 124.768L121.628 116.91ZM135 111C128.385 111 122.389 113.681 118.052 118.006L123.702 123.671C126.6 120.78 130.588 119 135 119V111ZM148.548 115.188C144.691 112.546 140.02 111 135 111V119C138.356 119 141.459 120.029 144.028 121.788L148.548 115.188ZM147 93C147 101.484 145.425 109.591 142.555 117.051L150.021 119.924C153.238 111.562 155 102.482 155 93H147ZM142.096 67.7886C145.257 75.5656 147 84.0743 147 93H155C155 83.0241 153.05 73.4937 149.507 64.7764L142.096 67.7886ZM99.7609 102.826C121.335 94.5682 133.793 86.0292 148.808 68.921L142.795 63.6439C128.666 79.743 117.302 87.5457 96.9011 95.3544L99.7609 102.826ZM77.2276 106.694C83.6999 106.416 91.1605 106.118 99.7609 102.826L96.9011 95.3544C89.6395 98.1338 83.3589 98.4237 76.8852 98.7011L77.2276 106.694ZM77.2051 106.695L77.2271 106.694L76.8857 98.701L76.8638 98.702L77.2051 106.695ZM77.1905 106.695L77.1922 106.695L76.8767 98.7014L76.8749 98.7015L77.1905 106.695ZM76.3113 106.733C76.6071 106.72 76.9041 106.708 77.204 106.695L76.8614 98.7021C76.562 98.7149 76.2614 98.7278 75.9612 98.7409L76.3113 106.733ZM57.267 110.459C63.9032 107.43 69.627 107.026 76.3112 106.733L75.9613 98.7409C69.152 99.0391 62.087 99.4654 53.9458 103.18L57.267 110.459ZM25.0801 136.23C34.9188 123.271 42.5596 117.17 57.267 110.459L53.9458 103.18C38.0342 110.442 29.3458 117.382 18.7083 131.393L25.0801 136.23ZM58.6524 156.528C44.9991 151.942 33.3017 143.072 25.1655 131.51L18.6229 136.113C27.7222 149.045 40.8082 158.974 56.1051 164.112L58.6524 156.528ZM61.8842 140.74C58.0754 146.107 55.4792 152.131 53.5215 159.261L61.236 161.379C63.0155 154.898 65.2726 149.789 68.4083 145.37L61.8842 140.74ZM77.6582 126.017C71.0771 130.43 65.9109 135.066 61.8842 140.74L68.4083 145.37C71.722 140.701 76.0883 136.702 82.114 132.661L77.6582 126.017ZM99.1841 116.541C91.7311 118.013 84.8217 121.213 77.6582 126.017L82.114 132.661C88.6526 128.276 94.5834 125.605 100.734 124.39L99.1841 116.541ZM140.982 59.6335C126.695 76.2042 115.807 83.835 95.4713 91.6187L98.331 99.0901C119.902 90.8336 131.89 82.4308 147.041 64.8573L140.982 59.6335ZM100.495 29.1917C118.073 34.8328 132.496 47.5443 140.407 63.9802L147.616 60.5106C138.763 42.1183 122.629 27.8932 102.94 21.5744L100.495 29.1917ZM95.0874 52.3509C99.8305 44.8067 103.057 36.4621 105.597 26.3581L97.8384 24.4079C95.4383 33.9565 92.4861 41.458 88.3147 48.0928L95.0874 52.3509ZM75.5647 73.5465C83.8745 66.77 90.1966 60.1298 95.0873 52.3509L88.3147 48.0928C84.0165 54.9292 78.3637 60.9411 70.5088 67.3466L75.5647 73.5465ZM33.3184 89.5232C46.877 87.2774 64.1945 82.8185 75.5647 73.5465L70.5088 67.3466C60.8791 75.1993 45.3938 79.4141 32.0111 81.6308L33.3184 89.5232ZM15.5699 91.6201C20.1078 91.2894 26.3806 90.6724 33.3184 89.5232L32.0111 81.6308C25.3723 82.7304 19.3506 83.3234 14.9885 83.6412L15.5699 91.6201ZM10.1622 91.9333C11.4506 91.8801 13.2973 91.7857 15.5699 91.6201L14.9885 83.6412C12.8087 83.8001 11.0463 83.8899 9.83218 83.9401L10.1622 91.9333ZM9.31351 91.9655C9.56134 91.957 9.84486 91.9464 10.1621 91.9333L9.83226 83.9401C9.53346 83.9524 9.26788 83.9623 9.03749 83.9703L9.31351 91.9655ZM12.9999 93C12.9999 91.4015 13.0558 89.8166 13.1657 88.2473L5.18527 87.6885C5.06237 89.4436 4.99993 91.2149 4.99993 93H12.9999ZM22.9645 128.175C16.6468 117.954 12.9999 105.909 12.9999 93H4.99993C4.99993 107.437 9.08311 120.933 16.1596 132.381L22.9645 128.175ZM52.2852 99.5415C36.2217 106.872 27.0589 114.038 16.3972 127.832L22.7269 132.724C32.5699 119.989 40.6876 113.627 55.6064 106.82L52.2852 99.5415ZM75.7863 94.7448C68.9114 95.0458 61.1775 95.4836 52.2852 99.5415L55.6064 106.82C62.9955 103.448 69.3905 103.032 76.1362 102.737L75.7863 94.7448ZM76.601 94.7094C76.3308 94.7211 76.0589 94.7328 75.7863 94.7448L76.1362 102.737C76.4059 102.725 76.6753 102.714 76.9457 102.702L76.601 94.7094ZM95.4713 91.6187C88.8336 94.1593 83.1368 94.4275 76.601 94.7094L76.9457 102.702C83.4544 102.421 90.3458 102.146 98.331 99.0901L95.4713 91.6187ZM98.8773 20.3967C92.8418 18.8317 86.5151 18 79.9999 18V26C85.8318 26 91.484 26.7442 96.8692 28.1406L98.8773 20.3967ZM91.701 50.2219C96.1797 43.0984 99.2775 35.1332 101.754 25.2398L93.993 23.2975C91.6558 32.6359 88.8324 39.7542 84.9284 45.9638L91.701 50.2219ZM73.0368 70.4465C81.1191 63.8556 87.1066 57.5295 91.701 50.2219L84.9284 45.9638C80.9265 52.3289 75.6084 58.0267 67.9809 64.2466L73.0368 70.4465ZM32.6647 85.577C46.1347 83.3459 62.5365 79.0091 73.0368 70.4465L67.9809 64.2466C59.2222 71.3891 44.6542 75.4821 31.3574 77.6845L32.6647 85.577ZM15.2792 87.6307C19.7292 87.3064 25.8765 86.7014 32.6647 85.577L31.3575 77.6845C24.8682 78.7594 18.9721 79.3404 14.6978 79.6518L15.2792 87.6307ZM9.9972 87.9367C11.2485 87.885 13.053 87.7929 15.2792 87.6307L14.6979 79.6518C12.5643 79.8072 10.8441 79.8949 9.66719 79.9435L9.9972 87.9367ZM9.73209 87.9473L9.99308 87.9368L9.67131 79.9433L9.41032 79.9538L9.73209 87.9473ZM79.9999 18C41.814 18 10.2988 46.5343 5.60318 83.4458L13.5392 84.4553C17.733 51.4888 45.893 26 79.9999 26V18ZM123.087 149.436C111.138 158.573 96.2086 164 79.9999 164V172C98.0256 172 114.651 165.958 127.947 155.791L123.087 149.436ZM135 151C132.248 151 129.669 150.309 127.417 149.093L123.618 156.134C127.009 157.963 130.889 159 135 159V151ZM151 135C151 143.837 143.836 151 135 151V159C148.255 159 159 148.255 159 135H151ZM146.605 123.985C149.332 126.857 151 130.73 151 135H159C159 128.599 156.489 122.776 152.406 118.476L146.605 123.985ZM151 93C151 102.461 149.152 111.48 145.8 119.724L153.211 122.737C156.945 113.553 159 103.512 159 93H151ZM79.9999 22C119.212 22 151 53.7878 151 93H159C159 49.3695 123.63 14 79.9999 14V22ZM34.8761 38.1809C47.1449 28.0696 62.8583 22 79.9999 22V14C60.9344 14 43.4368 20.7589 29.7881 32.0073L34.8761 38.1809ZM28.9725 37.5989C29.2819 37.8063 29.5841 38.0245 29.8786 38.2532L34.7856 31.9349C34.344 31.5919 33.8907 31.2646 33.4265 30.9535L28.9725 37.5989ZM25.7872 35.9482C26.9107 36.3785 27.9787 36.9329 28.9725 37.5989L33.4265 30.9535C31.936 29.9545 30.3338 29.1229 28.6486 28.4774L25.7872 35.9482ZM19.0974 34.919C21.3752 34.7811 23.6562 35.132 25.7872 35.9482L28.6486 28.4774C25.4521 27.2531 22.0306 26.7267 18.6139 26.9336L19.0974 34.919ZM12.5806 36.7478C14.5976 35.6805 16.8195 35.0569 19.0974 34.919L18.6139 26.9336C15.1971 27.1405 11.8642 28.0758 8.8387 29.6769L12.5806 36.7478ZM7.40309 41.1075C8.79828 39.3017 10.5636 37.8152 12.5806 36.7478L8.8387 29.6769C5.81323 31.278 3.16524 33.5077 1.07246 36.2164L7.40309 41.1075ZM4.49143 47.2178C5.01514 44.9967 6.00791 42.9133 7.4031 41.1075L1.07245 36.2164C-1.02032 38.9251 -2.50948 42.0501 -3.29505 45.3818L4.49143 47.2178ZM4.36665 53.9852C3.92517 51.7463 3.96771 49.4388 4.49143 47.2178L-3.29505 45.3818C-4.08062 48.7134 -4.14443 52.1745 -3.48221 55.5329L4.36665 53.9852ZM7.0511 60.1986C5.72343 58.3426 4.80814 56.224 4.36665 53.9852L-3.48221 55.5329C-2.81998 58.8912 -1.44704 62.069 0.544466 64.853L7.0511 60.1986ZM9.46456 62.8749C8.56439 62.0788 7.75423 61.1815 7.0511 60.1986L0.544467 64.853C1.59915 66.3274 2.81441 67.6733 4.16466 68.8675L9.46456 62.8749ZM10.5795 63.7753C10.1944 63.4918 9.82235 63.1913 9.46458 62.8749L4.16464 68.8675C4.70136 69.3421 5.25939 69.7928 5.83712 70.2181L10.5795 63.7753ZM11.4906 64.3987C11.1795 64.2012 10.8756 63.9932 10.5795 63.7753L5.83712 70.2181C6.28128 70.545 6.73707 70.8569 7.20375 71.1531L11.4906 64.3987ZM8.99993 93C8.99993 84.6151 10.4517 76.578 13.1143 69.1209L5.58011 66.4308C2.61364 74.7392 0.999927 83.6855 0.999927 93H8.99993ZM79.9999 164C40.7877 164 8.99993 132.212 8.99993 93H0.999927C0.999927 136.63 36.3694 172 79.9999 172V164ZM144.538 127.716C146.083 129.736 147 132.256 147 135H155C155 130.438 153.467 126.222 150.891 122.855L144.538 127.716ZM131.569 152.848C139.815 145.737 146.576 136.949 151.324 127.01L144.105 123.562C139.84 132.491 133.761 140.394 126.344 146.79L131.569 152.848ZM135 147C133.389 147 131.861 146.685 130.468 146.116L127.445 153.523C129.781 154.476 132.334 155 135 155V147ZM147 135C147 141.627 141.627 147 135 147V155C146.046 155 155 146.046 155 135H147ZM141.059 120.625C136.828 129.96 130.517 138.156 122.715 144.62L127.819 150.781C136.545 143.552 143.608 134.382 148.345 123.927L141.059 120.625ZM135 123C137.74 123 140.256 123.914 142.274 125.455L147.13 119.097C143.766 116.528 139.555 115 135 115V123ZM123 135C123 128.373 128.373 123 135 123V115C123.954 115 115 123.954 115 135H123ZM127.703 144.527C124.836 142.327 123 138.879 123 135H115C115 141.471 118.077 147.225 122.832 150.874L127.703 144.527ZM15.6035 59.7344L15.6066 59.7293L8.76904 55.5763L8.76598 55.5813L15.6035 59.7344ZM12.3806 64.6676L15.5327 59.8468L8.83686 55.4689L5.68485 60.2897L12.3806 64.6676ZM3.79778 62.5258C4.5338 63.5547 5.36367 64.5085 6.27484 65.3759L11.7907 59.5814C11.2439 59.061 10.746 58.4887 10.3044 57.8714L3.79778 62.5258ZM0.442224 54.759C0.994077 57.5576 2.13819 60.2058 3.79779 62.5258L10.3044 57.8714C9.30867 56.4794 8.6222 54.8905 8.29108 53.2113L0.442224 54.759ZM0.59819 46.2998C-0.0564524 49.0761 -0.109629 51.9604 0.442224 54.759L8.29108 53.2113C7.95997 51.5321 7.99188 49.8016 8.38466 48.1358L0.59819 46.2998ZM4.23778 38.6619C2.49379 40.9192 1.25283 43.5234 0.59819 46.2998L8.38466 48.1358C8.77745 46.4699 9.52202 44.9074 10.5684 43.5531L4.23778 38.6619ZM10.7096 33.2124C8.18842 34.5466 5.98176 36.4047 4.23778 38.6619L10.5684 43.5531C11.6148 42.1987 12.9388 41.0838 14.4515 40.2833L10.7096 33.2124ZM18.8556 30.9263C16.0083 31.0987 13.2309 31.8782 10.7096 33.2124L14.4515 40.2833C15.9643 39.4828 17.6308 39.0151 19.3391 38.9117L18.8556 30.9263ZM27.2179 32.2128C24.5541 31.1926 21.7029 30.7539 18.8556 30.9263L19.3391 38.9117C21.0475 38.8082 22.7582 39.0714 24.3565 39.6836L27.2179 32.2128ZM30.3541 33.7398C29.3579 33.1421 28.3088 32.6306 27.2179 32.2128L24.3565 39.6836C25.011 39.9343 25.6405 40.2411 26.2382 40.5998L30.3541 33.7398ZM29.3891 41.7869C30.0109 41.1378 30.6037 40.5283 31.1488 39.9738L25.4435 34.3657C24.8772 34.9419 24.2603 35.5761 23.6122 36.2526L29.3891 41.7869ZM21.0738 51.372C23.3435 48.2785 26.6502 44.6458 29.3891 41.7869L23.6122 36.2526C20.8287 39.1581 17.2188 43.1025 14.6237 46.6395L21.0738 51.372ZM17.45 56.7692C18.5356 55.0605 19.9118 52.9557 21.0738 51.372L14.6237 46.6395C13.2955 48.4498 11.8012 50.7422 10.6976 52.4792L17.45 56.7692ZM16.1024 58.921C16.4369 58.3791 16.9072 57.6237 17.45 56.7692L10.6976 52.4792C10.1323 53.369 9.64339 54.1544 9.29516 54.7185L16.1024 58.921ZM15.7103 59.5593C15.8018 59.4095 15.9352 59.1919 16.1024 58.921L9.29516 54.7185C9.12076 55.001 8.98092 55.2291 8.8836 55.3884L15.7103 59.5593ZM15.6031 59.7351L15.7122 59.5561L8.88165 55.3916L8.77253 55.5705L15.6031 59.7351Z" fill="#F1F1F2" mask="url(#path-1-inside-1_74_602)"/>
</svg>
