<svg width="203" height="272" viewBox="0 0 203 272" fill="none" xmlns="http://www.w3.org/2000/svg">
<path fill-rule="evenodd" clip-rule="evenodd" d="M93.3108 66.611C93.4144 66.0615 93.5459 65.3716 93.7036 64.5584C94.138 62.3175 94.7712 59.1399 95.567 55.3882C97.1574 47.8906 99.4023 38.0764 102.013 28.8594C104.606 19.7063 107.618 10.9247 110.793 5.63327C111.596 4.29525 112.448 3.11297 113.355 2.18649C114.251 1.27236 115.311 0.493716 116.544 0.164653C117.86 -0.186735 119.179 0.0284092 120.367 0.770722C121.486 1.46971 122.418 2.58678 123.223 3.95153C129.236 14.1486 132.106 30.982 133.534 50.2267C133.991 56.3771 134.302 62.8162 134.516 69.4194C163.376 79.8595 184 107.505 184 139.967C184 159.891 176.231 178.001 163.557 191.432L163.533 191.542C163.506 191.661 163.486 191.752 163.472 191.813L163.457 191.883L163.453 191.902L163.451 191.906L163.451 191.908C163.451 191.908 163.451 191.908 163.406 191.898C163.367 191.889 163.296 191.873 163.165 191.844C153.534 201.897 141.131 209.274 127.185 212.748C125.263 225.576 123.097 237.171 120.822 246.473C119.531 251.75 118.196 256.323 116.838 259.981C115.502 263.58 114.071 266.497 112.505 268.286C110.467 270.615 108.042 271.832 105.399 271.139C103.022 270.514 101.125 268.472 99.604 266.127C96.5009 261.342 93.879 253.558 91.7615 245.541C89.6254 237.454 87.9404 228.878 86.7909 222.337C86.2155 219.064 85.7729 216.293 85.474 214.339C85.3246 213.362 85.211 212.589 85.1346 212.059C85.0964 211.794 85.0675 211.59 85.0481 211.452L85.0261 211.294L85.0204 211.253L85.019 211.242L85.0186 211.239C85.0185 211.239 85.0184 211.238 85.4154 211.184C55.5486 201.298 34 173.149 34 139.967C34 103.927 59.4211 73.8239 93.3108 66.611ZM180 139.967C180 156.284 174.496 171.315 165.244 183.305C165.797 180.502 166.43 177.161 167.069 173.506C168.896 163.051 170.795 149.926 171 139.508C171.178 130.451 170.164 118.966 169.119 109.804C168.71 106.227 168.295 102.989 167.941 100.369C175.556 111.682 180 125.306 180 139.967ZM134.641 73.7387C145.855 78.0834 155.691 85.1943 163.311 94.2342C163.024 94.2793 163.024 94.2793 163.024 94.2793L163.024 94.2801L163.025 94.2834L163.027 94.2976L163.036 94.3556L163.072 94.5871C163.09 94.7019 163.112 94.8477 163.138 95.0231C163.159 95.1602 163.182 95.3154 163.208 95.4878C163.326 96.2737 163.493 97.418 163.694 98.8475C164.094 101.707 164.625 105.705 165.145 110.258C166.187 119.387 167.173 130.652 167 139.429C166.802 149.525 164.95 162.399 163.129 172.817C162.22 178.011 161.325 182.568 160.656 185.826C160.343 187.352 160.08 188.592 159.888 189.479C151.2 198.408 140.181 205.058 127.813 208.448C127.837 208.284 127.86 208.12 127.883 207.956C127.905 207.802 127.927 207.648 127.949 207.494C132.157 177.668 135.041 142.071 135 112.965L134.998 111.561V111.56V111.559V111.558C134.981 99.0107 134.963 86.1376 134.641 73.7387ZM89.2167 212.331C89.2762 212.732 89.3467 213.203 89.428 213.734C89.7233 215.664 90.1611 218.405 90.7305 221.645C91.8706 228.131 93.5332 236.586 95.6288 244.52C97.7431 252.524 100.237 259.751 102.96 263.951C104.353 266.098 105.546 267.041 106.415 267.27C107.019 267.428 107.997 267.364 109.495 265.652C110.554 264.441 111.782 262.107 113.088 258.588C114.373 255.128 115.666 250.716 116.936 245.523C119.086 236.736 121.149 225.809 123.001 213.663C118.465 214.519 113.785 214.967 109 214.967C102.152 214.967 95.5193 214.05 89.2167 212.331ZM130.601 72.3132C130.961 85.1268 130.98 98.5252 130.998 111.642L131 112.97C131.041 141.853 128.175 177.258 123.988 206.935C123.869 207.781 123.748 208.623 123.627 209.459C118.906 210.448 114.014 210.967 109 210.967C88.1018 210.967 69.3124 201.938 56.3199 187.569L57 187.969C58.7241 188.982 58.7243 188.982 58.7246 188.981L58.7255 188.98L58.7284 188.975L58.7391 188.957L58.7792 188.888L58.8497 188.766L58.9319 188.624C59.0648 188.393 59.2588 188.054 59.5056 187.616C59.999 186.741 60.7039 185.469 61.5546 183.878C63.2551 180.696 65.5416 176.229 67.8868 171.084C72.5489 160.854 77.5511 147.715 78.4928 136.638C79.4336 125.572 76.728 111.79 73.8664 100.932C72.427 95.4695 70.9309 90.6849 69.7945 87.2651C69.2261 85.5545 68.747 84.1836 68.4092 83.238C68.2403 82.7652 68.1067 82.3986 68.0148 82.149L67.9666 82.0185C79.5535 73.799 93.7125 68.9674 109 68.9674C116.532 68.9674 123.79 70.1402 130.601 72.3132ZM38 139.967C38 157.823 44.5911 174.139 55.473 186.615C55.5997 186.395 55.7849 186.071 56.0208 185.653C56.5012 184.8 57.1917 183.555 58.0268 181.992C59.6979 178.866 61.9448 174.476 64.247 169.425C68.8794 159.261 73.6272 146.65 74.5072 136.299C75.3862 125.959 72.8418 112.741 69.9984 101.951C68.5854 96.5888 67.1153 91.887 65.9986 88.5265C65.4405 86.8469 64.9712 85.5042 64.6424 84.5837L64.6263 84.5387C48.3938 97.5505 38 117.545 38 139.967ZM130.469 68.0852C130.259 62.0453 129.964 56.1599 129.545 50.5228C128.114 31.2465 125.264 15.2875 119.777 5.98338C119.145 4.91049 118.612 4.39071 118.248 4.16307C117.953 3.97876 117.77 3.9775 117.575 4.02935C117.297 4.10353 116.838 4.34777 116.213 4.98559C115.6 5.61106 114.932 6.50979 114.223 7.69127C111.351 12.4779 108.456 20.7901 105.862 29.9496C103.285 39.0453 101.061 48.7626 99.4799 56.2182C98.6898 59.9432 98.0612 63.0977 97.6304 65.3197C97.5957 65.4989 97.5622 65.6721 97.5301 65.8389C101.27 65.2651 105.1 64.9674 109 64.9674C116.461 64.9674 123.667 66.0568 130.469 68.0852ZM155.179 47.5704L157.575 45.765L159.38 48.1609L158.581 48.7627L159.183 49.5613L158.385 50.1631L158.986 50.9618L158.188 51.5636L161.799 56.3554L162.597 55.7536L163.199 56.5522L163.998 55.9504L164.6 56.749L165.398 56.1472L167.204 58.5431L164.808 60.3486L164.206 59.5499L163.407 60.1518L162.805 59.3531L162.007 59.9549L161.405 59.1563L156.613 62.7672L157.215 63.5658L156.416 64.1676L157.018 64.9663L156.22 65.5681L156.821 66.3667L154.425 68.1722L152.62 65.7763L153.419 65.1745L152.817 64.3758L153.615 63.774L153.014 62.9754L153.812 62.3736L150.201 57.5817L149.403 58.1836L148.801 57.3849L148.002 57.9867L147.4 57.1881L146.602 57.7899L144.796 55.394L147.192 53.5886L147.794 54.3872L148.593 53.7854L149.195 54.584L149.993 53.9822L150.595 54.7808L155.387 51.17L154.785 50.3713L155.584 49.7695L154.982 48.9709L155.78 48.3691L155.179 47.5704ZM156.394 54.1677L153.199 56.5749L155.606 59.7695L158.801 57.3622L156.394 54.1677ZM13 95.9685H16V98.9685H15V99.9685H14V100.968H13V106.968H14V107.968H15V108.968H16V111.968H13V110.968H12V109.968H11V108.968H5V109.968H4V110.968H3V111.968H0V108.968H1V107.968H2V106.968H3V100.968H2V99.9685H1V98.9685H0V95.9685H3V96.9685H4V97.9685H5V98.9685H11V97.9685H12V96.9685H13V95.9685ZM10 101.968H6V105.968H10V101.968ZM144.317 224.271L143.002 226.968L143.901 227.406L143.462 228.305L144.361 228.743L143.923 229.642L144.822 230.08L142.191 235.473L141.293 235.035L140.854 235.934L139.956 235.495L139.517 236.394L138.618 235.956L137.303 238.652L140 239.967L140.438 239.068L141.337 239.507L141.775 238.608L142.674 239.046L143.112 238.148L148.505 240.778L148.067 241.677L148.965 242.115L148.527 243.014L149.426 243.452L148.988 244.351L151.684 245.666L152.999 242.97L152.1 242.531L152.539 241.632L151.64 241.194L152.078 240.295L151.179 239.857L153.81 234.464L154.708 234.903L155.147 234.004L156.046 234.442L156.484 233.543L157.383 233.982L158.698 231.285L156.001 229.97L155.563 230.869L154.664 230.431L154.226 231.329L153.327 230.891L152.889 231.79L147.496 229.16L147.934 228.261L147.036 227.822L147.474 226.924L146.575 226.485L147.014 225.586L144.317 224.271ZM145.326 235.89L147.08 232.294L150.675 234.048L148.921 237.643L145.326 235.89ZM203 138.468C203 139.849 201.881 140.968 200.5 140.968C199.119 140.968 198 139.849 198 138.468C198 137.088 199.119 135.968 200.5 135.968C201.881 135.968 203 137.088 203 138.468ZM31.5 204.968C32.8807 204.968 34 203.849 34 202.468C34 201.088 32.8807 199.968 31.5 199.968C30.1193 199.968 29 201.088 29 202.468C29 203.849 30.1193 204.968 31.5 204.968ZM72 62.4685C72 63.8492 70.8807 64.9685 69.5 64.9685C68.1193 64.9685 67 63.8492 67 62.4685C67 61.0878 68.1193 59.9685 69.5 59.9685C70.8807 59.9685 72 61.0878 72 62.4685Z" fill="#F1F1F2"/>
</svg>
