<svg width="219" height="215" viewBox="0 0 219 215" fill="none" xmlns="http://www.w3.org/2000/svg">
<path fill-rule="evenodd" clip-rule="evenodd" d="M56.5 5C57.8809 5 59 3.88062 59 2.5C59 1.11938 57.8809 0 56.5 0C55.1191 0 54 1.11938 54 2.5C54 3.88062 55.1191 5 56.5 5ZM81.9697 5.20435C80.8818 5.39624 80.1553 6.43335 80.3472 7.52124L80.8682 10.4756C81.0601 11.5635 82.0972 12.2898 83.1851 12.0979L84.1699 11.9243C85.2578 11.7324 85.9839 10.6953 85.7925 9.60742L85.2715 6.65308C85.0796 5.56519 84.042 4.83887 82.9546 5.03076L81.9697 5.20435ZM149.799 9.77271C148.873 9.17114 147.634 9.43433 147.032 10.3608L133.405 31.3445C123.841 27.0659 113.22 24.6833 102.035 24.6833C97.5093 24.6833 93.0762 25.0735 88.7681 25.8213L87.4409 18.2949C87.249 17.207 86.2114 16.4807 85.124 16.6726L84.1392 16.8462C83.0513 17.0381 82.3247 18.0752 82.5166 19.1631L83.8696 26.8372C67.1714 30.8748 52.6387 40.353 42.314 53.2583L29.2441 41.8972C28.4106 41.1726 27.1475 41.261 26.4229 42.0947L25.7666 42.8494C25.042 43.6829 25.1304 44.9463 25.9639 45.6709L39.3003 57.2639L39.4072 57.1411C30.9517 69.2295 26 83.886 26 99.6833C26 101.703 26.0811 103.704 26.2397 105.684H16C14.8955 105.684 14 106.579 14 107.684V108.684C14 109.788 14.8955 110.684 16 110.684H26.812C29.2729 127.199 37.1914 141.965 48.7031 153.14L34.0996 166.758C33.292 167.511 33.2476 168.777 34.001 169.585L34.6831 170.316C35.436 171.124 36.7017 171.168 37.5098 170.415L52.416 156.514C57.3306 160.693 62.793 164.262 68.6826 167.102C68.9756 168.976 68.9756 168.976 68.9785 168.976L68.9844 168.975L69.0039 168.971L69.0737 168.96L69.3281 168.917C69.5469 168.879 69.8599 168.823 70.2461 168.749C70.4111 168.717 70.5894 168.681 70.7798 168.643C71.0488 168.588 71.3423 168.526 71.6548 168.458C79.3535 171.771 87.7163 173.864 96.4917 174.487L96.1396 179.526C96.0625 180.628 96.8931 181.584 97.9951 181.661L98.9927 181.73C100.095 181.808 101.05 180.977 101.127 179.875L101.49 174.682L101.609 174.682L101.794 174.683L102.035 174.683C118.597 174.683 133.923 169.46 146.411 160.592L153.314 171.64C153.9 172.576 155.134 172.861 156.071 172.276L156.918 171.746C157.855 171.161 158.14 169.927 157.555 168.99L150.407 157.551C162.493 147.71 171.443 134.257 175.559 118.867L199.09 124.3C200.167 124.548 201.24 123.877 201.489 122.801L201.714 121.827C201.962 120.75 201.291 119.676 200.215 119.428L176.686 113.996C177.594 109.363 178.069 104.578 178.069 99.6833C178.069 87.2842 175.019 75.5876 169.618 65.2842L175.518 62.6575C176.527 62.2083 176.98 61.0259 176.531 60.0168L176.125 59.1033C175.675 58.0942 174.493 57.6404 173.484 58.0896L167.137 60.9158C160.08 49.4114 149.979 39.9277 137.933 33.5525L151.226 13.084C151.827 12.1577 151.564 10.9189 150.638 10.3174L149.799 9.77271ZM77.9453 166.618C85.4751 169.25 93.583 170.683 102.035 170.683C138.517 170.683 168.594 143.979 173.399 109.403L171.845 110.538L170.396 111.599C167.112 114.007 163.056 117.008 159.937 119.4C157.347 121.386 155.475 123.424 153.577 125.49C152.848 126.283 152.116 127.079 151.338 127.879C148.571 130.723 145.449 133.312 140.462 134.788C135.792 136.17 131.797 134.943 128.435 133.91L128.032 133.786C124.488 132.702 121.603 131.936 118.226 133.232C116.811 133.775 115.048 134.807 113.566 135.768C113.118 136.058 112.708 136.334 112.354 136.577C112.503 137.051 112.626 137.528 112.72 138.01C112.805 138.448 112.866 138.889 112.904 139.335C113.094 141.596 112.656 143.838 111.736 146.156C110.711 148.739 109.25 150.652 107.346 152.127C105.479 153.573 103.267 154.533 100.847 155.345C98.6401 156.085 96.6553 156.49 94.6143 156.49C93.0947 156.49 91.6074 156.266 90.0361 155.846C89.0586 157.65 88.0156 159.181 86.7559 160.561C85.1572 162.314 83.2783 163.749 80.8984 165.196C80.0122 165.734 78.9956 166.207 77.9453 166.618ZM173.92 104.275C174.019 102.757 174.069 101.226 174.069 99.6833C174.069 91.9714 172.82 84.5435 170.51 77.5864C165.973 75.9712 162.084 75.1973 158.25 75.1973C154.194 75.1973 150.078 76.0632 145.196 77.8752C138.524 80.3518 135.959 85.731 133.227 92.2234L132.861 93.0947L132.85 93.1233C130.292 99.2339 127.382 106.186 119.961 110.254C110.585 115.394 101.941 113.61 93.8003 111.634L92.4937 111.315C84.7231 109.414 77.376 107.616 69.1396 110.395C55.0591 115.146 47.3228 120.133 37.3442 130.949C44.6523 145.611 56.9409 157.434 72.0469 164.26L72.3105 164.194C74.5894 163.62 77.1396 162.8 78.8208 161.778C80.9922 160.458 82.5366 159.251 83.8008 157.865C84.7632 156.811 85.6025 155.609 86.4346 154.095L82.9375 151.68L82.8145 151.597L82.6548 151.489C82.1211 151.124 80.5786 149.991 79.1538 148.166C77.7251 146.337 76.3335 143.705 76.3335 140.399C76.3335 137.171 76.8569 134.859 78.0679 132.917C79.1899 131.116 80.8198 129.8 82.5181 128.428L82.6729 128.303C85.8838 125.708 90.5879 125.236 94.2158 125.329C96.0952 125.377 97.8291 125.582 99.168 125.809C99.8379 125.922 100.421 126.044 100.886 126.158C101.121 126.216 101.388 126.286 101.638 126.37C101.809 126.427 101.972 126.49 102.113 126.56C102.184 126.595 102.293 126.646 102.433 126.711C102.585 126.782 102.774 126.87 102.992 126.974L103.352 127.148C103.635 127.286 103.95 127.445 104.286 127.622C104.74 127.861 105.23 128.134 105.726 128.435C107.344 129.417 109.314 130.865 110.546 132.8L110.622 132.918C110.863 132.757 111.12 132.586 111.391 132.411C112.915 131.424 114.968 130.198 116.792 129.498C121.581 127.66 125.692 128.888 129.202 129.961L129.309 129.994C132.87 131.083 135.828 131.988 139.327 130.953C143.406 129.746 145.959 127.671 148.471 125.09C149.106 124.437 149.755 123.73 150.435 122.99C152.397 120.854 154.614 118.441 157.502 116.226C160.657 113.807 164.742 110.785 168.03 108.373C168.756 107.841 169.444 107.337 170.075 106.876C170.875 106.293 171.583 105.777 172.162 105.355L173.384 104.469L173.713 104.23L173.799 104.168L173.821 104.152L173.828 104.147L173.92 104.275ZM32.4941 118.268C33.3184 121.27 34.3374 124.193 35.5366 127.024C45.4531 116.537 53.6807 111.39 67.8604 106.605C77.2339 103.442 85.645 105.511 93.2529 107.382L93.3364 107.402L94.0381 107.575L94.7441 107.747C102.858 109.717 110.121 111.086 118.039 106.746C124.207 103.365 126.62 97.6211 129.292 91.2627L129.54 90.6719C132.24 84.2561 135.352 77.2627 143.804 74.1252C148.991 72.2 153.589 71.1973 158.25 71.1973C161.688 71.1973 165.093 71.7429 168.725 72.8022C166.676 67.8689 164.079 63.2122 161.01 58.9065L160.9 58.8904C160.555 58.8398 160.129 58.7803 159.633 58.7166C159.154 58.655 158.609 58.5894 158.008 58.5239C155.558 58.2568 152.188 57.9927 148.5 58.0002C144.805 58.0078 140.841 58.2883 137.185 59.0889C133.511 59.8933 130.287 61.1926 127.945 63.1384C124.079 66.3494 123.363 70.5942 122.642 75.6821L122.585 76.0786C121.906 80.894 121.114 86.5034 116.278 90.7134C113.611 93.0352 109.459 94.0129 105.037 94.457C100.524 94.9104 95.2539 94.8428 89.9878 94.7175C89.2446 94.7 88.501 94.6812 87.7593 94.6624L87.7388 94.6619H87.7344C83.1763 94.5464 78.6699 94.4321 74.5469 94.5911C69.7085 94.7776 65.6685 95.3364 62.8491 96.5603C56.7524 99.2065 48.9189 104.828 42.4976 109.908C39.313 112.428 36.521 114.777 34.5254 116.497C33.7031 117.206 33.0166 117.807 32.4941 118.268ZM31.4404 113.876L31.9141 113.467C33.9404 111.721 36.7769 109.334 40.0156 106.771C46.4409 101.688 54.6333 95.7656 61.2563 92.8911C64.7964 91.3542 69.4688 90.7839 74.3926 90.594C78.6562 90.4297 83.3101 90.5479 87.8599 90.6633C88.6045 90.6824 89.3462 90.7012 90.0825 90.7188C95.373 90.8445 100.406 90.9021 104.637 90.4771C108.959 90.043 111.995 89.1387 113.652 87.6963C117.331 84.4934 117.953 80.2576 118.681 75.1206L118.687 75.085C119.387 70.1421 120.206 64.3665 125.389 60.0615C128.409 57.5522 132.319 56.0596 136.329 55.1816C140.356 54.2998 144.625 54.0081 148.492 54.0002C151.94 53.9932 155.11 54.2117 157.564 54.4561C150.898 46.5117 142.509 40.0195 132.958 35.5386L132.868 35.6624L132.775 35.7881C131.581 37.4067 129.873 39.6062 127.813 41.929C123.767 46.4934 118.099 51.8467 112.15 53.8914C107.267 55.5696 103.427 54.8342 99.8652 54.1445L99.7983 54.1316C96.2983 53.4541 92.9912 52.8137 88.4849 53.9402C86.0376 54.5522 84.2095 55.1243 82.8506 55.6277C83.1152 55.8389 83.376 56.0608 83.6328 56.2937C83.7632 56.4116 83.8921 56.5322 84.02 56.6558C84.2026 56.8318 84.3833 57.0134 84.5615 57.2007C84.707 57.3535 84.8516 57.51 84.9941 57.6704C86.6582 59.5405 87.9873 61.5066 88.7236 63.7212C89.4702 65.968 89.5645 68.3459 88.9463 70.9602C87.5273 76.9602 83.0469 79.353 78.27 81.3457C76.2295 82.197 74.3008 82.8713 72.2842 83.1169C70.2256 83.3679 68.1733 83.1619 65.8706 82.3984C63.645 81.6604 61.4995 79.8904 60.0405 78.5105C59.7349 78.2214 59.4492 77.9392 59.187 77.6726C58.9658 77.9675 58.7227 78.2864 58.4595 78.6235C57.958 79.2656 57.3843 79.9741 56.7539 80.7112C54.4731 83.3779 51.249 86.6541 47.876 88.2979C44.084 90.1458 38.9287 90.5056 34.9741 90.4727C33.3281 90.459 31.8276 90.3757 30.6265 90.2817C30.2134 93.3584 30 96.4966 30 99.6833C30 104.543 30.4956 109.289 31.4404 113.876ZM129.194 33.9011C120.815 30.5376 111.647 28.6833 102.035 28.6833C66.8452 28.6833 37.6147 53.5291 31.2749 86.3193C32.3398 86.3965 33.6206 86.4612 35.0078 86.4729C38.8809 86.5051 43.2251 86.1147 46.124 84.7021C48.7085 83.4426 51.4844 80.7185 53.7144 78.1113C54.8022 76.8391 55.7129 75.6519 56.3506 74.783C56.5103 74.5659 56.6523 74.3691 56.7754 74.1965L56.7236 74.0369L56.6372 73.7661C56.3628 72.8916 56.0186 71.6719 55.7437 70.2979C55.4697 68.9302 55.2554 67.364 55.2617 65.8071C55.2681 64.2673 55.4902 62.6055 56.1973 61.134C57.3838 58.6638 58.9707 56.9111 60.9556 55.6338C62.8955 54.385 65.1323 53.6455 67.5225 53.0579C70.7607 52.2617 73.9292 52.0464 76.9204 52.7407C77.2183 52.8098 77.5127 52.8877 77.8047 52.9746L78.0283 53.043C78.1768 53.0896 78.3247 53.1387 78.4717 53.1902C80.1479 52.29 82.9072 51.2117 87.5151 50.0596C92.8848 48.7173 96.9268 49.5007 100.439 50.1814L100.625 50.2175C104.144 50.8987 107.054 51.4133 110.85 50.1086C115.746 48.426 120.828 43.7793 124.82 39.2756C126.582 37.2883 128.079 35.3896 129.194 33.9011ZM7 110.684C5.89551 110.684 5 109.788 5 108.684V107.684C5 106.579 5.89551 105.684 7 105.684H10C11.1045 105.684 12 106.579 12 107.684V108.684C12 109.788 11.1045 110.684 10 110.684H7ZM100.701 197.119C100.624 198.221 99.6685 199.052 98.5664 198.975L97.5688 198.905C96.4668 198.828 95.6362 197.872 95.7134 196.77L96.3491 187.679C96.4258 186.577 97.3818 185.746 98.4834 185.823L99.481 185.893C100.583 185.97 101.414 186.926 101.337 188.027L100.701 197.119ZM165.438 183.249C166.308 182.568 166.462 181.312 165.782 180.441L162.432 176.153C161.752 175.282 160.495 175.128 159.625 175.808L158.836 176.424C157.966 177.104 157.812 178.361 158.492 179.231L161.842 183.52C162.522 184.39 163.779 184.544 164.649 183.864L165.438 183.249ZM186.622 51.9824C187.631 51.5332 188.813 51.9871 189.263 52.9961L189.669 53.9097C190.119 54.9187 189.665 56.1011 188.656 56.5503L180.823 60.0378C179.813 60.4871 178.631 60.0332 178.182 59.0242L177.775 58.1106C177.326 57.1016 177.78 55.9194 178.789 55.47L186.622 51.9824ZM61.1553 73.9307C60.9912 73.7495 60.8569 73.5962 60.7563 73.4797C60.71 73.3484 60.6519 73.1794 60.5854 72.9775C60.5444 72.8533 60.5005 72.7168 60.4541 72.5691C60.3262 72.1611 60.1816 71.6716 60.0391 71.1255C59.9092 70.6282 59.7803 70.0842 59.666 69.5127C59.5112 68.7393 59.3867 67.9338 59.3184 67.1389C59.2803 66.6948 59.2598 66.2539 59.2617 65.8235C59.2666 64.606 59.4492 63.6016 59.8027 62.866C60.6802 61.0393 61.7788 59.8608 63.1206 58.9971C64.5073 58.1047 66.2388 57.4924 68.4775 56.9421C71.3101 56.2458 73.8135 56.126 76.0156 56.6372C78.1865 57.1411 80.187 58.2854 82.0059 60.3296C83.4624 61.9666 84.4233 63.4661 84.9277 64.9827C85.4209 66.467 85.5156 68.0857 85.0537 70.0396C84.1201 73.9863 81.3862 75.7119 76.73 77.6541C74.7896 78.4636 73.2651 78.968 71.8008 79.1465C70.3779 79.3198 68.9209 79.1956 67.1294 78.6016C65.7949 78.1592 64.1899 76.9292 62.7891 75.6042C62.4653 75.2979 62.165 74.999 61.8965 74.7222C61.6108 74.428 61.3608 74.1584 61.1553 73.9307ZM94.6143 152.49C93.1963 152.49 91.7271 152.227 89.9175 151.639L85.2104 148.389L84.9619 148.22L84.915 148.189C84.5703 147.953 83.3872 147.088 82.3057 145.704C81.2285 144.324 80.3335 142.537 80.3335 140.399C80.3335 137.604 80.7861 136.118 81.4624 135.032C82.1934 133.86 83.2969 132.942 85.187 131.415C87.2217 129.77 90.6582 129.239 94.1133 129.327C95.7759 129.37 97.3188 129.552 98.4995 129.752C99.0894 129.853 99.5752 129.955 99.9297 130.042C100.162 130.099 100.292 130.139 100.346 130.156L100.368 130.159C100.498 130.223 100.655 130.296 100.834 130.38L100.84 130.383C101.195 130.549 101.639 130.757 102.139 131.013C102.303 131.097 102.474 131.186 102.649 131.281C102.968 131.453 103.304 131.644 103.65 131.854C105.102 132.735 106.438 133.796 107.173 134.949C108.257 136.651 108.792 138.176 108.918 139.67C109.044 141.17 108.771 142.784 108.018 144.68C107.244 146.631 106.208 147.949 104.897 148.964C103.548 150.009 101.826 150.797 99.5742 151.552C97.6426 152.201 96.1001 152.49 94.6143 152.49ZM185.672 11.5713L188.159 9.8938L189.837 12.3809L189.008 12.9399L189.567 13.769L188.738 14.3284L189.297 15.1572L188.468 15.7166L191.823 20.6907L192.652 20.1316L193.211 20.9604L194.041 20.4014L194.6 21.2305L195.429 20.6711L197.106 23.1582L194.619 24.8359L194.06 24.0068L193.231 24.5662L192.672 23.7371L191.843 24.2961L191.283 23.4673L186.309 26.8223L186.869 27.6514L186.04 28.2104L186.599 29.0396L185.77 29.5989L186.329 30.4277L183.842 32.1055L182.164 29.6184L182.993 29.0591L182.434 28.23L183.263 27.6709L182.704 26.8418L183.533 26.2827L180.178 21.3083L179.349 21.8677L178.79 21.0386L177.96 21.5977L177.401 20.7688L176.572 21.3279L174.895 18.8408L177.382 17.1633L177.941 17.9922L178.77 17.4331L179.329 18.2622L180.158 17.7029L180.717 18.532L185.691 15.1768L185.132 14.3477L185.961 13.7886L185.402 12.9595L186.231 12.4004L185.672 11.5713ZM186.54 18.2231L183.224 20.46L185.46 23.7761L188.777 21.5393L186.54 18.2231ZM13 56H16V59H15V60H14V61H13V67H14V68H15V69H16V72H13V71H12V70H11V69H5V70H4V71H3V72H0V69H1V68H2V67H3V61H2V60H1V59H0V56H3V57H4V58H5V59H11V58H12V57H13V56ZM10 62H6V66H10V62ZM151 199H148V200H147V201H146V202H140V201H139V200H138V199H135V202H136V203H137V204H138V210H137V211H136V212H135V215H138V214H139V213H140V212H146V213H147V214H148V215H151V212H150V211H149V210H148V204H149V203H150V202H151V199ZM141 205H145V209H141V205ZM56 201.5C56 202.881 54.8809 204 53.5 204C52.1191 204 51 202.881 51 201.5C51 200.119 52.1191 199 53.5 199C54.8809 199 56 200.119 56 201.5ZM216.5 96C217.881 96 219 94.8806 219 93.5C219 92.1194 217.881 91 216.5 91C215.119 91 214 92.1194 214 93.5C214 94.8806 215.119 96 216.5 96Z" fill="#F1F1F2"/>
</svg>
