<svg width="201" height="192" viewBox="0 0 201 192" fill="none" xmlns="http://www.w3.org/2000/svg">
<mask id="path-1-inside-1_73_493" fill="white">
<path fill-rule="evenodd" clip-rule="evenodd" d="M33 16.5C33 25.6127 25.6127 33 16.5 33C7.3873 33 0 25.6127 0 16.5C0 7.3873 7.3873 0 16.5 0C25.6127 0 33 7.3873 33 16.5ZM152.25 102C152.25 109.671 150.976 117.067 148.618 124H124C124 117.373 113.926 112 101.5 112C89.0736 112 79 117.373 79 124H7.63232C5.27393 117.067 4 109.671 4 102H22C23.1045 102 24 101.105 24 100C24 98.8954 23.1045 98 22 98H4.11621C4.43701 92.4788 5.41797 87.1211 6.98633 82H149.264C150.832 87.1211 151.813 92.4788 152.134 98H71C69.8955 98 69 98.8954 69 100C69 101.105 69.8955 102 71 102H152.25ZM82.0101 130H9.99365C14.3027 139.605 20.7617 148.127 28.7998 155H82C83.1045 155 84 155.895 84 157C84 158.105 83.1045 159 82 159H33.9175C46.2402 167.788 61.5249 173 78.125 173C94.7251 173 110.01 167.788 122.333 159H105C103.896 159 103 158.105 103 157C103 155.895 103.896 155 105 155H127V155.382C135.247 148.444 141.867 139.783 146.256 130H120.99C117.1 133.587 109.828 136 101.5 136C93.1718 136 85.9005 133.587 82.0101 130ZM21.6631 56C26.6226 50.417 32.4697 45.5758 39 41.6798V42H115C115.624 42 116.182 41.7141 116.548 41.2662C119.245 42.8354 121.828 44.5645 124.283 46.4396C124.097 47.4313 124 48.4543 124 49.5C124 58.6127 131.387 66 140.5 66C140.999 66 141.493 65.9778 141.981 65.9344C143.957 69.1379 145.678 72.5018 147.116 76H9.13379C11.4912 70.2678 14.605 64.896 18.3594 60H71C72.1045 60 73 59.1046 73 58C73 56.8954 72.1045 56 71 56H21.6631ZM146.11 65.0218C152.564 75.9346 156.25 88.5541 156.25 102C156.25 143.421 121.272 177 78.125 177C34.9775 177 0 143.421 0 102C0 93.6974 1.40527 85.7098 4 78.2448V76H4.82178C15.835 47.3937 44.499 27 78.125 27C95.9785 27 112.433 32.7491 125.59 42.4241C128.239 36.852 133.92 33 140.5 33C149.613 33 157 40.3873 157 49.5C157 56.6431 152.461 62.726 146.11 65.0218ZM78.125 31C66.5908 31 55.6919 33.5162 45.98 38H110.27C100.558 33.5162 89.6592 31 78.125 31ZM113 58C113 59.1046 112.104 60 111 60H91C89.8955 60 89 59.1046 89 58C89 56.8954 89.8955 56 91 56H111C112.104 56 113 56.8954 113 58ZM40 98C38.8955 98 38 98.8954 38 100C38 101.105 38.8955 102 40 102H58C59.1045 102 60 101.105 60 100C60 98.8954 59.1045 98 58 98H40ZM110.203 24.6569L113.101 25.4333L113.359 24.4674L114.325 24.7262L114.584 23.7603L115.55 24.0191L115.809 23.0532L121.605 24.6061L121.346 25.572L122.312 25.8308L122.053 26.7968L123.019 27.0556L122.76 28.0215L125.658 28.798L126.434 25.9002L125.468 25.6414L125.727 24.6755L124.761 24.4166L125.02 23.4507L124.054 23.1919L125.607 17.3963L126.573 17.6552L126.832 16.6892L127.798 16.948L128.056 15.9821L129.022 16.2409L129.799 13.3432L126.901 12.5667L126.642 13.5326L125.676 13.2738L125.417 14.2397L124.452 13.9809L124.193 14.9468L118.397 13.3939L118.656 12.428L117.69 12.1692L117.949 11.2033L116.983 10.9444L117.242 9.97851L114.344 9.20206L113.568 12.0998L114.533 12.3587L114.275 13.3246L115.241 13.5834L114.982 14.5493L115.948 14.8081L114.395 20.6037L113.429 20.3449L113.17 21.3108L112.204 21.052L111.945 22.0179L110.979 21.7591L110.203 24.6569ZM121.415 21.4495L117.551 20.4142L118.587 16.5505L122.45 17.5858L121.415 21.4495ZM197.227 101.937L200.08 102.864L199.153 105.717L198.202 105.408L197.893 106.359L196.942 106.05L196.632 107.001L195.681 106.692L193.827 112.398L194.778 112.707L194.469 113.658L195.42 113.967L195.111 114.918L196.062 115.227L195.135 118.08L192.282 117.153L192.591 116.202L191.64 115.893L191.949 114.942L190.998 114.633L191.307 113.682L185.601 111.828L185.292 112.779L184.341 112.47L184.032 113.421L183.081 113.112L182.772 114.063L179.919 113.136L180.846 110.283L181.797 110.592L182.106 109.641L183.057 109.95L183.366 108.999L184.317 109.308L186.171 103.602L185.22 103.293L185.529 102.342L184.578 102.033L184.887 101.081L183.936 100.772L184.863 97.9193L187.716 98.8464L187.407 99.7974L188.358 100.106L188.049 101.057L189 101.367L188.691 102.318L194.397 104.172L194.706 103.221L195.657 103.53L195.966 102.579L196.918 102.888L197.227 101.937ZM192.519 106.716L188.715 105.48L187.479 109.284L191.283 110.52L192.519 106.716ZM35.5437 175.494L38.2626 176.762L36.9948 179.481L36.0885 179.058L35.6659 179.965L34.7596 179.542L34.3369 180.448L33.4306 180.026L30.8949 185.463L31.8012 185.886L31.3786 186.792L32.2849 187.215L31.8623 188.121L32.7686 188.544L31.5008 191.263L28.7818 189.995L29.2044 189.089L28.2981 188.666L28.7208 187.76L27.8144 187.337L28.2371 186.431L22.7992 183.895L22.3766 184.801L21.4703 184.379L21.0477 185.285L20.1414 184.862L19.7188 185.769L16.9998 184.501L18.2677 181.782L19.174 182.205L19.5966 181.298L20.5029 181.721L20.9255 180.815L21.8318 181.237L24.3675 175.799L23.4612 175.377L23.8839 174.47L22.9776 174.048L23.4002 173.142L22.4939 172.719L23.7617 170L26.4806 171.268L26.058 172.174L26.9643 172.597L26.5417 173.503L27.448 173.926L27.0254 174.832L32.4632 177.368L32.8859 176.461L33.7922 176.884L34.2148 175.978L35.1211 176.4L35.5437 175.494ZM30.2891 179.664L26.6639 177.974L24.9734 181.599L28.5986 183.289L30.2891 179.664ZM52.5 18C53.8807 18 55 16.8807 55 15.5C55 14.1193 53.8807 13 52.5 13C51.1193 13 50 14.1193 50 15.5C50 16.8807 51.1193 18 52.5 18ZM12.5 177C13.8807 177 15 175.881 15 174.5C15 173.119 13.8807 172 12.5 172C11.1193 172 10 173.119 10 174.5C10 175.881 11.1193 177 12.5 177ZM164 151.5C164 152.881 162.881 154 161.5 154C160.119 154 159 152.881 159 151.5C159 150.119 160.119 149 161.5 149C162.881 149 164 150.119 164 151.5Z"/>
</mask>
<path fill-rule="evenodd" clip-rule="evenodd" d="M33 16.5C33 25.6127 25.6127 33 16.5 33C7.3873 33 0 25.6127 0 16.5C0 7.3873 7.3873 0 16.5 0C25.6127 0 33 7.3873 33 16.5ZM152.25 102C152.25 109.671 150.976 117.067 148.618 124H124C124 117.373 113.926 112 101.5 112C89.0736 112 79 117.373 79 124H7.63232C5.27393 117.067 4 109.671 4 102H22C23.1045 102 24 101.105 24 100C24 98.8954 23.1045 98 22 98H4.11621C4.43701 92.4788 5.41797 87.1211 6.98633 82H149.264C150.832 87.1211 151.813 92.4788 152.134 98H71C69.8955 98 69 98.8954 69 100C69 101.105 69.8955 102 71 102H152.25ZM82.0101 130H9.99365C14.3027 139.605 20.7617 148.127 28.7998 155H82C83.1045 155 84 155.895 84 157C84 158.105 83.1045 159 82 159H33.9175C46.2402 167.788 61.5249 173 78.125 173C94.7251 173 110.01 167.788 122.333 159H105C103.896 159 103 158.105 103 157C103 155.895 103.896 155 105 155H127V155.382C135.247 148.444 141.867 139.783 146.256 130H120.99C117.1 133.587 109.828 136 101.5 136C93.1718 136 85.9005 133.587 82.0101 130ZM21.6631 56C26.6226 50.417 32.4697 45.5758 39 41.6798V42H115C115.624 42 116.182 41.7141 116.548 41.2662C119.245 42.8354 121.828 44.5645 124.283 46.4396C124.097 47.4313 124 48.4543 124 49.5C124 58.6127 131.387 66 140.5 66C140.999 66 141.493 65.9778 141.981 65.9344C143.957 69.1379 145.678 72.5018 147.116 76H9.13379C11.4912 70.2678 14.605 64.896 18.3594 60H71C72.1045 60 73 59.1046 73 58C73 56.8954 72.1045 56 71 56H21.6631ZM146.11 65.0218C152.564 75.9346 156.25 88.5541 156.25 102C156.25 143.421 121.272 177 78.125 177C34.9775 177 0 143.421 0 102C0 93.6974 1.40527 85.7098 4 78.2448V76H4.82178C15.835 47.3937 44.499 27 78.125 27C95.9785 27 112.433 32.7491 125.59 42.4241C128.239 36.852 133.92 33 140.5 33C149.613 33 157 40.3873 157 49.5C157 56.6431 152.461 62.726 146.11 65.0218ZM78.125 31C66.5908 31 55.6919 33.5162 45.98 38H110.27C100.558 33.5162 89.6592 31 78.125 31ZM113 58C113 59.1046 112.104 60 111 60H91C89.8955 60 89 59.1046 89 58C89 56.8954 89.8955 56 91 56H111C112.104 56 113 56.8954 113 58ZM40 98C38.8955 98 38 98.8954 38 100C38 101.105 38.8955 102 40 102H58C59.1045 102 60 101.105 60 100C60 98.8954 59.1045 98 58 98H40ZM110.203 24.6569L113.101 25.4333L113.359 24.4674L114.325 24.7262L114.584 23.7603L115.55 24.0191L115.809 23.0532L121.605 24.6061L121.346 25.572L122.312 25.8308L122.053 26.7968L123.019 27.0556L122.76 28.0215L125.658 28.798L126.434 25.9002L125.468 25.6414L125.727 24.6755L124.761 24.4166L125.02 23.4507L124.054 23.1919L125.607 17.3963L126.573 17.6552L126.832 16.6892L127.798 16.948L128.056 15.9821L129.022 16.2409L129.799 13.3432L126.901 12.5667L126.642 13.5326L125.676 13.2738L125.417 14.2397L124.452 13.9809L124.193 14.9468L118.397 13.3939L118.656 12.428L117.69 12.1692L117.949 11.2033L116.983 10.9444L117.242 9.97851L114.344 9.20206L113.568 12.0998L114.533 12.3587L114.275 13.3246L115.241 13.5834L114.982 14.5493L115.948 14.8081L114.395 20.6037L113.429 20.3449L113.17 21.3108L112.204 21.052L111.945 22.0179L110.979 21.7591L110.203 24.6569ZM121.415 21.4495L117.551 20.4142L118.587 16.5505L122.45 17.5858L121.415 21.4495ZM197.227 101.937L200.08 102.864L199.153 105.717L198.202 105.408L197.893 106.359L196.942 106.05L196.632 107.001L195.681 106.692L193.827 112.398L194.778 112.707L194.469 113.658L195.42 113.967L195.111 114.918L196.062 115.227L195.135 118.08L192.282 117.153L192.591 116.202L191.64 115.893L191.949 114.942L190.998 114.633L191.307 113.682L185.601 111.828L185.292 112.779L184.341 112.47L184.032 113.421L183.081 113.112L182.772 114.063L179.919 113.136L180.846 110.283L181.797 110.592L182.106 109.641L183.057 109.95L183.366 108.999L184.317 109.308L186.171 103.602L185.22 103.293L185.529 102.342L184.578 102.033L184.887 101.081L183.936 100.772L184.863 97.9193L187.716 98.8464L187.407 99.7974L188.358 100.106L188.049 101.057L189 101.367L188.691 102.318L194.397 104.172L194.706 103.221L195.657 103.53L195.966 102.579L196.918 102.888L197.227 101.937ZM192.519 106.716L188.715 105.48L187.479 109.284L191.283 110.52L192.519 106.716ZM35.5437 175.494L38.2626 176.762L36.9948 179.481L36.0885 179.058L35.6659 179.965L34.7596 179.542L34.3369 180.448L33.4306 180.026L30.8949 185.463L31.8012 185.886L31.3786 186.792L32.2849 187.215L31.8623 188.121L32.7686 188.544L31.5008 191.263L28.7818 189.995L29.2044 189.089L28.2981 188.666L28.7208 187.76L27.8144 187.337L28.2371 186.431L22.7992 183.895L22.3766 184.801L21.4703 184.379L21.0477 185.285L20.1414 184.862L19.7188 185.769L16.9998 184.501L18.2677 181.782L19.174 182.205L19.5966 181.298L20.5029 181.721L20.9255 180.815L21.8318 181.237L24.3675 175.799L23.4612 175.377L23.8839 174.47L22.9776 174.048L23.4002 173.142L22.4939 172.719L23.7617 170L26.4806 171.268L26.058 172.174L26.9643 172.597L26.5417 173.503L27.448 173.926L27.0254 174.832L32.4632 177.368L32.8859 176.461L33.7922 176.884L34.2148 175.978L35.1211 176.4L35.5437 175.494ZM30.2891 179.664L26.6639 177.974L24.9734 181.599L28.5986 183.289L30.2891 179.664ZM52.5 18C53.8807 18 55 16.8807 55 15.5C55 14.1193 53.8807 13 52.5 13C51.1193 13 50 14.1193 50 15.5C50 16.8807 51.1193 18 52.5 18ZM12.5 177C13.8807 177 15 175.881 15 174.5C15 173.119 13.8807 172 12.5 172C11.1193 172 10 173.119 10 174.5C10 175.881 11.1193 177 12.5 177ZM164 151.5C164 152.881 162.881 154 161.5 154C160.119 154 159 152.881 159 151.5C159 150.119 160.119 149 161.5 149C162.881 149 164 150.119 164 151.5Z" fill="#1E1E2D"/>
<path d="M148.618 124V128H151.482L152.405 125.288L148.618 124ZM152.25 102H156.25V98H152.25V102ZM124 124H120V128H124V124ZM79 124V128H83V124H79ZM7.63232 124L3.8454 125.288L4.76784 128H7.63232V124ZM4 102V98H0V102H4ZM4.11621 98L0.122946 97.768L-0.122947 102H4.11621V98ZM6.98633 82V78H4.02797L3.16167 80.8287L6.98633 82ZM149.264 82L153.088 80.8287L152.222 78H149.264V82ZM152.134 98V102H156.373L156.127 97.768L152.134 98ZM9.99365 130V126H3.81494L6.34412 131.637L9.99365 130ZM82.0101 130L84.7215 127.059L83.5727 126H82.0101V130ZM28.7998 155L26.2003 158.04L27.3229 159H28.7998V155ZM33.9175 159V155H21.4194L31.595 162.257L33.9175 159ZM122.333 159L124.655 162.257L134.831 155H122.333V159ZM127 155H131V151H127V155ZM127 155.382H123V163.974L129.575 158.443L127 155.382ZM146.256 130L149.906 131.637L152.435 126H146.256V130ZM120.99 130V126H119.427L118.279 127.059L120.99 130ZM39 41.6798H43V34.6356L36.9506 38.2447L39 41.6798ZM21.6631 56L18.6726 53.3435L12.7595 60H21.6631V56ZM39 42H35V46H39V42ZM116.548 41.2662L118.56 37.809L115.613 36.0942L113.453 38.7322L116.548 41.2662ZM124.283 46.4396L128.215 47.177L128.669 44.7558L126.711 43.2607L124.283 46.4396ZM141.981 65.9344L145.386 63.8346L144.089 61.7311L141.627 61.9501L141.981 65.9344ZM147.116 76V80H153.086L150.816 74.4787L147.116 76ZM9.13379 76L5.43442 74.4786L3.16368 80H9.13379V76ZM18.3594 60V56H16.386L15.1852 57.5659L18.3594 60ZM146.11 65.0218L144.75 61.2601L140.209 62.9017L142.667 67.0582L146.11 65.0218ZM4 78.2448L7.77827 79.558L8 78.9201V78.2448H4ZM4 76V72H0V76H4ZM4.82178 76V80H7.56801L8.55469 77.4371L4.82178 76ZM125.59 42.4241L123.22 45.6466L127.123 48.5162L129.203 44.1415L125.59 42.4241ZM45.98 38L44.3033 34.3684L45.98 42V38ZM110.27 38V42L111.947 34.3684L110.27 38ZM113.101 25.4333L112.065 29.297L115.929 30.3323L116.964 26.4686L113.101 25.4333ZM110.203 24.6569L106.339 23.6216L105.304 27.4853L109.168 28.5206L110.203 24.6569ZM113.359 24.4674L114.395 20.6037L110.531 19.5684L109.496 23.4321L113.359 24.4674ZM114.325 24.7262L113.29 28.5899L117.154 29.6252L118.189 25.7615L114.325 24.7262ZM114.584 23.7603L115.62 19.8966L111.756 18.8613L110.721 22.725L114.584 23.7603ZM115.55 24.0191L114.515 27.8828L118.379 28.9181L119.414 25.0544L115.55 24.0191ZM115.809 23.0532L116.844 19.1895L112.981 18.1542L111.945 22.0179L115.809 23.0532ZM121.605 24.6061L125.468 25.6414L126.504 21.7777L122.64 20.7424L121.605 24.6061ZM121.346 25.572L117.482 24.5368L116.447 28.4005L120.31 29.4357L121.346 25.572ZM122.312 25.8308L126.175 26.8661L127.211 23.0024L123.347 21.9671L122.312 25.8308ZM122.053 26.7968L118.189 25.7615L117.154 29.6252L121.018 30.6605L122.053 26.7968ZM123.019 27.0556L126.882 28.0908L127.918 24.2272L124.054 23.1919L123.019 27.0556ZM122.76 28.0215L118.896 26.9863L117.861 30.8499L121.725 31.8852L122.76 28.0215ZM125.658 28.798L124.622 32.6617L128.486 33.697L129.521 29.8333L125.658 28.798ZM126.434 25.9002L130.298 26.9355L131.333 23.0718L127.469 22.0365L126.434 25.9002ZM125.468 25.6414L121.605 24.6061L120.569 28.4698L124.433 29.5051L125.468 25.6414ZM125.727 24.6755L129.591 25.7107L130.626 21.847L126.762 20.8117L125.727 24.6755ZM124.761 24.4166L120.897 23.3814L119.862 27.2451L123.726 28.2803L124.761 24.4166ZM125.02 23.4507L128.884 24.486L129.919 20.6223L126.055 19.587L125.02 23.4507ZM124.054 23.1919L120.19 22.1566L119.155 26.0203L123.019 27.0556L124.054 23.1919ZM125.607 17.3963L126.642 13.5326L122.779 12.4974L121.743 16.3611L125.607 17.3963ZM126.573 17.6552L125.538 21.5189L129.401 22.5541L130.437 18.6904L126.573 17.6552ZM126.832 16.6892L127.867 12.8255L124.003 11.7902L122.968 15.6539L126.832 16.6892ZM127.798 16.948L126.762 20.8117L130.626 21.847L131.661 17.9834L127.798 16.948ZM128.056 15.9821L129.092 12.1184L125.228 11.0831L124.193 14.9468L128.056 15.9821ZM129.022 16.2409L127.987 20.1046L131.851 21.1399L132.886 17.2762L129.022 16.2409ZM129.799 13.3432L133.663 14.3784L134.698 10.5147L130.834 9.47946L129.799 13.3432ZM126.901 12.5667L127.936 8.703L124.073 7.66772L123.037 11.5314L126.901 12.5667ZM126.642 13.5326L125.607 17.3963L129.471 18.4316L130.506 14.5679L126.642 13.5326ZM125.676 13.2738L126.712 9.41011L122.848 8.37483L121.813 12.2385L125.676 13.2738ZM125.417 14.2397L124.382 18.1034L128.246 19.1387L129.281 15.275L125.417 14.2397ZM124.452 13.9809L125.487 10.1172L121.623 9.08194L120.588 12.9456L124.452 13.9809ZM124.193 14.9468L123.157 18.8105L127.021 19.8458L128.056 15.9821L124.193 14.9468ZM118.397 13.3939L114.533 12.3587L113.498 16.2224L117.362 17.2576L118.397 13.3939ZM118.656 12.428L122.52 13.4633L123.555 9.59957L119.691 8.5643L118.656 12.428ZM117.69 12.1692L113.826 11.1339L112.791 14.9976L116.655 16.0329L117.69 12.1692ZM117.949 11.2033L121.813 12.2385L122.848 8.37483L118.984 7.33955L117.949 11.2033ZM116.983 10.9444L113.119 9.90916L112.084 13.7729L115.948 14.8081L116.983 10.9444ZM117.242 9.97851L121.105 11.0138L122.141 7.15009L118.277 6.11481L117.242 9.97851ZM114.344 9.20206L115.379 5.33835L111.516 4.30308L110.48 8.16678L114.344 9.20206ZM113.568 12.0998L109.704 11.0646L108.669 14.9283L112.532 15.9635L113.568 12.0998ZM114.533 12.3587L118.397 13.3939L119.432 9.53022L115.569 8.49495L114.533 12.3587ZM114.275 13.3246L110.411 12.2893L109.376 16.153L113.239 17.1883L114.275 13.3246ZM115.241 13.5834L119.104 14.6187L120.14 10.755L116.276 9.71969L115.241 13.5834ZM114.982 14.5493L111.118 13.514L110.083 17.3777L113.946 18.413L114.982 14.5493ZM115.948 14.8081L119.811 15.8434L120.847 11.9797L116.983 10.9444L115.948 14.8081ZM114.395 20.6037L113.359 24.4674L117.223 25.5027L118.258 21.639L114.395 20.6037ZM113.429 20.3449L114.464 16.4812L110.6 15.4459L109.565 19.3096L113.429 20.3449ZM113.17 21.3108L112.135 25.1745L115.998 26.2098L117.034 22.3461L113.17 21.3108ZM112.204 21.052L113.239 17.1883L109.376 16.153L108.34 20.0167L112.204 21.052ZM111.945 22.0179L110.91 25.8816L114.774 26.9169L115.809 23.0532L111.945 22.0179ZM110.979 21.7591L112.015 17.8954L108.151 16.8601L107.116 20.7238L110.979 21.7591ZM117.551 20.4142L113.688 19.379L112.652 23.2427L116.516 24.2779L117.551 20.4142ZM121.415 21.4495L120.38 25.3132L124.244 26.3485L125.279 22.4848L121.415 21.4495ZM118.587 16.5505L119.622 12.6868L115.758 11.6515L114.723 15.5152L118.587 16.5505ZM122.45 17.5858L126.314 18.6211L127.349 14.7574L123.486 13.7221L122.45 17.5858ZM200.08 102.864L203.884 104.1L205.12 100.295L201.316 99.0594L200.08 102.864ZM197.227 101.937L198.463 98.1323L194.658 96.8962L193.422 100.7L197.227 101.937ZM199.153 105.717L197.917 109.521L201.721 110.757L202.957 106.953L199.153 105.717ZM198.202 105.408L199.438 101.604L195.633 100.367L194.397 104.172L198.202 105.408ZM197.893 106.359L196.657 110.163L200.461 111.399L201.697 107.595L197.893 106.359ZM196.942 106.05L198.178 102.246L194.373 101.009L193.137 104.814L196.942 106.05ZM196.632 107.001L195.396 110.805L199.201 112.041L200.437 108.237L196.632 107.001ZM195.681 106.692L196.918 102.888L193.113 101.652L191.877 105.456L195.681 106.692ZM193.827 112.398L190.023 111.162L188.787 114.966L192.591 116.202L193.827 112.398ZM194.778 112.707L198.583 113.943L199.819 110.139L196.014 108.903L194.778 112.707ZM194.469 113.658L190.665 112.422L189.429 116.226L193.233 117.462L194.469 113.658ZM195.42 113.967L199.225 115.203L200.461 111.399L196.657 110.163L195.42 113.967ZM195.111 114.918L191.307 113.682L190.071 117.486L193.875 118.723L195.111 114.918ZM196.062 115.227L199.867 116.463L201.103 112.659L197.299 111.423L196.062 115.227ZM195.135 118.08L193.899 121.885L197.704 123.121L198.94 119.317L195.135 118.08ZM192.282 117.153L188.478 115.917L187.242 119.722L191.046 120.958L192.282 117.153ZM192.591 116.202L196.395 117.438L197.632 113.634L193.827 112.398L192.591 116.202ZM191.64 115.893L187.836 114.657L186.6 118.462L190.404 119.698L191.64 115.893ZM191.949 114.942L195.753 116.178L196.99 112.374L193.185 111.138L191.949 114.942ZM190.998 114.633L187.194 113.397L185.958 117.201L189.762 118.438L190.998 114.633ZM191.307 113.682L195.111 114.918L196.347 111.114L192.543 109.878L191.307 113.682ZM185.601 111.828L186.837 108.024L183.033 106.788L181.797 110.592L185.601 111.828ZM185.292 112.779L184.056 116.583L187.86 117.819L189.096 114.015L185.292 112.779ZM184.341 112.47L185.577 108.666L181.773 107.43L180.537 111.234L184.341 112.47ZM184.032 113.421L182.796 117.225L186.6 118.462L187.836 114.657L184.032 113.421ZM183.081 113.112L184.317 109.308L180.513 108.072L179.276 111.876L183.081 113.112ZM182.772 114.063L181.536 117.867L185.34 119.104L186.576 115.299L182.772 114.063ZM179.919 113.136L176.114 111.9L174.878 115.704L178.682 116.94L179.919 113.136ZM180.846 110.283L182.082 106.479L178.277 105.243L177.041 109.047L180.846 110.283ZM181.797 110.592L180.561 114.396L184.365 115.632L185.601 111.828L181.797 110.592ZM182.106 109.641L183.342 105.837L179.538 104.601L178.301 108.405L182.106 109.641ZM183.057 109.95L181.821 113.754L185.625 114.99L186.861 111.186L183.057 109.95ZM183.366 108.999L184.602 105.195L180.798 103.959L179.562 107.763L183.366 108.999ZM184.317 109.308L183.081 113.112L186.885 114.348L188.121 110.544L184.317 109.308ZM186.171 103.602L189.975 104.838L191.211 101.033L187.407 99.7974L186.171 103.602ZM185.22 103.293L181.416 102.057L180.18 105.861L183.984 107.097L185.22 103.293ZM185.529 102.342L189.333 103.578L190.569 99.7734L186.765 98.5373L185.529 102.342ZM184.578 102.033L180.774 100.796L179.537 104.601L183.342 105.837L184.578 102.033ZM184.887 101.081L188.691 102.318L189.927 98.5133L186.123 97.2773L184.887 101.081ZM183.936 100.772L180.132 99.5364L178.895 103.341L182.7 104.577L183.936 100.772ZM184.863 97.9193L186.099 94.1151L182.295 92.879L181.059 96.6832L184.863 97.9193ZM187.716 98.8464L191.52 100.082L192.756 96.2782L188.952 95.0421L187.716 98.8464ZM187.407 99.7974L183.603 98.5614L182.367 102.366L186.171 103.602L187.407 99.7974ZM188.358 100.106L192.162 101.343L193.398 97.5383L189.594 96.3022L188.358 100.106ZM188.049 101.057L184.245 99.8214L183.009 103.626L186.813 104.862L188.049 101.057ZM189 101.367L192.804 102.603L194.04 98.7983L190.236 97.5623L189 101.367ZM188.691 102.318L184.887 101.081L183.651 104.886L187.455 106.122L188.691 102.318ZM194.397 104.172L193.161 107.976L196.966 109.212L198.202 105.408L194.397 104.172ZM194.706 103.221L195.942 99.4164L192.138 98.1803L190.902 101.985L194.706 103.221ZM195.657 103.53L194.421 107.334L198.226 108.57L199.462 104.766L195.657 103.53ZM195.966 102.579L197.203 98.7743L193.398 97.5383L192.162 101.342L195.966 102.579ZM196.918 102.888L195.681 106.692L199.486 107.928L200.722 104.124L196.918 102.888ZM188.715 105.48L189.951 101.676L186.147 100.439L184.911 104.244L188.715 105.48ZM192.519 106.716L196.323 107.952L197.56 104.148L193.755 102.912L192.519 106.716ZM187.479 109.284L183.675 108.048L182.439 111.852L186.243 113.088L187.479 109.284ZM191.283 110.52L190.047 114.324L193.851 115.56L195.087 111.756L191.283 110.52ZM38.2626 176.762L41.8879 178.452L43.5783 174.827L39.9531 173.137L38.2626 176.762ZM35.5437 175.494L37.2342 171.869L33.609 170.178L31.9185 173.804L35.5437 175.494ZM36.9948 179.481L35.3043 183.106L38.9295 184.797L40.62 181.171L36.9948 179.481ZM36.0885 179.058L37.779 175.433L34.1537 173.742L32.4632 177.368L36.0885 179.058ZM35.6659 179.965L33.9754 183.59L37.6006 185.28L39.2911 181.655L35.6659 179.965ZM34.7596 179.542L36.45 175.917L32.8248 174.226L31.1343 177.851L34.7596 179.542ZM34.3369 180.448L32.6464 184.073L36.2717 185.764L37.9622 182.139L34.3369 180.448ZM33.4306 180.026L35.1211 176.4L31.4959 174.71L29.8054 178.335L33.4306 180.026ZM30.8949 185.463L27.2697 183.773L25.5792 187.398L29.2044 189.089L30.8949 185.463ZM31.8012 185.886L35.4264 187.577L37.1169 183.951L33.4917 182.261L31.8012 185.886ZM31.3786 186.792L27.7534 185.102L26.0629 188.727L29.6881 190.418L31.3786 186.792ZM32.2849 187.215L35.9101 188.905L37.6006 185.28L33.9754 183.59L32.2849 187.215ZM31.8623 188.121L28.2371 186.431L26.5466 190.056L30.1718 191.747L31.8623 188.121ZM32.7686 188.544L36.3938 190.234L38.0843 186.609L34.4591 184.919L32.7686 188.544ZM31.5008 191.263L29.8103 194.888L33.4355 196.579L35.126 192.953L31.5008 191.263ZM28.7818 189.995L25.1566 188.304L23.4661 191.93L27.0914 193.62L28.7818 189.995ZM29.2044 189.089L32.8297 190.779L34.5201 187.154L30.8949 185.463L29.2044 189.089ZM28.2981 188.666L24.6729 186.976L22.9824 190.601L26.6077 192.291L28.2981 188.666ZM28.7208 187.76L32.346 189.45L34.0365 185.825L30.4112 184.135L28.7208 187.76ZM27.8144 187.337L24.1892 185.647L22.4988 189.272L26.124 190.962L27.8144 187.337ZM28.2371 186.431L31.8623 188.121L33.5528 184.496L29.9275 182.806L28.2371 186.431ZM22.7992 183.895L24.4897 180.27L20.8645 178.579L19.174 182.205L22.7992 183.895ZM22.3766 184.801L20.6861 188.427L24.3114 190.117L26.0018 186.492L22.3766 184.801ZM21.4703 184.379L23.1608 180.754L19.5355 179.063L17.8451 182.688L21.4703 184.379ZM21.0477 185.285L19.3572 188.91L22.9824 190.601L24.6729 186.976L21.0477 185.285ZM20.1414 184.862L21.8319 181.237L18.2066 179.547L16.5161 183.172L20.1414 184.862ZM19.7188 185.769L18.0283 189.394L21.6535 191.084L23.344 187.459L19.7188 185.769ZM16.9998 184.501L13.3746 182.81L11.6841 186.436L15.3094 188.126L16.9998 184.501ZM18.2677 181.782L19.9582 178.157L16.3329 176.466L14.6424 180.092L18.2677 181.782ZM19.174 182.205L17.4835 185.83L21.1088 187.52L22.7992 183.895L19.174 182.205ZM19.5966 181.298L21.2871 177.673L17.6618 175.983L15.9714 179.608L19.5966 181.298ZM20.5029 181.721L18.8124 185.346L22.4377 187.037L24.1281 183.411L20.5029 181.721ZM20.9255 180.815L22.616 177.189L18.9908 175.499L17.3003 179.124L20.9255 180.815ZM21.8318 181.237L20.1414 184.862L23.7666 186.553L25.4571 182.928L21.8318 181.237ZM24.3675 175.799L27.9928 177.49L29.6832 173.865L26.058 172.174L24.3675 175.799ZM23.4612 175.377L19.836 173.686L18.1455 177.312L21.7708 179.002L23.4612 175.377ZM23.8839 174.47L27.5091 176.161L29.1996 172.536L25.5743 170.845L23.8839 174.47ZM22.9776 174.048L19.3523 172.357L17.6619 175.983L21.2871 177.673L22.9776 174.048ZM23.4002 173.142L27.0254 174.832L28.7159 171.207L25.0907 169.516L23.4002 173.142ZM22.4939 172.719L18.8686 171.028L17.1782 174.654L20.8034 176.344L22.4939 172.719ZM23.7617 170L25.4522 166.375L21.827 164.684L20.1365 168.31L23.7617 170ZM26.4806 171.268L30.1059 172.958L31.7963 169.333L28.1711 167.643L26.4806 171.268ZM26.058 172.174L22.4328 170.484L20.7423 174.109L24.3675 175.799L26.058 172.174ZM26.9643 172.597L30.5896 174.287L32.28 170.662L28.6548 168.972L26.9643 172.597ZM26.5417 173.503L22.9165 171.813L21.226 175.438L24.8512 177.128L26.5417 173.503ZM27.448 173.926L31.0733 175.616L32.7637 171.991L29.1385 170.3L27.448 173.926ZM27.0254 174.832L23.4002 173.142L21.7097 176.767L25.3349 178.457L27.0254 174.832ZM32.4632 177.368L30.7728 180.993L34.398 182.683L36.0885 179.058L32.4632 177.368ZM32.8859 176.461L34.5764 172.836L30.9511 171.146L29.2606 174.771L32.8859 176.461ZM33.7922 176.884L32.1017 180.509L35.7269 182.2L37.4174 178.575L33.7922 176.884ZM34.2148 175.978L35.9053 172.352L32.28 170.662L30.5896 174.287L34.2148 175.978ZM35.1211 176.4L33.4306 180.026L37.0559 181.716L38.7463 178.091L35.1211 176.4ZM26.6639 177.974L28.3543 174.348L24.7291 172.658L23.0386 176.283L26.6639 177.974ZM30.2891 179.664L33.9143 181.355L35.6048 177.729L31.9796 176.039L30.2891 179.664ZM24.9734 181.599L21.3482 179.908L19.6577 183.534L23.2829 185.224L24.9734 181.599ZM28.5986 183.289L26.9081 186.914L30.5334 188.605L32.2238 184.98L28.5986 183.289ZM16.5 37C27.8218 37 37 27.8218 37 16.5H29C29 23.4036 23.4036 29 16.5 29V37ZM-4 16.5C-4 27.8218 5.17816 37 16.5 37V29C9.59644 29 4 23.4036 4 16.5H-4ZM16.5 -4C5.17816 -4 -4 5.17816 -4 16.5H4C4 9.59644 9.59644 4 16.5 4V-4ZM37 16.5C37 5.17816 27.8218 -4 16.5 -4V4C23.4036 4 29 9.59644 29 16.5H37ZM152.405 125.288C154.902 117.947 156.25 110.116 156.25 102H148.25C148.25 109.225 147.051 116.186 144.831 122.712L152.405 125.288ZM124 128H148.618V120H124V128ZM101.5 116C107.19 116 112.142 117.239 115.528 119.044C119.085 120.941 120 122.883 120 124H128C128 118.49 123.878 114.431 119.292 111.985C114.534 109.448 108.237 108 101.5 108V116ZM83 124C83 122.883 83.9151 120.941 87.4725 119.044C90.8579 117.239 95.8104 116 101.5 116V108C94.7631 108 88.4657 109.448 83.7077 111.985C79.1217 114.431 75 118.49 75 124H83ZM7.63232 128H79V120H7.63232V128ZM0 102C0 110.116 1.34843 117.947 3.8454 125.288L11.4192 122.712C9.19942 116.186 8 109.225 8 102H0ZM22 98H4V106H22V98ZM20 100C20 98.8953 20.8955 98 22 98V106C25.3135 106 28 103.314 28 100H20ZM22 102C20.8955 102 20 101.105 20 100H28C28 96.6861 25.3135 94 22 94V102ZM4.11621 102H22V94H4.11621V102ZM3.16167 80.8287C1.50107 86.251 0.462508 91.9238 0.122946 97.768L8.10948 98.232C8.41152 93.0337 9.33487 87.9912 10.811 83.1713L3.16167 80.8287ZM149.264 78H6.98633V86H149.264V78ZM156.127 97.768C155.787 91.9238 154.749 86.251 153.088 80.8287L145.439 83.1713C146.915 87.9912 147.838 93.0337 148.141 98.232L156.127 97.768ZM71 102H152.134V94H71V102ZM73 100C73 101.105 72.1045 102 71 102V94C67.6865 94 65 96.6861 65 100H73ZM71 98C72.1045 98 73 98.8953 73 100H65C65 103.314 67.6865 106 71 106V98ZM152.25 98H71V106H152.25V98ZM9.99365 134H82.0101V126H9.99365V134ZM31.3993 151.96C23.7968 145.459 17.7029 137.411 13.6432 128.363L6.34412 131.637C10.9025 141.798 17.7266 150.795 26.2003 158.04L31.3993 151.96ZM82 151H28.7998V159H82V151ZM88 157C88 153.686 85.3135 151 82 151V159C80.8955 159 80 158.105 80 157H88ZM82 163C85.3135 163 88 160.314 88 157H80C80 155.895 80.8955 155 82 155V163ZM33.9175 163H82V155H33.9175V163ZM78.125 169C62.3721 169 47.8968 164.056 36.24 155.743L31.595 162.257C44.5837 171.52 60.6777 177 78.125 177V169ZM120.01 155.743C108.353 164.056 93.8779 169 78.125 169V177C95.5723 177 111.666 171.52 124.655 162.257L120.01 155.743ZM105 163H122.333V155H105V163ZM99 157C99 160.314 101.687 163 105 163V155C106.104 155 107 155.895 107 157H99ZM105 151C101.687 151 99 153.686 99 157H107C107 158.105 106.104 159 105 159V151ZM127 151H105V159H127V151ZM131 155.382V155H123V155.382H131ZM142.607 128.363C138.472 137.58 132.226 145.759 124.425 152.321L129.575 158.443C138.269 151.129 145.263 141.987 149.906 131.637L142.607 128.363ZM120.99 134H146.256V126H120.99V134ZM101.5 140C110.411 140 118.812 137.449 123.701 132.941L118.279 127.059C115.387 129.725 109.245 132 101.5 132V140ZM79.2987 132.941C84.1883 137.449 92.5888 140 101.5 140V132C93.7549 132 87.6126 129.725 84.7215 127.059L79.2987 132.941ZM36.9506 38.2447C30.071 42.3491 23.9059 47.4523 18.6726 53.3435L24.6536 58.6565C29.3392 53.3817 34.8685 48.8025 41.0494 45.1149L36.9506 38.2447ZM43 42V41.6798H35V42H43ZM115 38H39V46H115V38ZM113.453 38.7322C113.814 38.2916 114.375 38 115 38V46C116.873 46 118.549 45.1367 119.643 43.8002L113.453 38.7322ZM126.711 43.2607C124.123 41.2842 121.401 39.4621 118.56 37.809L114.537 44.7235C117.089 46.2086 119.533 47.8448 121.855 49.6186L126.711 43.2607ZM128 49.5C128 48.7029 128.074 47.9268 128.215 47.177L120.352 45.7023C120.12 46.9359 120 48.2057 120 49.5H128ZM140.5 62C133.596 62 128 56.4036 128 49.5H120C120 60.8218 129.178 70 140.5 70V62ZM141.627 61.9501C141.257 61.9831 140.881 62 140.5 62V70C141.118 70 141.73 69.9726 142.336 69.9187L141.627 61.9501ZM150.816 74.4787C149.293 70.7772 147.474 67.22 145.386 63.8346L138.577 68.0342C140.441 71.0558 142.062 74.2265 143.417 77.5213L150.816 74.4787ZM9.13379 80H147.116V72H9.13379V80ZM15.1852 57.5659C11.221 62.7356 7.92884 68.4133 5.43442 74.4786L12.8332 77.5214C15.0536 72.1223 17.989 67.0564 21.5336 62.4341L15.1852 57.5659ZM71 56H18.3594V64H71V56ZM69 58C69 56.8953 69.8955 56 71 56V64C74.3135 64 77 61.3139 77 58H69ZM71 60C69.8955 60 69 59.1047 69 58H77C77 54.6861 74.3135 52 71 52V60ZM21.6631 60H71V52H21.6631V60ZM160.25 102C160.25 87.8114 156.358 74.4919 149.553 62.9855L142.667 67.0582C148.77 77.3773 152.25 89.2968 152.25 102H160.25ZM78.125 181C123.326 181 160.25 145.783 160.25 102H152.25C152.25 141.06 119.219 173 78.125 173V181ZM-4 102C-4 145.783 32.9239 181 78.125 181V173C37.0312 173 4 141.06 4 102H-4ZM0.221726 76.9315C-2.51727 84.8117 -4 93.2427 -4 102H4C4 94.152 5.32782 86.608 7.77827 79.558L0.221726 76.9315ZM0 76V78.2448H8V76H0ZM4.82178 72H4V80H4.82178V72ZM78.125 23C42.871 23 12.706 44.3878 1.08887 74.5629L8.55469 77.4371C18.9639 50.3996 46.1271 31 78.125 31V23ZM127.96 39.2016C114.129 29.031 96.847 23 78.125 23V31C95.1101 31 110.738 36.4672 123.22 45.6466L127.96 39.2016ZM140.5 29C132.318 29 125.264 33.793 121.977 40.7066L129.203 44.1415C131.214 39.911 135.521 37 140.5 37V29ZM161 49.5C161 38.1782 151.822 29 140.5 29V37C147.404 37 153 42.5964 153 49.5H161ZM147.47 68.7836C155.355 65.9333 161 58.381 161 49.5H153C153 54.9052 149.567 59.5187 144.75 61.2601L147.47 68.7836ZM47.6566 41.6316C56.8495 37.3875 67.177 35 78.125 35V27C66.0047 27 54.5343 29.6449 44.3033 34.3684L47.6566 41.6316ZM110.27 34H45.98V42H110.27V34ZM78.125 35C89.073 35 99.4005 37.3875 108.593 41.6316L111.947 34.3684C101.716 29.6449 90.2453 27 78.125 27V35ZM111 64C114.313 64 117 61.3139 117 58H109C109 56.8953 109.896 56 111 56V64ZM91 64H111V56H91V64ZM85 58C85 61.3139 87.6865 64 91 64V56C92.1045 56 93 56.8953 93 58H85ZM91 52C87.6865 52 85 54.6861 85 58H93C93 59.1047 92.1045 60 91 60V52ZM111 52H91V60H111V52ZM117 58C117 54.6861 114.313 52 111 52V60C109.896 60 109 59.1047 109 58H117ZM42 100C42 101.105 41.1045 102 40 102V94C36.6865 94 34 96.6861 34 100H42ZM40 98C41.1045 98 42 98.8953 42 100H34C34 103.314 36.6865 106 40 106V98ZM58 98H40V106H58V98ZM56 100C56 98.8953 56.8955 98 58 98V106C61.3135 106 64 103.314 64 100H56ZM58 102C56.8955 102 56 101.105 56 100H64C64 96.6861 61.3135 94 58 94V102ZM40 102H58V94H40V102ZM114.136 21.5696L111.238 20.7932L109.168 28.5206L112.065 29.297L114.136 21.5696ZM109.496 23.4321L109.237 24.398L116.964 26.4686L117.223 25.5027L109.496 23.4321ZM115.361 20.8625L114.395 20.6037L112.324 28.3311L113.29 28.5899L115.361 20.8625ZM110.721 22.725L110.462 23.6909L118.189 25.7615L118.448 24.7956L110.721 22.725ZM116.585 20.1554L115.62 19.8966L113.549 27.624L114.515 27.8828L116.585 20.1554ZM111.945 22.0179L111.686 22.9838L119.414 25.0544L119.673 24.0885L111.945 22.0179ZM122.64 20.7424L116.844 19.1895L114.774 26.9169L120.569 28.4698L122.64 20.7424ZM125.209 26.6073L125.468 25.6414L117.741 23.5708L117.482 24.5368L125.209 26.6073ZM123.347 21.9671L122.381 21.7083L120.31 29.4357L121.276 29.6945L123.347 21.9671ZM125.917 27.832L126.175 26.8661L118.448 24.7956L118.189 25.7615L125.917 27.832ZM124.054 23.1919L123.088 22.9331L121.018 30.6605L121.983 30.9193L124.054 23.1919ZM126.624 29.0568L126.882 28.0908L119.155 26.0203L118.896 26.9863L126.624 29.0568ZM126.693 24.9343L123.795 24.1578L121.725 31.8852L124.622 32.6617L126.693 24.9343ZM122.57 24.8649L121.794 27.7627L129.521 29.8333L130.298 26.9355L122.57 24.8649ZM124.433 29.5051L125.399 29.7639L127.469 22.0365L126.504 21.7777L124.433 29.5051ZM121.863 23.6402L121.605 24.6061L129.332 26.6767L129.591 25.7107L121.863 23.6402ZM123.726 28.2803L124.692 28.5392L126.762 20.8117L125.796 20.5529L123.726 28.2803ZM121.156 22.4154L120.897 23.3814L128.625 25.4519L128.884 24.486L121.156 22.4154ZM123.019 27.0556L123.985 27.3144L126.055 19.587L125.089 19.3282L123.019 27.0556ZM121.743 16.3611L120.19 22.1566L127.918 24.2272L129.471 18.4316L121.743 16.3611ZM127.608 13.7914L126.642 13.5326L124.572 21.26L125.538 21.5189L127.608 13.7914ZM122.968 15.6539L122.709 16.6199L130.437 18.6904L130.695 17.7245L122.968 15.6539ZM128.833 13.0843L127.867 12.8255L125.796 20.5529L126.762 20.8117L128.833 13.0843ZM124.193 14.9468L123.934 15.9127L131.661 17.9834L131.92 17.0174L124.193 14.9468ZM130.058 12.3772L129.092 12.1184L127.021 19.8458L127.987 20.1046L130.058 12.3772ZM125.935 12.3079L125.159 15.2057L132.886 17.2762L133.663 14.3784L125.935 12.3079ZM125.866 16.4304L128.764 17.2069L130.834 9.47946L127.936 8.703L125.866 16.4304ZM130.506 14.5679L130.765 13.602L123.037 11.5314L122.779 12.4974L130.506 14.5679ZM124.641 17.1375L125.607 17.3963L127.678 9.66893L126.712 9.41011L124.641 17.1375ZM129.281 15.275L129.54 14.3091L121.813 12.2385L121.554 13.2045L129.281 15.275ZM123.416 17.8446L124.382 18.1034L126.453 10.376L125.487 10.1172L123.416 17.8446ZM128.056 15.9821L128.315 15.0162L120.588 12.9456L120.329 13.9116L128.056 15.9821ZM117.362 17.2576L123.157 18.8105L125.228 11.0831L119.432 9.53023L117.362 17.2576ZM114.792 11.3927L114.533 12.3587L122.261 14.4292L122.52 13.4633L114.792 11.3927ZM116.655 16.0329L117.621 16.2917L119.691 8.5643L118.725 8.30548L116.655 16.0329ZM114.085 10.168L113.826 11.1339L121.554 13.2045L121.813 12.2385L114.085 10.168ZM115.948 14.8081L116.914 15.067L118.984 7.33955L118.018 7.08073L115.948 14.8081ZM113.378 8.94323L113.119 9.90916L120.847 11.9797L121.105 11.0138L113.378 8.94323ZM113.309 13.0658L116.207 13.8422L118.277 6.11481L115.379 5.33835L113.309 13.0658ZM117.431 13.1351L118.208 10.2373L110.48 8.16678L109.704 11.0646L117.431 13.1351ZM115.569 8.49495L114.603 8.23613L112.532 15.9635L113.498 16.2224L115.569 8.49495ZM118.138 14.3599L118.397 13.3939L110.67 11.3234L110.411 12.2893L118.138 14.3599ZM116.276 9.71969L115.31 9.46087L113.239 17.1883L114.205 17.4471L116.276 9.71969ZM118.845 15.5846L119.104 14.6187L111.377 12.5481L111.118 13.514L118.845 15.5846ZM116.983 10.9444L116.017 10.6856L113.946 18.413L114.912 18.6718L116.983 10.9444ZM118.258 21.639L119.811 15.8434L112.084 13.7729L110.531 19.5684L118.258 21.639ZM112.394 24.2086L113.359 24.4674L115.43 16.74L114.464 16.4812L112.394 24.2086ZM117.034 22.3461L117.293 21.3802L109.565 19.3096L109.306 20.2755L117.034 22.3461ZM111.169 24.9157L112.135 25.1745L114.205 17.4471L113.239 17.1883L111.169 24.9157ZM115.809 23.0532L116.068 22.0873L108.34 20.0167L108.082 20.9826L115.809 23.0532ZM109.944 25.6228L110.91 25.8816L112.981 18.1542L112.015 17.8954L109.944 25.6228ZM114.067 25.6921L114.843 22.7944L107.116 20.7238L106.339 23.6216L114.067 25.6921ZM116.516 24.2779L120.38 25.3132L122.45 17.5858L118.587 16.5505L116.516 24.2779ZM114.723 15.5152L113.688 19.379L121.415 21.4495L122.45 17.5858L114.723 15.5152ZM123.486 13.7221L119.622 12.6868L117.551 20.4142L121.415 21.4495L123.486 13.7221ZM125.279 22.4848L126.314 18.6211L118.587 16.5505L117.551 20.4142L125.279 22.4848ZM201.316 99.0594L198.463 98.1323L195.99 105.741L198.844 106.668L201.316 99.0594ZM202.957 106.953L203.884 104.1L196.275 101.628L195.348 104.481L202.957 106.953ZM196.966 109.212L197.917 109.521L200.389 101.913L199.438 101.604L196.966 109.212ZM201.697 107.595L202.006 106.644L194.397 104.172L194.088 105.123L201.697 107.595ZM195.705 109.854L196.657 110.163L199.129 102.555L198.178 102.246L195.705 109.854ZM200.437 108.237L200.746 107.286L193.137 104.814L192.828 105.765L200.437 108.237ZM194.445 110.496L195.396 110.805L197.869 103.197L196.918 102.888L194.445 110.496ZM197.632 113.634L199.486 107.928L191.877 105.456L190.023 111.162L197.632 113.634ZM196.014 108.903L195.063 108.594L192.591 116.202L193.542 116.511L196.014 108.903ZM198.274 114.894L198.583 113.943L190.974 111.471L190.665 112.422L198.274 114.894ZM196.657 110.163L195.705 109.854L193.233 117.462L194.184 117.771L196.657 110.163ZM198.916 116.154L199.225 115.203L191.616 112.731L191.307 113.682L198.916 116.154ZM197.299 111.423L196.348 111.114L193.875 118.723L194.826 119.032L197.299 111.423ZM198.94 119.317L199.867 116.463L192.258 113.991L191.331 116.844L198.94 119.317ZM191.046 120.958L193.899 121.885L196.371 114.276L193.518 113.349L191.046 120.958ZM188.787 114.966L188.478 115.917L196.086 118.39L196.395 117.438L188.787 114.966ZM190.404 119.698L191.355 120.007L193.827 112.398L192.876 112.089L190.404 119.698ZM188.145 113.706L187.836 114.657L195.444 117.129L195.753 116.178L188.145 113.706ZM189.762 118.438L190.713 118.747L193.185 111.138L192.234 110.829L189.762 118.438ZM187.503 112.446L187.194 113.397L194.802 115.869L195.111 114.918L187.503 112.446ZM184.365 115.632L190.071 117.486L192.543 109.878L186.837 108.024L184.365 115.632ZM189.096 114.015L189.405 113.064L181.797 110.592L181.488 111.543L189.096 114.015ZM183.105 116.274L184.056 116.583L186.528 108.975L185.577 108.666L183.105 116.274ZM187.836 114.657L188.145 113.706L180.537 111.234L180.228 112.185L187.836 114.657ZM181.845 116.916L182.796 117.225L185.268 109.617L184.317 109.308L181.845 116.916ZM186.576 115.299L186.885 114.348L179.276 111.876L178.967 112.827L186.576 115.299ZM178.682 116.94L181.536 117.867L184.008 110.259L181.155 109.332L178.682 116.94ZM177.041 109.047L176.114 111.9L183.723 114.372L184.65 111.519L177.041 109.047ZM183.033 106.788L182.082 106.479L179.609 114.087L180.561 114.396L183.033 106.788ZM178.301 108.405L177.992 109.356L185.601 111.828L185.91 110.877L178.301 108.405ZM184.293 106.146L183.342 105.837L180.87 113.445L181.821 113.754L184.293 106.146ZM179.562 107.763L179.252 108.714L186.861 111.186L187.17 110.235L179.562 107.763ZM185.553 105.504L184.602 105.195L182.13 112.803L183.081 113.112L185.553 105.504ZM182.367 102.366L180.513 108.072L188.121 110.544L189.975 104.838L182.367 102.366ZM183.984 107.097L184.935 107.406L187.407 99.7974L186.456 99.4884L183.984 107.097ZM181.725 101.105L181.416 102.057L189.024 104.529L189.333 103.578L181.725 101.105ZM183.342 105.837L184.293 106.146L186.765 98.5373L185.814 98.2283L183.342 105.837ZM181.083 99.8454L180.774 100.796L188.382 103.269L188.691 102.318L181.083 99.8454ZM182.7 104.577L183.651 104.886L186.123 97.2773L185.172 96.9683L182.7 104.577ZM181.059 96.6832L180.132 99.5364L187.74 102.009L188.667 99.1554L181.059 96.6832ZM188.952 95.0421L186.099 94.1151L183.627 101.724L186.48 102.651L188.952 95.0421ZM191.211 101.033L191.52 100.082L183.912 97.6103L183.603 98.5614L191.211 101.033ZM189.594 96.3022L188.643 95.9932L186.171 103.602L187.122 103.911L189.594 96.3022ZM191.853 102.294L192.162 101.343L184.554 98.8704L184.245 99.8214L191.853 102.294ZM190.236 97.5623L189.285 97.2533L186.813 104.862L187.764 105.171L190.236 97.5623ZM192.495 103.554L192.804 102.603L185.196 100.13L184.887 101.081L192.495 103.554ZM195.633 100.367L189.927 98.5133L187.455 106.122L193.161 107.976L195.633 100.367ZM190.902 101.985L190.593 102.936L198.202 105.408L198.511 104.457L190.902 101.985ZM196.893 99.7254L195.942 99.4164L193.47 107.025L194.421 107.334L196.893 99.7254ZM192.162 101.342L191.853 102.294L199.462 104.766L199.771 103.815L192.162 101.342ZM198.154 99.0834L197.203 98.7743L194.73 106.383L195.681 106.692L198.154 99.0834ZM193.422 100.7L193.113 101.652L200.722 104.124L201.031 103.173L193.422 100.7ZM187.479 109.284L191.283 110.52L193.755 102.912L189.951 101.676L187.479 109.284ZM191.283 110.52L192.519 106.716L184.911 104.244L183.675 108.048L191.283 110.52ZM192.519 106.716L188.715 105.48L186.243 113.088L190.047 114.324L192.519 106.716ZM188.715 105.48L187.479 109.284L195.087 111.756L196.323 107.952L188.715 105.48ZM39.9531 173.137L37.2342 171.869L33.8532 179.119L36.5722 180.387L39.9531 173.137ZM40.62 181.171L41.8879 178.452L34.6374 175.071L33.3696 177.79L40.62 181.171ZM34.398 182.683L35.3043 183.106L38.6853 175.856L37.779 175.433L34.398 182.683ZM39.2911 181.655L39.7137 180.749L32.4632 177.368L32.0406 178.274L39.2911 181.655ZM33.0691 183.167L33.9754 183.59L37.3564 176.339L36.45 175.917L33.0691 183.167ZM37.9622 182.139L38.3848 181.232L31.1343 177.851L30.7117 178.758L37.9622 182.139ZM31.7401 183.651L32.6464 184.073L36.0274 176.823L35.1211 176.4L31.7401 183.651ZM34.5201 187.154L37.0559 181.716L29.8054 178.335L27.2697 183.773L34.5201 187.154ZM33.4917 182.261L32.5854 181.838L29.2044 189.089L30.1107 189.511L33.4917 182.261ZM35.0038 188.483L35.4264 187.577L28.176 184.196L27.7534 185.102L35.0038 188.483ZM33.9754 183.59L33.0691 183.167L29.6881 190.418L30.5944 190.84L33.9754 183.59ZM35.4875 189.812L35.9101 188.905L28.6597 185.524L28.2371 186.431L35.4875 189.812ZM34.4591 184.919L33.5528 184.496L30.1718 191.747L31.0781 192.169L34.4591 184.919ZM35.126 192.953L36.3938 190.234L29.1434 186.853L27.8755 189.572L35.126 192.953ZM27.0914 193.62L29.8103 194.888L33.1912 187.638L30.4723 186.37L27.0914 193.62ZM25.5792 187.398L25.1566 188.304L32.4071 191.685L32.8297 190.779L25.5792 187.398ZM26.6077 192.291L27.514 192.714L30.8949 185.463L29.9886 185.041L26.6077 192.291ZM25.0955 186.069L24.6729 186.976L31.9234 190.357L32.346 189.45L25.0955 186.069ZM26.124 190.962L27.0303 191.385L30.4112 184.135L29.5049 183.712L26.124 190.962ZM24.6118 184.74L24.1892 185.647L31.4397 189.028L31.8623 188.121L24.6118 184.74ZM21.1087 187.52L26.5466 190.056L29.9275 182.806L24.4897 180.27L21.1087 187.52ZM26.0018 186.492L26.4245 185.586L19.174 182.205L18.7514 183.111L26.0018 186.492ZM19.7798 188.004L20.6861 188.427L24.0671 181.176L23.1608 180.754L19.7798 188.004ZM24.6729 186.976L25.0955 186.069L17.8451 182.688L17.4224 183.595L24.6729 186.976ZM18.4509 188.488L19.3572 188.91L22.7382 181.66L21.8319 181.237L18.4509 188.488ZM23.344 187.459L23.7666 186.553L16.5161 183.172L16.0935 184.078L23.344 187.459ZM15.3094 188.126L18.0283 189.394L21.4092 182.144L18.6903 180.876L15.3094 188.126ZM14.6424 180.092L13.3746 182.81L20.6251 186.191L21.8929 183.472L14.6424 180.092ZM20.8645 178.579L19.9582 178.157L16.5772 185.407L17.4835 185.83L20.8645 178.579ZM15.9714 179.608L15.5488 180.514L22.7992 183.895L23.2218 182.989L15.9714 179.608ZM22.1934 178.096L21.2871 177.673L17.9061 184.924L18.8124 185.346L22.1934 178.096ZM17.3003 179.124L16.8777 180.03L24.1281 183.411L24.5508 182.505L17.3003 179.124ZM23.5223 177.612L22.616 177.189L19.235 184.44L20.1414 184.862L23.5223 177.612ZM20.7423 174.109L18.2066 179.547L25.4571 182.928L27.9928 177.49L20.7423 174.109ZM21.7708 179.002L22.6771 179.425L26.058 172.174L25.1517 171.752L21.7708 179.002ZM20.2586 172.78L19.836 173.686L27.0865 177.067L27.5091 176.161L20.2586 172.78ZM21.2871 177.673L22.1934 178.096L25.5743 170.845L24.668 170.423L21.2871 177.673ZM19.7749 171.451L19.3523 172.357L26.6028 175.738L27.0254 174.832L19.7749 171.451ZM20.8034 176.344L21.7097 176.767L25.0907 169.516L24.1844 169.094L20.8034 176.344ZM20.1365 168.31L18.8686 171.028L26.1191 174.409L27.3869 171.69L20.1365 168.31ZM28.1711 167.643L25.4522 166.375L22.0712 173.625L24.7902 174.893L28.1711 167.643ZM29.6833 173.865L30.1059 172.958L22.8554 169.577L22.4328 170.484L29.6833 173.865ZM28.6548 168.972L27.7485 168.549L24.3675 175.799L25.2738 176.222L28.6548 168.972ZM30.1669 175.194L30.5896 174.287L23.3391 170.906L22.9165 171.813L30.1669 175.194ZM29.1385 170.3L28.2322 169.878L24.8512 177.128L25.7575 177.551L29.1385 170.3ZM30.6506 176.522L31.0733 175.616L23.8228 172.235L23.4002 173.142L30.6506 176.522ZM34.1537 173.742L28.7159 171.207L25.3349 178.457L30.7728 180.993L34.1537 173.742ZM29.2606 174.771L28.838 175.677L36.0885 179.058L36.5111 178.152L29.2606 174.771ZM35.4827 173.259L34.5764 172.836L31.1954 180.087L32.1017 180.509L35.4827 173.259ZM30.5896 174.287L30.1669 175.194L37.4174 178.575L37.84 177.668L30.5896 174.287ZM36.8116 172.775L35.9053 172.352L32.5243 179.603L33.4306 180.026L36.8116 172.775ZM31.9185 173.804L31.4959 174.71L38.7463 178.091L39.169 177.185L31.9185 173.804ZM24.9734 181.599L28.5986 183.289L31.9796 176.039L28.3543 174.348L24.9734 181.599ZM28.5986 183.289L30.2891 179.664L23.0386 176.283L21.3482 179.908L28.5986 183.289ZM30.2891 179.664L26.6639 177.974L23.2829 185.224L26.9081 186.914L30.2891 179.664ZM26.6639 177.974L24.9734 181.599L32.2238 184.98L33.9143 181.355L26.6639 177.974ZM51 15.5C51 14.6716 51.6716 14 52.5 14V22C56.0898 22 59 19.0899 59 15.5H51ZM52.5 17C51.6716 17 51 16.3284 51 15.5H59C59 11.9101 56.0898 9 52.5 9V17ZM54 15.5C54 16.3284 53.3284 17 52.5 17V9C48.9102 9 46 11.9101 46 15.5H54ZM52.5 14C53.3284 14 54 14.6716 54 15.5H46C46 19.0899 48.9102 22 52.5 22V14ZM11 174.5C11 173.672 11.6716 173 12.5 173V181C16.0899 181 19 178.09 19 174.5H11ZM12.5 176C11.6716 176 11 175.328 11 174.5H19C19 170.91 16.0899 168 12.5 168V176ZM14 174.5C14 175.328 13.3284 176 12.5 176V168C8.91014 168 6 170.91 6 174.5H14ZM12.5 173C13.3284 173 14 173.672 14 174.5H6C6 178.09 8.91014 181 12.5 181V173ZM161.5 158C165.09 158 168 155.09 168 151.5H160C160 150.672 160.672 150 161.5 150V158ZM155 151.5C155 155.09 157.91 158 161.5 158V150C162.328 150 163 150.672 163 151.5H155ZM161.5 145C157.91 145 155 147.91 155 151.5H163C163 152.328 162.328 153 161.5 153V145ZM168 151.5C168 147.91 165.09 145 161.5 145V153C160.672 153 160 152.328 160 151.5H168Z" fill="#F1F1F2" mask="url(#path-1-inside-1_73_493)"/>
</svg>
