<svg width="187" height="205" viewBox="0 0 187 205" fill="none" xmlns="http://www.w3.org/2000/svg">
<g filter="url(#filter0_f_72_326)">
<path fill-rule="evenodd" clip-rule="evenodd" d="M129 4C129 5.65685 127.657 7 126 7C124.343 7 123 5.65685 123 4C123 2.34315 124.343 1 126 1C127.657 1 129 2.34315 129 4ZM181.068 114.001C181.189 112.349 181.25 110.681 181.25 109C181.25 100.803 179.795 92.9188 177.116 85.5781L177.113 85.586C175.509 89.948 171.761 92.6304 167.489 93.9505C163.223 95.269 158.229 95.3105 153.616 94.2698C147.13 92.8067 141.449 87.5473 138.74 82.0063C137.375 79.2165 136.664 76.1554 137.155 73.3047C137.663 70.3544 139.431 67.8298 142.581 66.2764C149.675 62.7784 159.265 62.9803 164.428 69.2764C166.286 71.5422 167.813 74.4967 168.085 77.4013C168.223 78.8793 168.04 80.4173 167.325 81.8277C166.599 83.2577 165.399 84.4123 163.754 85.2105C161.767 86.1749 159.976 86.1433 158.385 85.9379C157.828 85.8659 157.336 85.784 156.872 85.7066L156.871 85.7064L156.871 85.7063C155.93 85.5495 155.1 85.4111 154.056 85.4111V81.4111C155.443 81.4111 156.805 81.636 157.873 81.8123C158.257 81.8756 158.602 81.9327 158.897 81.9708C160.111 82.1276 161.01 82.096 162.008 81.6118C162.95 81.1545 163.467 80.59 163.757 80.0185C164.057 79.4273 164.187 78.681 164.102 77.7733C163.928 75.9064 162.868 73.6831 161.334 71.8127C157.789 67.489 150.488 66.8377 144.35 69.8639C142.327 70.8615 141.384 72.3168 141.097 73.9831C140.793 75.749 141.204 77.9411 142.333 80.2491C144.609 84.9035 149.397 89.2175 154.496 90.3678C158.537 91.2796 162.81 91.2098 166.308 90.1288C169.801 89.0494 172.315 87.0441 173.359 84.2055C173.817 82.9599 174 82.0383 174 81.1842C174 80.3302 173.817 79.4085 173.359 78.1629L173.82 77.9935C165.331 61.2725 150.187 48.1885 131.633 41.968C131.569 42.0509 131.496 42.1461 131.415 42.2529C131.066 42.7099 130.564 43.3803 129.958 44.2246C128.742 45.9149 127.113 48.2936 125.454 51.0463C122.086 56.6341 118.79 63.4545 118.316 69.1248C117.846 74.7588 119.937 81.9539 122.3 87.952C123.465 90.9067 124.662 93.4903 125.568 95.3349C126.021 96.2563 126.4 96.9909 126.664 97.4926C126.796 97.7433 126.9 97.9357 126.969 98.0639L127.023 98.162L127.047 98.2074L127.066 98.2416L127.07 98.2491L127.071 98.2504C127.071 98.2503 127.071 98.2501 125.323 99.2227C123.576 100.195 123.576 100.195 123.575 100.194L123.575 100.193L123.573 100.19L123.566 100.178L123.542 100.134C123.521 100.096 123.491 100.042 123.453 99.9708C123.376 99.8292 123.265 99.6227 123.125 99.357C122.845 98.8258 122.449 98.0575 121.978 97.0988C121.037 95.1833 119.792 92.4982 118.579 89.4185C116.186 83.3475 113.777 75.4105 114.33 68.7919C114.886 62.1342 118.621 54.6331 122.028 48.9815C123.756 46.1144 125.449 43.6439 126.71 41.8899C127.02 41.458 127.305 41.0691 127.558 40.7278C121.073 38.9518 114.219 38 107.125 38C104.604 38 102.113 38.1202 99.6576 38.355C100.852 39.1181 102.134 40.0002 103.388 40.9763C105.601 42.6997 107.841 44.8053 109.307 47.1615C110.787 49.5412 111.607 52.4095 110.465 55.3861C109.631 57.5567 107.99 59.1425 106.214 60.292C104.436 61.4433 102.394 62.2416 100.525 62.7985C98.6439 63.3588 96.8605 63.697 95.5535 63.8956C94.8975 63.9953 94.3552 64.0607 93.9728 64.1015C93.7815 64.122 93.6298 64.1363 93.5234 64.1457L93.4441 64.1525L93.3985 64.1562L93.3628 64.159L93.3519 64.1598L93.3482 64.1601L93.3468 64.1602C93.3462 64.1602 93.3457 64.1603 93.2024 62.1654L93.3457 64.1603L93.12 64.1765L92.8985 64.1422L92.8979 64.1421L92.8975 64.142L92.8973 64.142L92.8965 64.1419L92.8867 64.1404L92.8308 64.1324C92.8042 64.1287 92.77 64.1241 92.7287 64.1187C92.689 64.1135 92.6427 64.1076 92.5902 64.1012C92.3758 64.075 92.0591 64.0403 91.666 64.0083C90.8757 63.9442 89.7956 63.893 88.6254 63.9409C87.4473 63.9891 86.2334 64.1357 85.1542 64.4413C84.0635 64.7503 83.2362 65.186 82.6943 65.725C82.2956 66.1216 82.1345 66.482 82.0718 66.8242C82.0034 67.1973 82.0298 67.6812 82.2138 68.3244C82.6031 69.6851 83.5231 71.227 84.6597 73.0931L84.746 73.2348C85.7798 74.9313 86.9896 76.9168 87.5654 78.8652C88.1972 81.0035 88.1502 83.4168 86.2222 85.4827C85.1814 86.598 83.8945 87.2842 82.4062 87.2271C81.0181 87.1738 79.8383 86.4823 78.9154 85.7275C77.1624 84.2937 75.4799 81.8914 74.0024 79.7818L73.8703 79.5933C72.2404 77.2671 70.8158 75.2652 69.464 74.1408C68.8071 73.5944 68.3696 73.4333 68.1213 73.4077C67.9723 73.3923 67.7026 73.3958 67.2288 73.8234C65.7102 75.1938 65.5179 76.8468 65.7114 79.519C65.7387 79.8959 65.7755 80.2971 65.8141 80.7189L65.8142 80.7197L65.8143 80.7213L65.8144 80.722C66.0315 83.0889 66.3075 86.0986 65.2981 89.049C63.6597 93.8382 60.0942 96.7194 57.1676 99.0844C56.8287 99.3582 56.4983 99.6252 56.1806 99.8874C54.1759 101.541 52.5971 103.029 51.732 104.908C53.2603 105.004 54.8449 105.157 56.6193 105.328H56.6194L57.1574 105.38C60.196 105.673 62.4127 106.131 64.7686 106.618L64.7687 106.618L64.7688 106.618L64.769 106.618C65.9897 106.871 67.2479 107.131 68.6772 107.38L67.991 111.321C66.2952 111.026 64.9417 110.744 63.6942 110.484L63.6939 110.484C61.4903 110.025 59.6175 109.635 56.7742 109.362L56.3392 109.32C54.3265 109.126 52.62 108.961 51.0086 108.873C51.2467 115.977 55.0462 119.549 60.7667 124.926L60.8027 124.96C63.4355 127.435 66.6591 127.733 70.5179 128.09H70.518C70.8289 128.119 71.144 128.148 71.4631 128.179C73.4888 128.374 75.7197 128.653 77.7582 129.543C79.8825 130.471 81.7266 132.026 83.0598 134.6C86.8615 141.941 85.2464 148.165 83.2076 155.342C81.9511 159.765 80.397 163.35 78.1811 166.474C76.7261 168.526 75.0154 170.337 72.9801 172.041C79.3319 175.204 86.2263 177.513 93.5008 178.805C93.6112 178.699 93.7644 178.55 93.955 178.362C94.3835 177.94 95.0007 177.32 95.7469 176.54C97.2411 174.977 99.2432 172.781 101.28 170.241C103.321 167.696 105.371 164.838 106.979 161.952C108.599 159.044 109.7 156.233 109.974 153.761C110.247 151.311 109.79 148.445 108.853 145.426C107.922 142.426 106.556 139.399 105.129 136.676C103.704 133.959 102.237 131.58 101.126 129.88C100.571 129.032 100.107 128.355 99.7834 127.893C99.6216 127.662 99.4951 127.486 99.4102 127.368C99.3677 127.309 99.3357 127.265 99.3148 127.236L99.292 127.205L99.2871 127.199L99.2863 127.198C99.2864 127.198 99.2866 127.198 100.894 126.008C102.501 124.818 102.502 124.818 102.502 124.819L102.503 124.82L102.505 124.823L102.514 124.835L102.544 124.876L102.59 124.939L102.654 125.027C102.749 125.159 102.886 125.351 103.059 125.597C103.404 126.09 103.893 126.803 104.474 127.692C105.635 129.467 107.172 131.959 108.671 134.819C110.168 137.674 111.647 140.933 112.674 144.24C113.694 147.528 114.307 150.989 113.95 154.202C113.591 157.427 112.214 160.775 110.473 163.899C108.72 167.045 106.525 170.094 104.401 172.743C102.272 175.398 100.188 177.683 98.6376 179.304C98.5683 179.377 98.5 179.448 98.4328 179.518C101.283 179.836 104.183 180 107.125 180C119.508 180 131.159 177.1 141.395 171.978L141.225 171.881C142.864 169.013 143.422 164.178 141.116 158.643C139.841 155.584 137.816 150.118 137.191 144.392C136.571 138.717 137.28 132.271 142.12 127.891C145.138 125.159 149.035 124.661 152.815 125.187C156.585 125.711 160.511 127.283 163.996 129.062C167.501 130.852 170.678 132.915 172.969 134.522C174.02 135.258 174.89 135.903 175.528 136.388C177.927 130.897 179.627 125.06 180.522 118.981C178.461 120.049 176.405 120.726 173.606 121.34C168.785 122.397 165.689 121.999 161.249 121.429L160.79 121.37C158.27 121.047 156.381 120.528 154.432 119.992C153.449 119.722 152.451 119.448 151.349 119.193L152.251 115.296C153.697 115.631 154.818 115.942 155.836 116.225C157.588 116.711 159.033 117.112 161.298 117.402L161.624 117.444C166.115 118.02 168.611 118.34 172.749 117.432C176.293 116.655 178.327 115.832 181.068 114.001ZM173.778 140.09C173.639 139.981 173.468 139.849 173.267 139.695C172.657 139.227 171.769 138.565 170.673 137.797C168.474 136.255 165.462 134.302 162.176 132.624C158.869 130.935 155.399 129.585 152.263 129.148C149.137 128.713 146.618 129.214 144.804 130.856C141.39 133.946 140.599 138.75 141.167 143.958C141.73 149.114 143.582 154.163 144.808 157.104C146.628 161.472 147.016 165.702 146.349 169.261C158.121 162.213 167.664 152.091 173.778 140.09ZM69.141 169.987C71.557 168.149 73.4156 166.279 74.9184 164.16C76.7951 161.514 78.1855 158.383 79.3599 154.249C81.4105 147.03 82.5133 142.243 79.5078 136.439C78.6111 134.708 77.4708 133.782 76.1574 133.209C74.7582 132.598 73.0979 132.355 71.0802 132.161C70.7408 132.128 70.3907 132.097 70.0315 132.066L70.0302 132.066L70.0294 132.066C66.3609 131.745 61.7515 131.342 58.063 127.875L57.6639 127.5C52.1815 122.351 47.2435 117.714 47.0058 108.84C45.5769 108.905 44.0818 109.062 42.3702 109.344C38.4316 109.993 35.9526 110.685 33.0661 112.022C34.1435 136.605 48.3062 158.052 69.141 169.987ZM93.2158 39.2457C59.2634 45.4114 33.6583 73.7288 33.0125 107.685C35.6294 106.625 38.1731 105.982 41.7198 105.398C43.8721 105.043 45.7317 104.87 47.5013 104.819C48.5657 101.213 51.1573 98.846 53.635 96.8019C53.9667 96.5282 54.2956 96.2602 54.6203 95.9956L54.6225 95.9938L54.624 95.9926L54.625 95.9918C57.6257 93.5465 60.2687 91.3927 61.5135 87.7542C62.2229 85.6806 62.0469 83.6473 61.8418 81.2763L61.8417 81.2751L61.8416 81.2742L61.8415 81.2732L61.8415 81.2728L61.8414 81.272C61.8004 80.7984 61.7583 80.3113 61.7218 79.8078C61.5157 76.9605 61.5444 73.5653 64.5489 70.8539C65.7076 69.8082 67.0632 69.2771 68.5323 69.4289C69.9021 69.5704 71.0754 70.2783 72.0219 71.0656C73.8389 72.577 75.5577 75.0304 77.0527 77.1644L77.1461 77.2979C78.7837 79.6349 80.1689 81.5852 81.4478 82.6312C82.067 83.1377 82.4215 83.2247 82.5596 83.23L82.5629 83.2301C82.6094 83.2324 82.8407 83.2435 83.2979 82.7536C83.9598 82.0443 84.1023 81.261 83.7293 79.9986C83.3163 78.6009 82.379 77.0383 81.2435 75.1738L81.1708 75.0545C80.1353 73.3549 78.9237 71.3664 78.3681 69.4248C78.0732 68.3941 77.925 67.2616 78.1373 66.1032C78.3553 64.9138 78.9301 63.8275 79.8733 62.8892C81.0654 61.7033 82.595 61.0088 84.0642 60.5927C85.5448 60.1734 87.0939 60.0002 88.4619 59.9442C89.8378 59.8879 91.0871 59.9482 91.9897 60.0215C92.443 60.0583 92.8136 60.0988 93.0749 60.1307L93.1441 60.1392L93.1833 60.1442L93.2557 60.1535C93.3326 60.1463 93.4307 60.1367 93.5481 60.1242C93.8795 60.0888 94.3625 60.0306 94.9527 59.941C96.1381 59.7609 97.7303 59.4573 99.3828 58.965C101.047 58.4694 102.696 57.8045 104.041 56.9341C105.388 56.062 106.302 55.0679 106.73 53.9525C107.267 52.5554 107.002 51.0281 105.911 49.2747C104.805 47.4978 102.986 45.7328 100.93 44.1323C98.8969 42.5488 96.7453 41.2128 95.0891 40.2679C94.3357 39.8381 93.6913 39.4929 93.2158 39.2457ZM107.125 184C150.272 184 185.25 150.421 185.25 109C185.25 67.5786 150.272 34 107.125 34C63.9778 34 29 67.5786 29 109C29 150.421 63.9778 184 107.125 184ZM4 103C5.65685 103 7 101.657 7 100C7 98.3431 5.65685 97 4 97C2.34315 97 1 98.3431 1 100C1 101.657 2.34315 103 4 103ZM160 193C160 194.657 158.657 196 157 196C155.343 196 154 194.657 154 193C154 191.343 155.343 190 157 190C158.657 190 160 191.343 160 193ZM131 106C129.25 106.968 129.25 106.968 129.25 106.968L129.25 106.969L129.251 106.971L129.254 106.975L129.261 106.989L129.287 107.035C129.31 107.074 129.341 107.13 129.382 107.2C129.462 107.339 129.578 107.537 129.726 107.778C130.02 108.26 130.441 108.924 130.953 109.652C131.941 111.056 133.404 112.904 135.049 114.061C136.365 114.987 138.167 115.73 139.51 116.217C140.206 116.47 140.828 116.671 141.278 116.81C141.503 116.88 141.686 116.934 141.814 116.971C141.837 116.977 141.858 116.983 141.877 116.989C141.893 116.994 141.909 116.998 141.923 117.002L141.965 117.014L142.007 117.026L142.02 117.029L142.023 117.03L142.025 117.031L142.025 117.031C142.026 117.031 142.026 117.031 142.556 115.103C143.085 113.174 143.085 113.174 143.086 113.174L143.085 113.174L143.08 113.172L143.051 113.164L142.976 113.143L142.929 113.129C142.82 113.098 142.659 113.05 142.458 112.988C142.055 112.864 141.496 112.683 140.875 112.457C139.582 111.988 138.206 111.391 137.351 110.79C136.3 110.05 135.163 108.685 134.225 107.351C133.774 106.71 133.401 106.122 133.141 105.696C133.012 105.484 132.911 105.313 132.844 105.197L132.824 105.162L132.785 105.094L132.77 105.068L132.753 105.037L132.75 105.032C132.75 105.032 132.75 105.032 131 106ZM102.022 98.7446C97.3952 96.1508 94.4934 95.1835 89.2357 94.4825L89.7643 90.5176C95.5236 91.2855 98.9098 92.4142 103.978 95.2555C107.73 97.3587 109.974 98.8458 112.98 102.155C116.22 105.722 117.761 108.29 119.383 112.827L115.617 114.173C114.172 110.133 112.905 108.021 110.02 104.845C107.406 101.968 105.56 100.728 102.022 98.7446ZM117.818 119.582C117.818 119.582 117.818 119.582 119.5 118.5C121.182 117.418 121.182 117.418 121.182 117.418L121.182 117.419L121.183 117.42L121.185 117.423L121.191 117.433L121.214 117.469L121.248 117.521L121.299 117.602C121.371 117.717 121.475 117.882 121.602 118.088C121.856 118.5 122.206 119.078 122.59 119.743C123.343 121.048 124.282 122.782 124.863 124.274C125.582 126.117 125.916 127.629 126.169 129.102C126.248 129.566 126.318 130.009 126.387 130.449L126.387 130.449C126.54 131.428 126.692 132.394 126.952 133.566L123.048 134.434C122.759 133.134 122.575 131.967 122.414 130.939L122.414 130.939C122.35 130.53 122.289 130.143 122.226 129.779C122.001 128.468 121.726 127.238 121.137 125.726C120.671 124.532 119.86 123.016 119.125 121.743C118.765 121.118 118.436 120.575 118.197 120.188C118.078 119.994 117.982 119.841 117.916 119.737L117.855 119.641L117.841 119.619L117.823 119.59L117.819 119.583L117.818 119.582ZM95.5232 118.558C95.5234 118.558 95.5236 118.558 93.9126 119.744C92.3017 120.929 92.3019 120.929 92.302 120.929L92.2987 120.925L92.2785 120.898L92.2522 120.863L92.2276 120.831L92.1887 120.78C92.1074 120.674 91.9848 120.518 91.8264 120.322C91.5086 119.93 91.0513 119.389 90.498 118.798C89.3595 117.582 87.9427 116.292 86.5829 115.573C85.4582 114.978 83.6898 114.406 82.0823 113.967C81.3026 113.755 80.6015 113.584 80.0958 113.466C79.8434 113.408 79.6408 113.363 79.5027 113.333L79.3932 113.309L79.3461 113.299L79.3078 113.291L79.2992 113.289L79.2977 113.289C79.2978 113.289 79.2979 113.289 79.7023 111.33C80.1067 109.371 80.1069 109.372 80.1071 109.372L80.1076 109.372L80.1089 109.372L80.1129 109.373L80.1266 109.376L80.1754 109.386L80.2254 109.397L80.3546 109.424C80.5083 109.458 80.7286 109.507 81.0002 109.57C81.5427 109.696 82.2949 109.879 83.1353 110.108C84.7681 110.554 86.9076 111.219 88.4531 112.037C90.4081 113.071 92.1886 114.751 93.4187 116.065C94.0498 116.74 94.5695 117.354 94.9329 117.802C95.115 118.027 95.2589 118.211 95.359 118.341L95.4167 118.416C95.4402 118.447 95.46 118.473 95.4759 118.495L95.5087 118.538L95.5184 118.551L95.5215 118.556L95.5227 118.557L95.5232 118.558ZM27 31H30V34H29V35H28V36H27V42H28V43H29V44H30V47H27V46H26V45H25V44H19V45H18V46H17V47H14V44H15V43H16V42H17V36H16V35H15V34H14V31H17V32H18V33H19V34H25V33H26V32H27V31ZM24 37H20V41H24V37ZM71 188H68V189H67V190H66V191H60V190H59V189H58V188H55V191H56V192H57V193H58V199H57V200H56V201H55V204H58V203H59V202H60V201H66V202H67V203H68V204H71V201H70V200H69V199H68V193H69V192H70V191H71V188ZM61 194H65V198H61V194Z" fill="#D9D9D9"/>
</g>
<defs>
<filter id="filter0_f_72_326" x="0" y="0" width="186.25" height="205" filterUnits="userSpaceOnUse" color-interpolation-filters="sRGB">
<feFlood flood-opacity="0" result="BackgroundImageFix"/>
<feBlend mode="normal" in="SourceGraphic" in2="BackgroundImageFix" result="shape"/>
<feGaussianBlur stdDeviation="0.5" result="effect1_foregroundBlur_72_326"/>
</filter>
</defs>
</svg>
