<svg width="217" height="205" viewBox="0 0 217 205" fill="none" xmlns="http://www.w3.org/2000/svg">
<path fill-rule="evenodd" clip-rule="evenodd" d="M147.236 45.107C147.701 44.8485 148.267 44.5349 148.925 44.1736C150.935 43.0691 153.799 41.5175 157.214 39.7263C164.04 36.1469 173.096 31.5983 181.97 27.7499C190.782 23.9286 199.63 20.7007 205.96 19.904C209.027 19.5179 212.076 19.6182 214.153 21.1028C215.277 21.9061 216.022 23.0497 216.316 24.4589C216.597 25.8093 216.447 27.3077 216.003 28.8947C212.733 40.5829 202.872 55.3798 190.03 70.5964C185.236 76.2778 179.998 82.0493 174.485 87.7775C180.406 113.86 172.149 142.276 150.551 161.051C126.182 182.234 92.0241 184.892 65.2742 170.227C52.7892 177.135 41.1064 182.912 31.4397 186.965C26.3826 189.084 21.8479 190.745 18.0208 191.847C14.2435 192.935 10.9777 193.533 8.53257 193.39C5.27137 193.2 2.76022 191.967 1.46088 189.5C0.25455 187.209 0.373151 184.339 1.03692 181.484C2.37699 175.719 6.33808 168.389 10.8408 161.339C15.383 154.226 20.6252 147.174 24.7207 141.912C26.7708 139.278 28.5386 137.086 29.795 135.551C30.4233 134.784 30.9239 134.181 31.2682 133.768C31.4404 133.562 31.5735 133.403 31.664 133.296L31.7673 133.173L31.7941 133.142L31.8012 133.133L31.8031 133.131C31.8034 133.131 31.8037 133.13 32.1469 133.421C19.9837 104.385 27.0846 69.6266 52.1419 47.8446C79.6116 23.9655 119.521 23.6272 147.236 45.107ZM33.7674 137.019C33.5139 137.326 33.2201 137.682 32.8902 138.085C31.6509 139.599 29.904 141.765 27.8773 144.369C23.8193 149.583 18.6604 156.526 14.2119 163.492C9.72397 170.519 6.1048 177.349 4.93305 182.389C4.34094 184.937 4.47077 186.631 5.00007 187.636C5.43632 188.464 6.38518 189.258 8.76562 189.397C10.5079 189.499 13.2364 189.062 16.9138 188.003C20.5412 186.958 24.9214 185.36 29.8933 183.276C38.8605 179.517 49.6566 174.219 61.2689 167.865C59.3859 166.674 57.5465 165.392 55.7572 164.02C50.7513 166.527 46.1224 168.562 42.0953 169.964C38.7696 171.122 35.7595 171.881 33.2368 172.083C30.7928 172.279 28.3625 171.987 26.6772 170.5C23.8946 168.045 23.3009 164.747 23.7634 161.564C24.2162 158.447 25.6923 155.233 27.3375 152.426C28.9996 149.591 30.925 147.021 32.4225 145.171C33.1739 144.243 33.8239 143.488 34.2884 142.963C34.5207 142.7 34.707 142.495 34.8368 142.353C34.9016 142.282 34.9524 142.227 34.9878 142.189L35.0291 142.145L35.0408 142.133L35.0444 142.129L35.0456 142.128C35.046 142.127 35.0464 142.127 36.5004 143.5C37.9544 144.873 37.9547 144.873 37.9549 144.873L37.9538 144.874L37.9471 144.881L37.916 144.914C37.8876 144.945 37.8439 144.992 37.7864 145.055C37.6713 145.181 37.5006 145.369 37.2847 145.613C36.8527 146.102 36.2409 146.812 35.5315 147.688C34.107 149.448 32.3137 151.847 30.7883 154.449C29.246 157.08 28.0658 159.771 27.7218 162.139C27.3874 164.441 27.8562 166.206 29.3236 167.5C29.7633 167.888 30.8001 168.266 32.9176 168.096C34.9566 167.933 37.6026 167.293 40.7804 166.187C44.1845 165.002 48.0902 163.321 52.3489 161.243C49.6742 158.93 47.1307 156.399 44.7432 153.652C40.2578 148.492 36.603 142.894 33.7674 137.019ZM65.2964 165.637C63.3904 164.514 61.5277 163.295 59.7155 161.981C61.7736 160.894 63.882 159.738 66.0265 158.525C83.9356 148.395 104.66 134.076 120.282 121.035C122.138 119.486 124.159 117.807 126.307 116.022L126.315 116.016L126.315 116.016C138.393 105.981 154.504 92.5953 168.043 80.0495C168.83 82.2008 169.508 84.3806 170.078 86.5806C161.279 95.6268 151.812 104.546 142.356 112.793C120.7 131.678 91.3622 151.063 65.2964 165.637ZM173.301 83.2288C172.693 81.1619 171.993 79.1144 171.202 77.0927C173.404 75.0085 175.519 72.9574 177.515 70.9595C181.749 66.7216 185.478 62.6925 188.384 59.0685C191.26 55.4826 193.45 52.1489 194.453 49.3158C194.957 47.8932 195.224 46.427 194.988 45.0404C194.738 43.5679 193.943 42.3396 192.648 41.4926C191.426 40.693 189.864 40.2988 188.105 40.1664C186.329 40.0327 184.198 40.1557 181.71 40.5212C175.574 41.4225 168.251 44.1353 162.566 46.5563C159.701 47.7765 157.208 48.9414 155.432 49.8017C154.711 50.1506 154.107 50.4498 153.643 50.6827C152.637 49.7015 151.608 48.7538 150.559 47.8397L150.851 47.6794C152.843 46.5851 155.683 45.046 159.072 43.2688C165.856 39.7115 174.815 35.213 183.562 31.4197C192.372 27.5993 200.753 24.5909 206.459 23.8727C209.41 23.5013 211.081 23.8239 211.827 24.3569C212.115 24.5625 212.306 24.8264 212.4 25.2753C212.506 25.7829 212.494 26.5931 212.151 27.817C209.13 38.6159 199.771 52.8523 186.973 68.0166C182.732 73.0423 178.135 78.145 173.301 83.2288ZM157.175 53.4019C156.962 53.505 156.759 53.6036 156.568 53.6972C157.034 54.2048 157.495 54.7201 157.95 55.2434C162.761 60.7786 166.617 66.8188 169.531 73.1627C171.319 71.4567 173.043 69.7762 174.686 68.1324C178.865 63.9486 182.483 60.0332 185.264 56.566C188.075 53.0605 189.912 50.1561 190.683 47.9803C191.066 46.8985 191.123 46.1675 191.045 45.7112C190.982 45.3409 190.826 45.0805 190.459 44.8402C190.019 44.5524 189.207 44.2606 187.805 44.1552C186.423 44.0511 184.608 44.1385 182.291 44.4788C176.692 45.3012 169.765 47.8383 164.133 50.2365C161.34 51.4258 158.908 52.5627 157.175 53.4019ZM123.778 112.923C136.219 102.586 152.801 88.8085 166.449 76.0699C163.632 69.6117 159.798 63.4667 154.931 57.8676C129.205 28.2738 84.36 25.1379 54.7662 50.8634C25.1723 76.5889 22.0365 121.434 47.762 151.028C50.3977 154.06 53.234 156.814 56.2341 159.288C58.752 157.985 61.3686 156.564 64.0571 155.044C81.7588 145.03 102.284 130.849 117.719 117.965C119.589 116.403 121.621 114.715 123.777 112.924L123.778 112.923L123.778 112.923ZM69.4405 167.896C94.4073 180.439 125.533 177.498 147.927 158.032C167.666 140.873 175.634 115.208 171.118 91.2365C162.757 99.729 153.861 108.066 144.985 115.807C123.667 134.398 95.1071 153.383 69.4405 167.896ZM213.167 93.4137C212.125 94.3196 210.546 94.2092 209.64 93.1671C208.735 92.1251 208.845 90.546 209.887 89.6402C210.929 88.7344 212.508 88.8448 213.414 89.8868C214.32 90.9289 214.209 92.5079 213.167 93.4137ZM129.605 9.81115L131.573 12.0753L129.309 14.0435L128.653 13.2887L127.898 13.9448L127.242 13.1901L126.487 13.8462L125.831 13.0914L121.303 17.0278L121.959 17.7825L121.204 18.4386L121.86 19.1933L121.106 19.8493L121.762 20.604L119.497 22.5722L117.529 20.3081L118.284 19.652L117.628 18.8973L118.383 18.2413L117.727 17.4866L118.481 16.8305L114.545 12.3022L113.79 12.9583L113.134 12.2036L112.379 12.8597L111.723 12.1049L110.969 12.761L109.001 10.4969L111.265 8.5287L111.921 9.28341L112.675 8.62735L113.332 9.38206L114.086 8.726L114.742 9.48071L119.271 5.54435L118.614 4.78964L119.369 4.13358L118.713 3.37887L119.468 2.72281L118.812 1.9681L121.076 -7.2407e-05L123.044 2.26406L122.289 2.92012L122.945 3.67482L122.191 4.33088L122.847 5.08559L122.092 5.74165L126.028 10.2699L126.783 9.61385L127.439 10.3686L128.194 9.7125L128.85 10.4672L129.605 9.81115ZM123.108 11.4834L120.484 8.46454L117.465 11.0888L120.089 14.1076L123.108 11.4834ZM181.043 154.703L183.977 155.327L183.353 158.261L182.375 158.053L182.167 159.031L181.189 158.823L180.981 159.802L180.003 159.594L178.756 165.463L179.734 165.67L179.526 166.649L180.504 166.857L180.296 167.835L181.274 168.043L180.651 170.977L177.716 170.353L177.924 169.375L176.946 169.167L177.154 168.189L176.176 167.981L176.384 167.003L170.515 165.756L170.307 166.734L169.329 166.526L169.121 167.504L168.143 167.296L167.935 168.274L165 167.65L165.624 164.716L166.602 164.924L166.81 163.946L167.788 164.154L167.996 163.176L168.974 163.383L170.222 157.515L169.244 157.307L169.451 156.328L168.473 156.121L168.681 155.142L167.703 154.935L168.327 152L171.261 152.624L171.053 153.602L172.031 153.81L171.824 154.788L172.802 154.996L172.594 155.974L178.463 157.222L178.671 156.243L179.649 156.451L179.857 155.473L180.835 155.681L181.043 154.703ZM176.861 159.948L172.948 159.116L172.117 163.029L176.029 163.861L176.861 159.948ZM15.455 109L12.5573 109.777L12.8161 110.742L11.8502 111.001L12.109 111.967L11.1431 112.226L11.4019 113.192L5.60632 114.745L5.3475 113.779L4.38157 114.038L4.12275 113.072L3.15683 113.331L2.89801 112.365L0.00022976 113.141L0.77669 116.039L1.74261 115.78L2.00143 116.746L2.96735 116.487L3.22617 117.453L4.19211 117.194L5.74501 122.99L4.77909 123.249L5.03791 124.215L4.07198 124.473L4.3308 125.439L3.36488 125.698L4.14134 128.596L7.03911 127.82L6.7803 126.854L7.74622 126.595L7.4874 125.629L8.45333 125.37L8.19451 124.404L13.9901 122.851L14.2489 123.817L15.2148 123.558L15.4736 124.524L16.4395 124.265L16.6984 125.231L19.5961 124.455L18.8197 121.557L17.8538 121.816L17.5949 120.85L16.629 121.109L16.3702 120.143L15.4043 120.402L13.8514 114.606L14.8173 114.347L14.5585 113.381L15.5244 113.123L15.2656 112.157L16.2315 111.898L15.455 109ZM7.3487 117.384L11.2124 116.349L12.2477 120.212L8.38397 121.248L7.3487 117.384ZM95.1673 203.414C94.1253 204.32 92.5462 204.209 91.6404 203.167C90.7346 202.125 90.845 200.546 91.887 199.64C92.929 198.734 94.5081 198.845 95.4139 199.887C96.3197 200.929 96.2093 202.508 95.1673 203.414ZM23.6402 57.1672C24.5461 58.2092 26.1251 58.3196 27.1672 57.4138C28.2092 56.508 28.3196 54.9289 27.4138 53.8869C26.508 52.8448 24.9289 52.7344 23.8869 53.6402C22.8448 54.5461 22.7344 56.1251 23.6402 57.1672Z" fill="#F1F1F2"/>
</svg>
